# MagicaVoxel @ Ephtracy

# group
g buffalo_sep

# material
mtllib buffalo_sep.mtl
usemtl palette

# normals
vn -1 0 0
vn 1 0 0
vn 0 0 1
vn 0 0 -1
vn 0 -1 0
vn 0 1 0

# texcoords
vt 0.974609 0.5
vt 0.982422 0.5
vt 0.986328 0.5
vt 0.990234 0.5
vt 0.994141 0.5

# verts
v -11 7 1.5
v -11 7 0.5
v -11 8 0.5
v -11 8 -0.5
v -11 8 -1.5
v -11 8 -2.5
v -11 9 -0.5
v -11 9 -1.5
v -11 11 1.5
v -11 11 0.5
v -11 11 -1.5
v -11 11 -2.5
v -11 12 0.5
v -11 12 -0.5
v -11 13 -0.5
v -11 13 -1.5
v -11 16 0.5
v -11 16 -1.5
v -9 0 5.5
v -9 0 2.5
v -9 0 -3.5
v -9 0 -6.5
v -9 2 5.5
v -9 2 2.5
v -9 2 -3.5
v -9 2 -6.5
v -9 6 5.5
v -9 6 2.5
v -9 6 -3.5
v -9 6 -6.5
v -9 7 5.5
v -9 7 -6.5
v -9 15 0.5
v -9 15 -1.5
v -9 16 0.5
v -9 16 -1.5
v -9 17 5.5
v -9 17 -6.5
v 1 0 5.5
v 1 0 2.5
v 1 0 -3.5
v 1 0 -6.5
v 1 2 5.5
v 1 2 2.5
v 1 2 -3.5
v 1 2 -6.5
v 1 6 5.5
v 1 6 2.5
v 1 6 -3.5
v 1 6 -6.5
v 6 9 3.5
v 6 9 -4.5
v 6 14 5.5
v 6 14 3.5
v 6 14 -4.5
v 6 14 -6.5
v 6 15 6.5
v 6 15 5.5
v 6 15 -6.5
v 6 15 -7.5
v 6 16 7.5
v 6 16 6.5
v 6 16 -7.5
v 6 16 -8.5
v 6 17 8.5
v 6 17 7.5
v 6 17 6.5
v 6 17 5.5
v 6 17 3.5
v 6 17 2.5
v 6 17 -3.5
v 6 17 -4.5
v 6 17 -6.5
v 6 17 -7.5
v 6 17 -8.5
v 6 17 -9.5
v 6 18 7.5
v 6 18 6.5
v 6 18 5.5
v 6 18 2.5
v 6 18 -3.5
v 6 18 -6.5
v 6 18 -7.5
v 6 18 -8.5
v 6 19 8.5
v 6 19 7.5
v 6 19 -8.5
v 6 19 -9.5
v -10 7 1.5
v -10 7 0.5
v -10 8 0.5
v -10 8 -0.5
v -10 8 -1.5
v -10 8 -2.5
v -10 9 -0.5
v -10 9 -1.5
v -10 11 1.5
v -10 11 0.5
v -10 11 -1.5
v -10 11 -2.5
v -10 12 0.5
v -10 12 -0.5
v -10 13 -0.5
v -10 13 -1.5
v -10 15 0.5
v -10 15 -1.5
v -6 0 5.5
v -6 0 2.5
v -6 0 -3.5
v -6 0 -6.5
v -6 2 5.5
v -6 2 2.5
v -6 2 -3.5
v -6 2 -6.5
v -6 6 5.5
v -6 6 2.5
v -6 6 -3.5
v -6 6 -6.5
v 4 0 5.5
v 4 0 2.5
v 4 0 -3.5
v 4 0 -6.5
v 4 2 5.5
v 4 2 2.5
v 4 2 -3.5
v 4 2 -6.5
v 4 6 5.5
v 4 6 2.5
v 4 6 -3.5
v 4 6 -6.5
v 4 7 5.5
v 4 7 -6.5
v 4 8 3.5
v 4 8 -4.5
v 4 16 3.5
v 4 16 -4.5
v 4 17 5.5
v 4 17 -6.5
v 5 8 3.5
v 5 8 -4.5
v 5 16 3.5
v 5 16 -4.5
v 9 14 5.5
v 9 14 3.5
v 9 14 -4.5
v 9 14 -6.5
v 9 15 6.5
v 9 15 5.5
v 9 15 -6.5
v 9 15 -7.5
v 9 16 7.5
v 9 16 6.5
v 9 16 -7.5
v 9 16 -8.5
v 9 17 8.5
v 9 17 7.5
v 9 17 6.5
v 9 17 5.5
v 9 17 3.5
v 9 17 2.5
v 9 17 -3.5
v 9 17 -4.5
v 9 17 -6.5
v 9 17 -7.5
v 9 17 -8.5
v 9 17 -9.5
v 9 18 7.5
v 9 18 6.5
v 9 18 5.5
v 9 18 2.5
v 9 18 -3.5
v 9 18 -6.5
v 9 18 -7.5
v 9 18 -8.5
v 9 19 8.5
v 9 19 7.5
v 9 19 -8.5
v 9 19 -9.5
v 11 9 3.5
v 11 9 -4.5
v 11 11 0.5
v 11 11 -1.5
v 11 12 1.5
v 11 12 0.5
v 11 12 -1.5
v 11 12 -2.5
v 11 13 1.5
v 11 13 0.5
v 11 13 -1.5
v 11 13 -2.5
v 11 14 2.5
v 11 14 1.5
v 11 14 -2.5
v 11 14 -3.5
v 11 15 2.5
v 11 15 0.5
v 11 15 -1.5
v 11 15 -3.5
v 11 17 3.5
v 11 17 -4.5
v 12 11 0.5
v 12 11 -1.5
v 12 12 1.5
v 12 12 0.5
v 12 12 -1.5
v 12 12 -2.5
v 12 13 1.5
v 12 13 -2.5
v 6 17 8.5
v 6 19 8.5
v 9 17 8.5
v 9 19 8.5
v 6 16 7.5
v 6 17 7.5
v 9 16 7.5
v 9 17 7.5
v 6 15 6.5
v 6 16 6.5
v 9 15 6.5
v 9 16 6.5
v -9 0 5.5
v -9 2 5.5
v -9 6 5.5
v -9 7 5.5
v -9 17 5.5
v -6 0 5.5
v -6 2 5.5
v -6 6 5.5
v 1 0 5.5
v 1 2 5.5
v 1 6 5.5
v 4 0 5.5
v 4 2 5.5
v 4 6 5.5
v 4 7 5.5
v 4 17 5.5
v 6 14 5.5
v 6 15 5.5
v 6 17 5.5
v 6 18 5.5
v 9 14 5.5
v 9 15 5.5
v 9 17 5.5
v 9 18 5.5
v 4 8 3.5
v 4 16 3.5
v 5 8 3.5
v 5 16 3.5
v 6 9 3.5
v 6 14 3.5
v 9 14 3.5
v 9 17 3.5
v 11 9 3.5
v 11 17 3.5
v -11 7 1.5
v -11 11 1.5
v -10 7 1.5
v -10 11 1.5
v 11 12 1.5
v 11 13 1.5
v 12 12 1.5
v 12 13 1.5
v -11 11 0.5
v -11 12 0.5
v -11 16 0.5
v -10 11 0.5
v -10 12 0.5
v -10 15 0.5
v -9 15 0.5
v -9 16 0.5
v 11 11 0.5
v 11 12 0.5
v 12 11 0.5
v 12 12 0.5
v -11 8 -1.5
v -11 9 -1.5
v -10 8 -1.5
v -10 9 -1.5
v -9 0 -3.5
v -9 2 -3.5
v -9 6 -3.5
v -6 0 -3.5
v -6 2 -3.5
v -6 6 -3.5
v 1 0 -3.5
v 1 2 -3.5
v 1 6 -3.5
v 4 0 -3.5
v 4 2 -3.5
v 4 6 -3.5
v 6 17 -3.5
v 6 18 -3.5
v 9 17 -3.5
v 9 18 -3.5
v 6 17 -7.5
v 6 18 -7.5
v 9 17 -7.5
v 9 18 -7.5
v 6 18 -8.5
v 6 19 -8.5
v 9 18 -8.5
v 9 19 -8.5
v 6 18 7.5
v 6 19 7.5
v 9 18 7.5
v 9 19 7.5
v 6 17 6.5
v 6 18 6.5
v 9 17 6.5
v 9 18 6.5
v -9 0 2.5
v -9 2 2.5
v -9 6 2.5
v -6 0 2.5
v -6 2 2.5
v -6 6 2.5
v 1 0 2.5
v 1 2 2.5
v 1 6 2.5
v 4 0 2.5
v 4 2 2.5
v 4 6 2.5
v 6 17 2.5
v 6 18 2.5
v 9 17 2.5
v 9 18 2.5
v -11 7 0.5
v -11 8 0.5
v -10 7 0.5
v -10 8 0.5
v -11 8 -0.5
v -11 9 -0.5
v -10 8 -0.5
v -10 9 -0.5
v -11 11 -1.5
v -11 13 -1.5
v -11 16 -1.5
v -10 11 -1.5
v -10 13 -1.5
v -10 15 -1.5
v -9 15 -1.5
v -9 16 -1.5
v 11 11 -1.5
v 11 12 -1.5
v 12 11 -1.5
v 12 12 -1.5
v -11 8 -2.5
v -11 11 -2.5
v -10 8 -2.5
v -10 11 -2.5
v 11 12 -2.5
v 11 13 -2.5
v 12 12 -2.5
v 12 13 -2.5
v 4 8 -4.5
v 4 16 -4.5
v 5 8 -4.5
v 5 16 -4.5
v 6 9 -4.5
v 6 14 -4.5
v 9 14 -4.5
v 9 17 -4.5
v 11 9 -4.5
v 11 17 -4.5
v -9 0 -6.5
v -9 2 -6.5
v -9 6 -6.5
v -9 7 -6.5
v -9 17 -6.5
v -6 0 -6.5
v -6 2 -6.5
v -6 6 -6.5
v 1 0 -6.5
v 1 2 -6.5
v 1 6 -6.5
v 4 0 -6.5
v 4 2 -6.5
v 4 6 -6.5
v 4 7 -6.5
v 4 17 -6.5
v 6 14 -6.5
v 6 15 -6.5
v 6 17 -6.5
v 6 18 -6.5
v 9 14 -6.5
v 9 15 -6.5
v 9 17 -6.5
v 9 18 -6.5
v 6 15 -7.5
v 6 16 -7.5
v 9 15 -7.5
v 9 16 -7.5
v 6 16 -8.5
v 6 17 -8.5
v 9 16 -8.5
v 9 17 -8.5
v 6 17 -9.5
v 6 19 -9.5
v 9 17 -9.5
v 9 19 -9.5
v -9 0 5.5
v -6 0 5.5
v 1 0 5.5
v 4 0 5.5
v -9 0 2.5
v -6 0 2.5
v 1 0 2.5
v 4 0 2.5
v -9 0 -3.5
v -6 0 -3.5
v 1 0 -3.5
v 4 0 -3.5
v -9 0 -6.5
v -6 0 -6.5
v 1 0 -6.5
v 4 0 -6.5
v -9 7 5.5
v 4 7 5.5
v -11 7 1.5
v -10 7 1.5
v -11 7 0.5
v -10 7 0.5
v -9 7 -6.5
v 4 7 -6.5
v 4 8 3.5
v 5 8 3.5
v -11 8 0.5
v -10 8 0.5
v -11 8 -0.5
v -10 8 -0.5
v -11 8 -1.5
v -10 8 -1.5
v -11 8 -2.5
v -10 8 -2.5
v 4 8 -4.5
v 5 8 -4.5
v 6 9 3.5
v 11 9 3.5
v -11 9 -0.5
v -10 9 -0.5
v -11 9 -1.5
v -10 9 -1.5
v 6 9 -4.5
v 11 9 -4.5
v 11 11 0.5
v 12 11 0.5
v 11 11 -1.5
v 12 11 -1.5
v 11 12 1.5
v 12 12 1.5
v 11 12 0.5
v 12 12 0.5
v 11 12 -1.5
v 12 12 -1.5
v 11 12 -2.5
v 12 12 -2.5
v 6 14 5.5
v 9 14 5.5
v 6 14 3.5
v 9 14 3.5
v 6 14 -4.5
v 9 14 -4.5
v 6 14 -6.5
v 9 14 -6.5
v 6 15 6.5
v 9 15 6.5
v 6 15 5.5
v 9 15 5.5
v -10 15 0.5
v -9 15 0.5
v -10 15 -1.5
v -9 15 -1.5
v 6 15 -6.5
v 9 15 -6.5
v 6 15 -7.5
v 9 15 -7.5
v 6 16 7.5
v 9 16 7.5
v 6 16 6.5
v 9 16 6.5
v 6 16 -7.5
v 9 16 -7.5
v 6 16 -8.5
v 9 16 -8.5
v 6 17 8.5
v 9 17 8.5
v 6 17 7.5
v 9 17 7.5
v 6 17 -8.5
v 9 17 -8.5
v 6 17 -9.5
v 9 17 -9.5
v -9 6 5.5
v -6 6 5.5
v 1 6 5.5
v 4 6 5.5
v -9 6 2.5
v -6 6 2.5
v 1 6 2.5
v 4 6 2.5
v -9 6 -3.5
v -6 6 -3.5
v 1 6 -3.5
v 4 6 -3.5
v -9 6 -6.5
v -6 6 -6.5
v 1 6 -6.5
v 4 6 -6.5
v -11 11 1.5
v -10 11 1.5
v -11 11 0.5
v -10 11 0.5
v -11 11 -1.5
v -10 11 -1.5
v -11 11 -2.5
v -10 11 -2.5
v 11 13 1.5
v 12 13 1.5
v 11 13 0.5
v 11 13 -1.5
v 11 13 -2.5
v 12 13 -2.5
v 4 16 3.5
v 5 16 3.5
v -11 16 0.5
v -9 16 0.5
v -11 16 -1.5
v -9 16 -1.5
v 4 16 -4.5
v 5 16 -4.5
v 6 17 6.5
v 9 17 6.5
v -9 17 5.5
v 4 17 5.5
v 6 17 5.5
v 9 17 5.5
v 9 17 3.5
v 11 17 3.5
v 6 17 2.5
v 9 17 2.5
v 6 17 -3.5
v 9 17 -3.5
v 9 17 -4.5
v 11 17 -4.5
v -9 17 -6.5
v 4 17 -6.5
v 6 17 -6.5
v 9 17 -6.5
v 6 17 -7.5
v 9 17 -7.5
v 6 18 7.5
v 9 18 7.5
v 6 18 6.5
v 9 18 6.5
v 6 18 5.5
v 9 18 5.5
v 6 18 2.5
v 9 18 2.5
v 6 18 -3.5
v 9 18 -3.5
v 6 18 -6.5
v 9 18 -6.5
v 6 18 -7.5
v 9 18 -7.5
v 6 18 -8.5
v 9 18 -8.5
v 6 19 8.5
v 9 19 8.5
v 6 19 7.5
v 9 19 7.5
v 6 19 -8.5
v 9 19 -8.5
v 6 19 -9.5
v 9 19 -9.5

# faces
f 3/2/1 2/2/1 1/2/1
f 7/2/1 4/2/1 3/2/1
f 8/2/1 6/2/1 5/2/1
f 9/2/1 3/2/1 1/2/1
f 9/2/1 8/2/1 7/2/1
f 9/2/1 7/2/1 3/2/1
f 10/2/1 8/2/1 9/2/1
f 11/2/1 6/2/1 8/2/1
f 11/2/1 8/2/1 10/2/1
f 12/2/1 6/2/1 11/2/1
f 13/2/1 11/2/1 10/2/1
f 14/2/1 11/2/1 13/2/1
f 15/3/1 14/3/1 13/3/1
f 15/2/1 11/2/1 14/2/1
f 16/2/1 11/2/1 15/2/1
f 17/3/1 15/3/1 13/3/1
f 17/3/1 16/3/1 15/3/1
f 18/3/1 16/3/1 17/3/1
f 23/4/1 20/4/1 19/4/1
f 24/4/1 20/4/1 23/4/1
f 25/4/1 22/4/1 21/4/1
f 26/4/1 22/4/1 25/4/1
f 27/3/1 24/3/1 23/3/1
f 28/3/1 24/3/1 27/3/1
f 29/3/1 26/3/1 25/3/1
f 30/3/1 26/3/1 29/3/1
f 33/3/1 32/3/1 31/3/1
f 34/3/1 32/3/1 33/3/1
f 35/3/1 33/3/1 31/3/1
f 36/3/1 32/3/1 34/3/1
f 37/3/1 35/3/1 31/3/1
f 37/3/1 36/3/1 35/3/1
f 38/3/1 32/3/1 36/3/1
f 38/3/1 36/3/1 37/3/1
f 43/4/1 40/4/1 39/4/1
f 44/4/1 40/4/1 43/4/1
f 45/4/1 42/4/1 41/4/1
f 46/4/1 42/4/1 45/4/1
f 47/3/1 44/3/1 43/3/1
f 48/3/1 44/3/1 47/3/1
f 49/3/1 46/3/1 45/3/1
f 50/3/1 46/3/1 49/3/1
f 54/3/1 52/3/1 51/3/1
f 55/3/1 52/3/1 54/3/1
f 58/1/1 54/1/1 53/1/1
f 59/1/1 56/1/1 55/1/1
f 62/1/1 58/1/1 57/1/1
f 63/1/1 60/1/1 59/1/1
f 66/1/1 62/1/1 61/1/1
f 67/1/1 58/1/1 62/1/1
f 67/1/1 62/1/1 66/1/1
f 68/1/1 54/1/1 58/1/1
f 68/1/1 58/1/1 67/1/1
f 69/3/1 55/3/1 54/3/1
f 69/1/1 54/1/1 68/1/1
f 70/3/1 55/3/1 69/3/1
f 71/3/1 55/3/1 70/3/1
f 72/1/1 64/1/1 63/1/1
f 72/3/1 55/3/1 71/3/1
f 72/1/1 59/1/1 55/1/1
f 72/1/1 63/1/1 59/1/1
f 73/1/1 64/1/1 72/1/1
f 74/1/1 64/1/1 73/1/1
f 75/1/1 64/1/1 74/1/1
f 77/1/1 67/1/1 66/1/1
f 77/1/1 66/1/1 65/1/1
f 78/1/1 67/1/1 77/1/1
f 79/1/1 70/1/1 69/1/1
f 79/1/1 69/1/1 68/1/1
f 80/1/1 70/1/1 79/1/1
f 81/1/1 73/1/1 72/1/1
f 81/1/1 72/1/1 71/1/1
f 82/1/1 73/1/1 81/1/1
f 83/1/1 76/1/1 75/1/1
f 83/1/1 75/1/1 74/1/1
f 84/1/1 76/1/1 83/1/1
f 85/1/1 77/1/1 65/1/1
f 86/1/1 77/1/1 85/1/1
f 87/1/1 76/1/1 84/1/1
f 88/1/1 76/1/1 87/1/1
f 89/2/2 90/2/2 91/2/2
f 91/2/2 92/2/2 95/2/2
f 93/2/2 94/2/2 96/2/2
f 89/2/2 91/2/2 97/2/2
f 95/2/2 96/2/2 97/2/2
f 91/2/2 95/2/2 97/2/2
f 97/2/2 96/2/2 98/2/2
f 96/2/2 94/2/2 99/2/2
f 98/2/2 96/2/2 99/2/2
f 99/2/2 94/2/2 100/2/2
f 98/2/2 99/2/2 101/2/2
f 101/2/2 99/2/2 102/2/2
f 101/3/2 102/3/2 103/3/2
f 102/2/2 99/2/2 103/2/2
f 103/2/2 99/2/2 104/2/2
f 101/3/2 103/3/2 105/3/2
f 103/3/2 104/3/2 105/3/2
f 105/3/2 104/3/2 106/3/2
f 107/4/2 108/4/2 111/4/2
f 111/4/2 108/4/2 112/4/2
f 109/4/2 110/4/2 113/4/2
f 113/4/2 110/4/2 114/4/2
f 111/3/2 112/3/2 115/3/2
f 115/3/2 112/3/2 116/3/2
f 113/3/2 114/3/2 117/3/2
f 117/3/2 114/3/2 118/3/2
f 119/4/2 120/4/2 123/4/2
f 123/4/2 120/4/2 124/4/2
f 121/4/2 122/4/2 125/4/2
f 125/4/2 122/4/2 126/4/2
f 123/3/2 124/3/2 127/3/2
f 127/3/2 124/3/2 128/3/2
f 125/3/2 126/3/2 129/3/2
f 129/3/2 126/3/2 130/3/2
f 131/3/2 132/3/2 133/3/2
f 133/3/2 132/3/2 134/3/2
f 131/3/2 133/3/2 135/3/2
f 134/3/2 132/3/2 136/3/2
f 131/3/2 135/3/2 137/3/2
f 135/3/2 136/3/2 137/3/2
f 136/3/2 132/3/2 138/3/2
f 137/3/2 136/3/2 138/3/2
f 139/3/2 140/3/2 141/3/2
f 141/3/2 140/3/2 142/3/2
f 143/1/2 144/1/2 148/1/2
f 145/1/2 146/1/2 149/1/2
f 147/1/2 148/1/2 152/1/2
f 149/1/2 150/1/2 153/1/2
f 151/1/2 152/1/2 156/1/2
f 152/1/2 148/1/2 157/1/2
f 156/1/2 152/1/2 157/1/2
f 148/1/2 144/1/2 158/1/2
f 157/1/2 148/1/2 158/1/2
f 158/1/2 144/1/2 159/1/2
f 153/1/2 154/1/2 162/1/2
f 145/1/2 149/1/2 162/1/2
f 149/1/2 153/1/2 162/1/2
f 162/1/2 154/1/2 163/1/2
f 163/1/2 154/1/2 164/1/2
f 164/1/2 154/1/2 165/1/2
f 156/1/2 157/1/2 167/1/2
f 155/1/2 156/1/2 167/1/2
f 167/1/2 157/1/2 168/1/2
f 159/1/2 160/1/2 169/1/2
f 158/1/2 159/1/2 169/1/2
f 169/1/2 160/1/2 170/1/2
f 162/1/2 163/1/2 171/1/2
f 161/1/2 162/1/2 171/1/2
f 171/1/2 163/1/2 172/1/2
f 165/1/2 166/1/2 173/1/2
f 164/1/2 165/1/2 173/1/2
f 173/1/2 166/1/2 174/1/2
f 155/1/2 167/1/2 175/1/2
f 175/1/2 167/1/2 176/1/2
f 174/1/2 166/1/2 177/1/2
f 177/1/2 166/1/2 178/1/2
f 179/3/2 180/3/2 181/3/2
f 181/3/2 180/3/2 182/3/2
f 179/3/2 181/3/2 183/3/2
f 183/3/2 181/3/2 184/3/2
f 182/3/2 180/3/2 185/3/2
f 185/3/2 180/3/2 186/3/2
f 179/3/2 183/3/2 187/3/2
f 186/3/2 180/3/2 190/3/2
f 179/3/2 187/3/2 191/3/2
f 187/5/2 188/5/2 192/5/2
f 191/3/2 187/3/2 192/3/2
f 189/5/2 190/5/2 193/5/2
f 190/3/2 180/3/2 193/3/2
f 193/3/2 180/3/2 194/3/2
f 179/3/2 191/3/2 195/3/2
f 191/5/2 192/5/2 195/5/2
f 188/3/2 189/3/2 196/3/2
f 195/5/2 192/5/2 196/5/2
f 192/5/2 188/5/2 196/5/2
f 189/5/2 193/5/2 197/5/2
f 196/3/2 189/3/2 197/3/2
f 193/5/2 194/5/2 197/5/2
f 194/3/2 180/3/2 198/3/2
f 197/5/2 194/5/2 198/5/2
f 179/3/2 195/3/2 199/3/2
f 195/3/2 196/3/2 199/3/2
f 197/3/2 198/3/2 199/3/2
f 196/3/2 197/3/2 199/3/2
f 198/3/2 180/3/2 200/3/2
f 199/3/2 198/3/2 200/3/2
f 201/1/2 202/1/2 204/1/2
f 204/1/2 202/1/2 205/1/2
f 203/1/2 204/1/2 207/1/2
f 205/1/2 206/1/2 207/1/2
f 204/1/2 205/1/2 207/1/2
f 207/1/2 206/1/2 208/1/2
f 211/1/3 210/1/3 209/1/3
f 212/1/3 210/1/3 211/1/3
f 215/1/3 214/1/3 213/1/3
f 216/1/3 214/1/3 215/1/3
f 219/1/3 218/1/3 217/1/3
f 220/1/3 218/1/3 219/1/3
f 226/4/3 222/4/3 221/4/3
f 227/3/3 223/3/3 222/3/3
f 227/4/3 222/4/3 226/4/3
f 228/3/3 223/3/3 227/3/3
f 232/4/3 230/4/3 229/4/3
f 233/3/3 231/3/3 230/3/3
f 233/4/3 230/4/3 232/4/3
f 234/3/3 231/3/3 233/3/3
f 235/3/3 225/3/3 224/3/3
f 236/3/3 225/3/3 235/3/3
f 241/1/3 238/1/3 237/1/3
f 242/1/3 238/1/3 241/1/3
f 243/1/3 240/1/3 239/1/3
f 244/1/3 240/1/3 243/1/3
f 247/3/3 246/3/3 245/3/3
f 248/3/3 246/3/3 247/3/3
f 251/3/3 250/3/3 249/3/3
f 253/3/3 251/3/3 249/3/3
f 253/3/3 252/3/3 251/3/3
f 254/3/3 252/3/3 253/3/3
f 257/2/3 256/2/3 255/2/3
f 258/2/3 256/2/3 257/2/3
f 261/1/3 260/1/3 259/1/3
f 262/1/3 260/1/3 261/1/3
f 266/2/3 264/2/3 263/2/3
f 267/3/3 265/3/3 264/3/3
f 267/2/3 264/2/3 266/2/3
f 268/3/3 265/3/3 267/3/3
f 269/3/3 265/3/3 268/3/3
f 270/3/3 265/3/3 269/3/3
f 273/1/3 272/1/3 271/1/3
f 274/1/3 272/1/3 273/1/3
f 277/2/3 276/2/3 275/2/3
f 278/2/3 276/2/3 277/2/3
f 282/4/3 280/4/3 279/4/3
f 283/3/3 281/3/3 280/3/3
f 283/4/3 280/4/3 282/4/3
f 284/3/3 281/3/3 283/3/3
f 288/4/3 286/4/3 285/4/3
f 289/3/3 287/3/3 286/3/3
f 289/4/3 286/4/3 288/4/3
f 290/3/3 287/3/3 289/3/3
f 293/1/3 292/1/3 291/1/3
f 294/1/3 292/1/3 293/1/3
f 297/1/3 296/1/3 295/1/3
f 298/1/3 296/1/3 297/1/3
f 301/1/3 300/1/3 299/1/3
f 302/1/3 300/1/3 301/1/3
f 303/1/4 304/1/4 305/1/4
f 305/1/4 304/1/4 306/1/4
f 307/1/4 308/1/4 309/1/4
f 309/1/4 308/1/4 310/1/4
f 311/4/4 312/4/4 314/4/4
f 312/3/4 313/3/4 315/3/4
f 314/4/4 312/4/4 315/4/4
f 315/3/4 313/3/4 316/3/4
f 317/4/4 318/4/4 320/4/4
f 318/3/4 319/3/4 321/3/4
f 320/4/4 318/4/4 321/4/4
f 321/3/4 319/3/4 322/3/4
f 323/1/4 324/1/4 325/1/4
f 325/1/4 324/1/4 326/1/4
f 327/2/4 328/2/4 329/2/4
f 329/2/4 328/2/4 330/2/4
f 331/2/4 332/2/4 333/2/4
f 333/2/4 332/2/4 334/2/4
f 335/2/4 336/2/4 338/2/4
f 336/3/4 337/3/4 339/3/4
f 338/2/4 336/2/4 339/2/4
f 339/3/4 337/3/4 340/3/4
f 340/3/4 337/3/4 341/3/4
f 341/3/4 337/3/4 342/3/4
f 343/1/4 344/1/4 345/1/4
f 345/1/4 344/1/4 346/1/4
f 347/2/4 348/2/4 349/2/4
f 349/2/4 348/2/4 350/2/4
f 351/1/4 352/1/4 353/1/4
f 353/1/4 352/1/4 354/1/4
f 355/3/4 356/3/4 357/3/4
f 357/3/4 356/3/4 358/3/4
f 359/3/4 360/3/4 361/3/4
f 359/3/4 361/3/4 363/3/4
f 361/3/4 362/3/4 363/3/4
f 363/3/4 362/3/4 364/3/4
f 365/4/4 366/4/4 370/4/4
f 366/3/4 367/3/4 371/3/4
f 370/4/4 366/4/4 371/4/4
f 371/3/4 367/3/4 372/3/4
f 373/4/4 374/4/4 376/4/4
f 374/3/4 375/3/4 377/3/4
f 376/4/4 374/4/4 377/4/4
f 377/3/4 375/3/4 378/3/4
f 368/3/4 369/3/4 379/3/4
f 379/3/4 369/3/4 380/3/4
f 381/1/4 382/1/4 385/1/4
f 385/1/4 382/1/4 386/1/4
f 383/1/4 384/1/4 387/1/4
f 387/1/4 384/1/4 388/1/4
f 389/1/4 390/1/4 391/1/4
f 391/1/4 390/1/4 392/1/4
f 393/1/4 394/1/4 395/1/4
f 395/1/4 394/1/4 396/1/4
f 397/1/4 398/1/4 399/1/4
f 399/1/4 398/1/4 400/1/4
f 405/4/5 402/4/5 401/4/5
f 406/4/5 402/4/5 405/4/5
f 407/4/5 404/4/5 403/4/5
f 408/4/5 404/4/5 407/4/5
f 413/4/5 410/4/5 409/4/5
f 414/4/5 410/4/5 413/4/5
f 415/4/5 412/4/5 411/4/5
f 416/4/5 412/4/5 415/4/5
f 421/2/5 420/2/5 419/2/5
f 422/2/5 420/2/5 421/2/5
f 423/3/5 418/3/5 417/3/5
f 424/3/5 418/3/5 423/3/5
f 429/2/5 428/2/5 427/2/5
f 430/2/5 428/2/5 429/2/5
f 433/2/5 432/2/5 431/2/5
f 434/2/5 432/2/5 433/2/5
f 435/3/5 426/3/5 425/3/5
f 436/3/5 426/3/5 435/3/5
f 441/2/5 440/2/5 439/2/5
f 442/2/5 440/2/5 441/2/5
f 443/3/5 438/3/5 437/3/5
f 444/3/5 438/3/5 443/3/5
f 447/1/5 446/1/5 445/1/5
f 448/1/5 446/1/5 447/1/5
f 451/1/5 450/1/5 449/1/5
f 452/1/5 450/1/5 451/1/5
f 455/1/5 454/1/5 453/1/5
f 456/1/5 454/1/5 455/1/5
f 459/1/5 458/1/5 457/1/5
f 460/1/5 458/1/5 459/1/5
f 463/1/5 462/1/5 461/1/5
f 464/1/5 462/1/5 463/1/5
f 467/1/5 466/1/5 465/1/5
f 468/1/5 466/1/5 467/1/5
f 471/3/5 470/3/5 469/3/5
f 472/3/5 470/3/5 471/3/5
f 475/1/5 474/1/5 473/1/5
f 476/1/5 474/1/5 475/1/5
f 479/1/5 478/1/5 477/1/5
f 480/1/5 478/1/5 479/1/5
f 483/1/5 482/1/5 481/1/5
f 484/1/5 482/1/5 483/1/5
f 487/1/5 486/1/5 485/1/5
f 488/1/5 486/1/5 487/1/5
f 491/1/5 490/1/5 489/1/5
f 492/1/5 490/1/5 491/1/5
f 493/3/6 494/3/6 497/3/6
f 497/3/6 494/3/6 498/3/6
f 495/3/6 496/3/6 499/3/6
f 499/3/6 496/3/6 500/3/6
f 501/3/6 502/3/6 505/3/6
f 505/3/6 502/3/6 506/3/6
f 503/3/6 504/3/6 507/3/6
f 507/3/6 504/3/6 508/3/6
f 509/2/6 510/2/6 511/2/6
f 511/2/6 510/2/6 512/2/6
f 513/2/6 514/2/6 515/2/6
f 515/2/6 514/2/6 516/2/6
f 517/1/6 518/1/6 519/1/6
f 519/1/6 518/1/6 520/1/6
f 520/1/6 518/1/6 521/1/6
f 521/1/6 518/1/6 522/1/6
f 525/3/6 526/3/6 527/3/6
f 527/3/6 526/3/6 528/3/6
f 523/3/6 524/3/6 529/3/6
f 529/3/6 524/3/6 530/3/6
f 531/1/6 532/1/6 535/1/6
f 535/1/6 532/1/6 536/1/6
f 537/3/6 538/3/6 540/3/6
f 539/3/6 540/3/6 541/3/6
f 540/3/6 538/3/6 542/3/6
f 541/3/6 540/3/6 542/3/6
f 542/3/6 538/3/6 543/3/6
f 543/3/6 538/3/6 544/3/6
f 533/3/6 534/3/6 545/3/6
f 545/3/6 534/3/6 546/3/6
f 547/1/6 548/1/6 549/1/6
f 549/1/6 548/1/6 550/1/6
f 551/1/6 552/1/6 553/1/6
f 553/1/6 552/1/6 554/1/6
f 555/1/6 556/1/6 557/1/6
f 557/1/6 556/1/6 558/1/6
f 559/1/6 560/1/6 561/1/6
f 561/1/6 560/1/6 562/1/6
f 563/1/6 564/1/6 565/1/6
f 565/1/6 564/1/6 566/1/6
f 567/1/6 568/1/6 569/1/6
f 569/1/6 568/1/6 570/1/6
f 571/1/6 572/1/6 573/1/6
f 573/1/6 572/1/6 574/1/6
