# MagicaVoxel @ Ephtracy

# group
g buffalo

# material
mtllib buffalo.mtl
usemtl palette

# normals
vn -1 0 0
vn 1 0 0
vn 0 0 1
vn 0 0 -1
vn 0 -1 0
vn 0 1 0

# texcoords
vt 0.974609 0.5
vt 0.978516 0.5
vt 0.982422 0.5
vt 0.986328 0.5
vt 0.990234 0.5
vt 0.994141 0.5

# verts
v -10.5 3 2
v -10.5 3 1
v -10.5 4 1
v -10.5 4 -0
v -10.5 4 -1
v -10.5 4 -2
v -10.5 5 -0
v -10.5 5 -1
v -10.5 7 2
v -10.5 7 1
v -10.5 7 -1
v -10.5 7 -2
v -10.5 8 1
v -10.5 8 -0
v -10.5 9 -0
v -10.5 9 -1
v -10.5 12 1
v -10.5 12 -1
v -8.5 0 6
v -8.5 0 3
v -8.5 0 -3
v -8.5 0 -6
v -8.5 2 6
v -8.5 2 3
v -8.5 2 -3
v -8.5 2 -6
v -8.5 5 3
v -8.5 5 -3
v -8.5 11 1
v -8.5 11 -1
v -8.5 12 6
v -8.5 12 1
v -8.5 12 -1
v -8.5 12 -6
v 1.5 0 6
v 1.5 0 3
v 1.5 0 -3
v 1.5 0 -6
v 1.5 2 6
v 1.5 2 3
v 1.5 2 -3
v 1.5 2 -6
v 1.5 5 6
v 1.5 5 3
v 1.5 5 -3
v 1.5 5 -6
v 2.5 12 4
v 2.5 12 -4
v 2.5 19 4
v 2.5 19 -4
v 4.5 16 6
v 4.5 16 4
v 4.5 16 -4
v 4.5 16 -6
v 4.5 17 7
v 4.5 17 6
v 4.5 17 -6
v 4.5 17 -7
v 4.5 18 8
v 4.5 18 7
v 4.5 18 -7
v 4.5 18 -8
v 4.5 19 9
v 4.5 19 8
v 4.5 19 7
v 4.5 19 6
v 4.5 19 4
v 4.5 19 3
v 4.5 19 -3
v 4.5 19 -4
v 4.5 19 -6
v 4.5 19 -7
v 4.5 19 -8
v 4.5 19 -9
v 4.5 20 8
v 4.5 20 7
v 4.5 20 6
v 4.5 20 3
v 4.5 20 -3
v 4.5 20 -6
v 4.5 20 -7
v 4.5 20 -8
v 4.5 21 9
v 4.5 21 8
v 4.5 21 -8
v 4.5 21 -9
v -9.5 3 2
v -9.5 3 1
v -9.5 4 1
v -9.5 4 -0
v -9.5 4 -1
v -9.5 4 -2
v -9.5 5 -0
v -9.5 5 -1
v -9.5 7 2
v -9.5 7 1
v -9.5 7 -1
v -9.5 7 -2
v -9.5 8 1
v -9.5 8 -0
v -9.5 9 -0
v -9.5 9 -1
v -9.5 11 1
v -9.5 11 -1
v -5.5 0 6
v -5.5 0 3
v -5.5 0 -3
v -5.5 0 -6
v -5.5 2 6
v -5.5 2 3
v -5.5 2 -3
v -5.5 2 -6
v -5.5 5 6
v -5.5 5 3
v -5.5 5 -3
v -5.5 5 -6
v 4.5 0 6
v 4.5 0 3
v 4.5 0 -3
v 4.5 0 -6
v 4.5 2 6
v 4.5 2 3
v 4.5 2 -3
v 4.5 2 -6
v 4.5 5 3
v 4.5 5 -3
v 4.5 11 4
v 4.5 11 -4
v 4.5 12 6
v 4.5 12 4
v 4.5 12 -4
v 4.5 12 -6
v 7.5 16 6
v 7.5 16 4
v 7.5 16 -4
v 7.5 16 -6
v 7.5 17 7
v 7.5 17 6
v 7.5 17 -6
v 7.5 17 -7
v 7.5 18 8
v 7.5 18 7
v 7.5 18 -7
v 7.5 18 -8
v 7.5 19 9
v 7.5 19 8
v 7.5 19 7
v 7.5 19 6
v 7.5 19 4
v 7.5 19 3
v 7.5 19 -3
v 7.5 19 -4
v 7.5 19 -6
v 7.5 19 -7
v 7.5 19 -8
v 7.5 19 -9
v 7.5 20 8
v 7.5 20 7
v 7.5 20 6
v 7.5 20 3
v 7.5 20 -3
v 7.5 20 -6
v 7.5 20 -7
v 7.5 20 -8
v 7.5 21 9
v 7.5 21 8
v 7.5 21 -8
v 7.5 21 -9
v 9.5 11 4
v 9.5 11 -4
v 9.5 12 3
v 9.5 12 -3
v 9.5 13 2
v 9.5 13 1
v 9.5 13 -1
v 9.5 13 -2
v 9.5 14 2
v 9.5 14 1
v 9.5 14 -1
v 9.5 14 -2
v 9.5 15 3
v 9.5 15 2
v 9.5 15 1
v 9.5 15 -1
v 9.5 15 -2
v 9.5 15 -3
v 9.5 16 3
v 9.5 16 2
v 9.5 16 -2
v 9.5 16 -3
v 9.5 17 3
v 9.5 17 1
v 9.5 17 -1
v 9.5 17 -3
v 9.5 19 4
v 9.5 19 -4
v 10.5 12 3
v 10.5 12 -3
v 10.5 13 2
v 10.5 13 1
v 10.5 13 -1
v 10.5 13 -2
v 10.5 14 2
v 10.5 14 1
v 10.5 14 -1
v 10.5 14 -2
v 10.5 15 3
v 10.5 15 -3
v 4.5 19 9
v 4.5 21 9
v 7.5 19 9
v 7.5 21 9
v 4.5 18 8
v 4.5 19 8
v 7.5 18 8
v 7.5 19 8
v 4.5 17 7
v 4.5 18 7
v 7.5 17 7
v 7.5 18 7
v -8.5 0 6
v -8.5 2 6
v -8.5 12 6
v -5.5 0 6
v -5.5 2 6
v -5.5 5 6
v 1.5 0 6
v 1.5 2 6
v 1.5 5 6
v 4.5 0 6
v 4.5 2 6
v 4.5 12 6
v 4.5 16 6
v 4.5 17 6
v 4.5 19 6
v 4.5 20 6
v 7.5 16 6
v 7.5 17 6
v 7.5 19 6
v 7.5 20 6
v 2.5 12 4
v 2.5 19 4
v 4.5 11 4
v 4.5 12 4
v 4.5 16 4
v 4.5 19 4
v 7.5 16 4
v 7.5 19 4
v 9.5 11 4
v 9.5 19 4
v 9.5 12 3
v 9.5 15 3
v 10.5 12 3
v 10.5 15 3
v -10.5 3 2
v -10.5 7 2
v -9.5 3 2
v -9.5 7 2
v -10.5 7 1
v -10.5 8 1
v -10.5 12 1
v -9.5 7 1
v -9.5 8 1
v -9.5 11 1
v -8.5 11 1
v -8.5 12 1
v 9.5 13 1
v 9.5 14 1
v 10.5 13 1
v 10.5 14 1
v -10.5 4 -1
v -10.5 5 -1
v -9.5 4 -1
v -9.5 5 -1
v 9.5 13 -2
v 9.5 14 -2
v 10.5 13 -2
v 10.5 14 -2
v -8.5 0 -3
v -8.5 2 -3
v -8.5 5 -3
v -5.5 0 -3
v -5.5 2 -3
v -5.5 5 -3
v 1.5 0 -3
v 1.5 2 -3
v 1.5 5 -3
v 4.5 0 -3
v 4.5 2 -3
v 4.5 5 -3
v 4.5 19 -3
v 4.5 20 -3
v 7.5 19 -3
v 7.5 20 -3
v 4.5 19 -7
v 4.5 20 -7
v 7.5 19 -7
v 7.5 20 -7
v 4.5 20 -8
v 4.5 21 -8
v 7.5 20 -8
v 7.5 21 -8
v 4.5 20 8
v 4.5 21 8
v 7.5 20 8
v 7.5 21 8
v 4.5 19 7
v 4.5 20 7
v 7.5 19 7
v 7.5 20 7
v -8.5 0 3
v -8.5 2 3
v -8.5 5 3
v -5.5 0 3
v -5.5 2 3
v -5.5 5 3
v 1.5 0 3
v 1.5 2 3
v 1.5 5 3
v 4.5 0 3
v 4.5 2 3
v 4.5 5 3
v 4.5 19 3
v 4.5 20 3
v 7.5 19 3
v 7.5 20 3
v 9.5 13 2
v 9.5 14 2
v 10.5 13 2
v 10.5 14 2
v -10.5 3 1
v -10.5 4 1
v -9.5 3 1
v -9.5 4 1
v -10.5 4 -0
v -10.5 5 -0
v -9.5 4 -0
v -9.5 5 -0
v -10.5 7 -1
v -10.5 9 -1
v -10.5 12 -1
v -9.5 7 -1
v -9.5 9 -1
v -9.5 11 -1
v -8.5 11 -1
v -8.5 12 -1
v 9.5 13 -1
v 9.5 14 -1
v 10.5 13 -1
v 10.5 14 -1
v -10.5 4 -2
v -10.5 7 -2
v -9.5 4 -2
v -9.5 7 -2
v 9.5 12 -3
v 9.5 15 -3
v 10.5 12 -3
v 10.5 15 -3
v 2.5 12 -4
v 2.5 19 -4
v 4.5 11 -4
v 4.5 12 -4
v 4.5 16 -4
v 4.5 19 -4
v 7.5 16 -4
v 7.5 19 -4
v 9.5 11 -4
v 9.5 19 -4
v -8.5 0 -6
v -8.5 2 -6
v -8.5 12 -6
v -5.5 0 -6
v -5.5 2 -6
v -5.5 5 -6
v 1.5 0 -6
v 1.5 2 -6
v 1.5 5 -6
v 4.5 0 -6
v 4.5 2 -6
v 4.5 12 -6
v 4.5 16 -6
v 4.5 17 -6
v 4.5 19 -6
v 4.5 20 -6
v 7.5 16 -6
v 7.5 17 -6
v 7.5 19 -6
v 7.5 20 -6
v 4.5 17 -7
v 4.5 18 -7
v 7.5 17 -7
v 7.5 18 -7
v 4.5 18 -8
v 4.5 19 -8
v 7.5 18 -8
v 7.5 19 -8
v 4.5 19 -9
v 4.5 21 -9
v 7.5 19 -9
v 7.5 21 -9
v -8.5 0 6
v -5.5 0 6
v 1.5 0 6
v 4.5 0 6
v -8.5 0 3
v -5.5 0 3
v 1.5 0 3
v 4.5 0 3
v -8.5 0 -3
v -5.5 0 -3
v 1.5 0 -3
v 4.5 0 -3
v -8.5 0 -6
v -5.5 0 -6
v 1.5 0 -6
v 4.5 0 -6
v -10.5 3 2
v -9.5 3 2
v -10.5 3 1
v -9.5 3 1
v -10.5 4 1
v -9.5 4 1
v -10.5 4 -0
v -9.5 4 -0
v -10.5 4 -1
v -9.5 4 -1
v -10.5 4 -2
v -9.5 4 -2
v -5.5 5 6
v 1.5 5 6
v -8.5 5 3
v -5.5 5 3
v 1.5 5 3
v 4.5 5 3
v -10.5 5 -0
v -9.5 5 -0
v -10.5 5 -1
v -9.5 5 -1
v -8.5 5 -3
v -5.5 5 -3
v 1.5 5 -3
v 4.5 5 -3
v -5.5 5 -6
v 1.5 5 -6
v 4.5 11 4
v 9.5 11 4
v -9.5 11 1
v -8.5 11 1
v -9.5 11 -1
v -8.5 11 -1
v 4.5 11 -4
v 9.5 11 -4
v 9.5 12 3
v 10.5 12 3
v 9.5 12 -3
v 10.5 12 -3
v 9.5 14 2
v 10.5 14 2
v 9.5 14 1
v 10.5 14 1
v 9.5 14 -1
v 10.5 14 -1
v 9.5 14 -2
v 10.5 14 -2
v 4.5 16 6
v 7.5 16 6
v 4.5 16 4
v 7.5 16 4
v 4.5 16 -4
v 7.5 16 -4
v 4.5 16 -6
v 7.5 16 -6
v 4.5 17 7
v 7.5 17 7
v 4.5 17 6
v 7.5 17 6
v 4.5 17 -6
v 7.5 17 -6
v 4.5 17 -7
v 7.5 17 -7
v 4.5 18 8
v 7.5 18 8
v 4.5 18 7
v 7.5 18 7
v 4.5 18 -7
v 7.5 18 -7
v 4.5 18 -8
v 7.5 18 -8
v 4.5 19 9
v 7.5 19 9
v 4.5 19 8
v 7.5 19 8
v 4.5 19 -8
v 7.5 19 -8
v 4.5 19 -9
v 7.5 19 -9
v -10.5 7 2
v -9.5 7 2
v -10.5 7 1
v -9.5 7 1
v -10.5 7 -1
v -9.5 7 -1
v -10.5 7 -2
v -9.5 7 -2
v -8.5 12 6
v 4.5 12 6
v 2.5 12 4
v 4.5 12 4
v -10.5 12 1
v -8.5 12 1
v -10.5 12 -1
v -8.5 12 -1
v 2.5 12 -4
v 4.5 12 -4
v -8.5 12 -6
v 4.5 12 -6
v 9.5 13 2
v 10.5 13 2
v 9.5 13 1
v 10.5 13 1
v 9.5 13 -1
v 10.5 13 -1
v 9.5 13 -2
v 10.5 13 -2
v 9.5 15 3
v 10.5 15 3
v 9.5 15 2
v 9.5 15 1
v 9.5 15 -1
v 9.5 15 -2
v 9.5 15 -3
v 10.5 15 -3
v 4.5 19 7
v 7.5 19 7
v 4.5 19 6
v 7.5 19 6
v 2.5 19 4
v 4.5 19 4
v 7.5 19 4
v 9.5 19 4
v 4.5 19 3
v 7.5 19 3
v 4.5 19 -3
v 7.5 19 -3
v 2.5 19 -4
v 4.5 19 -4
v 7.5 19 -4
v 9.5 19 -4
v 4.5 19 -6
v 7.5 19 -6
v 4.5 19 -7
v 7.5 19 -7
v 4.5 20 8
v 7.5 20 8
v 4.5 20 7
v 7.5 20 7
v 4.5 20 6
v 7.5 20 6
v 4.5 20 3
v 7.5 20 3
v 4.5 20 -3
v 7.5 20 -3
v 4.5 20 -6
v 7.5 20 -6
v 4.5 20 -7
v 7.5 20 -7
v 4.5 20 -8
v 7.5 20 -8
v 4.5 21 9
v 7.5 21 9
v 4.5 21 8
v 7.5 21 8
v 4.5 21 -8
v 7.5 21 -8
v 4.5 21 -9
v 7.5 21 -9

# faces
f 3/3/1 2/3/1 1/3/1
f 7/3/1 4/3/1 3/3/1
f 8/3/1 6/3/1 5/3/1
f 9/3/1 3/3/1 1/3/1
f 9/3/1 8/3/1 7/3/1
f 9/3/1 7/3/1 3/3/1
f 10/3/1 8/3/1 9/3/1
f 11/3/1 6/3/1 8/3/1
f 11/3/1 8/3/1 10/3/1
f 12/3/1 6/3/1 11/3/1
f 13/3/1 11/3/1 10/3/1
f 14/3/1 11/3/1 13/3/1
f 15/4/1 14/4/1 13/4/1
f 15/3/1 11/3/1 14/3/1
f 16/3/1 11/3/1 15/3/1
f 17/4/1 15/4/1 13/4/1
f 17/4/1 16/4/1 15/4/1
f 18/4/1 16/4/1 17/4/1
f 23/5/1 20/5/1 19/5/1
f 24/5/1 20/5/1 23/5/1
f 25/5/1 22/5/1 21/5/1
f 26/5/1 22/5/1 25/5/1
f 27/4/1 24/4/1 23/4/1
f 28/4/1 26/4/1 25/4/1
f 29/4/1 28/4/1 27/4/1
f 30/4/1 28/4/1 29/4/1
f 31/4/1 27/4/1 23/4/1
f 31/4/1 29/4/1 27/4/1
f 32/4/1 29/4/1 31/4/1
f 33/4/1 28/4/1 30/4/1
f 34/4/1 26/4/1 28/4/1
f 34/4/1 28/4/1 33/4/1
f 39/5/1 36/5/1 35/5/1
f 40/5/1 36/5/1 39/5/1
f 41/5/1 38/5/1 37/5/1
f 42/5/1 38/5/1 41/5/1
f 43/4/1 40/4/1 39/4/1
f 44/4/1 40/4/1 43/4/1
f 45/4/1 42/4/1 41/4/1
f 46/4/1 42/4/1 45/4/1
f 49/4/1 48/4/1 47/4/1
f 50/4/1 48/4/1 49/4/1
f 56/1/1 52/1/1 51/1/1
f 57/1/1 54/1/1 53/1/1
f 60/1/1 56/1/1 55/1/1
f 61/1/1 58/1/1 57/1/1
f 64/1/1 60/1/1 59/1/1
f 65/1/1 56/1/1 60/1/1
f 65/1/1 60/1/1 64/1/1
f 66/1/1 52/1/1 56/1/1
f 66/1/1 56/1/1 65/1/1
f 67/1/1 52/1/1 66/1/1
f 70/1/1 62/1/1 61/1/1
f 70/1/1 57/1/1 53/1/1
f 70/1/1 61/1/1 57/1/1
f 71/1/1 62/1/1 70/1/1
f 72/1/1 62/1/1 71/1/1
f 73/1/1 62/1/1 72/1/1
f 75/1/1 65/1/1 64/1/1
f 75/1/1 64/1/1 63/1/1
f 76/1/1 65/1/1 75/1/1
f 77/1/1 68/1/1 67/1/1
f 77/1/1 67/1/1 66/1/1
f 78/1/1 68/1/1 77/1/1
f 79/1/1 71/1/1 70/1/1
f 79/1/1 70/1/1 69/1/1
f 80/1/1 71/1/1 79/1/1
f 81/1/1 74/1/1 73/1/1
f 81/1/1 73/1/1 72/1/1
f 82/1/1 74/1/1 81/1/1
f 83/1/1 75/1/1 63/1/1
f 84/1/1 75/1/1 83/1/1
f 85/1/1 74/1/1 82/1/1
f 86/1/1 74/1/1 85/1/1
f 87/3/2 88/3/2 89/3/2
f 89/3/2 90/3/2 93/3/2
f 91/3/2 92/3/2 94/3/2
f 87/3/2 89/3/2 95/3/2
f 93/3/2 94/3/2 95/3/2
f 89/3/2 93/3/2 95/3/2
f 95/3/2 94/3/2 96/3/2
f 94/3/2 92/3/2 97/3/2
f 96/3/2 94/3/2 97/3/2
f 97/3/2 92/3/2 98/3/2
f 96/3/2 97/3/2 99/3/2
f 99/3/2 97/3/2 100/3/2
f 99/4/2 100/4/2 101/4/2
f 100/3/2 97/3/2 101/3/2
f 101/3/2 97/3/2 102/3/2
f 99/4/2 101/4/2 103/4/2
f 101/4/2 102/4/2 103/4/2
f 103/4/2 102/4/2 104/4/2
f 105/5/2 106/5/2 109/5/2
f 109/5/2 106/5/2 110/5/2
f 107/5/2 108/5/2 111/5/2
f 111/5/2 108/5/2 112/5/2
f 109/4/2 110/4/2 113/4/2
f 113/4/2 110/4/2 114/4/2
f 111/4/2 112/4/2 115/4/2
f 115/4/2 112/4/2 116/4/2
f 117/5/2 118/5/2 121/5/2
f 121/5/2 118/5/2 122/5/2
f 119/5/2 120/5/2 123/5/2
f 123/5/2 120/5/2 124/5/2
f 121/4/2 122/4/2 125/4/2
f 123/4/2 124/4/2 126/4/2
f 121/4/2 125/4/2 127/4/2
f 125/4/2 126/4/2 127/4/2
f 126/4/2 124/4/2 128/4/2
f 127/4/2 126/4/2 128/4/2
f 121/4/2 127/4/2 129/4/2
f 129/4/2 127/4/2 130/4/2
f 128/4/2 124/4/2 131/4/2
f 131/4/2 124/4/2 132/4/2
f 133/1/2 134/1/2 138/1/2
f 135/1/2 136/1/2 139/1/2
f 137/1/2 138/1/2 142/1/2
f 139/1/2 140/1/2 143/1/2
f 141/1/2 142/1/2 146/1/2
f 142/1/2 138/1/2 147/1/2
f 146/1/2 142/1/2 147/1/2
f 138/1/2 134/1/2 148/1/2
f 147/1/2 138/1/2 148/1/2
f 148/1/2 134/1/2 149/1/2
f 143/1/2 144/1/2 152/1/2
f 135/1/2 139/1/2 152/1/2
f 139/1/2 143/1/2 152/1/2
f 152/1/2 144/1/2 153/1/2
f 153/1/2 144/1/2 154/1/2
f 154/1/2 144/1/2 155/1/2
f 146/1/2 147/1/2 157/1/2
f 145/1/2 146/1/2 157/1/2
f 157/1/2 147/1/2 158/1/2
f 149/1/2 150/1/2 159/1/2
f 148/1/2 149/1/2 159/1/2
f 159/1/2 150/1/2 160/1/2
f 152/1/2 153/1/2 161/1/2
f 151/1/2 152/1/2 161/1/2
f 161/1/2 153/1/2 162/1/2
f 155/1/2 156/1/2 163/1/2
f 154/1/2 155/1/2 163/1/2
f 163/1/2 156/1/2 164/1/2
f 145/1/2 157/1/2 165/1/2
f 165/1/2 157/1/2 166/1/2
f 164/1/2 156/1/2 167/1/2
f 167/1/2 156/1/2 168/1/2
f 169/4/2 170/4/2 171/4/2
f 171/4/2 170/4/2 172/4/2
f 173/4/2 174/4/2 177/4/2
f 177/4/2 174/4/2 178/4/2
f 175/4/2 176/4/2 179/4/2
f 179/4/2 176/4/2 180/4/2
f 169/4/2 171/4/2 181/4/2
f 172/4/2 170/4/2 186/4/2
f 169/4/2 181/4/2 187/4/2
f 181/4/2 182/4/2 187/4/2
f 182/6/2 183/6/2 188/6/2
f 187/4/2 182/4/2 188/4/2
f 184/6/2 185/6/2 189/6/2
f 185/4/2 186/4/2 189/4/2
f 186/4/2 170/4/2 190/4/2
f 189/4/2 186/4/2 190/4/2
f 187/6/2 188/6/2 191/6/2
f 169/4/2 187/4/2 191/4/2
f 188/6/2 183/6/2 192/6/2
f 191/6/2 188/6/2 192/6/2
f 183/4/2 184/4/2 192/4/2
f 184/6/2 189/6/2 193/6/2
f 192/4/2 184/4/2 193/4/2
f 189/6/2 190/6/2 193/6/2
f 190/4/2 170/4/2 194/4/2
f 193/6/2 190/6/2 194/6/2
f 169/4/2 191/4/2 195/4/2
f 192/4/2 193/4/2 195/4/2
f 193/4/2 194/4/2 195/4/2
f 191/4/2 192/4/2 195/4/2
f 194/4/2 170/4/2 196/4/2
f 195/4/2 194/4/2 196/4/2
f 197/2/2 198/2/2 199/2/2
f 199/2/2 198/2/2 200/2/2
f 200/2/2 198/2/2 201/2/2
f 201/2/2 198/2/2 202/2/2
f 197/2/2 199/2/2 203/2/2
f 200/2/2 201/2/2 204/2/2
f 204/2/2 201/2/2 205/2/2
f 202/2/2 198/2/2 206/2/2
f 204/2/2 205/2/2 207/2/2
f 205/2/2 206/2/2 207/2/2
f 197/2/2 203/2/2 207/2/2
f 203/2/2 204/2/2 207/2/2
f 206/2/2 198/2/2 208/2/2
f 207/2/2 206/2/2 208/2/2
f 211/1/3 210/1/3 209/1/3
f 212/1/3 210/1/3 211/1/3
f 215/1/3 214/1/3 213/1/3
f 216/1/3 214/1/3 215/1/3
f 219/1/3 218/1/3 217/1/3
f 220/1/3 218/1/3 219/1/3
f 224/5/3 222/5/3 221/5/3
f 225/4/3 223/4/3 222/4/3
f 225/5/3 222/5/3 224/5/3
f 226/4/3 223/4/3 225/4/3
f 229/4/3 223/4/3 226/4/3
f 230/5/3 228/5/3 227/5/3
f 231/4/3 229/4/3 228/4/3
f 231/5/3 228/5/3 230/5/3
f 232/4/3 223/4/3 229/4/3
f 232/4/3 229/4/3 231/4/3
f 237/1/3 234/1/3 233/1/3
f 238/1/3 234/1/3 237/1/3
f 239/1/3 236/1/3 235/1/3
f 240/1/3 236/1/3 239/1/3
f 244/4/3 242/4/3 241/4/3
f 245/4/3 242/4/3 244/4/3
f 246/4/3 242/4/3 245/4/3
f 247/4/3 244/4/3 243/4/3
f 247/4/3 245/4/3 244/4/3
f 249/4/3 247/4/3 243/4/3
f 249/4/3 248/4/3 247/4/3
f 250/4/3 248/4/3 249/4/3
f 253/2/3 252/2/3 251/2/3
f 254/2/3 252/2/3 253/2/3
f 257/3/3 256/3/3 255/3/3
f 258/3/3 256/3/3 257/3/3
f 262/3/3 260/3/3 259/3/3
f 263/4/3 261/4/3 260/4/3
f 263/3/3 260/3/3 262/3/3
f 264/4/3 261/4/3 263/4/3
f 265/4/3 261/4/3 264/4/3
f 266/4/3 261/4/3 265/4/3
f 269/2/3 268/2/3 267/2/3
f 270/2/3 268/2/3 269/2/3
f 273/3/3 272/3/3 271/3/3
f 274/3/3 272/3/3 273/3/3
f 277/2/3 276/2/3 275/2/3
f 278/2/3 276/2/3 277/2/3
f 282/5/3 280/5/3 279/5/3
f 283/4/3 281/4/3 280/4/3
f 283/5/3 280/5/3 282/5/3
f 284/4/3 281/4/3 283/4/3
f 288/5/3 286/5/3 285/5/3
f 289/4/3 287/4/3 286/4/3
f 289/5/3 286/5/3 288/5/3
f 290/4/3 287/4/3 289/4/3
f 293/1/3 292/1/3 291/1/3
f 294/1/3 292/1/3 293/1/3
f 297/1/3 296/1/3 295/1/3
f 298/1/3 296/1/3 297/1/3
f 301/1/3 300/1/3 299/1/3
f 302/1/3 300/1/3 301/1/3
f 303/1/4 304/1/4 305/1/4
f 305/1/4 304/1/4 306/1/4
f 307/1/4 308/1/4 309/1/4
f 309/1/4 308/1/4 310/1/4
f 311/5/4 312/5/4 314/5/4
f 312/4/4 313/4/4 315/4/4
f 314/5/4 312/5/4 315/5/4
f 315/4/4 313/4/4 316/4/4
f 317/5/4 318/5/4 320/5/4
f 318/4/4 319/4/4 321/4/4
f 320/5/4 318/5/4 321/5/4
f 321/4/4 319/4/4 322/4/4
f 323/1/4 324/1/4 325/1/4
f 325/1/4 324/1/4 326/1/4
f 327/2/4 328/2/4 329/2/4
f 329/2/4 328/2/4 330/2/4
f 331/3/4 332/3/4 333/3/4
f 333/3/4 332/3/4 334/3/4
f 335/3/4 336/3/4 337/3/4
f 337/3/4 336/3/4 338/3/4
f 339/3/4 340/3/4 342/3/4
f 340/4/4 341/4/4 343/4/4
f 342/3/4 340/3/4 343/3/4
f 343/4/4 341/4/4 344/4/4
f 344/4/4 341/4/4 345/4/4
f 345/4/4 341/4/4 346/4/4
f 347/2/4 348/2/4 349/2/4
f 349/2/4 348/2/4 350/2/4
f 351/3/4 352/3/4 353/3/4
f 353/3/4 352/3/4 354/3/4
f 355/2/4 356/2/4 357/2/4
f 357/2/4 356/2/4 358/2/4
f 359/4/4 360/4/4 362/4/4
f 362/4/4 360/4/4 363/4/4
f 363/4/4 360/4/4 364/4/4
f 361/4/4 362/4/4 365/4/4
f 362/4/4 363/4/4 365/4/4
f 361/4/4 365/4/4 367/4/4
f 365/4/4 366/4/4 367/4/4
f 367/4/4 366/4/4 368/4/4
f 369/5/4 370/5/4 372/5/4
f 370/4/4 371/4/4 373/4/4
f 372/5/4 370/5/4 373/5/4
f 373/4/4 371/4/4 374/4/4
f 374/4/4 371/4/4 377/4/4
f 375/5/4 376/5/4 378/5/4
f 376/4/4 377/4/4 379/4/4
f 378/5/4 376/5/4 379/5/4
f 377/4/4 371/4/4 380/4/4
f 379/4/4 377/4/4 380/4/4
f 381/1/4 382/1/4 385/1/4
f 385/1/4 382/1/4 386/1/4
f 383/1/4 384/1/4 387/1/4
f 387/1/4 384/1/4 388/1/4
f 389/1/4 390/1/4 391/1/4
f 391/1/4 390/1/4 392/1/4
f 393/1/4 394/1/4 395/1/4
f 395/1/4 394/1/4 396/1/4
f 397/1/4 398/1/4 399/1/4
f 399/1/4 398/1/4 400/1/4
f 405/5/5 402/5/5 401/5/5
f 406/5/5 402/5/5 405/5/5
f 407/5/5 404/5/5 403/5/5
f 408/5/5 404/5/5 407/5/5
f 413/5/5 410/5/5 409/5/5
f 414/5/5 410/5/5 413/5/5
f 415/5/5 412/5/5 411/5/5
f 416/5/5 412/5/5 415/5/5
f 419/3/5 418/3/5 417/3/5
f 420/3/5 418/3/5 419/3/5
f 423/3/5 422/3/5 421/3/5
f 424/3/5 422/3/5 423/3/5
f 427/3/5 426/3/5 425/3/5
f 428/3/5 426/3/5 427/3/5
f 432/4/5 430/4/5 429/4/5
f 433/4/5 430/4/5 432/4/5
f 437/3/5 436/3/5 435/3/5
f 438/3/5 436/3/5 437/3/5
f 439/4/5 432/4/5 431/4/5
f 439/4/5 433/4/5 432/4/5
f 439/4/5 434/4/5 433/4/5
f 440/4/5 434/4/5 439/4/5
f 441/4/5 434/4/5 440/4/5
f 442/4/5 434/4/5 441/4/5
f 443/4/5 441/4/5 440/4/5
f 444/4/5 441/4/5 443/4/5
f 449/4/5 448/4/5 447/4/5
f 450/4/5 448/4/5 449/4/5
f 451/4/5 446/4/5 445/4/5
f 452/4/5 446/4/5 451/4/5
f 455/2/5 454/2/5 453/2/5
f 456/2/5 454/2/5 455/2/5
f 459/2/5 458/2/5 457/2/5
f 460/2/5 458/2/5 459/2/5
f 463/2/5 462/2/5 461/2/5
f 464/2/5 462/2/5 463/2/5
f 467/1/5 466/1/5 465/1/5
f 468/1/5 466/1/5 467/1/5
f 471/1/5 470/1/5 469/1/5
f 472/1/5 470/1/5 471/1/5
f 475/1/5 474/1/5 473/1/5
f 476/1/5 474/1/5 475/1/5
f 479/1/5 478/1/5 477/1/5
f 480/1/5 478/1/5 479/1/5
f 483/1/5 482/1/5 481/1/5
f 484/1/5 482/1/5 483/1/5
f 487/1/5 486/1/5 485/1/5
f 488/1/5 486/1/5 487/1/5
f 491/1/5 490/1/5 489/1/5
f 492/1/5 490/1/5 491/1/5
f 495/1/5 494/1/5 493/1/5
f 496/1/5 494/1/5 495/1/5
f 497/3/6 498/3/6 499/3/6
f 499/3/6 498/3/6 500/3/6
f 501/3/6 502/3/6 503/3/6
f 503/3/6 502/3/6 504/3/6
f 505/4/6 506/4/6 507/4/6
f 507/4/6 506/4/6 508/4/6
f 505/4/6 507/4/6 510/4/6
f 509/4/6 510/4/6 511/4/6
f 510/4/6 507/4/6 512/4/6
f 511/4/6 510/4/6 512/4/6
f 512/4/6 507/4/6 513/4/6
f 512/4/6 513/4/6 515/4/6
f 513/4/6 514/4/6 515/4/6
f 515/4/6 514/4/6 516/4/6
f 517/2/6 518/2/6 519/2/6
f 519/2/6 518/2/6 520/2/6
f 521/2/6 522/2/6 523/2/6
f 523/2/6 522/2/6 524/2/6
f 525/2/6 526/2/6 527/2/6
f 527/2/6 526/2/6 528/2/6
f 528/2/6 526/2/6 529/2/6
f 529/2/6 526/2/6 530/2/6
f 530/2/6 526/2/6 531/2/6
f 531/2/6 526/2/6 532/2/6
f 533/1/6 534/1/6 535/1/6
f 535/1/6 534/1/6 536/1/6
f 537/4/6 538/4/6 541/4/6
f 539/4/6 540/4/6 542/4/6
f 537/4/6 541/4/6 543/4/6
f 541/4/6 542/4/6 543/4/6
f 542/4/6 540/4/6 544/4/6
f 543/4/6 542/4/6 544/4/6
f 537/4/6 543/4/6 545/4/6
f 545/4/6 543/4/6 546/4/6
f 544/4/6 540/4/6 547/4/6
f 547/4/6 540/4/6 548/4/6
f 549/1/6 550/1/6 551/1/6
f 551/1/6 550/1/6 552/1/6
f 553/1/6 554/1/6 555/1/6
f 555/1/6 554/1/6 556/1/6
f 557/1/6 558/1/6 559/1/6
f 559/1/6 558/1/6 560/1/6
f 561/1/6 562/1/6 563/1/6
f 563/1/6 562/1/6 564/1/6
f 565/1/6 566/1/6 567/1/6
f 567/1/6 566/1/6 568/1/6
f 569/1/6 570/1/6 571/1/6
f 571/1/6 570/1/6 572/1/6
f 573/1/6 574/1/6 575/1/6
f 575/1/6 574/1/6 576/1/6
