# MagicaVoxel @ Ephtracy

# group
g pig_sep

# material
mtllib pig_sep.mtl
usemtl palette

# normals
vn -1 0 0
vn 1 0 0
vn 0 0 1
vn 0 0 -1
vn 0 -1 0
vn 0 1 0

# texcoords
vt 0.0292969 0.5
vt 0.0488281 0.5
vt 0.0527344 0.5
vt 0.951172 0.5
vt 0.958984 0.5

# verts
v -9.5 6 2.5
v -9.5 6 -2.5
v -9.5 7 1.5
v -9.5 7 0.5
v -9.5 7 -0.5
v -9.5 7 -1.5
v -9.5 9 1.5
v -9.5 9 0.5
v -9.5 9 -0.5
v -9.5 9 -1.5
v -9.5 10 2.5
v -9.5 10 -2.5
v -8.5 7 1.5
v -8.5 7 0.5
v -8.5 7 -0.5
v -8.5 7 -1.5
v -8.5 9 1.5
v -8.5 9 0.5
v -8.5 9 -0.5
v -8.5 9 -1.5
v -7.5 0 7.5
v -7.5 0 3.5
v -7.5 0 -3.5
v -7.5 0 -7.5
v -7.5 1 7.5
v -7.5 1 3.5
v -7.5 1 -3.5
v -7.5 1 -7.5
v -7.5 2 7.5
v -7.5 2 3.5
v -7.5 2 -3.5
v -7.5 2 -7.5
v -7.5 3 7.5
v -7.5 3 -7.5
v -7.5 6 2.5
v -7.5 6 -2.5
v -7.5 10 2.5
v -7.5 10 -2.5
v -7.5 11 4.5
v -7.5 11 2.5
v -7.5 11 1.5
v -7.5 11 -1.5
v -7.5 11 -3.5
v -7.5 11 -4.5
v -7.5 13 4.5
v -7.5 13 2.5
v -7.5 13 -1.5
v -7.5 13 -3.5
v -7.5 14 4.5
v -7.5 14 1.5
v -7.5 14 -1.5
v -7.5 14 -4.5
v -7.5 16 6.5
v -7.5 16 4.5
v -7.5 16 3.5
v -7.5 16 -3.5
v -7.5 16 -4.5
v -7.5 16 -6.5
v -7.5 17 6.5
v -7.5 17 4.5
v -7.5 17 -4.5
v -7.5 17 -6.5
v -7.5 18 7.5
v -7.5 18 3.5
v -7.5 18 -3.5
v -7.5 18 -7.5
v -4.5 7 6.5
v -4.5 7 3.5
v -4.5 15 6.5
v -4.5 15 3.5
v 3.5 0 7.5
v 3.5 0 3.5
v 3.5 0 -3.5
v 3.5 0 -7.5
v 3.5 1 7.5
v 3.5 1 3.5
v 3.5 1 -3.5
v 3.5 1 -7.5
v 3.5 2 7.5
v 3.5 2 3.5
v 3.5 2 -3.5
v 3.5 2 -7.5
v 6.5 6 6.5
v 6.5 6 3.5
v 6.5 6 1.5
v 6.5 6 -6.5
v 6.5 7 6.5
v 6.5 7 3.5
v 6.5 15 1.5
v 6.5 15 -6.5
v 7.5 16 0.5
v 7.5 16 -2.5
v 7.5 16 -3.5
v 7.5 16 -4.5
v 7.5 17 0.5
v 7.5 17 -1.5
v 7.5 17 -2.5
v 7.5 17 -3.5
v 7.5 18 -3.5
v 7.5 18 -4.5
v 7.5 19 -1.5
v 7.5 19 -3.5
v -6.5 6 6.5
v -6.5 6 3.5
v -6.5 11 4.5
v -6.5 11 3.5
v -6.5 13 4.5
v -6.5 13 3.5
v -6.5 14 4.5
v -6.5 14 3.5
v -6.5 15 6.5
v -6.5 15 3.5
v -3.5 0 7.5
v -3.5 0 3.5
v -3.5 0 -3.5
v -3.5 0 -7.5
v -3.5 1 7.5
v -3.5 1 3.5
v -3.5 1 -3.5
v -3.5 1 -7.5
v -3.5 2 7.5
v -3.5 2 3.5
v -3.5 2 -3.5
v -3.5 2 -7.5
v -3.5 6 1.5
v -3.5 6 -6.5
v -3.5 7 1.5
v -3.5 7 -3.5
v -3.5 15 -3.5
v -3.5 15 -6.5
v -3.5 16 7.5
v -3.5 16 3.5
v -3.5 16 -3.5
v -3.5 16 -7.5
v -3.5 18 7.5
v -3.5 18 3.5
v -3.5 18 -3.5
v -3.5 18 -7.5
v -2.5 7 1.5
v -2.5 7 -3.5
v -2.5 15 1.5
v -2.5 15 -3.5
v 7.5 0 7.5
v 7.5 0 3.5
v 7.5 0 -3.5
v 7.5 0 -7.5
v 7.5 1 7.5
v 7.5 1 3.5
v 7.5 1 -3.5
v 7.5 1 -7.5
v 7.5 2 7.5
v 7.5 2 3.5
v 7.5 2 -3.5
v 7.5 2 -7.5
v 7.5 3 7.5
v 7.5 3 -7.5
v 7.5 10 1.5
v 7.5 10 -1.5
v 7.5 12 1.5
v 7.5 12 -1.5
v 7.5 15 1.5
v 7.5 15 0.5
v 7.5 15 -1.5
v 7.5 15 -2.5
v 7.5 15 -4.5
v 7.5 15 -5.5
v 7.5 16 7.5
v 7.5 16 0.5
v 7.5 16 -2.5
v 7.5 16 -3.5
v 7.5 16 -4.5
v 7.5 16 -5.5
v 7.5 16 -7.5
v 8.5 10 1.5
v 8.5 10 -1.5
v 8.5 12 1.5
v 8.5 12 -1.5
v 8.5 15 1.5
v 8.5 15 0.5
v 8.5 15 -1.5
v 8.5 15 -2.5
v 8.5 15 -4.5
v 8.5 15 -5.5
v 8.5 16 -3.5
v 8.5 16 -4.5
v 8.5 16 -5.5
v 8.5 17 0.5
v 8.5 17 -1.5
v 8.5 17 -2.5
v 8.5 17 -3.5
v 8.5 18 -3.5
v 8.5 18 -4.5
v 8.5 19 -1.5
v 8.5 19 -3.5
v -7.5 0 7.5
v -7.5 1 7.5
v -7.5 2 7.5
v -7.5 3 7.5
v -7.5 18 7.5
v -3.5 0 7.5
v -3.5 1 7.5
v -3.5 2 7.5
v -3.5 16 7.5
v -3.5 18 7.5
v 3.5 0 7.5
v 3.5 1 7.5
v 3.5 2 7.5
v 7.5 0 7.5
v 7.5 1 7.5
v 7.5 2 7.5
v 7.5 3 7.5
v 7.5 16 7.5
v -6.5 6 3.5
v -6.5 11 3.5
v -6.5 13 3.5
v -6.5 14 3.5
v -6.5 15 3.5
v -4.5 7 3.5
v -4.5 15 3.5
v 6.5 6 3.5
v 6.5 7 3.5
v -9.5 6 2.5
v -9.5 10 2.5
v -7.5 6 2.5
v -7.5 10 2.5
v 7.5 10 1.5
v 7.5 12 1.5
v 7.5 15 1.5
v 8.5 10 1.5
v 8.5 12 1.5
v 8.5 15 1.5
v -9.5 7 0.5
v -9.5 9 0.5
v -8.5 7 0.5
v -8.5 9 0.5
v 7.5 15 0.5
v 7.5 16 0.5
v 7.5 17 0.5
v 8.5 15 0.5
v 8.5 17 0.5
v -9.5 7 -1.5
v -9.5 9 -1.5
v -8.5 7 -1.5
v -8.5 9 -1.5
v 7.5 17 -1.5
v 7.5 19 -1.5
v 8.5 17 -1.5
v 8.5 19 -1.5
v -7.5 0 -3.5
v -7.5 1 -3.5
v -7.5 2 -3.5
v -7.5 16 -3.5
v -7.5 18 -3.5
v -3.5 0 -3.5
v -3.5 1 -3.5
v -3.5 2 -3.5
v -3.5 16 -3.5
v -3.5 18 -3.5
v 3.5 0 -3.5
v 3.5 1 -3.5
v 3.5 2 -3.5
v 7.5 0 -3.5
v 7.5 1 -3.5
v 7.5 2 -3.5
v 7.5 16 -3.5
v 7.5 17 -3.5
v 8.5 16 -3.5
v 8.5 17 -3.5
v 7.5 15 -4.5
v 7.5 16 -4.5
v 8.5 15 -4.5
v 8.5 16 -4.5
v -3.5 6 -6.5
v -3.5 15 -6.5
v 6.5 6 -6.5
v 6.5 15 -6.5
v -6.5 6 6.5
v -6.5 15 6.5
v -4.5 7 6.5
v -4.5 15 6.5
v 6.5 6 6.5
v 6.5 7 6.5
v -7.5 0 3.5
v -7.5 1 3.5
v -7.5 2 3.5
v -7.5 16 3.5
v -7.5 18 3.5
v -3.5 0 3.5
v -3.5 1 3.5
v -3.5 2 3.5
v -3.5 16 3.5
v -3.5 18 3.5
v 3.5 0 3.5
v 3.5 1 3.5
v 3.5 2 3.5
v 7.5 0 3.5
v 7.5 1 3.5
v 7.5 2 3.5
v -9.5 7 1.5
v -9.5 9 1.5
v -8.5 7 1.5
v -8.5 9 1.5
v -3.5 6 1.5
v -3.5 7 1.5
v -2.5 7 1.5
v -2.5 15 1.5
v 6.5 6 1.5
v 6.5 15 1.5
v -9.5 7 -0.5
v -9.5 9 -0.5
v -8.5 7 -0.5
v -8.5 9 -0.5
v 7.5 10 -1.5
v 7.5 12 -1.5
v 7.5 15 -1.5
v 8.5 10 -1.5
v 8.5 12 -1.5
v 8.5 15 -1.5
v -9.5 6 -2.5
v -9.5 10 -2.5
v -7.5 6 -2.5
v -7.5 10 -2.5
v 7.5 15 -2.5
v 7.5 16 -2.5
v 7.5 17 -2.5
v 8.5 15 -2.5
v 8.5 17 -2.5
v -3.5 7 -3.5
v -3.5 15 -3.5
v -2.5 7 -3.5
v -2.5 15 -3.5
v 7.5 18 -3.5
v 7.5 19 -3.5
v 8.5 18 -3.5
v 8.5 19 -3.5
v 7.5 16 -4.5
v 7.5 18 -4.5
v 8.5 16 -4.5
v 8.5 18 -4.5
v 7.5 15 -5.5
v 7.5 16 -5.5
v 8.5 15 -5.5
v 8.5 16 -5.5
v -7.5 0 -7.5
v -7.5 1 -7.5
v -7.5 2 -7.5
v -7.5 3 -7.5
v -7.5 18 -7.5
v -3.5 0 -7.5
v -3.5 1 -7.5
v -3.5 2 -7.5
v -3.5 16 -7.5
v -3.5 18 -7.5
v 3.5 0 -7.5
v 3.5 1 -7.5
v 3.5 2 -7.5
v 7.5 0 -7.5
v 7.5 1 -7.5
v 7.5 2 -7.5
v 7.5 3 -7.5
v 7.5 16 -7.5
v -7.5 0 7.5
v -3.5 0 7.5
v 3.5 0 7.5
v 7.5 0 7.5
v -7.5 0 3.5
v -3.5 0 3.5
v 3.5 0 3.5
v 7.5 0 3.5
v -7.5 0 -3.5
v -3.5 0 -3.5
v 3.5 0 -3.5
v 7.5 0 -3.5
v -7.5 0 -7.5
v -3.5 0 -7.5
v 3.5 0 -7.5
v 7.5 0 -7.5
v -7.5 3 7.5
v 7.5 3 7.5
v -7.5 3 -7.5
v 7.5 3 -7.5
v -9.5 6 2.5
v -7.5 6 2.5
v -9.5 6 -2.5
v -7.5 6 -2.5
v -4.5 7 6.5
v 6.5 7 6.5
v -4.5 7 3.5
v 6.5 7 3.5
v -3.5 7 1.5
v -2.5 7 1.5
v -3.5 7 -3.5
v -2.5 7 -3.5
v -9.5 9 1.5
v -8.5 9 1.5
v -9.5 9 0.5
v -8.5 9 0.5
v -9.5 9 -0.5
v -8.5 9 -0.5
v -9.5 9 -1.5
v -8.5 9 -1.5
v 7.5 10 1.5
v 8.5 10 1.5
v 7.5 10 -1.5
v 8.5 10 -1.5
v -6.5 15 6.5
v -4.5 15 6.5
v -6.5 15 3.5
v -4.5 15 3.5
v -2.5 15 1.5
v 6.5 15 1.5
v 7.5 15 -1.5
v 8.5 15 -1.5
v 7.5 15 -2.5
v 8.5 15 -2.5
v -3.5 15 -3.5
v -2.5 15 -3.5
v 7.5 15 -4.5
v 8.5 15 -4.5
v 7.5 15 -5.5
v 8.5 15 -5.5
v -3.5 15 -6.5
v 6.5 15 -6.5
v 7.5 16 -3.5
v 8.5 16 -3.5
v 7.5 16 -4.5
v 8.5 16 -4.5
v 7.5 17 -2.5
v 8.5 17 -2.5
v 7.5 17 -3.5
v 8.5 17 -3.5
v -7.5 2 7.5
v -3.5 2 7.5
v 3.5 2 7.5
v 7.5 2 7.5
v -7.5 2 3.5
v -3.5 2 3.5
v 3.5 2 3.5
v 7.5 2 3.5
v -7.5 2 -3.5
v -3.5 2 -3.5
v 3.5 2 -3.5
v 7.5 2 -3.5
v -7.5 2 -7.5
v -3.5 2 -7.5
v 3.5 2 -7.5
v 7.5 2 -7.5
v -6.5 6 6.5
v 6.5 6 6.5
v -6.5 6 3.5
v 6.5 6 3.5
v -3.5 6 1.5
v 6.5 6 1.5
v -3.5 6 -6.5
v 6.5 6 -6.5
v -9.5 7 1.5
v -8.5 7 1.5
v -9.5 7 0.5
v -8.5 7 0.5
v -9.5 7 -0.5
v -8.5 7 -0.5
v -9.5 7 -1.5
v -8.5 7 -1.5
v -9.5 10 2.5
v -7.5 10 2.5
v -9.5 10 -2.5
v -7.5 10 -2.5
v 7.5 15 1.5
v 8.5 15 1.5
v 7.5 15 0.5
v 8.5 15 0.5
v -3.5 16 7.5
v 7.5 16 7.5
v -7.5 16 3.5
v -3.5 16 3.5
v 7.5 16 0.5
v 7.5 16 -2.5
v -7.5 16 -3.5
v -3.5 16 -3.5
v 7.5 16 -3.5
v 7.5 16 -4.5
v 8.5 16 -4.5
v 7.5 16 -5.5
v 8.5 16 -5.5
v -3.5 16 -7.5
v 7.5 16 -7.5
v 7.5 17 0.5
v 8.5 17 0.5
v 7.5 17 -1.5
v 8.5 17 -1.5
v -7.5 18 7.5
v -3.5 18 7.5
v -7.5 18 3.5
v -3.5 18 3.5
v -7.5 18 -3.5
v -3.5 18 -3.5
v 7.5 18 -3.5
v 8.5 18 -3.5
v 7.5 18 -4.5
v 8.5 18 -4.5
v -7.5 18 -7.5
v -3.5 18 -7.5
v 7.5 19 -1.5
v 8.5 19 -1.5
v 7.5 19 -3.5
v 8.5 19 -3.5

# faces
f 3/1/1 2/1/1 1/1/1
f 4/1/1 2/1/1 3/1/1
f 5/1/1 2/1/1 4/1/1
f 6/1/1 2/1/1 5/1/1
f 7/1/1 3/1/1 1/1/1
f 8/1/1 5/1/1 4/1/1
f 9/1/1 5/1/1 8/1/1
f 10/1/1 2/1/1 6/1/1
f 11/1/1 9/1/1 8/1/1
f 11/1/1 10/1/1 9/1/1
f 11/1/1 7/1/1 1/1/1
f 11/1/1 8/1/1 7/1/1
f 12/1/1 2/1/1 10/1/1
f 12/1/1 10/1/1 11/1/1
f 17/3/1 14/3/1 13/3/1
f 18/3/1 14/3/1 17/3/1
f 19/3/1 16/3/1 15/3/1
f 20/3/1 16/3/1 19/3/1
f 25/1/1 22/1/1 21/1/1
f 26/1/1 22/1/1 25/1/1
f 27/1/1 24/1/1 23/1/1
f 28/1/1 24/1/1 27/1/1
f 29/3/1 26/3/1 25/3/1
f 30/3/1 26/3/1 29/3/1
f 31/3/1 28/3/1 27/3/1
f 32/3/1 28/3/1 31/3/1
f 35/3/1 34/3/1 33/3/1
f 36/3/1 34/3/1 35/3/1
f 37/3/1 35/3/1 33/3/1
f 38/3/1 34/3/1 36/3/1
f 39/3/1 37/3/1 33/3/1
f 39/3/1 38/3/1 37/3/1
f 40/3/1 38/3/1 39/3/1
f 41/3/1 38/3/1 40/3/1
f 42/3/1 38/3/1 41/3/1
f 43/3/1 34/3/1 38/3/1
f 43/3/1 38/3/1 42/3/1
f 44/3/1 34/3/1 43/3/1
f 45/3/1 39/3/1 33/3/1
f 45/4/1 40/4/1 39/4/1
f 46/5/1 41/5/1 40/5/1
f 46/4/1 40/4/1 45/4/1
f 47/3/1 42/3/1 41/3/1
f 47/4/1 43/4/1 42/4/1
f 48/5/1 44/5/1 43/5/1
f 48/4/1 43/4/1 47/4/1
f 49/3/1 45/3/1 33/3/1
f 49/5/1 46/5/1 45/5/1
f 50/5/1 41/5/1 46/5/1
f 50/5/1 46/5/1 49/5/1
f 50/3/1 47/3/1 41/3/1
f 51/5/1 48/5/1 47/5/1
f 51/3/1 47/3/1 50/3/1
f 52/3/1 34/3/1 44/3/1
f 52/5/1 48/5/1 51/5/1
f 52/5/1 44/5/1 48/5/1
f 53/3/1 49/3/1 33/3/1
f 53/3/1 51/3/1 50/3/1
f 53/3/1 52/3/1 51/3/1
f 53/3/1 50/3/1 49/3/1
f 54/3/1 52/3/1 53/3/1
f 55/3/1 52/3/1 54/3/1
f 56/3/1 52/3/1 55/3/1
f 57/3/1 34/3/1 52/3/1
f 57/3/1 52/3/1 56/3/1
f 58/3/1 34/3/1 57/3/1
f 59/3/1 53/3/1 33/3/1
f 59/1/1 54/1/1 53/1/1
f 60/3/1 55/3/1 54/3/1
f 60/1/1 54/1/1 59/1/1
f 61/1/1 58/1/1 57/1/1
f 61/3/1 57/3/1 56/3/1
f 62/3/1 34/3/1 58/3/1
f 62/1/1 58/1/1 61/1/1
f 63/3/1 60/3/1 59/3/1
f 63/3/1 59/3/1 33/3/1
f 64/3/1 55/3/1 60/3/1
f 64/3/1 60/3/1 63/3/1
f 65/3/1 61/3/1 56/3/1
f 65/3/1 62/3/1 61/3/1
f 66/3/1 34/3/1 62/3/1
f 66/3/1 62/3/1 65/3/1
f 69/3/1 68/3/1 67/3/1
f 70/3/1 68/3/1 69/3/1
f 75/1/1 72/1/1 71/1/1
f 76/1/1 72/1/1 75/1/1
f 77/1/1 74/1/1 73/1/1
f 78/1/1 74/1/1 77/1/1
f 79/3/1 76/3/1 75/3/1
f 80/3/1 76/3/1 79/3/1
f 81/3/1 78/3/1 77/3/1
f 82/3/1 78/3/1 81/3/1
f 87/3/1 84/3/1 83/3/1
f 88/3/1 84/3/1 87/3/1
f 89/3/1 86/3/1 85/3/1
f 90/3/1 86/3/1 89/3/1
f 95/3/1 92/3/1 91/3/1
f 96/3/1 92/3/1 95/3/1
f 97/3/1 92/3/1 96/3/1
f 98/3/1 94/3/1 93/3/1
f 99/3/1 97/3/1 96/3/1
f 99/3/1 98/3/1 97/3/1
f 99/3/1 94/3/1 98/3/1
f 100/3/1 94/3/1 99/3/1
f 101/3/1 99/3/1 96/3/1
f 102/3/1 99/3/1 101/3/1
f 103/3/2 104/3/2 105/3/2
f 105/3/2 104/3/2 106/3/2
f 103/3/2 105/3/2 107/3/2
f 105/4/2 106/4/2 107/4/2
f 107/4/2 106/4/2 108/4/2
f 103/3/2 107/3/2 109/3/2
f 107/5/2 108/5/2 109/5/2
f 109/5/2 108/5/2 110/5/2
f 103/3/2 109/3/2 111/3/2
f 109/3/2 110/3/2 111/3/2
f 111/3/2 110/3/2 112/3/2
f 113/1/2 114/1/2 117/1/2
f 117/1/2 114/1/2 118/1/2
f 115/1/2 116/1/2 119/1/2
f 119/1/2 116/1/2 120/1/2
f 117/3/2 118/3/2 121/3/2
f 121/3/2 118/3/2 122/3/2
f 119/3/2 120/3/2 123/3/2
f 123/3/2 120/3/2 124/3/2
f 125/3/2 126/3/2 127/3/2
f 127/3/2 126/3/2 128/3/2
f 128/3/2 126/3/2 129/3/2
f 129/3/2 126/3/2 130/3/2
f 131/3/2 132/3/2 135/3/2
f 135/3/2 132/3/2 136/3/2
f 133/3/2 134/3/2 137/3/2
f 137/3/2 134/3/2 138/3/2
f 139/3/2 140/3/2 141/3/2
f 141/3/2 140/3/2 142/3/2
f 143/1/2 144/1/2 147/1/2
f 147/1/2 144/1/2 148/1/2
f 145/1/2 146/1/2 149/1/2
f 149/1/2 146/1/2 150/1/2
f 147/3/2 148/3/2 151/3/2
f 151/3/2 148/3/2 152/3/2
f 149/3/2 150/3/2 153/3/2
f 153/3/2 150/3/2 154/3/2
f 155/3/2 156/3/2 157/3/2
f 157/3/2 156/3/2 158/3/2
f 155/3/2 157/3/2 159/3/2
f 158/3/2 156/3/2 160/3/2
f 155/3/2 159/3/2 161/3/2
f 160/3/2 156/3/2 163/3/2
f 163/3/2 156/3/2 164/3/2
f 164/3/2 156/3/2 165/3/2
f 165/3/2 156/3/2 166/3/2
f 161/3/2 162/3/2 167/3/2
f 155/3/2 161/3/2 167/3/2
f 167/3/2 162/3/2 168/3/2
f 164/3/2 165/3/2 169/3/2
f 169/3/2 165/3/2 170/3/2
f 170/3/2 165/3/2 171/3/2
f 166/3/2 156/3/2 172/3/2
f 172/3/2 156/3/2 173/3/2
f 174/1/2 175/1/2 176/1/2
f 176/1/2 175/1/2 177/1/2
f 176/3/2 177/3/2 178/3/2
f 178/3/2 177/3/2 179/3/2
f 179/3/2 177/3/2 180/3/2
f 182/3/2 183/3/2 185/3/2
f 185/3/2 183/3/2 186/3/2
f 179/3/2 180/3/2 187/3/2
f 180/3/2 181/3/2 187/3/2
f 187/3/2 181/3/2 188/3/2
f 188/3/2 181/3/2 189/3/2
f 184/3/2 185/3/2 190/3/2
f 188/3/2 189/3/2 191/3/2
f 189/3/2 190/3/2 191/3/2
f 190/3/2 185/3/2 191/3/2
f 191/3/2 185/3/2 192/3/2
f 188/3/2 191/3/2 193/3/2
f 193/3/2 191/3/2 194/3/2
f 200/1/3 196/1/3 195/1/3
f 201/3/3 197/3/3 196/3/3
f 201/1/3 196/1/3 200/1/3
f 202/3/3 197/3/3 201/3/3
f 203/3/3 199/3/3 198/3/3
f 204/3/3 199/3/3 203/3/3
f 208/1/3 206/1/3 205/1/3
f 209/3/3 207/3/3 206/3/3
f 209/1/3 206/1/3 208/1/3
f 210/3/3 207/3/3 209/3/3
f 211/3/3 203/3/3 198/3/3
f 212/3/3 203/3/3 211/3/3
f 218/3/3 214/3/3 213/3/3
f 218/3/3 217/3/3 216/3/3
f 218/3/3 216/3/3 215/3/3
f 218/3/3 215/3/3 214/3/3
f 219/3/3 217/3/3 218/3/3
f 220/3/3 218/3/3 213/3/3
f 221/3/3 218/3/3 220/3/3
f 224/1/3 223/1/3 222/1/3
f 225/1/3 223/1/3 224/1/3
f 229/1/3 227/1/3 226/1/3
f 230/3/3 228/3/3 227/3/3
f 230/1/3 227/1/3 229/1/3
f 231/3/3 228/3/3 230/3/3
f 234/1/3 233/1/3 232/1/3
f 235/1/3 233/1/3 234/1/3
f 239/3/3 237/3/3 236/3/3
f 239/3/3 238/3/3 237/3/3
f 240/3/3 238/3/3 239/3/3
f 243/1/3 242/1/3 241/1/3
f 244/1/3 242/1/3 243/1/3
f 247/3/3 246/3/3 245/3/3
f 248/3/3 246/3/3 247/3/3
f 254/1/3 250/1/3 249/1/3
f 255/3/3 251/3/3 250/3/3
f 255/1/3 250/1/3 254/1/3
f 256/3/3 251/3/3 255/3/3
f 257/3/3 253/3/3 252/3/3
f 258/3/3 253/3/3 257/3/3
f 262/1/3 260/1/3 259/1/3
f 263/3/3 261/3/3 260/3/3
f 263/1/3 260/1/3 262/1/3
f 264/3/3 261/3/3 263/3/3
f 267/3/3 266/3/3 265/3/3
f 268/3/3 266/3/3 267/3/3
f 271/3/3 270/3/3 269/3/3
f 272/3/3 270/3/3 271/3/3
f 275/3/3 274/3/3 273/3/3
f 276/3/3 274/3/3 275/3/3
f 277/3/4 278/3/4 279/3/4
f 279/3/4 278/3/4 280/3/4
f 277/3/4 279/3/4 281/3/4
f 281/3/4 279/3/4 282/3/4
f 283/1/4 284/1/4 288/1/4
f 284/3/4 285/3/4 289/3/4
f 288/1/4 284/1/4 289/1/4
f 289/3/4 285/3/4 290/3/4
f 286/3/4 287/3/4 291/3/4
f 291/3/4 287/3/4 292/3/4
f 293/1/4 294/1/4 296/1/4
f 294/3/4 295/3/4 297/3/4
f 296/1/4 294/1/4 297/1/4
f 297/3/4 295/3/4 298/3/4
f 299/1/4 300/1/4 301/1/4
f 301/1/4 300/1/4 302/1/4
f 303/3/4 304/3/4 305/3/4
f 303/3/4 305/3/4 307/3/4
f 305/3/4 306/3/4 307/3/4
f 307/3/4 306/3/4 308/3/4
f 309/1/4 310/1/4 311/1/4
f 311/1/4 310/1/4 312/1/4
f 313/1/4 314/1/4 316/1/4
f 314/3/4 315/3/4 317/3/4
f 316/1/4 314/1/4 317/1/4
f 317/3/4 315/3/4 318/3/4
f 319/1/4 320/1/4 321/1/4
f 321/1/4 320/1/4 322/1/4
f 323/3/4 324/3/4 326/3/4
f 324/3/4 325/3/4 326/3/4
f 326/3/4 325/3/4 327/3/4
f 328/3/4 329/3/4 330/3/4
f 330/3/4 329/3/4 331/3/4
f 332/3/4 333/3/4 334/3/4
f 334/3/4 333/3/4 335/3/4
f 336/3/4 337/3/4 338/3/4
f 338/3/4 337/3/4 339/3/4
f 340/3/4 341/3/4 342/3/4
f 342/3/4 341/3/4 343/3/4
f 344/1/4 345/1/4 349/1/4
f 345/3/4 346/3/4 350/3/4
f 349/1/4 345/1/4 350/1/4
f 350/3/4 346/3/4 351/3/4
f 347/3/4 348/3/4 352/3/4
f 352/3/4 348/3/4 353/3/4
f 354/1/4 355/1/4 357/1/4
f 355/3/4 356/3/4 358/3/4
f 357/1/4 355/1/4 358/1/4
f 358/3/4 356/3/4 359/3/4
f 347/3/4 352/3/4 360/3/4
f 360/3/4 352/3/4 361/3/4
f 366/1/5 363/1/5 362/1/5
f 367/1/5 363/1/5 366/1/5
f 368/1/5 365/1/5 364/1/5
f 369/1/5 365/1/5 368/1/5
f 374/1/5 371/1/5 370/1/5
f 375/1/5 371/1/5 374/1/5
f 376/1/5 373/1/5 372/1/5
f 377/1/5 373/1/5 376/1/5
f 380/3/5 379/3/5 378/3/5
f 381/3/5 379/3/5 380/3/5
f 384/1/5 383/1/5 382/1/5
f 385/1/5 383/1/5 384/1/5
f 388/3/5 387/3/5 386/3/5
f 389/3/5 387/3/5 388/3/5
f 392/3/5 391/3/5 390/3/5
f 393/3/5 391/3/5 392/3/5
f 396/1/5 395/1/5 394/1/5
f 397/1/5 395/1/5 396/1/5
f 400/1/5 399/1/5 398/1/5
f 401/1/5 399/1/5 400/1/5
f 404/1/5 403/1/5 402/1/5
f 405/1/5 403/1/5 404/1/5
f 408/3/5 407/3/5 406/3/5
f 409/3/5 407/3/5 408/3/5
f 414/3/5 413/3/5 412/3/5
f 415/3/5 413/3/5 414/3/5
f 417/3/5 411/3/5 410/3/5
f 420/3/5 419/3/5 418/3/5
f 421/3/5 419/3/5 420/3/5
f 422/3/5 417/3/5 416/3/5
f 423/3/5 411/3/5 417/3/5
f 423/3/5 417/3/5 422/3/5
f 426/3/5 425/3/5 424/3/5
f 427/3/5 425/3/5 426/3/5
f 430/3/5 429/3/5 428/3/5
f 431/3/5 429/3/5 430/3/5
f 432/3/6 433/3/6 436/3/6
f 436/3/6 433/3/6 437/3/6
f 434/3/6 435/3/6 438/3/6
f 438/3/6 435/3/6 439/3/6
f 440/3/6 441/3/6 444/3/6
f 444/3/6 441/3/6 445/3/6
f 442/3/6 443/3/6 446/3/6
f 446/3/6 443/3/6 447/3/6
f 448/3/6 449/3/6 450/3/6
f 450/3/6 449/3/6 451/3/6
f 452/3/6 453/3/6 454/3/6
f 454/3/6 453/3/6 455/3/6
f 456/1/6 457/1/6 458/1/6
f 458/1/6 457/1/6 459/1/6
f 460/1/6 461/1/6 462/1/6
f 462/1/6 461/1/6 463/1/6
f 464/1/6 465/1/6 466/1/6
f 466/1/6 465/1/6 467/1/6
f 468/3/6 469/3/6 470/3/6
f 470/3/6 469/3/6 471/3/6
f 472/3/6 473/3/6 475/3/6
f 475/3/6 473/3/6 476/3/6
f 474/3/6 475/3/6 476/3/6
f 474/3/6 476/3/6 477/3/6
f 474/3/6 477/3/6 478/3/6
f 478/3/6 477/3/6 479/3/6
f 479/3/6 477/3/6 480/3/6
f 479/3/6 480/3/6 481/3/6
f 479/3/6 481/3/6 483/3/6
f 481/3/6 482/3/6 483/3/6
f 483/3/6 482/3/6 484/3/6
f 479/3/6 483/3/6 485/3/6
f 485/3/6 483/3/6 486/3/6
f 487/3/6 488/3/6 489/3/6
f 489/3/6 488/3/6 490/3/6
f 491/3/6 492/3/6 493/3/6
f 493/3/6 492/3/6 494/3/6
f 497/3/6 498/3/6 499/3/6
f 499/3/6 498/3/6 500/3/6
f 495/3/6 496/3/6 501/3/6
f 501/3/6 496/3/6 502/3/6
f 503/3/6 504/3/6 505/3/6
f 505/3/6 504/3/6 506/3/6
