# MagicaVoxel @ Ephtracy

# group
g buffalo

# material
mtllib buffalo.mtl
usemtl palette

# normals
vn -1 0 0
vn 1 0 0
vn 0 0 1
vn 0 0 -1
vn 0 -1 0
vn 0 1 0

# texcoords
vt 0.974609 0.5
vt 0.982422 0.5
vt 0.986328 0.5
vt 0.990234 0.5
vt 0.994141 0.5

# verts
v -11.5 6 1.5
v -11.5 6 0.5
v -11.5 7 0.5
v -11.5 7 -0.5
v -11.5 7 -1.5
v -11.5 7 -2.5
v -11.5 8 -0.5
v -11.5 8 -1.5
v -11.5 10 1.5
v -11.5 10 0.5
v -11.5 10 -1.5
v -11.5 10 -2.5
v -11.5 11 0.5
v -11.5 11 -0.5
v -11.5 12 -0.5
v -11.5 12 -1.5
v -11.5 15 0.5
v -11.5 15 -1.5
v -9.5 0 5.5
v -9.5 0 2.5
v -9.5 0 -3.5
v -9.5 0 -6.5
v -9.5 2 5.5
v -9.5 2 2.5
v -9.5 2 -3.5
v -9.5 2 -6.5
v -9.5 5 2.5
v -9.5 5 -3.5
v -9.5 14 0.5
v -9.5 14 -1.5
v -9.5 15 0.5
v -9.5 15 -1.5
v -9.5 16 5.5
v -9.5 16 -6.5
v 0.5 0 5.5
v 0.5 0 2.5
v 0.5 0 -3.5
v 0.5 0 -6.5
v 0.5 2 5.5
v 0.5 2 2.5
v 0.5 2 -3.5
v 0.5 2 -6.5
v 0.5 6 5.5
v 0.5 6 2.5
v 0.5 6 -3.5
v 0.5 6 -6.5
v 4.5 13 5.5
v 4.5 13 3.5
v 4.5 13 -4.5
v 4.5 13 -6.5
v 4.5 14 6.5
v 4.5 14 5.5
v 4.5 14 -6.5
v 4.5 14 -7.5
v 4.5 15 7.5
v 4.5 15 6.5
v 4.5 15 3.5
v 4.5 15 -4.5
v 4.5 15 -7.5
v 4.5 15 -8.5
v 4.5 16 8.5
v 4.5 16 7.5
v 4.5 16 6.5
v 4.5 16 5.5
v 4.5 16 3.5
v 4.5 16 2.5
v 4.5 16 -3.5
v 4.5 16 -4.5
v 4.5 16 -6.5
v 4.5 16 -7.5
v 4.5 16 -8.5
v 4.5 16 -9.5
v 4.5 17 7.5
v 4.5 17 6.5
v 4.5 17 5.5
v 4.5 17 2.5
v 4.5 17 -3.5
v 4.5 17 -6.5
v 4.5 17 -7.5
v 4.5 17 -8.5
v 4.5 18 8.5
v 4.5 18 7.5
v 4.5 18 -8.5
v 4.5 18 -9.5
v -10.5 6 1.5
v -10.5 6 0.5
v -10.5 7 0.5
v -10.5 7 -0.5
v -10.5 7 -1.5
v -10.5 7 -2.5
v -10.5 8 -0.5
v -10.5 8 -1.5
v -10.5 10 1.5
v -10.5 10 0.5
v -10.5 10 -1.5
v -10.5 10 -2.5
v -10.5 11 0.5
v -10.5 11 -0.5
v -10.5 12 -0.5
v -10.5 12 -1.5
v -10.5 14 0.5
v -10.5 14 -1.5
v -6.5 0 5.5
v -6.5 0 2.5
v -6.5 0 -3.5
v -6.5 0 -6.5
v -6.5 2 5.5
v -6.5 2 2.5
v -6.5 2 -3.5
v -6.5 2 -6.5
v -6.5 5 2.5
v -6.5 5 -3.5
v -6.5 6 5.5
v -6.5 6 -6.5
v 3.5 0 5.5
v 3.5 0 2.5
v 3.5 0 -3.5
v 3.5 0 -6.5
v 3.5 2 5.5
v 3.5 2 2.5
v 3.5 2 -3.5
v 3.5 2 -6.5
v 3.5 6 2.5
v 3.5 6 -3.5
v 3.5 7 3.5
v 3.5 7 -4.5
v 3.5 15 3.5
v 3.5 15 -4.5
v 3.5 16 5.5
v 3.5 16 -6.5
v 4.5 7 3.5
v 4.5 7 -4.5
v 4.5 8 3.5
v 4.5 8 -4.5
v 7.5 13 5.5
v 7.5 13 3.5
v 7.5 13 -4.5
v 7.5 13 -6.5
v 7.5 14 6.5
v 7.5 14 5.5
v 7.5 14 -6.5
v 7.5 14 -7.5
v 7.5 15 7.5
v 7.5 15 6.5
v 7.5 15 -7.5
v 7.5 15 -8.5
v 7.5 16 8.5
v 7.5 16 7.5
v 7.5 16 6.5
v 7.5 16 5.5
v 7.5 16 3.5
v 7.5 16 2.5
v 7.5 16 -3.5
v 7.5 16 -4.5
v 7.5 16 -6.5
v 7.5 16 -7.5
v 7.5 16 -8.5
v 7.5 16 -9.5
v 7.5 17 7.5
v 7.5 17 6.5
v 7.5 17 5.5
v 7.5 17 2.5
v 7.5 17 -3.5
v 7.5 17 -6.5
v 7.5 17 -7.5
v 7.5 17 -8.5
v 7.5 18 8.5
v 7.5 18 7.5
v 7.5 18 -8.5
v 7.5 18 -9.5
v 9.5 8 3.5
v 9.5 8 -4.5
v 9.5 10 0.5
v 9.5 10 -1.5
v 9.5 11 1.5
v 9.5 11 0.5
v 9.5 11 -1.5
v 9.5 11 -2.5
v 9.5 12 1.5
v 9.5 12 0.5
v 9.5 12 -1.5
v 9.5 12 -2.5
v 9.5 13 2.5
v 9.5 13 1.5
v 9.5 13 -2.5
v 9.5 13 -3.5
v 9.5 14 2.5
v 9.5 14 0.5
v 9.5 14 -1.5
v 9.5 14 -3.5
v 9.5 16 3.5
v 9.5 16 -4.5
v 10.5 10 0.5
v 10.5 10 -1.5
v 10.5 11 1.5
v 10.5 11 0.5
v 10.5 11 -1.5
v 10.5 11 -2.5
v 10.5 12 1.5
v 10.5 12 -2.5
v 4.5 16 8.5
v 4.5 18 8.5
v 7.5 16 8.5
v 7.5 18 8.5
v 4.5 15 7.5
v 4.5 16 7.5
v 7.5 15 7.5
v 7.5 16 7.5
v 4.5 14 6.5
v 4.5 15 6.5
v 7.5 14 6.5
v 7.5 15 6.5
v -9.5 0 5.5
v -9.5 2 5.5
v -9.5 16 5.5
v -6.5 0 5.5
v -6.5 2 5.5
v -6.5 6 5.5
v 0.5 0 5.5
v 0.5 2 5.5
v 0.5 6 5.5
v 3.5 0 5.5
v 3.5 2 5.5
v 3.5 16 5.5
v 4.5 13 5.5
v 4.5 14 5.5
v 4.5 16 5.5
v 4.5 17 5.5
v 7.5 13 5.5
v 7.5 14 5.5
v 7.5 16 5.5
v 7.5 17 5.5
v 3.5 7 3.5
v 3.5 15 3.5
v 4.5 7 3.5
v 4.5 8 3.5
v 4.5 13 3.5
v 4.5 15 3.5
v 7.5 13 3.5
v 7.5 16 3.5
v 9.5 8 3.5
v 9.5 16 3.5
v -11.5 6 1.5
v -11.5 10 1.5
v -10.5 6 1.5
v -10.5 10 1.5
v 9.5 11 1.5
v 9.5 12 1.5
v 10.5 11 1.5
v 10.5 12 1.5
v -11.5 10 0.5
v -11.5 11 0.5
v -11.5 15 0.5
v -10.5 10 0.5
v -10.5 11 0.5
v -10.5 14 0.5
v -9.5 14 0.5
v -9.5 15 0.5
v 9.5 10 0.5
v 9.5 11 0.5
v 10.5 10 0.5
v 10.5 11 0.5
v -11.5 7 -1.5
v -11.5 8 -1.5
v -10.5 7 -1.5
v -10.5 8 -1.5
v -9.5 0 -3.5
v -9.5 2 -3.5
v -9.5 5 -3.5
v -6.5 0 -3.5
v -6.5 2 -3.5
v -6.5 5 -3.5
v 0.5 0 -3.5
v 0.5 2 -3.5
v 0.5 6 -3.5
v 3.5 0 -3.5
v 3.5 2 -3.5
v 3.5 6 -3.5
v 4.5 16 -3.5
v 4.5 17 -3.5
v 7.5 16 -3.5
v 7.5 17 -3.5
v 4.5 16 -7.5
v 4.5 17 -7.5
v 7.5 16 -7.5
v 7.5 17 -7.5
v 4.5 17 -8.5
v 4.5 18 -8.5
v 7.5 17 -8.5
v 7.5 18 -8.5
v 4.5 17 7.5
v 4.5 18 7.5
v 7.5 17 7.5
v 7.5 18 7.5
v 4.5 16 6.5
v 4.5 17 6.5
v 7.5 16 6.5
v 7.5 17 6.5
v -9.5 0 2.5
v -9.5 2 2.5
v -9.5 5 2.5
v -6.5 0 2.5
v -6.5 2 2.5
v -6.5 5 2.5
v 0.5 0 2.5
v 0.5 2 2.5
v 0.5 6 2.5
v 3.5 0 2.5
v 3.5 2 2.5
v 3.5 6 2.5
v 4.5 16 2.5
v 4.5 17 2.5
v 7.5 16 2.5
v 7.5 17 2.5
v -11.5 6 0.5
v -11.5 7 0.5
v -10.5 6 0.5
v -10.5 7 0.5
v -11.5 7 -0.5
v -11.5 8 -0.5
v -10.5 7 -0.5
v -10.5 8 -0.5
v -11.5 10 -1.5
v -11.5 12 -1.5
v -11.5 15 -1.5
v -10.5 10 -1.5
v -10.5 12 -1.5
v -10.5 14 -1.5
v -9.5 14 -1.5
v -9.5 15 -1.5
v 9.5 10 -1.5
v 9.5 11 -1.5
v 10.5 10 -1.5
v 10.5 11 -1.5
v -11.5 7 -2.5
v -11.5 10 -2.5
v -10.5 7 -2.5
v -10.5 10 -2.5
v 9.5 11 -2.5
v 9.5 12 -2.5
v 10.5 11 -2.5
v 10.5 12 -2.5
v 3.5 7 -4.5
v 3.5 15 -4.5
v 4.5 7 -4.5
v 4.5 8 -4.5
v 4.5 13 -4.5
v 4.5 15 -4.5
v 7.5 13 -4.5
v 7.5 16 -4.5
v 9.5 8 -4.5
v 9.5 16 -4.5
v -9.5 0 -6.5
v -9.5 2 -6.5
v -9.5 16 -6.5
v -6.5 0 -6.5
v -6.5 2 -6.5
v -6.5 6 -6.5
v 0.5 0 -6.5
v 0.5 2 -6.5
v 0.5 6 -6.5
v 3.5 0 -6.5
v 3.5 2 -6.5
v 3.5 16 -6.5
v 4.5 13 -6.5
v 4.5 14 -6.5
v 4.5 16 -6.5
v 4.5 17 -6.5
v 7.5 13 -6.5
v 7.5 14 -6.5
v 7.5 16 -6.5
v 7.5 17 -6.5
v 4.5 14 -7.5
v 4.5 15 -7.5
v 7.5 14 -7.5
v 7.5 15 -7.5
v 4.5 15 -8.5
v 4.5 16 -8.5
v 7.5 15 -8.5
v 7.5 16 -8.5
v 4.5 16 -9.5
v 4.5 18 -9.5
v 7.5 16 -9.5
v 7.5 18 -9.5
v -9.5 0 5.5
v -6.5 0 5.5
v 0.5 0 5.5
v 3.5 0 5.5
v -9.5 0 2.5
v -6.5 0 2.5
v 0.5 0 2.5
v 3.5 0 2.5
v -9.5 0 -3.5
v -6.5 0 -3.5
v 0.5 0 -3.5
v 3.5 0 -3.5
v -9.5 0 -6.5
v -6.5 0 -6.5
v 0.5 0 -6.5
v 3.5 0 -6.5
v -9.5 5 2.5
v -6.5 5 2.5
v -9.5 5 -3.5
v -6.5 5 -3.5
v -6.5 6 5.5
v 0.5 6 5.5
v 0.5 6 2.5
v 3.5 6 2.5
v -11.5 6 1.5
v -10.5 6 1.5
v -11.5 6 0.5
v -10.5 6 0.5
v 0.5 6 -3.5
v 3.5 6 -3.5
v -6.5 6 -6.5
v 0.5 6 -6.5
v 3.5 7 3.5
v 4.5 7 3.5
v -11.5 7 0.5
v -10.5 7 0.5
v -11.5 7 -0.5
v -10.5 7 -0.5
v -11.5 7 -1.5
v -10.5 7 -1.5
v -11.5 7 -2.5
v -10.5 7 -2.5
v 3.5 7 -4.5
v 4.5 7 -4.5
v 4.5 8 3.5
v 9.5 8 3.5
v -11.5 8 -0.5
v -10.5 8 -0.5
v -11.5 8 -1.5
v -10.5 8 -1.5
v 4.5 8 -4.5
v 9.5 8 -4.5
v 9.5 10 0.5
v 10.5 10 0.5
v 9.5 10 -1.5
v 10.5 10 -1.5
v 9.5 11 1.5
v 10.5 11 1.5
v 9.5 11 0.5
v 10.5 11 0.5
v 9.5 11 -1.5
v 10.5 11 -1.5
v 9.5 11 -2.5
v 10.5 11 -2.5
v 4.5 13 5.5
v 7.5 13 5.5
v 4.5 13 3.5
v 7.5 13 3.5
v 4.5 13 -4.5
v 7.5 13 -4.5
v 4.5 13 -6.5
v 7.5 13 -6.5
v 4.5 14 6.5
v 7.5 14 6.5
v 4.5 14 5.5
v 7.5 14 5.5
v -10.5 14 0.5
v -9.5 14 0.5
v -10.5 14 -1.5
v -9.5 14 -1.5
v 4.5 14 -6.5
v 7.5 14 -6.5
v 4.5 14 -7.5
v 7.5 14 -7.5
v 4.5 15 7.5
v 7.5 15 7.5
v 4.5 15 6.5
v 7.5 15 6.5
v 4.5 15 -7.5
v 7.5 15 -7.5
v 4.5 15 -8.5
v 7.5 15 -8.5
v 4.5 16 8.5
v 7.5 16 8.5
v 4.5 16 7.5
v 7.5 16 7.5
v 4.5 16 -8.5
v 7.5 16 -8.5
v 4.5 16 -9.5
v 7.5 16 -9.5
v -11.5 10 1.5
v -10.5 10 1.5
v -11.5 10 0.5
v -10.5 10 0.5
v -11.5 10 -1.5
v -10.5 10 -1.5
v -11.5 10 -2.5
v -10.5 10 -2.5
v 9.5 12 1.5
v 10.5 12 1.5
v 9.5 12 0.5
v 9.5 12 -1.5
v 9.5 12 -2.5
v 10.5 12 -2.5
v 3.5 15 3.5
v 4.5 15 3.5
v -11.5 15 0.5
v -9.5 15 0.5
v -11.5 15 -1.5
v -9.5 15 -1.5
v 3.5 15 -4.5
v 4.5 15 -4.5
v 4.5 16 6.5
v 7.5 16 6.5
v -9.5 16 5.5
v 3.5 16 5.5
v 4.5 16 5.5
v 7.5 16 5.5
v 7.5 16 3.5
v 9.5 16 3.5
v 4.5 16 2.5
v 7.5 16 2.5
v 4.5 16 -3.5
v 7.5 16 -3.5
v 7.5 16 -4.5
v 9.5 16 -4.5
v -9.5 16 -6.5
v 3.5 16 -6.5
v 4.5 16 -6.5
v 7.5 16 -6.5
v 4.5 16 -7.5
v 7.5 16 -7.5
v 4.5 17 7.5
v 7.5 17 7.5
v 4.5 17 6.5
v 7.5 17 6.5
v 4.5 17 5.5
v 7.5 17 5.5
v 4.5 17 2.5
v 7.5 17 2.5
v 4.5 17 -3.5
v 7.5 17 -3.5
v 4.5 17 -6.5
v 7.5 17 -6.5
v 4.5 17 -7.5
v 7.5 17 -7.5
v 4.5 17 -8.5
v 7.5 17 -8.5
v 4.5 18 8.5
v 7.5 18 8.5
v 4.5 18 7.5
v 7.5 18 7.5
v 4.5 18 -8.5
v 7.5 18 -8.5
v 4.5 18 -9.5
v 7.5 18 -9.5

# faces
f 3/2/1 2/2/1 1/2/1
f 7/2/1 4/2/1 3/2/1
f 8/2/1 6/2/1 5/2/1
f 9/2/1 3/2/1 1/2/1
f 9/2/1 8/2/1 7/2/1
f 9/2/1 7/2/1 3/2/1
f 10/2/1 8/2/1 9/2/1
f 11/2/1 6/2/1 8/2/1
f 11/2/1 8/2/1 10/2/1
f 12/2/1 6/2/1 11/2/1
f 13/2/1 11/2/1 10/2/1
f 14/2/1 11/2/1 13/2/1
f 15/3/1 14/3/1 13/3/1
f 15/2/1 11/2/1 14/2/1
f 16/2/1 11/2/1 15/2/1
f 17/3/1 15/3/1 13/3/1
f 17/3/1 16/3/1 15/3/1
f 18/3/1 16/3/1 17/3/1
f 23/4/1 20/4/1 19/4/1
f 24/4/1 20/4/1 23/4/1
f 25/4/1 22/4/1 21/4/1
f 26/4/1 22/4/1 25/4/1
f 27/3/1 24/3/1 23/3/1
f 28/3/1 26/3/1 25/3/1
f 29/3/1 28/3/1 27/3/1
f 30/3/1 28/3/1 29/3/1
f 31/3/1 29/3/1 27/3/1
f 32/3/1 28/3/1 30/3/1
f 33/3/1 27/3/1 23/3/1
f 33/3/1 32/3/1 31/3/1
f 33/3/1 31/3/1 27/3/1
f 34/3/1 28/3/1 32/3/1
f 34/3/1 32/3/1 33/3/1
f 34/3/1 26/3/1 28/3/1
f 39/4/1 36/4/1 35/4/1
f 40/4/1 36/4/1 39/4/1
f 41/4/1 38/4/1 37/4/1
f 42/4/1 38/4/1 41/4/1
f 43/3/1 40/3/1 39/3/1
f 44/3/1 40/3/1 43/3/1
f 45/3/1 42/3/1 41/3/1
f 46/3/1 42/3/1 45/3/1
f 52/1/1 48/1/1 47/1/1
f 53/1/1 50/1/1 49/1/1
f 56/1/1 52/1/1 51/1/1
f 57/1/1 48/1/1 52/1/1
f 57/1/1 52/1/1 56/1/1
f 58/1/1 54/1/1 53/1/1
f 58/1/1 53/1/1 49/1/1
f 59/1/1 54/1/1 58/1/1
f 62/1/1 57/1/1 56/1/1
f 62/1/1 56/1/1 55/1/1
f 63/1/1 57/1/1 62/1/1
f 64/1/1 57/1/1 63/1/1
f 65/3/1 58/3/1 57/3/1
f 65/1/1 57/1/1 64/1/1
f 66/3/1 58/3/1 65/3/1
f 67/3/1 58/3/1 66/3/1
f 68/1/1 60/1/1 59/1/1
f 68/3/1 58/3/1 67/3/1
f 68/1/1 59/1/1 58/1/1
f 69/1/1 60/1/1 68/1/1
f 70/1/1 60/1/1 69/1/1
f 71/1/1 60/1/1 70/1/1
f 73/1/1 62/1/1 61/1/1
f 73/1/1 63/1/1 62/1/1
f 74/1/1 63/1/1 73/1/1
f 75/1/1 66/1/1 65/1/1
f 75/1/1 65/1/1 64/1/1
f 76/1/1 66/1/1 75/1/1
f 77/1/1 69/1/1 68/1/1
f 77/1/1 68/1/1 67/1/1
f 78/1/1 69/1/1 77/1/1
f 79/1/1 72/1/1 71/1/1
f 79/1/1 71/1/1 70/1/1
f 80/1/1 72/1/1 79/1/1
f 81/1/1 73/1/1 61/1/1
f 82/1/1 73/1/1 81/1/1
f 83/1/1 72/1/1 80/1/1
f 84/1/1 72/1/1 83/1/1
f 85/2/2 86/2/2 87/2/2
f 87/2/2 88/2/2 91/2/2
f 89/2/2 90/2/2 92/2/2
f 85/2/2 87/2/2 93/2/2
f 91/2/2 92/2/2 93/2/2
f 87/2/2 91/2/2 93/2/2
f 93/2/2 92/2/2 94/2/2
f 92/2/2 90/2/2 95/2/2
f 94/2/2 92/2/2 95/2/2
f 95/2/2 90/2/2 96/2/2
f 94/2/2 95/2/2 97/2/2
f 97/2/2 95/2/2 98/2/2
f 97/3/2 98/3/2 99/3/2
f 98/2/2 95/2/2 99/2/2
f 99/2/2 95/2/2 100/2/2
f 97/3/2 99/3/2 101/3/2
f 99/3/2 100/3/2 101/3/2
f 101/3/2 100/3/2 102/3/2
f 103/4/2 104/4/2 107/4/2
f 107/4/2 104/4/2 108/4/2
f 105/4/2 106/4/2 109/4/2
f 109/4/2 106/4/2 110/4/2
f 107/3/2 108/3/2 111/3/2
f 109/3/2 110/3/2 112/3/2
f 107/3/2 111/3/2 113/3/2
f 111/3/2 112/3/2 113/3/2
f 112/3/2 110/3/2 114/3/2
f 113/3/2 112/3/2 114/3/2
f 115/4/2 116/4/2 119/4/2
f 119/4/2 116/4/2 120/4/2
f 117/4/2 118/4/2 121/4/2
f 121/4/2 118/4/2 122/4/2
f 119/3/2 120/3/2 123/3/2
f 121/3/2 122/3/2 124/3/2
f 119/3/2 123/3/2 125/3/2
f 123/3/2 124/3/2 125/3/2
f 124/3/2 122/3/2 126/3/2
f 125/3/2 124/3/2 126/3/2
f 119/3/2 125/3/2 127/3/2
f 126/3/2 122/3/2 128/3/2
f 119/3/2 127/3/2 129/3/2
f 127/3/2 128/3/2 129/3/2
f 128/3/2 122/3/2 130/3/2
f 129/3/2 128/3/2 130/3/2
f 131/3/2 132/3/2 133/3/2
f 133/3/2 132/3/2 134/3/2
f 135/1/2 136/1/2 140/1/2
f 137/1/2 138/1/2 141/1/2
f 139/1/2 140/1/2 144/1/2
f 141/1/2 142/1/2 145/1/2
f 143/1/2 144/1/2 148/1/2
f 144/1/2 140/1/2 149/1/2
f 148/1/2 144/1/2 149/1/2
f 140/1/2 136/1/2 150/1/2
f 149/1/2 140/1/2 150/1/2
f 150/1/2 136/1/2 151/1/2
f 145/1/2 146/1/2 154/1/2
f 137/1/2 141/1/2 154/1/2
f 141/1/2 145/1/2 154/1/2
f 154/1/2 146/1/2 155/1/2
f 155/1/2 146/1/2 156/1/2
f 156/1/2 146/1/2 157/1/2
f 148/1/2 149/1/2 159/1/2
f 147/1/2 148/1/2 159/1/2
f 159/1/2 149/1/2 160/1/2
f 151/1/2 152/1/2 161/1/2
f 150/1/2 151/1/2 161/1/2
f 161/1/2 152/1/2 162/1/2
f 154/1/2 155/1/2 163/1/2
f 153/1/2 154/1/2 163/1/2
f 163/1/2 155/1/2 164/1/2
f 157/1/2 158/1/2 165/1/2
f 156/1/2 157/1/2 165/1/2
f 165/1/2 158/1/2 166/1/2
f 147/1/2 159/1/2 167/1/2
f 167/1/2 159/1/2 168/1/2
f 166/1/2 158/1/2 169/1/2
f 169/1/2 158/1/2 170/1/2
f 171/3/2 172/3/2 173/3/2
f 173/3/2 172/3/2 174/3/2
f 171/3/2 173/3/2 175/3/2
f 175/3/2 173/3/2 176/3/2
f 174/3/2 172/3/2 177/3/2
f 177/3/2 172/3/2 178/3/2
f 171/3/2 175/3/2 179/3/2
f 178/3/2 172/3/2 182/3/2
f 171/3/2 179/3/2 183/3/2
f 179/5/2 180/5/2 184/5/2
f 183/3/2 179/3/2 184/3/2
f 181/5/2 182/5/2 185/5/2
f 182/3/2 172/3/2 185/3/2
f 185/3/2 172/3/2 186/3/2
f 171/3/2 183/3/2 187/3/2
f 183/5/2 184/5/2 187/5/2
f 180/3/2 181/3/2 188/3/2
f 187/5/2 184/5/2 188/5/2
f 184/5/2 180/5/2 188/5/2
f 181/5/2 185/5/2 189/5/2
f 188/3/2 181/3/2 189/3/2
f 185/5/2 186/5/2 189/5/2
f 186/3/2 172/3/2 190/3/2
f 189/5/2 186/5/2 190/5/2
f 171/3/2 187/3/2 191/3/2
f 187/3/2 188/3/2 191/3/2
f 189/3/2 190/3/2 191/3/2
f 188/3/2 189/3/2 191/3/2
f 190/3/2 172/3/2 192/3/2
f 191/3/2 190/3/2 192/3/2
f 193/1/2 194/1/2 196/1/2
f 196/1/2 194/1/2 197/1/2
f 195/1/2 196/1/2 199/1/2
f 197/1/2 198/1/2 199/1/2
f 196/1/2 197/1/2 199/1/2
f 199/1/2 198/1/2 200/1/2
f 203/1/3 202/1/3 201/1/3
f 204/1/3 202/1/3 203/1/3
f 207/1/3 206/1/3 205/1/3
f 208/1/3 206/1/3 207/1/3
f 211/1/3 210/1/3 209/1/3
f 212/1/3 210/1/3 211/1/3
f 216/4/3 214/4/3 213/4/3
f 217/3/3 215/3/3 214/3/3
f 217/4/3 214/4/3 216/4/3
f 218/3/3 215/3/3 217/3/3
f 221/3/3 215/3/3 218/3/3
f 222/4/3 220/4/3 219/4/3
f 223/3/3 221/3/3 220/3/3
f 223/4/3 220/4/3 222/4/3
f 224/3/3 215/3/3 221/3/3
f 224/3/3 221/3/3 223/3/3
f 229/1/3 226/1/3 225/1/3
f 230/1/3 226/1/3 229/1/3
f 231/1/3 228/1/3 227/1/3
f 232/1/3 228/1/3 231/1/3
f 235/3/3 234/3/3 233/3/3
f 236/3/3 234/3/3 235/3/3
f 237/3/3 234/3/3 236/3/3
f 238/3/3 234/3/3 237/3/3
f 239/3/3 237/3/3 236/3/3
f 241/3/3 239/3/3 236/3/3
f 241/3/3 240/3/3 239/3/3
f 242/3/3 240/3/3 241/3/3
f 245/2/3 244/2/3 243/2/3
f 246/2/3 244/2/3 245/2/3
f 249/1/3 248/1/3 247/1/3
f 250/1/3 248/1/3 249/1/3
f 254/2/3 252/2/3 251/2/3
f 255/3/3 253/3/3 252/3/3
f 255/2/3 252/2/3 254/2/3
f 256/3/3 253/3/3 255/3/3
f 257/3/3 253/3/3 256/3/3
f 258/3/3 253/3/3 257/3/3
f 261/1/3 260/1/3 259/1/3
f 262/1/3 260/1/3 261/1/3
f 265/2/3 264/2/3 263/2/3
f 266/2/3 264/2/3 265/2/3
f 270/4/3 268/4/3 267/4/3
f 271/3/3 269/3/3 268/3/3
f 271/4/3 268/4/3 270/4/3
f 272/3/3 269/3/3 271/3/3
f 276/4/3 274/4/3 273/4/3
f 277/3/3 275/3/3 274/3/3
f 277/4/3 274/4/3 276/4/3
f 278/3/3 275/3/3 277/3/3
f 281/1/3 280/1/3 279/1/3
f 282/1/3 280/1/3 281/1/3
f 285/1/3 284/1/3 283/1/3
f 286/1/3 284/1/3 285/1/3
f 289/1/3 288/1/3 287/1/3
f 290/1/3 288/1/3 289/1/3
f 291/1/4 292/1/4 293/1/4
f 293/1/4 292/1/4 294/1/4
f 295/1/4 296/1/4 297/1/4
f 297/1/4 296/1/4 298/1/4
f 299/4/4 300/4/4 302/4/4
f 300/3/4 301/3/4 303/3/4
f 302/4/4 300/4/4 303/4/4
f 303/3/4 301/3/4 304/3/4
f 305/4/4 306/4/4 308/4/4
f 306/3/4 307/3/4 309/3/4
f 308/4/4 306/4/4 309/4/4
f 309/3/4 307/3/4 310/3/4
f 311/1/4 312/1/4 313/1/4
f 313/1/4 312/1/4 314/1/4
f 315/2/4 316/2/4 317/2/4
f 317/2/4 316/2/4 318/2/4
f 319/2/4 320/2/4 321/2/4
f 321/2/4 320/2/4 322/2/4
f 323/2/4 324/2/4 326/2/4
f 324/3/4 325/3/4 327/3/4
f 326/2/4 324/2/4 327/2/4
f 327/3/4 325/3/4 328/3/4
f 328/3/4 325/3/4 329/3/4
f 329/3/4 325/3/4 330/3/4
f 331/1/4 332/1/4 333/1/4
f 333/1/4 332/1/4 334/1/4
f 335/2/4 336/2/4 337/2/4
f 337/2/4 336/2/4 338/2/4
f 339/1/4 340/1/4 341/1/4
f 341/1/4 340/1/4 342/1/4
f 343/3/4 344/3/4 345/3/4
f 345/3/4 344/3/4 346/3/4
f 346/3/4 344/3/4 347/3/4
f 347/3/4 344/3/4 348/3/4
f 346/3/4 347/3/4 349/3/4
f 346/3/4 349/3/4 351/3/4
f 349/3/4 350/3/4 351/3/4
f 351/3/4 350/3/4 352/3/4
f 353/4/4 354/4/4 356/4/4
f 354/3/4 355/3/4 357/3/4
f 356/4/4 354/4/4 357/4/4
f 357/3/4 355/3/4 358/3/4
f 358/3/4 355/3/4 361/3/4
f 359/4/4 360/4/4 362/4/4
f 360/3/4 361/3/4 363/3/4
f 362/4/4 360/4/4 363/4/4
f 361/3/4 355/3/4 364/3/4
f 363/3/4 361/3/4 364/3/4
f 365/1/4 366/1/4 369/1/4
f 369/1/4 366/1/4 370/1/4
f 367/1/4 368/1/4 371/1/4
f 371/1/4 368/1/4 372/1/4
f 373/1/4 374/1/4 375/1/4
f 375/1/4 374/1/4 376/1/4
f 377/1/4 378/1/4 379/1/4
f 379/1/4 378/1/4 380/1/4
f 381/1/4 382/1/4 383/1/4
f 383/1/4 382/1/4 384/1/4
f 389/4/5 386/4/5 385/4/5
f 390/4/5 386/4/5 389/4/5
f 391/4/5 388/4/5 387/4/5
f 392/4/5 388/4/5 391/4/5
f 397/4/5 394/4/5 393/4/5
f 398/4/5 394/4/5 397/4/5
f 399/4/5 396/4/5 395/4/5
f 400/4/5 396/4/5 399/4/5
f 403/3/5 402/3/5 401/3/5
f 404/3/5 402/3/5 403/3/5
f 407/3/5 406/3/5 405/3/5
f 411/2/5 410/2/5 409/2/5
f 412/2/5 410/2/5 411/2/5
f 413/3/5 407/3/5 405/3/5
f 413/3/5 408/3/5 407/3/5
f 414/3/5 408/3/5 413/3/5
f 415/3/5 413/3/5 405/3/5
f 416/3/5 413/3/5 415/3/5
f 421/2/5 420/2/5 419/2/5
f 422/2/5 420/2/5 421/2/5
f 425/2/5 424/2/5 423/2/5
f 426/2/5 424/2/5 425/2/5
f 427/3/5 418/3/5 417/3/5
f 428/3/5 418/3/5 427/3/5
f 433/2/5 432/2/5 431/2/5
f 434/2/5 432/2/5 433/2/5
f 435/3/5 430/3/5 429/3/5
f 436/3/5 430/3/5 435/3/5
f 439/1/5 438/1/5 437/1/5
f 440/1/5 438/1/5 439/1/5
f 443/1/5 442/1/5 441/1/5
f 444/1/5 442/1/5 443/1/5
f 447/1/5 446/1/5 445/1/5
f 448/1/5 446/1/5 447/1/5
f 451/1/5 450/1/5 449/1/5
f 452/1/5 450/1/5 451/1/5
f 455/1/5 454/1/5 453/1/5
f 456/1/5 454/1/5 455/1/5
f 459/1/5 458/1/5 457/1/5
f 460/1/5 458/1/5 459/1/5
f 463/3/5 462/3/5 461/3/5
f 464/3/5 462/3/5 463/3/5
f 467/1/5 466/1/5 465/1/5
f 468/1/5 466/1/5 467/1/5
f 471/1/5 470/1/5 469/1/5
f 472/1/5 470/1/5 471/1/5
f 475/1/5 474/1/5 473/1/5
f 476/1/5 474/1/5 475/1/5
f 479/1/5 478/1/5 477/1/5
f 480/1/5 478/1/5 479/1/5
f 483/1/5 482/1/5 481/1/5
f 484/1/5 482/1/5 483/1/5
f 485/2/6 486/2/6 487/2/6
f 487/2/6 486/2/6 488/2/6
f 489/2/6 490/2/6 491/2/6
f 491/2/6 490/2/6 492/2/6
f 493/1/6 494/1/6 495/1/6
f 495/1/6 494/1/6 496/1/6
f 496/1/6 494/1/6 497/1/6
f 497/1/6 494/1/6 498/1/6
f 501/3/6 502/3/6 503/3/6
f 503/3/6 502/3/6 504/3/6
f 499/3/6 500/3/6 505/3/6
f 505/3/6 500/3/6 506/3/6
f 507/1/6 508/1/6 511/1/6
f 511/1/6 508/1/6 512/1/6
f 513/3/6 514/3/6 516/3/6
f 515/3/6 516/3/6 517/3/6
f 516/3/6 514/3/6 518/3/6
f 517/3/6 516/3/6 518/3/6
f 518/3/6 514/3/6 519/3/6
f 519/3/6 514/3/6 520/3/6
f 509/3/6 510/3/6 521/3/6
f 521/3/6 510/3/6 522/3/6
f 523/1/6 524/1/6 525/1/6
f 525/1/6 524/1/6 526/1/6
f 527/1/6 528/1/6 529/1/6
f 529/1/6 528/1/6 530/1/6
f 531/1/6 532/1/6 533/1/6
f 533/1/6 532/1/6 534/1/6
f 535/1/6 536/1/6 537/1/6
f 537/1/6 536/1/6 538/1/6
f 539/1/6 540/1/6 541/1/6
f 541/1/6 540/1/6 542/1/6
f 543/1/6 544/1/6 545/1/6
f 545/1/6 544/1/6 546/1/6
f 547/1/6 548/1/6 549/1/6
f 549/1/6 548/1/6 550/1/6
