# MagicaVoxel @ Ephtracy

# group
g Ground

# material
mtllib Ground.mtl
usemtl palette

# normals
vn -1 0 0
vn 1 0 0
vn 0 0 1
vn 0 0 -1
vn 0 -1 0
vn 0 1 0

# texcoords
vt 0.341797 0.5
vt 0.357422 0.5
vt 0.369141 0.5
vt 0.431641 0.5
vt 0.486328 0.5
vt 0.494141 0.5
vt 0.513672 0.5
vt 0.556641 0.5
vt 0.560547 0.5
vt 0.572266 0.5
vt 0.580078 0.5
vt 0.587891 0.5
vt 0.591797 0.5
vt 0.744141 0.5
vt 0.771484 0.5
vt 0.927734 0.5
vt 0.931641 0.5

# verts
v -21 0 21
v -21 0 10
v -21 0 -8
v -21 0 -19
v -21 2 21
v -21 2 10
v -21 2 -8
v -21 2 -19
v -21 4 21
v -21 4 16
v -21 4 11
v -21 4 10
v -21 4 -8
v -21 4 -9
v -21 4 -14
v -21 4 -19
v -21 5 21
v -21 5 16
v -21 5 11
v -21 5 10
v -21 5 -8
v -21 5 -9
v -21 5 -14
v -21 5 -19
v -20 4 6
v -20 4 5
v -20 5 6
v -20 5 5
v -19 4 -4
v -19 4 -6
v -19 5 -4
v -19 5 -6
v -18 4 10
v -18 4 9
v -18 5 10
v -18 5 9
v -18 6 10
v -18 6 9
v -17 4 9
v -17 4 -8
v -17 5 9
v -17 5 -8
v -17 5 -9
v -17 6 -8
v -17 6 -9
v -6 5 6
v -6 5 5
v -6 5 1
v -6 5 -4
v -6 6 6
v -6 6 5
v -6 6 1
v -6 6 -0
v -6 6 -4
v -6 7 1
v -6 7 -0
v -6 7 -2
v -6 7 -3
v -6 8 6
v -6 8 -2
v -6 8 -3
v -6 8 -4
v -6 9 6
v -6 9 -4
v -2 9 3
v -2 9 2
v -2 10 3
v -2 10 2
v -1 5 11
v -1 5 6
v -1 5 -4
v -1 5 -8
v -1 5 -9
v -1 6 11
v -1 6 6
v -1 6 -4
v -1 6 -5
v -1 6 -8
v -1 6 -9
v -1 7 11
v -1 7 10
v -1 7 6
v -1 7 -4
v -1 7 -5
v -1 8 11
v -1 8 10
v -1 8 6
v -1 8 -4
v -1 8 -9
v -1 9 11
v -1 9 6
v -1 9 1
v -1 9 -0
v -1 9 -4
v -1 9 -9
v -1 10 1
v -1 10 -0
v 1 9 8
v 1 9 7
v 1 10 8
v 1 10 7
v 3 9 -5
v 3 9 -6
v 3 10 -5
v 3 10 -6
v -19 4 6
v -19 4 5
v -19 5 6
v -19 5 5
v -18 4 -4
v -18 4 -6
v -18 5 -4
v -18 5 -6
v -17 5 10
v -17 5 9
v -17 6 10
v -17 6 9
v -16 5 -8
v -16 5 -9
v -16 6 -8
v -16 6 -9
v -1 9 3
v -1 9 2
v -1 10 3
v -1 10 2
v 0 9 1
v 0 9 -0
v 0 10 1
v 0 10 -0
v 2 9 8
v 2 9 7
v 2 10 8
v 2 10 7
v 4 0 21
v 4 0 -19
v 4 2 21
v 4 2 -19
v 4 4 21
v 4 4 16
v 4 4 11
v 4 4 -9
v 4 4 -14
v 4 4 -19
v 4 5 21
v 4 5 16
v 4 5 11
v 4 5 10
v 4 5 -9
v 4 5 -14
v 4 5 -19
v 4 6 11
v 4 6 10
v 4 6 -9
v 4 7 11
v 4 7 10
v 4 7 -8
v 4 7 -9
v 4 8 11
v 4 8 10
v 4 8 -8
v 4 8 -9
v 4 9 11
v 4 9 -5
v 4 9 -6
v 4 9 -9
v 4 10 -5
v 4 10 -6
v -21 0 21
v -21 2 21
v -21 4 21
v -21 5 21
v -16 4 21
v -16 5 21
v -11 4 21
v -11 5 21
v -6 4 21
v -6 5 21
v -1 4 21
v -1 5 21
v 4 0 21
v 4 2 21
v 4 4 21
v 4 5 21
v -1 5 11
v -1 6 11
v -1 7 11
v -1 8 11
v -1 9 11
v 0 6 11
v 0 7 11
v 0 8 11
v 1 6 11
v 1 7 11
v 3 5 11
v 3 6 11
v 3 7 11
v 3 8 11
v 4 5 11
v 4 6 11
v 4 7 11
v 4 8 11
v 4 9 11
v -18 5 10
v -18 6 10
v -17 5 10
v -17 6 10
v 1 9 8
v 1 10 8
v 2 9 8
v 2 10 8
v -20 4 6
v -20 5 6
v -19 4 6
v -19 5 6
v -6 5 6
v -6 6 6
v -6 8 6
v -6 9 6
v -5 5 6
v -5 6 6
v -5 7 6
v -5 8 6
v -4 7 6
v -4 8 6
v -2 6 6
v -2 7 6
v -1 5 6
v -1 6 6
v -1 7 6
v -1 8 6
v -1 9 6
v -2 9 3
v -2 10 3
v -1 9 3
v -1 10 3
v -1 9 1
v -1 10 1
v 0 9 1
v 0 10 1
v -19 4 -4
v -19 5 -4
v -18 4 -4
v -18 5 -4
v 3 9 -5
v 3 10 -5
v 4 9 -5
v 4 10 -5
v -21 4 -8
v -21 5 -8
v -17 4 -8
v -17 5 -8
v -17 6 -8
v -16 5 -8
v -16 6 -8
v -21 4 10
v -21 5 10
v -18 4 10
v -18 5 10
v -18 4 9
v -18 5 9
v -18 6 9
v -17 4 9
v -17 5 9
v -17 6 9
v 1 9 7
v 1 10 7
v 2 9 7
v 2 10 7
v -20 4 5
v -20 5 5
v -19 4 5
v -19 5 5
v -2 9 2
v -2 10 2
v -1 9 2
v -1 10 2
v -1 9 -0
v -1 10 -0
v 0 9 -0
v 0 10 -0
v -6 5 -4
v -6 6 -4
v -6 8 -4
v -6 9 -4
v -4 6 -4
v -4 7 -4
v -3 6 -4
v -3 7 -4
v -1 5 -4
v -1 6 -4
v -1 7 -4
v -1 8 -4
v -1 9 -4
v -19 4 -6
v -19 5 -6
v -18 4 -6
v -18 5 -6
v 3 9 -6
v 3 10 -6
v 4 9 -6
v 4 10 -6
v -17 5 -9
v -17 6 -9
v -16 5 -9
v -16 6 -9
v -1 5 -9
v -1 6 -9
v -1 8 -9
v -1 9 -9
v 0 5 -9
v 0 6 -9
v 1 5 -9
v 1 6 -9
v 2 5 -9
v 2 6 -9
v 3 7 -9
v 3 8 -9
v 4 5 -9
v 4 6 -9
v 4 7 -9
v 4 8 -9
v 4 9 -9
v -21 0 -19
v -21 2 -19
v -21 4 -19
v -21 5 -19
v -16 4 -19
v -16 5 -19
v -11 4 -19
v -11 5 -19
v -6 4 -19
v -6 5 -19
v -1 4 -19
v -1 5 -19
v 4 0 -19
v 4 2 -19
v 4 4 -19
v 4 5 -19
v -21 0 21
v 4 0 21
v -21 0 10
v -20 0 10
v -21 0 -8
v -20 0 -8
v -21 0 -19
v 4 0 -19
v -21 4 10
v -18 4 10
v -18 4 9
v -17 4 9
v -20 4 6
v -19 4 6
v -20 4 5
v -19 4 5
v -19 4 -4
v -18 4 -4
v -19 4 -6
v -18 4 -6
v -21 4 -8
v -17 4 -8
v -21 5 21
v -16 5 21
v -11 5 21
v -6 5 21
v -1 5 21
v 4 5 21
v -21 5 16
v -16 5 16
v -11 5 16
v -6 5 16
v -1 5 16
v 4 5 16
v -21 5 11
v -16 5 11
v -11 5 11
v -6 5 11
v -1 5 11
v 3 5 11
v 4 5 11
v -21 5 10
v -18 5 10
v -17 5 10
v -17 5 9
v -20 5 6
v -19 5 6
v -16 5 6
v -11 5 6
v -6 5 6
v -5 5 6
v -1 5 6
v -20 5 5
v -19 5 5
v -6 5 5
v -16 5 1
v -11 5 1
v -6 5 1
v -19 5 -4
v -18 5 -4
v -16 5 -4
v -11 5 -4
v -6 5 -4
v -1 5 -4
v -19 5 -6
v -18 5 -6
v -21 5 -8
v -17 5 -8
v -16 5 -8
v -1 5 -8
v -21 5 -9
v -17 5 -9
v -16 5 -9
v -11 5 -9
v -6 5 -9
v -1 5 -9
v 0 5 -9
v 1 5 -9
v 2 5 -9
v 4 5 -9
v -21 5 -14
v -16 5 -14
v -11 5 -14
v -6 5 -14
v -1 5 -14
v 4 5 -14
v -21 5 -19
v -16 5 -19
v -11 5 -19
v -6 5 -19
v -1 5 -19
v 4 5 -19
v -18 6 10
v -17 6 10
v -18 6 9
v -17 6 9
v -17 6 -8
v -16 6 -8
v -17 6 -9
v -16 6 -9
v -1 9 11
v 4 9 11
v 1 9 8
v 2 9 8
v 1 9 7
v 2 9 7
v -6 9 6
v -1 9 6
v -2 9 3
v -1 9 3
v -2 9 2
v -1 9 2
v -1 9 1
v 0 9 1
v -1 9 -0
v 0 9 -0
v -6 9 -4
v -1 9 -4
v 3 9 -5
v 4 9 -5
v 3 9 -6
v 4 9 -6
v -1 9 -9
v 4 9 -9
v 1 10 8
v 2 10 8
v 1 10 7
v 2 10 7
v -2 10 3
v -1 10 3
v -2 10 2
v -1 10 2
v -1 10 1
v 0 10 1
v -1 10 -0
v 0 10 -0
v 3 10 -5
v 4 10 -5
v 3 10 -6
v 4 10 -6

# faces
f 5/2/1 2/2/1 1/2/1
f 6/15/1 3/15/1 2/15/1
f 6/2/1 2/2/1 5/2/1
f 7/2/1 4/2/1 3/2/1
f 7/15/1 3/15/1 6/15/1
f 8/2/1 4/2/1 7/2/1
f 9/1/1 6/1/1 5/1/1
f 10/1/1 6/1/1 9/1/1
f 11/1/1 6/1/1 10/1/1
f 12/15/1 7/15/1 6/15/1
f 12/1/1 6/1/1 11/1/1
f 13/1/1 8/1/1 7/1/1
f 13/15/1 7/15/1 12/15/1
f 14/1/1 8/1/1 13/1/1
f 15/1/1 8/1/1 14/1/1
f 16/1/1 8/1/1 15/1/1
f 17/9/1 10/9/1 9/9/1
f 18/8/1 11/8/1 10/8/1
f 18/9/1 10/9/1 17/9/1
f 19/17/1 12/17/1 11/17/1
f 19/8/1 11/8/1 18/8/1
f 20/17/1 12/17/1 19/17/1
f 21/17/1 14/17/1 13/17/1
f 22/9/1 15/9/1 14/9/1
f 22/17/1 14/17/1 21/17/1
f 23/8/1 16/8/1 15/8/1
f 23/9/1 15/9/1 22/9/1
f 24/8/1 16/8/1 23/8/1
f 27/16/1 26/16/1 25/16/1
f 28/16/1 26/16/1 27/16/1
f 31/16/1 30/16/1 29/16/1
f 32/16/1 30/16/1 31/16/1
f 35/16/1 34/16/1 33/16/1
f 36/16/1 34/16/1 35/16/1
f 37/17/1 36/17/1 35/17/1
f 38/17/1 36/17/1 37/17/1
f 41/17/1 40/17/1 39/17/1
f 42/17/1 40/17/1 41/17/1
f 44/17/1 43/17/1 42/17/1
f 45/17/1 43/17/1 44/17/1
f 50/5/1 47/5/1 46/5/1
f 51/2/1 49/2/1 48/2/1
f 51/5/1 47/5/1 50/5/1
f 51/2/1 48/2/1 47/2/1
f 52/2/1 49/2/1 51/2/1
f 53/2/1 49/2/1 52/2/1
f 54/2/1 49/2/1 53/2/1
f 55/1/1 51/1/1 50/1/1
f 55/1/1 52/1/1 51/1/1
f 55/7/1 53/7/1 52/7/1
f 56/1/1 54/1/1 53/1/1
f 56/7/1 53/7/1 55/7/1
f 57/1/1 54/1/1 56/1/1
f 58/1/1 54/1/1 57/1/1
f 59/1/1 55/1/1 50/1/1
f 59/1/1 56/1/1 55/1/1
f 59/1/1 57/1/1 56/1/1
f 60/7/1 58/7/1 57/7/1
f 60/1/1 57/1/1 59/1/1
f 61/1/1 54/1/1 58/1/1
f 61/7/1 58/7/1 60/7/1
f 62/1/1 54/1/1 61/1/1
f 63/12/1 60/12/1 59/12/1
f 63/12/1 61/12/1 60/12/1
f 63/12/1 62/12/1 61/12/1
f 64/12/1 62/12/1 63/12/1
f 67/11/1 66/11/1 65/11/1
f 68/11/1 66/11/1 67/11/1
f 74/2/1 70/2/1 69/2/1
f 75/2/1 70/2/1 74/2/1
f 76/2/1 72/2/1 71/2/1
f 77/2/1 72/2/1 76/2/1
f 78/3/1 73/3/1 72/3/1
f 78/2/1 72/2/1 77/2/1
f 79/3/1 73/3/1 78/3/1
f 80/1/1 75/1/1 74/1/1
f 81/1/1 75/1/1 80/1/1
f 82/1/1 75/1/1 81/1/1
f 83/6/1 77/6/1 76/6/1
f 84/1/1 78/1/1 77/1/1
f 84/6/1 77/6/1 83/6/1
f 84/1/1 79/1/1 78/1/1
f 85/4/1 81/4/1 80/4/1
f 86/1/1 82/1/1 81/1/1
f 86/4/1 81/4/1 85/4/1
f 87/1/1 82/1/1 86/1/1
f 88/1/1 84/1/1 83/1/1
f 89/1/1 79/1/1 84/1/1
f 89/1/1 84/1/1 88/1/1
f 90/12/1 87/12/1 86/12/1
f 90/12/1 86/12/1 85/12/1
f 91/12/1 87/12/1 90/12/1
f 94/12/1 89/12/1 88/12/1
f 95/12/1 89/12/1 94/12/1
f 96/13/1 93/13/1 92/13/1
f 97/13/1 93/13/1 96/13/1
f 100/13/1 99/13/1 98/13/1
f 101/13/1 99/13/1 100/13/1
f 104/10/1 103/10/1 102/10/1
f 105/10/1 103/10/1 104/10/1
f 106/16/2 107/16/2 108/16/2
f 108/16/2 107/16/2 109/16/2
f 110/16/2 111/16/2 112/16/2
f 112/16/2 111/16/2 113/16/2
f 114/17/2 115/17/2 116/17/2
f 116/17/2 115/17/2 117/17/2
f 118/17/2 119/17/2 120/17/2
f 120/17/2 119/17/2 121/17/2
f 122/11/2 123/11/2 124/11/2
f 124/11/2 123/11/2 125/11/2
f 126/13/2 127/13/2 128/13/2
f 128/13/2 127/13/2 129/13/2
f 130/13/2 131/13/2 132/13/2
f 132/13/2 131/13/2 133/13/2
f 134/2/2 135/2/2 136/2/2
f 136/2/2 135/2/2 137/2/2
f 136/1/2 137/1/2 138/1/2
f 138/1/2 137/1/2 139/1/2
f 139/1/2 137/1/2 140/1/2
f 140/1/2 137/1/2 141/1/2
f 141/1/2 137/1/2 142/1/2
f 142/1/2 137/1/2 143/1/2
f 138/9/2 139/9/2 144/9/2
f 139/8/2 140/8/2 145/8/2
f 144/9/2 139/9/2 145/9/2
f 140/2/2 141/2/2 146/2/2
f 145/8/2 140/8/2 146/8/2
f 146/2/2 141/2/2 147/2/2
f 141/9/2 142/9/2 148/9/2
f 147/2/2 141/2/2 148/2/2
f 142/8/2 143/8/2 149/8/2
f 148/9/2 142/9/2 149/9/2
f 149/8/2 143/8/2 150/8/2
f 146/5/2 147/5/2 151/5/2
f 147/2/2 148/2/2 152/2/2
f 151/5/2 147/5/2 152/5/2
f 152/2/2 148/2/2 153/2/2
f 151/1/2 152/1/2 154/1/2
f 152/1/2 153/1/2 154/1/2
f 154/1/2 153/1/2 155/1/2
f 155/1/2 153/1/2 156/1/2
f 156/1/2 153/1/2 157/1/2
f 154/7/2 155/7/2 158/7/2
f 155/1/2 156/1/2 159/1/2
f 158/7/2 155/7/2 159/7/2
f 156/3/2 157/3/2 160/3/2
f 159/1/2 156/1/2 160/1/2
f 160/3/2 157/3/2 161/3/2
f 158/12/2 159/12/2 162/12/2
f 159/12/2 160/12/2 162/12/2
f 160/12/2 161/12/2 162/12/2
f 162/12/2 161/12/2 163/12/2
f 163/12/2 161/12/2 164/12/2
f 164/12/2 161/12/2 165/12/2
f 163/10/2 164/10/2 166/10/2
f 166/10/2 164/10/2 167/10/2
f 172/1/3 170/1/3 169/1/3
f 172/9/3 171/9/3 170/9/3
f 173/9/3 171/9/3 172/9/3
f 174/1/3 172/1/3 169/1/3
f 174/8/3 173/8/3 172/8/3
f 175/8/3 173/8/3 174/8/3
f 176/1/3 174/1/3 169/1/3
f 176/9/3 175/9/3 174/9/3
f 177/9/3 175/9/3 176/9/3
f 178/1/3 176/1/3 169/1/3
f 178/8/3 177/8/3 176/8/3
f 179/8/3 177/8/3 178/8/3
f 180/2/3 169/2/3 168/2/3
f 181/1/3 178/1/3 169/1/3
f 181/2/3 169/2/3 180/2/3
f 182/9/3 179/9/3 178/9/3
f 182/1/3 178/1/3 181/1/3
f 183/9/3 179/9/3 182/9/3
f 189/2/3 185/2/3 184/2/3
f 189/1/3 186/1/3 185/1/3
f 190/4/3 187/4/3 186/4/3
f 190/1/3 186/1/3 189/1/3
f 191/12/3 188/12/3 187/12/3
f 191/4/3 187/4/3 190/4/3
f 192/3/3 190/3/3 189/3/3
f 192/2/3 189/2/3 184/2/3
f 193/1/3 191/1/3 190/1/3
f 193/3/3 190/3/3 192/3/3
f 194/2/3 192/2/3 184/2/3
f 195/1/3 193/1/3 192/1/3
f 195/2/3 192/2/3 194/2/3
f 196/1/3 191/1/3 193/1/3
f 196/1/3 193/1/3 195/1/3
f 197/12/3 188/12/3 191/12/3
f 197/1/3 191/1/3 196/1/3
f 198/5/3 195/5/3 194/5/3
f 199/1/3 196/1/3 195/1/3
f 199/5/3 195/5/3 198/5/3
f 200/7/3 197/7/3 196/7/3
f 200/1/3 196/1/3 199/1/3
f 201/12/3 188/12/3 197/12/3
f 201/7/3 197/7/3 200/7/3
f 202/12/3 188/12/3 201/12/3
f 205/17/3 204/17/3 203/17/3
f 206/17/3 204/17/3 205/17/3
f 209/13/3 208/13/3 207/13/3
f 210/13/3 208/13/3 209/13/3
f 213/16/3 212/16/3 211/16/3
f 214/16/3 212/16/3 213/16/3
f 219/5/3 216/5/3 215/5/3
f 220/1/3 217/1/3 216/1/3
f 220/5/3 216/5/3 219/5/3
f 221/1/3 217/1/3 220/1/3
f 222/12/3 218/12/3 217/12/3
f 222/1/3 217/1/3 221/1/3
f 223/1/3 221/1/3 220/1/3
f 223/5/3 222/5/3 221/5/3
f 224/12/3 218/12/3 222/12/3
f 224/5/3 222/5/3 223/5/3
f 225/1/3 223/1/3 220/1/3
f 225/2/3 220/2/3 219/2/3
f 225/1/3 224/1/3 223/1/3
f 226/1/3 224/1/3 225/1/3
f 227/2/3 225/2/3 219/2/3
f 228/5/3 226/5/3 225/5/3
f 228/2/3 225/2/3 227/2/3
f 229/1/3 224/1/3 226/1/3
f 229/5/3 226/5/3 228/5/3
f 230/12/3 218/12/3 224/12/3
f 230/1/3 224/1/3 229/1/3
f 231/12/3 218/12/3 230/12/3
f 234/11/3 233/11/3 232/11/3
f 235/11/3 233/11/3 234/11/3
f 238/13/3 237/13/3 236/13/3
f 239/13/3 237/13/3 238/13/3
f 242/16/3 241/16/3 240/16/3
f 243/16/3 241/16/3 242/16/3
f 246/10/3 245/10/3 244/10/3
f 247/10/3 245/10/3 246/10/3
f 250/17/3 249/17/3 248/17/3
f 251/17/3 249/17/3 250/17/3
f 253/17/3 252/17/3 251/17/3
f 254/17/3 252/17/3 253/17/3
f 255/17/4 256/17/4 257/17/4
f 257/17/4 256/17/4 258/17/4
f 259/16/4 260/16/4 262/16/4
f 260/17/4 261/17/4 263/17/4
f 262/16/4 260/16/4 263/16/4
f 263/17/4 261/17/4 264/17/4
f 265/13/4 266/13/4 267/13/4
f 267/13/4 266/13/4 268/13/4
f 269/16/4 270/16/4 271/16/4
f 271/16/4 270/16/4 272/16/4
f 273/11/4 274/11/4 275/11/4
f 275/11/4 274/11/4 276/11/4
f 277/13/4 278/13/4 279/13/4
f 279/13/4 278/13/4 280/13/4
f 281/2/4 282/2/4 285/2/4
f 282/1/4 283/1/4 285/1/4
f 285/1/4 283/1/4 286/1/4
f 281/2/4 285/2/4 287/2/4
f 285/6/4 286/6/4 287/6/4
f 286/1/4 283/1/4 288/1/4
f 287/6/4 286/6/4 288/6/4
f 281/2/4 287/2/4 289/2/4
f 287/1/4 288/1/4 290/1/4
f 289/2/4 287/2/4 290/2/4
f 288/1/4 283/1/4 291/1/4
f 290/1/4 288/1/4 291/1/4
f 283/12/4 284/12/4 292/12/4
f 291/1/4 283/1/4 292/1/4
f 292/12/4 284/12/4 293/12/4
f 294/16/4 295/16/4 296/16/4
f 296/16/4 295/16/4 297/16/4
f 298/10/4 299/10/4 300/10/4
f 300/10/4 299/10/4 301/10/4
f 302/17/4 303/17/4 304/17/4
f 304/17/4 303/17/4 305/17/4
f 306/3/4 307/3/4 310/3/4
f 307/1/4 308/1/4 311/1/4
f 310/3/4 307/3/4 311/3/4
f 310/2/4 311/2/4 312/2/4
f 311/1/4 308/1/4 313/1/4
f 312/2/4 311/2/4 313/2/4
f 312/6/4 313/6/4 314/6/4
f 313/1/4 308/1/4 315/1/4
f 314/6/4 313/6/4 315/6/4
f 315/1/4 308/1/4 316/1/4
f 308/12/4 309/12/4 317/12/4
f 316/1/4 308/1/4 317/1/4
f 314/2/4 315/2/4 318/2/4
f 315/1/4 316/1/4 319/1/4
f 318/2/4 315/2/4 319/2/4
f 316/3/4 317/3/4 320/3/4
f 319/1/4 316/1/4 320/1/4
f 317/12/4 309/12/4 321/12/4
f 320/3/4 317/3/4 321/3/4
f 321/12/4 309/12/4 322/12/4
f 324/1/4 325/1/4 327/1/4
f 325/8/4 326/8/4 327/8/4
f 327/8/4 326/8/4 328/8/4
f 324/1/4 327/1/4 329/1/4
f 327/9/4 328/9/4 329/9/4
f 329/9/4 328/9/4 330/9/4
f 324/1/4 329/1/4 331/1/4
f 329/8/4 330/8/4 331/8/4
f 331/8/4 330/8/4 332/8/4
f 324/1/4 331/1/4 333/1/4
f 331/9/4 332/9/4 333/9/4
f 333/9/4 332/9/4 334/9/4
f 323/2/4 324/2/4 335/2/4
f 324/1/4 333/1/4 336/1/4
f 335/2/4 324/2/4 336/2/4
f 333/8/4 334/8/4 337/8/4
f 336/1/4 333/1/4 337/1/4
f 337/8/4 334/8/4 338/8/4
f 341/2/5 340/2/5 339/2/5
f 342/2/5 340/2/5 341/2/5
f 343/15/5 342/15/5 341/15/5
f 344/2/5 340/2/5 342/2/5
f 344/15/5 342/15/5 343/15/5
f 345/2/5 344/2/5 343/2/5
f 346/2/5 340/2/5 344/2/5
f 346/2/5 344/2/5 345/2/5
f 347/15/6 348/15/6 349/15/6
f 347/15/6 349/15/6 351/15/6
f 349/15/6 350/15/6 351/15/6
f 351/15/6 350/15/6 352/15/6
f 347/15/6 351/15/6 353/15/6
f 352/15/6 350/15/6 354/15/6
f 354/15/6 350/15/6 355/15/6
f 353/15/6 354/15/6 355/15/6
f 355/15/6 350/15/6 356/15/6
f 353/15/6 355/15/6 357/15/6
f 356/15/6 350/15/6 358/15/6
f 347/15/6 353/15/6 359/15/6
f 357/15/6 358/15/6 359/15/6
f 353/15/6 357/15/6 359/15/6
f 358/15/6 350/15/6 360/15/6
f 359/15/6 358/15/6 360/15/6
f 361/9/6 362/9/6 367/9/6
f 362/8/6 363/8/6 368/8/6
f 367/9/6 362/9/6 368/9/6
f 363/9/6 364/9/6 369/9/6
f 368/8/6 363/8/6 369/8/6
f 364/8/6 365/8/6 370/8/6
f 369/9/6 364/9/6 370/9/6
f 365/9/6 366/9/6 371/9/6
f 370/8/6 365/8/6 371/8/6
f 371/9/6 366/9/6 372/9/6
f 367/8/6 368/8/6 373/8/6
f 368/9/6 369/9/6 374/9/6
f 373/8/6 368/8/6 374/8/6
f 369/8/6 370/8/6 375/8/6
f 374/9/6 369/9/6 375/9/6
f 370/9/6 371/9/6 376/9/6
f 375/8/6 370/8/6 376/8/6
f 371/8/6 372/8/6 377/8/6
f 376/9/6 371/9/6 377/9/6
f 377/8/6 372/8/6 378/8/6
f 378/8/6 372/8/6 379/8/6
f 373/17/6 374/17/6 380/17/6
f 380/17/6 374/17/6 381/17/6
f 381/17/6 374/17/6 382/17/6
f 382/17/6 374/17/6 383/17/6
f 374/8/6 375/8/6 386/8/6
f 383/17/6 374/17/6 386/17/6
f 375/9/6 376/9/6 387/9/6
f 386/8/6 375/8/6 387/8/6
f 376/8/6 377/8/6 388/8/6
f 387/9/6 376/9/6 388/9/6
f 388/8/6 377/8/6 389/8/6
f 389/8/6 377/8/6 390/8/6
f 384/16/6 385/16/6 391/16/6
f 391/16/6 385/16/6 392/16/6
f 387/8/6 388/8/6 393/8/6
f 383/17/6 386/17/6 394/17/6
f 386/9/6 387/9/6 394/9/6
f 387/8/6 393/8/6 395/8/6
f 394/9/6 387/9/6 395/9/6
f 395/8/6 393/8/6 396/8/6
f 383/17/6 394/17/6 399/17/6
f 394/8/6 395/8/6 399/8/6
f 395/9/6 396/9/6 400/9/6
f 399/8/6 395/8/6 400/8/6
f 400/9/6 396/9/6 401/9/6
f 397/16/6 398/16/6 403/16/6
f 403/16/6 398/16/6 404/16/6
f 383/17/6 399/17/6 406/17/6
f 399/9/6 400/9/6 407/9/6
f 406/17/6 399/17/6 407/17/6
f 401/9/6 402/9/6 408/9/6
f 405/17/6 406/17/6 409/17/6
f 409/17/6 406/17/6 410/17/6
f 407/9/6 400/9/6 411/9/6
f 400/8/6 401/8/6 412/8/6
f 411/9/6 400/9/6 412/9/6
f 401/9/6 408/9/6 413/9/6
f 412/8/6 401/8/6 413/8/6
f 413/9/6 408/9/6 414/9/6
f 410/9/6 411/9/6 419/9/6
f 409/9/6 410/9/6 419/9/6
f 411/8/6 412/8/6 420/8/6
f 419/9/6 411/9/6 420/9/6
f 412/9/6 413/9/6 421/9/6
f 420/8/6 412/8/6 421/8/6
f 413/8/6 414/8/6 422/8/6
f 421/9/6 413/9/6 422/9/6
f 417/9/6 418/9/6 423/9/6
f 422/8/6 414/8/6 423/8/6
f 416/9/6 417/9/6 423/9/6
f 415/9/6 416/9/6 423/9/6
f 414/9/6 415/9/6 423/9/6
f 423/9/6 418/9/6 424/9/6
f 419/8/6 420/8/6 425/8/6
f 420/9/6 421/9/6 426/9/6
f 425/8/6 420/8/6 426/8/6
f 421/8/6 422/8/6 427/8/6
f 426/9/6 421/9/6 427/9/6
f 422/9/6 423/9/6 428/9/6
f 427/8/6 422/8/6 428/8/6
f 423/8/6 424/8/6 429/8/6
f 428/9/6 423/9/6 429/9/6
f 429/8/6 424/8/6 430/8/6
f 431/17/6 432/17/6 433/17/6
f 433/17/6 432/17/6 434/17/6
f 435/17/6 436/17/6 437/17/6
f 437/17/6 436/17/6 438/17/6
f 439/12/6 440/12/6 441/12/6
f 441/12/6 440/12/6 442/12/6
f 439/12/6 441/12/6 443/12/6
f 442/12/6 440/12/6 444/12/6
f 439/12/6 443/12/6 446/12/6
f 443/12/6 444/12/6 446/12/6
f 445/12/6 446/12/6 447/12/6
f 446/12/6 444/12/6 448/12/6
f 447/12/6 446/12/6 448/12/6
f 445/12/6 447/12/6 449/12/6
f 448/12/6 444/12/6 450/12/6
f 450/12/6 444/12/6 451/12/6
f 449/12/6 450/12/6 451/12/6
f 451/12/6 444/12/6 452/12/6
f 449/12/6 451/12/6 453/12/6
f 452/12/6 444/12/6 454/12/6
f 445/12/6 449/12/6 455/12/6
f 453/12/6 454/12/6 455/12/6
f 449/12/6 453/12/6 455/12/6
f 455/12/6 454/12/6 456/12/6
f 444/12/6 440/12/6 457/12/6
f 456/12/6 454/12/6 457/12/6
f 454/12/6 444/12/6 457/12/6
f 457/12/6 440/12/6 458/12/6
f 456/12/6 457/12/6 459/12/6
f 456/12/6 459/12/6 461/12/6
f 459/12/6 460/12/6 461/12/6
f 461/12/6 460/12/6 462/12/6
f 463/13/6 464/13/6 465/13/6
f 465/13/6 464/13/6 466/13/6
f 467/11/6 468/11/6 469/11/6
f 469/11/6 468/11/6 470/11/6
f 471/13/6 472/13/6 473/13/6
f 473/13/6 472/13/6 474/13/6
f 475/10/6 476/10/6 477/10/6
f 477/10/6 476/10/6 478/10/6
