# MagicaVoxel @ Ephtracy

# group
g jiraffe

# material
mtllib jiraffe.mtl
usemtl palette

# normals
vn -1 0 0
vn 1 0 0
vn 0 0 1
vn 0 0 -1
vn 0 -1 0
vn 0 1 0

# texcoords
vt 0.00195313 0.5
vt 0.00976563 0.5
vt 0.0175781 0.5
vt 0.0253906 0.5
vt 0.0878906 0.5
vt 0.533203 0.5
vt 0.994141 0.5

# verts
v -10.5 23 2.5
v -10.5 23 -1.5
v -10.5 27 2.5
v -10.5 27 -1.5
v -7.5 0 4.5
v -7.5 0 2.5
v -7.5 0 -1.5
v -7.5 0 -3.5
v -7.5 1 4.5
v -7.5 1 2.5
v -7.5 1 -1.5
v -7.5 1 -3.5
v -7.5 5 -2.5
v -7.5 5 -3.5
v -7.5 7 2.5
v -7.5 7 -1.5
v -7.5 7 -2.5
v -7.5 7 -3.5
v -7.5 8 1.5
v -7.5 8 -1.5
v -7.5 9 4.5
v -7.5 9 3.5
v -7.5 11 1.5
v -7.5 11 -1.5
v -7.5 12 4.5
v -7.5 12 3.5
v -7.5 13 4.5
v -7.5 13 2.5
v -7.5 13 0.5
v -7.5 13 -1.5
v -7.5 13 -3.5
v -7.5 14 2.5
v -7.5 14 1.5
v -7.5 16 0.5
v -7.5 16 -1.5
v -7.5 17 2.5
v -7.5 17 1.5
v -7.5 18 0.5
v -7.5 18 -1.5
v -7.5 21 0.5
v -7.5 21 -1.5
v -7.5 23 2.5
v -7.5 23 -1.5
v -5.5 25 5.5
v -5.5 25 4.5
v -5.5 25 2.5
v -5.5 25 -1.5
v -5.5 25 -3.5
v -5.5 25 -4.5
v -5.5 26 2.5
v -5.5 26 -1.5
v -5.5 27 5.5
v -5.5 27 4.5
v -5.5 27 2.5
v -5.5 27 1.5
v -5.5 27 -0.5
v -5.5 27 -1.5
v -5.5 27 -3.5
v -5.5 27 -4.5
v -5.5 30 2.5
v -5.5 30 1.5
v -5.5 30 -0.5
v -5.5 30 -1.5
v -2.5 8 1.5
v -2.5 8 -1.5
v -2.5 11 1.5
v -2.5 11 -1.5
v -0.5 10 2.5
v -0.5 10 1.5
v -0.5 11 2.5
v -0.5 11 1.5
v 2.5 0 4.5
v 2.5 0 2.5
v 2.5 0 -1.5
v 2.5 0 -3.5
v 2.5 1 4.5
v 2.5 1 2.5
v 2.5 1 -1.5
v 2.5 1 -3.5
v 2.5 7 4.5
v 2.5 7 2.5
v 2.5 7 -1.5
v 2.5 7 -3.5
v 3.5 8 2.5
v 3.5 8 -1.5
v 3.5 8 -2.5
v 3.5 10 2.5
v 3.5 10 1.5
v 3.5 12 1.5
v 3.5 12 -1.5
v 3.5 12 -2.5
v 6.5 6 0.5
v 6.5 6 -0.5
v 6.5 8 1.5
v 6.5 8 0.5
v 6.5 8 -0.5
v 6.5 8 -1.5
v 6.5 11 1.5
v 6.5 11 0.5
v 6.5 11 -0.5
v 6.5 11 -1.5
v -5.5 0 4.5
v -5.5 0 2.5
v -5.5 0 -1.5
v -5.5 0 -3.5
v -5.5 1 4.5
v -5.5 1 2.5
v -5.5 1 -1.5
v -5.5 1 -3.5
v -5.5 7 4.5
v -5.5 7 2.5
v -5.5 7 -1.5
v -5.5 7 -3.5
v -4.5 27 2.5
v -4.5 27 1.5
v -4.5 27 -0.5
v -4.5 27 -1.5
v -4.5 30 2.5
v -4.5 30 1.5
v -4.5 30 -0.5
v -4.5 30 -1.5
v -3.5 8 2.5
v -3.5 8 -1.5
v -3.5 11 2.5
v -3.5 11 -1.5
v -3.5 13 2.5
v -3.5 13 -1.5
v -3.5 16 0.5
v -3.5 16 -1.5
v -3.5 18 0.5
v -3.5 18 -1.5
v -3.5 19 2.5
v -3.5 19 0.5
v -3.5 21 2.5
v -3.5 21 0.5
v -3.5 22 -0.5
v -3.5 22 -1.5
v -3.5 24 -0.5
v -3.5 24 -1.5
v -3.5 25 5.5
v -3.5 25 4.5
v -3.5 25 2.5
v -3.5 25 -1.5
v -3.5 25 -3.5
v -3.5 25 -4.5
v -3.5 27 5.5
v -3.5 27 4.5
v -3.5 27 -3.5
v -3.5 27 -4.5
v -1.5 8 1.5
v -1.5 8 -2.5
v -1.5 11 1.5
v -1.5 12 1.5
v -1.5 12 0.5
v -1.5 12 -2.5
v 4.5 0 4.5
v 4.5 0 2.5
v 4.5 0 -1.5
v 4.5 0 -3.5
v 4.5 1 4.5
v 4.5 1 2.5
v 4.5 1 -1.5
v 4.5 1 -3.5
v 4.5 7 2.5
v 4.5 7 -1.5
v 4.5 8 2.5
v 4.5 8 -1.5
v 4.5 8 -2.5
v 4.5 8 -3.5
v 4.5 10 1.5
v 4.5 10 -0.5
v 4.5 10 -2.5
v 4.5 10 -3.5
v 4.5 12 3.5
v 4.5 12 1.5
v 4.5 13 4.5
v 4.5 13 3.5
v 4.5 13 1.5
v 4.5 13 -0.5
v 4.5 13 -3.5
v 5.5 10 1.5
v 5.5 10 -0.5
v 5.5 11 0.5
v 5.5 11 -0.5
v 5.5 12 1.5
v 5.5 12 0.5
v 6.5 12 1.5
v 6.5 12 0.5
v 6.5 13 1.5
v 6.5 13 0.5
v 7.5 6 0.5
v 7.5 6 -0.5
v 7.5 7 0.5
v 7.5 7 -0.5
v 7.5 8 1.5
v 7.5 8 0.5
v 7.5 8 -0.5
v 7.5 8 -1.5
v 7.5 11 1.5
v 7.5 11 0.5
v 7.5 11 -0.5
v 7.5 11 -1.5
v 7.5 13 0.5
v 7.5 13 -0.5
v 8.5 7 0.5
v 8.5 7 -0.5
v 8.5 11 0.5
v 8.5 11 -0.5
v -5.5 25 5.5
v -5.5 27 5.5
v -3.5 25 5.5
v -3.5 27 5.5
v -7.5 0 4.5
v -7.5 1 4.5
v -7.5 9 4.5
v -7.5 12 4.5
v -7.5 13 4.5
v -5.5 0 4.5
v -5.5 1 4.5
v -5.5 7 4.5
v -5.5 8 4.5
v -5.5 9 4.5
v -5.5 12 4.5
v -3.5 7 4.5
v -3.5 8 4.5
v -3.5 10 4.5
v -0.5 7 4.5
v -0.5 8 4.5
v -0.5 10 4.5
v 0.5 10 4.5
v 0.5 12 4.5
v 2.5 0 4.5
v 2.5 1 4.5
v 2.5 7 4.5
v 2.5 8 4.5
v 2.5 10 4.5
v 2.5 12 4.5
v 4.5 0 4.5
v 4.5 1 4.5
v 4.5 13 4.5
v -10.5 23 2.5
v -10.5 27 2.5
v -7.5 13 2.5
v -7.5 14 2.5
v -7.5 17 2.5
v -7.5 23 2.5
v -7.5 24 2.5
v -7.5 26 2.5
v -7.5 27 2.5
v -6.5 13 2.5
v -6.5 14 2.5
v -6.5 17 2.5
v -6.5 22 2.5
v -6.5 24 2.5
v -6.5 25 2.5
v -6.5 26 2.5
v -5.5 14 2.5
v -5.5 17 2.5
v -5.5 24 2.5
v -5.5 25 2.5
v -5.5 26 2.5
v -5.5 27 2.5
v -5.5 30 2.5
v -4.5 19 2.5
v -4.5 21 2.5
v -4.5 22 2.5
v -4.5 24 2.5
v -4.5 27 2.5
v -4.5 30 2.5
v -3.5 13 2.5
v -3.5 19 2.5
v -3.5 21 2.5
v -3.5 25 2.5
v -2.5 8 1.5
v -2.5 11 1.5
v -1.5 8 1.5
v -1.5 11 1.5
v 4.5 10 1.5
v 4.5 12 1.5
v 4.5 13 1.5
v 5.5 10 1.5
v 5.5 12 1.5
v 6.5 8 1.5
v 6.5 11 1.5
v 6.5 12 1.5
v 6.5 13 1.5
v 7.5 8 1.5
v 7.5 11 1.5
v 5.5 11 0.5
v 5.5 12 0.5
v 6.5 6 0.5
v 6.5 8 0.5
v 6.5 11 0.5
v 6.5 12 0.5
v 6.5 13 0.5
v 7.5 6 0.5
v 7.5 7 0.5
v 7.5 8 0.5
v 7.5 11 0.5
v 7.5 13 0.5
v 8.5 7 0.5
v 8.5 11 0.5
v -5.5 27 -0.5
v -5.5 30 -0.5
v -4.5 27 -0.5
v -4.5 30 -0.5
v -7.5 0 -1.5
v -7.5 1 -1.5
v -7.5 7 -1.5
v -5.5 0 -1.5
v -5.5 1 -1.5
v -5.5 7 -1.5
v -3.5 8 -1.5
v -3.5 11 -1.5
v -2.5 8 -1.5
v -2.5 11 -1.5
v 2.5 0 -1.5
v 2.5 1 -1.5
v 2.5 7 -1.5
v 4.5 0 -1.5
v 4.5 1 -1.5
v 4.5 7 -1.5
v -1.5 8 -2.5
v -1.5 12 -2.5
v 0.5 12 -2.5
v 2.5 8 -2.5
v 3.5 8 -2.5
v 3.5 12 -2.5
v -7.5 0 2.5
v -7.5 1 2.5
v -7.5 7 2.5
v -5.5 0 2.5
v -5.5 1 2.5
v -5.5 7 2.5
v -3.5 8 2.5
v -3.5 11 2.5
v -0.5 10 2.5
v -0.5 11 2.5
v 2.5 0 2.5
v 2.5 1 2.5
v 2.5 7 2.5
v 3.5 8 2.5
v 3.5 10 2.5
v 4.5 0 2.5
v 4.5 1 2.5
v 4.5 7 2.5
v -5.5 27 1.5
v -5.5 30 1.5
v -4.5 27 1.5
v -4.5 30 1.5
v -1.5 11 1.5
v -1.5 12 1.5
v -0.5 10 1.5
v -0.5 11 1.5
v 0.5 12 1.5
v 3.5 10 1.5
v 3.5 12 1.5
v 4.5 10 -0.5
v 4.5 13 -0.5
v 5.5 10 -0.5
v 5.5 11 -0.5
v 6.5 6 -0.5
v 6.5 8 -0.5
v 6.5 11 -0.5
v 7.5 6 -0.5
v 7.5 7 -0.5
v 7.5 8 -0.5
v 7.5 11 -0.5
v 7.5 13 -0.5
v 8.5 7 -0.5
v 8.5 11 -0.5
v -10.5 23 -1.5
v -10.5 27 -1.5
v -7.5 13 -1.5
v -7.5 16 -1.5
v -7.5 18 -1.5
v -7.5 21 -1.5
v -7.5 23 -1.5
v -7.5 24 -1.5
v -7.5 26 -1.5
v -7.5 27 -1.5
v -6.5 13 -1.5
v -6.5 16 -1.5
v -6.5 18 -1.5
v -6.5 21 -1.5
v -6.5 24 -1.5
v -6.5 25 -1.5
v -6.5 26 -1.5
v -5.5 24 -1.5
v -5.5 25 -1.5
v -5.5 26 -1.5
v -5.5 27 -1.5
v -5.5 30 -1.5
v -4.5 16 -1.5
v -4.5 18 -1.5
v -4.5 22 -1.5
v -4.5 24 -1.5
v -4.5 27 -1.5
v -4.5 30 -1.5
v -3.5 13 -1.5
v -3.5 16 -1.5
v -3.5 18 -1.5
v -3.5 22 -1.5
v -3.5 24 -1.5
v -3.5 25 -1.5
v 6.5 8 -1.5
v 6.5 11 -1.5
v 7.5 8 -1.5
v 7.5 11 -1.5
v -7.5 0 -3.5
v -7.5 1 -3.5
v -7.5 5 -3.5
v -7.5 7 -3.5
v -7.5 13 -3.5
v -6.5 5 -3.5
v -6.5 7 -3.5
v -5.5 0 -3.5
v -5.5 1 -3.5
v -5.5 7 -3.5
v -5.5 8 -3.5
v -4.5 9 -3.5
v -4.5 12 -3.5
v -1.5 9 -3.5
v -1.5 12 -3.5
v 0.5 12 -3.5
v 0.5 13 -3.5
v 2.5 0 -3.5
v 2.5 1 -3.5
v 2.5 7 -3.5
v 2.5 8 -3.5
v 3.5 8 -3.5
v 3.5 10 -3.5
v 3.5 12 -3.5
v 3.5 13 -3.5
v 4.5 0 -3.5
v 4.5 1 -3.5
v 4.5 8 -3.5
v 4.5 10 -3.5
v 4.5 13 -3.5
v -5.5 25 -4.5
v -5.5 27 -4.5
v -3.5 25 -4.5
v -3.5 27 -4.5
v -7.5 0 4.5
v -5.5 0 4.5
v 2.5 0 4.5
v 4.5 0 4.5
v -7.5 0 2.5
v -5.5 0 2.5
v 2.5 0 2.5
v 4.5 0 2.5
v -7.5 0 -1.5
v -5.5 0 -1.5
v 2.5 0 -1.5
v 4.5 0 -1.5
v -7.5 0 -3.5
v -5.5 0 -3.5
v 2.5 0 -3.5
v 4.5 0 -3.5
v 6.5 6 0.5
v 7.5 6 0.5
v 6.5 6 -0.5
v 7.5 6 -0.5
v -5.5 7 4.5
v -3.5 7 4.5
v -0.5 7 4.5
v 2.5 7 4.5
v -3.5 7 3.5
v -0.5 7 3.5
v -7.5 7 2.5
v -5.5 7 2.5
v 2.5 7 2.5
v 4.5 7 2.5
v 7.5 7 0.5
v 8.5 7 0.5
v 7.5 7 -0.5
v 8.5 7 -0.5
v -7.5 7 -1.5
v -5.5 7 -1.5
v 2.5 7 -1.5
v 4.5 7 -1.5
v -5.5 7 -3.5
v 2.5 7 -3.5
v 6.5 8 1.5
v 7.5 8 1.5
v 6.5 8 0.5
v 7.5 8 0.5
v 6.5 8 -0.5
v 7.5 8 -0.5
v 6.5 8 -1.5
v 7.5 8 -1.5
v -0.5 10 2.5
v 3.5 10 2.5
v -0.5 10 1.5
v 3.5 10 1.5
v 4.5 10 1.5
v 5.5 10 1.5
v 4.5 10 -0.5
v 5.5 10 -0.5
v -3.5 11 2.5
v -0.5 11 2.5
v -2.5 11 1.5
v -1.5 11 1.5
v -0.5 11 1.5
v 5.5 11 0.5
v 6.5 11 0.5
v 5.5 11 -0.5
v 6.5 11 -0.5
v -3.5 11 -1.5
v -2.5 11 -1.5
v -1.5 12 1.5
v 0.5 12 1.5
v 3.5 12 1.5
v 5.5 12 1.5
v 6.5 12 1.5
v -1.5 12 0.5
v 0.5 12 0.5
v 5.5 12 0.5
v 6.5 12 0.5
v 0.5 12 -1.5
v 3.5 12 -1.5
v -1.5 12 -2.5
v 0.5 12 -2.5
v 3.5 12 -2.5
v -10.5 23 2.5
v -7.5 23 2.5
v -10.5 23 -1.5
v -7.5 23 -1.5
v -5.5 25 5.5
v -3.5 25 5.5
v -5.5 25 4.5
v -3.5 25 4.5
v -5.5 25 2.5
v -3.5 25 2.5
v -5.5 25 -1.5
v -3.5 25 -1.5
v -5.5 25 -3.5
v -3.5 25 -3.5
v -5.5 25 -4.5
v -3.5 25 -4.5
v -3.5 8 2.5
v 3.5 8 2.5
v -2.5 8 1.5
v -1.5 8 1.5
v -3.5 8 -1.5
v -2.5 8 -1.5
v 2.5 8 -1.5
v 3.5 8 -1.5
v -1.5 8 -2.5
v 2.5 8 -2.5
v 3.5 8 -2.5
v 6.5 11 1.5
v 7.5 11 1.5
v 6.5 11 0.5
v 7.5 11 0.5
v 8.5 11 0.5
v 6.5 11 -0.5
v 7.5 11 -0.5
v 8.5 11 -0.5
v 6.5 11 -1.5
v 7.5 11 -1.5
v -7.5 13 4.5
v 4.5 13 4.5
v -2.5 13 3.5
v 0.5 13 3.5
v 3.5 13 3.5
v 4.5 13 3.5
v -7.5 13 2.5
v -6.5 13 2.5
v -3.5 13 2.5
v 3.5 13 1.5
v 4.5 13 1.5
v 6.5 13 1.5
v -2.5 13 0.5
v 0.5 13 0.5
v 6.5 13 0.5
v 7.5 13 0.5
v 4.5 13 -0.5
v 7.5 13 -0.5
v -7.5 13 -1.5
v -6.5 13 -1.5
v -3.5 13 -1.5
v 0.5 13 -1.5
v 3.5 13 -1.5
v -7.5 13 -3.5
v 0.5 13 -3.5
v 3.5 13 -3.5
v 4.5 13 -3.5
v -5.5 27 5.5
v -3.5 27 5.5
v -5.5 27 4.5
v -3.5 27 4.5
v -10.5 27 2.5
v -7.5 27 2.5
v -5.5 27 2.5
v -4.5 27 2.5
v -7.5 27 1.5
v -5.5 27 1.5
v -4.5 27 1.5
v -7.5 27 -0.5
v -5.5 27 -0.5
v -4.5 27 -0.5
v -10.5 27 -1.5
v -7.5 27 -1.5
v -5.5 27 -1.5
v -4.5 27 -1.5
v -5.5 27 -3.5
v -3.5 27 -3.5
v -5.5 27 -4.5
v -3.5 27 -4.5
v -5.5 30 2.5
v -4.5 30 2.5
v -5.5 30 1.5
v -4.5 30 1.5
v -5.5 30 -0.5
v -4.5 30 -0.5
v -5.5 30 -1.5
v -4.5 30 -1.5

# faces
f 3/2/1 2/2/1 1/2/1
f 4/2/1 2/2/1 3/2/1
f 9/5/1 6/5/1 5/5/1
f 10/5/1 6/5/1 9/5/1
f 11/5/1 8/5/1 7/5/1
f 12/5/1 8/5/1 11/5/1
f 13/3/1 12/3/1 11/3/1
f 14/3/1 12/3/1 13/3/1
f 15/3/1 10/3/1 9/3/1
f 16/3/1 13/3/1 11/3/1
f 17/6/1 14/6/1 13/6/1
f 17/3/1 13/3/1 16/3/1
f 18/6/1 14/6/1 17/6/1
f 19/2/1 16/2/1 15/2/1
f 20/3/1 17/3/1 16/3/1
f 20/2/1 16/2/1 19/2/1
f 20/3/1 18/3/1 17/3/1
f 21/3/1 15/3/1 9/3/1
f 22/3/1 15/3/1 21/3/1
f 23/2/1 19/2/1 15/2/1
f 23/6/1 20/6/1 19/6/1
f 24/3/1 18/3/1 20/3/1
f 24/6/1 20/6/1 23/6/1
f 25/6/1 22/6/1 21/6/1
f 26/3/1 15/3/1 22/3/1
f 26/6/1 22/6/1 25/6/1
f 27/3/1 26/3/1 25/3/1
f 28/2/1 23/2/1 15/2/1
f 28/3/1 26/3/1 27/3/1
f 28/2/1 24/2/1 23/2/1
f 28/3/1 15/3/1 26/3/1
f 29/2/1 24/2/1 28/2/1
f 30/3/1 18/3/1 24/3/1
f 30/2/1 24/2/1 29/2/1
f 31/3/1 18/3/1 30/3/1
f 32/2/1 29/2/1 28/2/1
f 33/2/1 29/2/1 32/2/1
f 34/6/1 30/6/1 29/6/1
f 34/2/1 29/2/1 33/2/1
f 35/6/1 30/6/1 34/6/1
f 36/6/1 33/6/1 32/6/1
f 37/2/1 34/2/1 33/2/1
f 37/6/1 33/6/1 36/6/1
f 37/2/1 35/2/1 34/2/1
f 38/2/1 37/2/1 36/2/1
f 38/2/1 35/2/1 37/2/1
f 39/2/1 35/2/1 38/2/1
f 40/2/1 38/2/1 36/2/1
f 40/6/1 39/6/1 38/6/1
f 41/6/1 39/6/1 40/6/1
f 42/2/1 40/2/1 36/2/1
f 42/2/1 41/2/1 40/2/1
f 43/2/1 41/2/1 42/2/1
f 50/3/1 46/3/1 45/3/1
f 51/3/1 48/3/1 47/3/1
f 52/2/1 45/2/1 44/2/1
f 53/3/1 50/3/1 45/3/1
f 53/2/1 45/2/1 52/2/1
f 54/3/1 50/3/1 53/3/1
f 57/3/1 48/3/1 51/3/1
f 58/2/1 49/2/1 48/2/1
f 58/3/1 48/3/1 57/3/1
f 59/2/1 49/2/1 58/2/1
f 60/5/1 55/5/1 54/5/1
f 61/5/1 55/5/1 60/5/1
f 62/5/1 57/5/1 56/5/1
f 63/5/1 57/5/1 62/5/1
f 66/4/1 65/4/1 64/4/1
f 67/4/1 65/4/1 66/4/1
f 70/4/1 69/4/1 68/4/1
f 71/4/1 69/4/1 70/4/1
f 76/5/1 73/5/1 72/5/1
f 77/5/1 73/5/1 76/5/1
f 78/5/1 75/5/1 74/5/1
f 79/5/1 75/5/1 78/5/1
f 80/3/1 77/3/1 76/3/1
f 81/3/1 77/3/1 80/3/1
f 82/3/1 79/3/1 78/3/1
f 83/3/1 79/3/1 82/3/1
f 87/3/1 85/3/1 84/3/1
f 87/3/1 86/3/1 85/3/1
f 88/3/1 86/3/1 87/3/1
f 89/3/1 86/3/1 88/3/1
f 90/3/1 86/3/1 89/3/1
f 91/3/1 86/3/1 90/3/1
f 95/5/1 93/5/1 92/5/1
f 96/5/1 93/5/1 95/5/1
f 98/5/1 95/5/1 94/5/1
f 98/5/1 97/5/1 96/5/1
f 98/5/1 96/5/1 95/5/1
f 99/5/1 97/5/1 98/5/1
f 100/5/1 97/5/1 99/5/1
f 101/5/1 97/5/1 100/5/1
f 102/5/2 103/5/2 106/5/2
f 106/5/2 103/5/2 107/5/2
f 104/5/2 105/5/2 108/5/2
f 108/5/2 105/5/2 109/5/2
f 106/3/2 107/3/2 110/3/2
f 110/3/2 107/3/2 111/3/2
f 108/3/2 109/3/2 112/3/2
f 112/3/2 109/3/2 113/3/2
f 114/5/2 115/5/2 118/5/2
f 118/5/2 115/5/2 119/5/2
f 116/5/2 117/5/2 120/5/2
f 120/5/2 117/5/2 121/5/2
f 122/4/2 123/4/2 124/4/2
f 124/4/2 123/4/2 125/4/2
f 126/3/2 127/3/2 128/3/2
f 128/3/2 127/3/2 129/3/2
f 126/3/2 128/3/2 130/3/2
f 128/6/2 129/6/2 130/6/2
f 130/6/2 129/6/2 131/6/2
f 126/3/2 130/3/2 132/3/2
f 130/3/2 131/3/2 132/3/2
f 132/3/2 131/3/2 133/3/2
f 132/6/2 133/6/2 134/6/2
f 133/3/2 131/3/2 135/3/2
f 134/6/2 133/6/2 135/6/2
f 134/3/2 135/3/2 136/3/2
f 135/3/2 131/3/2 136/3/2
f 136/3/2 131/3/2 137/3/2
f 134/3/2 136/3/2 138/3/2
f 136/6/2 137/6/2 138/6/2
f 138/6/2 137/6/2 139/6/2
f 134/3/2 138/3/2 142/3/2
f 138/3/2 139/3/2 142/3/2
f 142/3/2 139/3/2 143/3/2
f 140/2/2 141/2/2 146/2/2
f 142/3/2 143/3/2 147/3/2
f 146/2/2 141/2/2 147/2/2
f 141/3/2 142/3/2 147/3/2
f 143/3/2 144/3/2 147/3/2
f 144/2/2 145/2/2 148/2/2
f 147/3/2 144/3/2 148/3/2
f 148/2/2 145/2/2 149/2/2
f 150/4/2 151/4/2 152/4/2
f 152/4/2 151/4/2 153/4/2
f 153/4/2 151/4/2 154/4/2
f 154/4/2 151/4/2 155/4/2
f 156/5/2 157/5/2 160/5/2
f 160/5/2 157/5/2 161/5/2
f 158/5/2 159/5/2 162/5/2
f 162/5/2 159/5/2 163/5/2
f 160/3/2 161/3/2 164/3/2
f 162/3/2 163/3/2 165/3/2
f 160/3/2 164/3/2 166/3/2
f 164/2/2 165/2/2 166/2/2
f 165/3/2 163/3/2 167/3/2
f 166/2/2 165/2/2 167/2/2
f 167/3/2 163/3/2 168/3/2
f 168/3/2 163/3/2 169/3/2
f 166/3/2 167/3/2 170/3/2
f 167/3/2 168/3/2 170/3/2
f 170/3/2 168/3/2 171/3/2
f 168/6/2 169/6/2 172/6/2
f 171/3/2 168/3/2 172/3/2
f 172/6/2 169/6/2 173/6/2
f 160/3/2 166/3/2 174/3/2
f 166/3/2 170/3/2 174/3/2
f 174/3/2 170/3/2 175/3/2
f 160/3/2 174/3/2 176/3/2
f 174/6/2 175/6/2 177/6/2
f 176/3/2 174/3/2 177/3/2
f 177/6/2 175/6/2 178/6/2
f 172/3/2 173/3/2 179/3/2
f 171/3/2 172/3/2 179/3/2
f 179/3/2 173/3/2 180/3/2
f 181/3/2 182/3/2 183/3/2
f 183/3/2 182/3/2 184/3/2
f 181/3/2 183/3/2 185/3/2
f 185/3/2 183/3/2 186/3/2
f 187/3/2 188/3/2 189/3/2
f 189/3/2 188/3/2 190/3/2
f 191/5/2 192/5/2 193/5/2
f 193/5/2 192/5/2 194/5/2
f 195/5/2 196/5/2 199/5/2
f 199/5/2 196/5/2 200/5/2
f 197/5/2 198/5/2 201/5/2
f 201/5/2 198/5/2 202/5/2
f 200/3/2 201/3/2 203/3/2
f 203/3/2 201/3/2 204/3/2
f 205/5/2 206/5/2 207/5/2
f 207/5/2 206/5/2 208/5/2
f 211/2/3 210/2/3 209/2/3
f 212/2/3 210/2/3 211/2/3
f 218/5/3 214/5/3 213/5/3
f 219/3/3 215/3/3 214/3/3
f 219/5/3 214/5/3 218/5/3
f 220/3/3 215/3/3 219/3/3
f 221/3/3 215/3/3 220/3/3
f 222/6/3 216/6/3 215/6/3
f 222/3/3 215/3/3 221/3/3
f 223/3/3 217/3/3 216/3/3
f 223/6/3 216/6/3 222/6/3
f 224/2/3 221/2/3 220/2/3
f 225/3/3 222/3/3 221/3/3
f 225/2/3 221/2/3 224/2/3
f 225/3/3 223/3/3 222/3/3
f 226/3/3 223/3/3 225/3/3
f 227/6/3 225/6/3 224/6/3
f 227/6/3 226/6/3 225/6/3
f 228/6/3 226/6/3 227/6/3
f 229/3/3 223/3/3 226/3/3
f 229/6/3 226/6/3 228/6/3
f 230/3/3 229/3/3 228/3/3
f 230/3/3 223/3/3 229/3/3
f 231/3/3 217/3/3 223/3/3
f 231/3/3 223/3/3 230/3/3
f 234/2/3 228/2/3 227/2/3
f 235/3/3 230/3/3 228/3/3
f 235/2/3 228/2/3 234/2/3
f 236/6/3 231/6/3 230/6/3
f 236/3/3 230/3/3 235/3/3
f 237/3/3 217/3/3 231/3/3
f 237/6/3 231/6/3 236/6/3
f 238/5/3 233/5/3 232/5/3
f 239/3/3 234/3/3 233/3/3
f 239/5/3 233/5/3 238/5/3
f 239/3/3 235/3/3 234/3/3
f 239/3/3 237/3/3 236/3/3
f 239/3/3 236/3/3 235/3/3
f 240/3/3 217/3/3 237/3/3
f 240/3/3 237/3/3 239/3/3
f 246/2/3 242/2/3 241/2/3
f 247/2/3 242/2/3 246/2/3
f 248/2/3 242/2/3 247/2/3
f 249/2/3 242/2/3 248/2/3
f 250/2/3 244/2/3 243/2/3
f 251/6/3 245/6/3 244/6/3
f 251/2/3 244/2/3 250/2/3
f 252/2/3 246/2/3 245/2/3
f 252/6/3 245/6/3 251/6/3
f 252/2/3 247/2/3 246/2/3
f 253/2/3 247/2/3 252/2/3
f 254/7/3 248/7/3 247/7/3
f 254/2/3 247/2/3 253/2/3
f 255/7/3 248/7/3 254/7/3
f 256/3/3 249/3/3 248/3/3
f 256/7/3 248/7/3 255/7/3
f 257/3/3 251/3/3 250/3/3
f 257/6/3 252/6/3 251/6/3
f 258/3/3 253/3/3 252/3/3
f 258/6/3 252/6/3 257/6/3
f 259/7/3 255/7/3 254/7/3
f 259/6/3 254/6/3 253/6/3
f 260/1/3 256/1/3 255/1/3
f 260/7/3 255/7/3 259/7/3
f 261/3/3 249/3/3 256/3/3
f 261/1/3 256/1/3 260/1/3
f 262/3/3 249/3/3 261/3/3
f 264/3/3 253/3/3 258/3/3
f 264/3/3 258/3/3 257/3/3
f 265/3/3 253/3/3 264/3/3
f 266/6/3 259/6/3 253/6/3
f 266/3/3 253/3/3 265/3/3
f 267/3/3 260/3/3 259/3/3
f 267/6/3 259/6/3 266/6/3
f 268/5/3 263/5/3 262/5/3
f 269/5/3 263/5/3 268/5/3
f 270/3/3 257/3/3 250/3/3
f 270/3/3 264/3/3 257/3/3
f 271/6/3 265/6/3 264/6/3
f 271/3/3 264/3/3 270/3/3
f 272/3/3 266/3/3 265/3/3
f 272/6/3 265/6/3 271/6/3
f 272/3/3 267/3/3 266/3/3
f 273/3/3 260/3/3 267/3/3
f 273/3/3 267/3/3 272/3/3
f 276/4/3 275/4/3 274/4/3
f 277/4/3 275/4/3 276/4/3
f 281/3/3 279/3/3 278/3/3
f 281/3/3 280/3/3 279/3/3
f 282/3/3 280/3/3 281/3/3
f 285/3/3 280/3/3 282/3/3
f 286/3/3 280/3/3 285/3/3
f 287/5/3 284/5/3 283/5/3
f 288/5/3 284/5/3 287/5/3
f 293/3/3 290/3/3 289/3/3
f 294/3/3 290/3/3 293/3/3
f 296/5/3 292/5/3 291/5/3
f 297/5/3 292/5/3 296/5/3
f 298/5/3 292/5/3 297/5/3
f 299/3/3 295/3/3 294/3/3
f 299/3/3 294/3/3 293/3/3
f 300/3/3 295/3/3 299/3/3
f 301/5/3 298/5/3 297/5/3
f 301/5/3 299/5/3 298/5/3
f 302/5/3 299/5/3 301/5/3
f 305/5/3 304/5/3 303/5/3
f 306/5/3 304/5/3 305/5/3
f 310/5/3 308/5/3 307/5/3
f 311/3/3 309/3/3 308/3/3
f 311/5/3 308/5/3 310/5/3
f 312/3/3 309/3/3 311/3/3
f 315/4/3 314/4/3 313/4/3
f 316/4/3 314/4/3 315/4/3
f 320/5/3 318/5/3 317/5/3
f 321/3/3 319/3/3 318/3/3
f 321/5/3 318/5/3 320/5/3
f 322/3/3 319/3/3 321/3/3
f 325/3/3 324/3/3 323/3/3
f 326/3/3 325/3/3 323/3/3
f 327/3/3 325/3/3 326/3/3
f 328/3/3 325/3/3 327/3/3
f 329/5/4 330/5/4 332/5/4
f 330/3/4 331/3/4 333/3/4
f 332/5/4 330/5/4 333/5/4
f 333/3/4 331/3/4 334/3/4
f 335/4/4 336/4/4 337/4/4
f 337/4/4 336/4/4 338/4/4
f 335/4/4 337/4/4 342/4/4
f 342/4/4 337/4/4 343/4/4
f 339/5/4 340/5/4 344/5/4
f 340/3/4 341/3/4 345/3/4
f 344/5/4 340/5/4 345/5/4
f 345/3/4 341/3/4 346/3/4
f 347/5/4 348/5/4 349/5/4
f 349/5/4 348/5/4 350/5/4
f 351/4/4 352/4/4 354/4/4
f 354/4/4 352/4/4 355/4/4
f 353/4/4 354/4/4 355/4/4
f 353/4/4 355/4/4 356/4/4
f 356/4/4 355/4/4 357/4/4
f 358/3/4 359/3/4 360/3/4
f 360/3/4 359/3/4 361/3/4
f 361/3/4 359/3/4 364/3/4
f 362/5/4 363/5/4 365/5/4
f 365/5/4 363/5/4 366/5/4
f 366/5/4 363/5/4 367/5/4
f 364/3/4 359/3/4 368/3/4
f 368/3/4 359/3/4 369/3/4
f 366/5/4 367/5/4 370/5/4
f 367/5/4 368/5/4 370/5/4
f 370/5/4 368/5/4 371/5/4
f 372/2/4 373/2/4 378/2/4
f 378/2/4 373/2/4 379/2/4
f 379/2/4 373/2/4 380/2/4
f 380/2/4 373/2/4 381/2/4
f 374/6/4 375/6/4 382/6/4
f 375/2/4 376/2/4 383/2/4
f 382/6/4 375/6/4 383/6/4
f 376/6/4 377/6/4 384/6/4
f 383/2/4 376/2/4 384/2/4
f 377/2/4 378/2/4 385/2/4
f 384/6/4 377/6/4 385/6/4
f 378/2/4 379/2/4 385/2/4
f 379/7/4 380/7/4 386/7/4
f 385/2/4 379/2/4 386/2/4
f 386/7/4 380/7/4 387/7/4
f 380/3/4 381/3/4 388/3/4
f 387/7/4 380/7/4 388/7/4
f 382/3/4 383/3/4 389/3/4
f 383/3/4 384/3/4 389/3/4
f 386/7/4 387/7/4 389/7/4
f 385/3/4 386/3/4 389/3/4
f 384/3/4 385/3/4 389/3/4
f 387/1/4 388/1/4 390/1/4
f 389/7/4 387/7/4 390/7/4
f 388/3/4 381/3/4 391/3/4
f 390/1/4 388/1/4 391/1/4
f 391/3/4 381/3/4 392/3/4
f 389/3/4 390/3/4 394/3/4
f 382/3/4 389/3/4 394/3/4
f 394/3/4 390/3/4 395/3/4
f 395/3/4 390/3/4 396/3/4
f 396/3/4 390/3/4 397/3/4
f 392/5/4 393/5/4 398/5/4
f 398/5/4 393/5/4 399/5/4
f 382/3/4 394/3/4 400/3/4
f 394/6/4 395/6/4 401/6/4
f 400/3/4 394/3/4 401/3/4
f 395/3/4 396/3/4 402/3/4
f 401/6/4 395/6/4 402/6/4
f 396/6/4 397/6/4 403/6/4
f 402/3/4 396/3/4 403/3/4
f 397/3/4 390/3/4 404/3/4
f 403/6/4 397/6/4 404/6/4
f 404/3/4 390/3/4 405/3/4
f 406/5/4 407/5/4 408/5/4
f 408/5/4 407/5/4 409/5/4
f 411/3/4 412/3/4 415/3/4
f 412/6/4 413/6/4 415/6/4
f 413/3/4 414/3/4 416/3/4
f 415/6/4 413/6/4 416/6/4
f 410/5/4 411/5/4 417/5/4
f 411/3/4 415/3/4 418/3/4
f 417/5/4 411/5/4 418/5/4
f 415/3/4 416/3/4 418/3/4
f 416/3/4 414/3/4 419/3/4
f 418/3/4 416/3/4 419/3/4
f 419/3/4 414/3/4 420/3/4
f 420/3/4 414/3/4 421/3/4
f 421/3/4 414/3/4 422/3/4
f 420/3/4 421/3/4 423/3/4
f 421/6/4 422/6/4 423/6/4
f 422/3/4 414/3/4 424/3/4
f 423/6/4 422/6/4 424/6/4
f 423/3/4 424/3/4 425/3/4
f 424/3/4 414/3/4 425/3/4
f 425/3/4 414/3/4 426/3/4
f 419/2/4 420/2/4 429/2/4
f 420/3/4 423/3/4 430/3/4
f 423/3/4 425/3/4 430/3/4
f 429/2/4 420/2/4 430/2/4
f 428/3/4 429/3/4 431/3/4
f 430/3/4 425/3/4 431/3/4
f 429/3/4 430/3/4 431/3/4
f 431/3/4 425/3/4 432/3/4
f 425/6/4 426/6/4 433/6/4
f 432/3/4 425/3/4 433/3/4
f 433/6/4 426/6/4 434/6/4
f 427/5/4 428/5/4 435/5/4
f 428/3/4 431/3/4 436/3/4
f 435/5/4 428/5/4 436/5/4
f 431/6/4 432/6/4 437/6/4
f 436/3/4 431/3/4 437/3/4
f 432/3/4 433/3/4 438/3/4
f 437/6/4 432/6/4 438/6/4
f 433/3/4 434/3/4 438/3/4
f 438/3/4 434/3/4 439/3/4
f 440/2/4 441/2/4 442/2/4
f 442/2/4 441/2/4 443/2/4
f 448/5/5 445/5/5 444/5/5
f 449/5/5 445/5/5 448/5/5
f 450/5/5 447/5/5 446/5/5
f 451/5/5 447/5/5 450/5/5
f 456/5/5 453/5/5 452/5/5
f 457/5/5 453/5/5 456/5/5
f 458/5/5 455/5/5 454/5/5
f 459/5/5 455/5/5 458/5/5
f 462/5/5 461/5/5 460/5/5
f 463/5/5 461/5/5 462/5/5
f 468/2/5 465/2/5 464/2/5
f 468/6/5 466/6/5 465/6/5
f 469/2/5 467/2/5 466/2/5
f 469/6/5 466/6/5 468/6/5
f 471/2/5 468/2/5 464/2/5
f 471/2/5 469/2/5 468/2/5
f 472/2/5 467/2/5 469/2/5
f 472/2/5 469/2/5 471/2/5
f 476/5/5 475/5/5 474/5/5
f 477/5/5 475/5/5 476/5/5
f 478/2/5 471/2/5 470/2/5
f 478/2/5 472/2/5 471/2/5
f 478/2/5 473/2/5 472/2/5
f 479/2/5 473/2/5 478/2/5
f 480/2/5 473/2/5 479/2/5
f 481/2/5 473/2/5 480/2/5
f 482/2/5 480/2/5 479/2/5
f 483/2/5 480/2/5 482/2/5
f 486/5/5 485/5/5 484/5/5
f 487/5/5 485/5/5 486/5/5
f 490/5/5 489/5/5 488/5/5
f 491/5/5 489/5/5 490/5/5
f 494/4/5 493/4/5 492/4/5
f 495/4/5 493/4/5 494/4/5
f 498/3/5 497/3/5 496/3/5
f 499/3/5 497/3/5 498/3/5
f 502/4/5 501/4/5 500/4/5
f 503/4/5 501/4/5 502/4/5
f 504/4/5 501/4/5 503/4/5
f 507/3/5 506/3/5 505/3/5
f 508/3/5 506/3/5 507/3/5
f 509/4/5 502/4/5 500/4/5
f 510/4/5 502/4/5 509/4/5
f 516/6/5 512/6/5 511/6/5
f 517/3/5 513/3/5 512/3/5
f 517/6/5 512/6/5 516/6/5
f 518/3/5 515/3/5 514/3/5
f 519/3/5 515/3/5 518/3/5
f 520/3/5 513/3/5 517/3/5
f 520/3/5 517/3/5 516/3/5
f 521/3/5 513/3/5 520/3/5
f 522/3/5 520/3/5 516/3/5
f 523/6/5 521/6/5 520/6/5
f 523/3/5 520/3/5 522/3/5
f 524/6/5 521/6/5 523/6/5
f 527/2/5 526/2/5 525/2/5
f 528/2/5 526/2/5 527/2/5
f 531/2/5 530/2/5 529/2/5
f 532/2/5 530/2/5 531/2/5
f 533/3/5 532/3/5 531/3/5
f 534/3/5 532/3/5 533/3/5
f 537/3/5 536/3/5 535/3/5
f 538/3/5 536/3/5 537/3/5
f 539/2/5 538/2/5 537/2/5
f 540/2/5 538/2/5 539/2/5
f 541/2/6 542/2/6 543/2/6
f 543/2/6 542/2/6 544/2/6
f 541/2/6 543/2/6 545/2/6
f 545/2/6 543/2/6 546/2/6
f 544/2/6 542/2/6 547/2/6
f 547/2/6 542/2/6 548/2/6
f 544/2/6 547/2/6 549/2/6
f 547/3/6 548/3/6 550/3/6
f 549/2/6 547/2/6 550/2/6
f 550/3/6 548/3/6 551/3/6
f 552/5/6 553/5/6 554/5/6
f 554/5/6 553/5/6 555/5/6
f 555/5/6 556/5/6 558/5/6
f 558/5/6 556/5/6 559/5/6
f 557/5/6 558/5/6 560/5/6
f 560/5/6 558/5/6 561/5/6
f 562/3/6 563/3/6 564/3/6
f 564/3/6 563/3/6 565/3/6
f 565/3/6 563/3/6 566/3/6
f 566/3/6 563/3/6 567/3/6
f 562/3/6 564/3/6 568/3/6
f 568/3/6 564/3/6 569/3/6
f 569/3/6 564/3/6 570/3/6
f 565/3/6 566/3/6 571/3/6
f 566/6/6 567/6/6 571/6/6
f 571/6/6 567/6/6 572/6/6
f 564/6/6 565/6/6 574/6/6
f 570/3/6 564/3/6 574/3/6
f 571/3/6 572/3/6 575/3/6
f 574/6/6 565/6/6 575/6/6
f 572/3/6 573/3/6 575/3/6
f 565/3/6 571/3/6 575/3/6
f 575/3/6 573/3/6 576/3/6
f 574/3/6 575/3/6 578/3/6
f 576/3/6 577/3/6 578/3/6
f 575/3/6 576/3/6 578/3/6
f 578/3/6 577/3/6 579/3/6
f 570/3/6 574/3/6 582/3/6
f 574/3/6 578/3/6 582/3/6
f 582/3/6 578/3/6 583/3/6
f 583/3/6 578/3/6 584/3/6
f 580/3/6 581/3/6 585/3/6
f 581/3/6 582/3/6 585/3/6
f 582/3/6 583/3/6 585/3/6
f 583/6/6 584/6/6 586/6/6
f 585/3/6 583/3/6 586/3/6
f 584/3/6 578/3/6 587/3/6
f 586/6/6 584/6/6 587/6/6
f 587/3/6 578/3/6 588/3/6
f 589/2/6 590/2/6 591/2/6
f 591/2/6 590/2/6 592/2/6
f 591/3/6 592/3/6 595/3/6
f 595/3/6 592/3/6 596/3/6
f 593/2/6 594/2/6 597/2/6
f 594/3/6 595/3/6 597/3/6
f 597/3/6 595/3/6 598/3/6
f 596/3/6 592/3/6 599/3/6
f 597/2/6 598/2/6 600/2/6
f 593/2/6 597/2/6 600/2/6
f 598/3/6 599/3/6 601/3/6
f 600/2/6 598/2/6 601/2/6
f 599/3/6 592/3/6 602/3/6
f 601/3/6 599/3/6 602/3/6
f 593/2/6 600/2/6 603/2/6
f 600/3/6 601/3/6 604/3/6
f 603/2/6 600/2/6 604/2/6
f 604/3/6 601/3/6 605/3/6
f 602/3/6 592/3/6 606/3/6
f 605/3/6 606/3/6 607/3/6
f 606/3/6 592/3/6 608/3/6
f 607/3/6 606/3/6 608/3/6
f 607/2/6 608/2/6 609/2/6
f 609/2/6 608/2/6 610/2/6
f 611/5/6 612/5/6 613/5/6
f 613/5/6 612/5/6 614/5/6
f 615/5/6 616/5/6 617/5/6
f 617/5/6 616/5/6 618/5/6
