# MagicaVoxel @ Ephtracy

# group
g cat_sep

# material
mtllib cat_sep.mtl
usemtl palette

# normals
vn -1 0 0
vn 1 0 0
vn 0 0 1
vn 0 0 -1
vn 0 -1 0
vn 0 1 0

# texcoords
vt 0.0527344 0.5
vt 0.958984 0.5
vt 0.978516 0.5
vt 0.982422 0.5
vt 0.994141 0.5

# verts
v -8 9 5
v -8 9 3
v -8 9 -3
v -8 9 -5
v -8 10 5
v -8 10 3
v -8 10 2
v -8 10 -2
v -8 10 -3
v -8 10 -5
v -8 11 5
v -8 11 3
v -8 11 2
v -8 11 1
v -8 11 -1
v -8 11 -2
v -8 11 -3
v -8 11 -5
v -8 12 5
v -8 12 3
v -8 12 1
v -8 12 -1
v -8 12 -3
v -8 12 -5
v -7 2 6
v -7 2 3
v -7 2 -3
v -7 2 -6
v -7 3 6
v -7 3 3
v -7 3 -3
v -7 3 -6
v -7 4 6
v -7 4 3
v -7 4 -3
v -7 4 -6
v -7 5 6
v -7 5 3
v -7 5 -3
v -7 5 -6
v -7 7 3
v -7 7 -3
v -7 9 5
v -7 9 3
v -7 9 -3
v -7 9 -5
v -7 10 5
v -7 10 3
v -7 10 2
v -7 10 -2
v -7 10 -3
v -7 10 -5
v -7 11 5
v -7 11 3
v -7 11 2
v -7 11 1
v -7 11 -1
v -7 11 -2
v -7 11 -3
v -7 11 -5
v -7 12 5
v -7 12 3
v -7 12 1
v -7 12 -1
v -7 12 -3
v -7 12 -5
v -7 13 4
v -7 13 2
v -7 13 1
v -7 13 -1
v -7 13 -3
v -7 13 -4
v -7 15 4
v -7 15 2
v -7 15 -1
v -7 15 -3
v -7 16 4
v -7 16 1
v -7 16 -1
v -7 16 -4
v -7 17 5
v -7 17 3
v -7 17 2
v -7 17 -2
v -7 17 -3
v -7 17 -5
v -7 18 4
v -7 18 3
v -7 18 2
v -7 18 -2
v -7 18 -3
v -7 18 -4
v -7 19 6
v -7 19 5
v -7 19 4
v -7 19 3
v -7 19 -3
v -7 19 -4
v -7 19 -5
v -7 19 -6
v -7 20 5
v -7 20 4
v -7 20 -4
v -7 20 -5
v 1 2 -3
v 1 2 -6
v 1 3 -3
v 1 3 -6
v 1 4 -3
v 1 4 -6
v 2 2 6
v 2 2 3
v 2 3 6
v 2 3 3
v 2 4 6
v 2 4 3
v 5 3 -2
v 5 3 -5
v 5 4 -1
v 5 4 -2
v 5 4 -4
v 5 4 -5
v 5 5 -1
v 5 5 -3
v 5 5 -4
v -4 2 6
v -4 2 3
v -4 2 -3
v -4 2 -6
v -4 3 6
v -4 3 3
v -4 3 -3
v -4 3 -6
v -4 4 6
v -4 4 3
v -4 4 -3
v -4 4 -6
v -2 17 6
v -2 17 2
v -2 17 -2
v -2 17 -6
v -2 18 3
v -2 18 2
v -2 18 -2
v -2 18 -3
v -2 19 6
v -2 19 5
v -2 19 4
v -2 19 3
v -2 19 -3
v -2 19 -4
v -2 19 -5
v -2 19 -6
v -2 20 5
v -2 20 4
v -2 20 -4
v -2 20 -5
v 4 2 -3
v 4 2 -6
v 4 3 -3
v 4 3 -6
v 4 4 -3
v 4 4 -6
v 5 2 6
v 5 2 3
v 5 3 6
v 5 3 3
v 5 4 6
v 5 4 3
v 5 5 6
v 5 5 3
v 5 5 -1
v 5 5 -4
v 5 5 -6
v 5 6 -4
v 5 7 3
v 5 7 -0
v 5 7 -1
v 5 7 -3
v 5 7 -4
v 5 8 -3
v 5 9 -3
v 5 10 1
v 5 10 -0
v 5 10 -2
v 5 10 -3
v 5 11 -2
v 5 12 -2
v 5 13 -2
v 5 14 -2
v 5 15 1
v 5 15 -2
v 5 17 6
v 5 17 -6
v 6 3 -2
v 6 3 -5
v 6 4 -1
v 6 4 -2
v 6 4 -4
v 6 4 -5
v 6 5 -2
v 6 5 -4
v 6 6 -2
v 6 6 -4
v 6 7 -0
v 6 7 -1
v 6 7 -3
v 6 7 -4
v 6 8 -1
v 6 8 -3
v 6 9 -1
v 6 9 -3
v 6 10 1
v 6 10 -0
v 6 10 -1
v 6 10 -2
v 6 10 -3
v 6 11 -0
v 6 11 -2
v 6 12 -0
v 6 12 -2
v 6 13 -0
v 6 13 -2
v 6 14 -0
v 6 14 -2
v 6 15 1
v 6 15 -2
v -7 2 6
v -7 3 6
v -7 4 6
v -7 5 6
v -7 19 6
v -4 2 6
v -4 3 6
v -4 4 6
v -4 5 6
v -4 7 6
v -2 17 6
v -2 19 6
v 2 2 6
v 2 3 6
v 2 4 6
v 2 5 6
v 2 7 6
v 5 2 6
v 5 3 6
v 5 4 6
v 5 5 6
v 5 17 6
v -8 9 5
v -8 10 5
v -8 11 5
v -8 12 5
v -7 9 5
v -7 10 5
v -7 11 5
v -7 12 5
v -7 19 5
v -7 20 5
v -2 19 5
v -2 20 5
v -8 10 2
v -8 11 2
v -7 10 2
v -7 11 2
v -8 11 1
v -8 12 1
v -7 11 1
v -7 12 1
v 5 10 1
v 5 15 1
v 6 10 1
v 6 15 1
v 5 7 -0
v 5 10 -0
v 6 7 -0
v 6 10 -0
v 5 4 -1
v 5 5 -1
v 5 7 -1
v 6 4 -1
v 6 7 -1
v -7 17 -2
v -7 18 -2
v -2 17 -2
v -2 18 -2
v 5 3 -2
v 5 4 -2
v 6 3 -2
v 6 4 -2
v -8 9 -3
v -8 10 -3
v -8 11 -3
v -8 12 -3
v -7 2 -3
v -7 3 -3
v -7 4 -3
v -7 9 -3
v -7 10 -3
v -7 11 -3
v -7 12 -3
v -7 18 -3
v -7 19 -3
v -4 2 -3
v -4 3 -3
v -4 4 -3
v -2 18 -3
v -2 19 -3
v 1 2 -3
v 1 3 -3
v 1 4 -3
v 4 2 -3
v 4 3 -3
v 4 4 -3
v -7 19 -4
v -7 20 -4
v -2 19 -4
v -2 20 -4
v -7 19 4
v -7 20 4
v -2 19 4
v -2 20 4
v -8 9 3
v -8 10 3
v -8 11 3
v -8 12 3
v -7 2 3
v -7 3 3
v -7 4 3
v -7 9 3
v -7 10 3
v -7 11 3
v -7 12 3
v -7 18 3
v -7 19 3
v -4 2 3
v -4 3 3
v -4 4 3
v -2 18 3
v -2 19 3
v 2 2 3
v 2 3 3
v 2 4 3
v 5 2 3
v 5 3 3
v 5 4 3
v -7 17 2
v -7 18 2
v -2 17 2
v -2 18 2
v -8 11 -1
v -8 12 -1
v -7 11 -1
v -7 12 -1
v -8 10 -2
v -8 11 -2
v -7 10 -2
v -7 11 -2
v 5 10 -2
v 5 11 -2
v 5 12 -2
v 5 13 -2
v 5 14 -2
v 5 15 -2
v 6 10 -2
v 6 11 -2
v 6 12 -2
v 6 13 -2
v 6 14 -2
v 6 15 -2
v 5 7 -3
v 5 8 -3
v 5 9 -3
v 5 10 -3
v 6 7 -3
v 6 8 -3
v 6 9 -3
v 6 10 -3
v 5 4 -4
v 5 5 -4
v 5 6 -4
v 5 7 -4
v 6 4 -4
v 6 5 -4
v 6 6 -4
v 6 7 -4
v -8 9 -5
v -8 10 -5
v -8 11 -5
v -8 12 -5
v -7 9 -5
v -7 10 -5
v -7 11 -5
v -7 12 -5
v -7 19 -5
v -7 20 -5
v -2 19 -5
v -2 20 -5
v 5 3 -5
v 5 4 -5
v 6 3 -5
v 6 4 -5
v -7 2 -6
v -7 3 -6
v -7 4 -6
v -7 5 -6
v -7 19 -6
v -4 2 -6
v -4 3 -6
v -4 4 -6
v -4 5 -6
v -4 7 -6
v -2 17 -6
v -2 19 -6
v 1 2 -6
v 1 3 -6
v 1 4 -6
v 2 5 -6
v 2 7 -6
v 4 2 -6
v 4 3 -6
v 4 4 -6
v 5 5 -6
v 5 17 -6
v -7 2 6
v -4 2 6
v 2 2 6
v 5 2 6
v -7 2 3
v -4 2 3
v 2 2 3
v 5 2 3
v -7 2 -3
v -4 2 -3
v 1 2 -3
v 4 2 -3
v -7 2 -6
v -4 2 -6
v 1 2 -6
v 4 2 -6
v 5 3 -2
v 6 3 -2
v 5 3 -5
v 6 3 -5
v 5 4 -1
v 6 4 -1
v 5 4 -2
v 6 4 -2
v -7 5 6
v -4 5 6
v 2 5 6
v 5 5 6
v -6 5 5
v -4 5 5
v 2 5 5
v 4 5 5
v -7 5 3
v -6 5 3
v -4 5 3
v 2 5 3
v 4 5 3
v 5 5 3
v 5 5 -1
v -7 5 -3
v -6 5 -3
v -4 5 -3
v 2 5 -3
v 4 5 -3
v 5 5 -3
v 5 5 -4
v -6 5 -5
v -4 5 -5
v 2 5 -5
v 4 5 -5
v -7 5 -6
v -4 5 -6
v 2 5 -6
v 5 5 -6
v 5 7 -0
v 6 7 -0
v 5 7 -1
v 6 7 -1
v -8 9 5
v -7 9 5
v -8 9 3
v -7 9 3
v -8 9 -3
v -7 9 -3
v -8 9 -5
v -7 9 -5
v -8 10 2
v -7 10 2
v 5 10 1
v 6 10 1
v 5 10 -0
v 6 10 -0
v -8 10 -2
v -7 10 -2
v -8 11 5
v -7 11 5
v -8 11 3
v -7 11 3
v -8 11 -3
v -7 11 -3
v -8 11 -5
v -7 11 -5
v -7 4 6
v -4 4 6
v 2 4 6
v 5 4 6
v -6 4 5
v -5 4 5
v 3 4 5
v 4 4 5
v -6 4 4
v -5 4 4
v 3 4 4
v 4 4 4
v -7 4 3
v -4 4 3
v 2 4 3
v 5 4 3
v -7 4 -3
v -4 4 -3
v 1 4 -3
v 4 4 -3
v -6 4 -4
v -5 4 -4
v 5 4 -4
v 6 4 -4
v -6 4 -5
v -5 4 -5
v 5 4 -5
v 6 4 -5
v -7 4 -6
v -4 4 -6
v 1 4 -6
v 4 4 -6
v 5 7 -3
v 6 7 -3
v 5 7 -4
v 6 7 -4
v -8 10 5
v -7 10 5
v -8 10 3
v -7 10 3
v 5 10 -2
v 6 10 -2
v -8 10 -3
v -7 10 -3
v 5 10 -3
v 6 10 -3
v -8 10 -5
v -7 10 -5
v -8 11 2
v -7 11 2
v -8 11 1
v -7 11 1
v -8 11 -1
v -7 11 -1
v -8 11 -2
v -7 11 -2
v -8 12 5
v -7 12 5
v -8 12 3
v -7 12 3
v -8 12 1
v -7 12 1
v -8 12 -1
v -7 12 -1
v -8 12 -3
v -7 12 -3
v -8 12 -5
v -7 12 -5
v 5 15 1
v 6 15 1
v 5 15 -2
v 6 15 -2
v -2 17 6
v 5 17 6
v -7 17 2
v -2 17 2
v -7 17 -2
v -2 17 -2
v -2 17 -6
v 5 17 -6
v -7 18 3
v -2 18 3
v -7 18 2
v -2 18 2
v -7 18 -2
v -2 18 -2
v -7 18 -3
v -2 18 -3
v -7 19 6
v -2 19 6
v -7 19 5
v -2 19 5
v -7 19 4
v -2 19 4
v -7 19 3
v -2 19 3
v -7 19 -3
v -2 19 -3
v -7 19 -4
v -2 19 -4
v -7 19 -5
v -2 19 -5
v -7 19 -6
v -2 19 -6
v -7 20 5
v -2 20 5
v -7 20 4
v -2 20 4
v -7 20 -4
v -2 20 -4
v -7 20 -5
v -2 20 -5

# faces
f 5/4/1 2/4/1 1/4/1
f 6/4/1 2/4/1 5/4/1
f 9/4/1 4/4/1 3/4/1
f 10/4/1 4/4/1 9/4/1
f 13/2/1 8/2/1 7/2/1
f 14/2/1 8/2/1 13/2/1
f 15/2/1 8/2/1 14/2/1
f 16/2/1 8/2/1 15/2/1
f 19/4/1 12/4/1 11/4/1
f 20/4/1 12/4/1 19/4/1
f 21/1/1 15/1/1 14/1/1
f 22/1/1 15/1/1 21/1/1
f 23/4/1 18/4/1 17/4/1
f 24/4/1 18/4/1 23/4/1
f 29/4/1 26/4/1 25/4/1
f 30/4/1 26/4/1 29/4/1
f 31/4/1 28/4/1 27/4/1
f 32/4/1 28/4/1 31/4/1
f 33/3/1 30/3/1 29/3/1
f 34/3/1 30/3/1 33/3/1
f 35/3/1 32/3/1 31/3/1
f 36/3/1 32/3/1 35/3/1
f 41/3/1 38/3/1 37/3/1
f 41/2/1 39/2/1 38/2/1
f 42/3/1 40/3/1 39/3/1
f 42/2/1 39/2/1 41/2/1
f 43/3/1 41/3/1 37/3/1
f 43/3/1 42/3/1 41/3/1
f 44/3/1 42/3/1 43/3/1
f 45/3/1 40/3/1 42/3/1
f 45/3/1 42/3/1 44/3/1
f 46/3/1 40/3/1 45/3/1
f 47/3/1 43/3/1 37/3/1
f 48/3/1 45/3/1 44/3/1
f 49/3/1 45/3/1 48/3/1
f 50/3/1 45/3/1 49/3/1
f 51/3/1 45/3/1 50/3/1
f 52/3/1 40/3/1 46/3/1
f 53/3/1 47/3/1 37/3/1
f 53/3/1 48/3/1 47/3/1
f 53/3/1 49/3/1 48/3/1
f 54/3/1 49/3/1 53/3/1
f 55/3/1 49/3/1 54/3/1
f 58/3/1 51/3/1 50/3/1
f 58/3/1 52/3/1 51/3/1
f 59/3/1 52/3/1 58/3/1
f 60/3/1 40/3/1 52/3/1
f 60/3/1 52/3/1 59/3/1
f 61/3/1 53/3/1 37/3/1
f 62/3/1 56/3/1 55/3/1
f 62/3/1 55/3/1 54/3/1
f 63/3/1 56/3/1 62/3/1
f 64/3/1 59/3/1 58/3/1
f 64/3/1 58/3/1 57/3/1
f 65/3/1 59/3/1 64/3/1
f 66/3/1 40/3/1 60/3/1
f 67/3/1 63/3/1 62/3/1
f 67/3/1 66/3/1 65/3/1
f 67/3/1 65/3/1 64/3/1
f 67/3/1 62/3/1 61/3/1
f 67/3/1 64/3/1 63/3/1
f 68/3/1 66/3/1 67/3/1
f 69/3/1 66/3/1 68/3/1
f 70/3/1 66/3/1 69/3/1
f 71/3/1 66/3/1 70/3/1
f 72/3/1 66/3/1 71/3/1
f 73/3/1 67/3/1 61/3/1
f 73/5/1 68/5/1 67/5/1
f 74/2/1 69/2/1 68/2/1
f 74/5/1 68/5/1 73/5/1
f 75/3/1 70/3/1 69/3/1
f 75/5/1 71/5/1 70/5/1
f 76/2/1 72/2/1 71/2/1
f 76/5/1 71/5/1 75/5/1
f 77/3/1 73/3/1 61/3/1
f 77/2/1 74/2/1 73/2/1
f 78/3/1 75/3/1 69/3/1
f 78/2/1 74/2/1 77/2/1
f 78/2/1 69/2/1 74/2/1
f 79/2/1 76/2/1 75/2/1
f 79/3/1 75/3/1 78/3/1
f 80/3/1 66/3/1 72/3/1
f 80/2/1 76/2/1 79/2/1
f 80/2/1 72/2/1 76/2/1
f 81/3/1 61/3/1 37/3/1
f 81/3/1 79/3/1 78/3/1
f 81/3/1 80/3/1 79/3/1
f 81/3/1 78/3/1 77/3/1
f 81/3/1 77/3/1 61/3/1
f 82/3/1 80/3/1 81/3/1
f 83/3/1 80/3/1 82/3/1
f 84/3/1 80/3/1 83/3/1
f 85/3/1 80/3/1 84/3/1
f 86/3/1 66/3/1 80/3/1
f 86/3/1 80/3/1 85/3/1
f 86/3/1 40/3/1 66/3/1
f 87/2/1 82/2/1 81/2/1
f 88/3/1 83/3/1 82/3/1
f 88/2/1 82/2/1 87/2/1
f 89/3/1 83/3/1 88/3/1
f 90/3/1 85/3/1 84/3/1
f 91/2/1 86/2/1 85/2/1
f 91/3/1 85/3/1 90/3/1
f 92/2/1 86/2/1 91/2/1
f 93/3/1 81/3/1 37/3/1
f 94/2/1 87/2/1 81/2/1
f 94/3/1 81/3/1 93/3/1
f 95/3/1 88/3/1 87/3/1
f 95/2/1 87/2/1 94/2/1
f 96/3/1 88/3/1 95/3/1
f 97/3/1 92/3/1 91/3/1
f 98/2/1 86/2/1 92/2/1
f 98/3/1 92/3/1 97/3/1
f 99/3/1 40/3/1 86/3/1
f 99/2/1 86/2/1 98/2/1
f 100/3/1 40/3/1 99/3/1
f 101/3/1 95/3/1 94/3/1
f 102/3/1 95/3/1 101/3/1
f 103/3/1 99/3/1 98/3/1
f 104/3/1 99/3/1 103/3/1
f 107/4/1 106/4/1 105/4/1
f 108/4/1 106/4/1 107/4/1
f 109/3/1 108/3/1 107/3/1
f 110/3/1 108/3/1 109/3/1
f 113/4/1 112/4/1 111/4/1
f 114/4/1 112/4/1 113/4/1
f 115/3/1 114/3/1 113/3/1
f 116/3/1 114/3/1 115/3/1
f 120/4/1 118/4/1 117/4/1
f 121/4/1 118/4/1 120/4/1
f 122/4/1 118/4/1 121/4/1
f 123/3/1 120/3/1 119/3/1
f 123/3/1 121/3/1 120/3/1
f 124/3/1 121/3/1 123/3/1
f 125/3/1 121/3/1 124/3/1
f 126/4/2 127/4/2 130/4/2
f 130/4/2 127/4/2 131/4/2
f 128/4/2 129/4/2 132/4/2
f 132/4/2 129/4/2 133/4/2
f 130/3/2 131/3/2 134/3/2
f 134/3/2 131/3/2 135/3/2
f 132/3/2 133/3/2 136/3/2
f 136/3/2 133/3/2 137/3/2
f 138/3/2 139/3/2 142/3/2
f 142/3/2 139/3/2 143/3/2
f 140/3/2 141/3/2 144/3/2
f 144/3/2 141/3/2 145/3/2
f 138/3/2 142/3/2 146/3/2
f 146/3/2 142/3/2 147/3/2
f 147/3/2 142/3/2 148/3/2
f 148/3/2 142/3/2 149/3/2
f 145/3/2 141/3/2 150/3/2
f 150/3/2 141/3/2 151/3/2
f 151/3/2 141/3/2 152/3/2
f 152/3/2 141/3/2 153/3/2
f 147/3/2 148/3/2 154/3/2
f 154/3/2 148/3/2 155/3/2
f 151/3/2 152/3/2 156/3/2
f 156/3/2 152/3/2 157/3/2
f 158/4/2 159/4/2 160/4/2
f 160/4/2 159/4/2 161/4/2
f 160/3/2 161/3/2 162/3/2
f 162/3/2 161/3/2 163/3/2
f 164/4/2 165/4/2 166/4/2
f 166/4/2 165/4/2 167/4/2
f 166/3/2 167/3/2 168/3/2
f 168/3/2 167/3/2 169/3/2
f 173/3/2 174/3/2 175/3/2
f 170/3/2 171/3/2 176/3/2
f 171/2/2 172/2/2 176/2/2
f 176/2/2 172/2/2 177/2/2
f 177/2/2 172/2/2 178/2/2
f 175/3/2 174/3/2 180/3/2
f 179/3/2 180/3/2 181/3/2
f 181/3/2 180/3/2 182/3/2
f 176/3/2 177/3/2 183/3/2
f 183/3/2 177/3/2 184/3/2
f 182/3/2 180/3/2 186/3/2
f 185/3/2 186/3/2 187/3/2
f 187/3/2 186/3/2 188/3/2
f 188/3/2 186/3/2 189/3/2
f 189/3/2 186/3/2 190/3/2
f 176/3/2 183/3/2 191/3/2
f 190/3/2 186/3/2 192/3/2
f 170/3/2 176/3/2 193/3/2
f 191/3/2 192/3/2 193/3/2
f 176/3/2 191/3/2 193/3/2
f 180/3/2 174/3/2 194/3/2
f 193/3/2 192/3/2 194/3/2
f 192/3/2 186/3/2 194/3/2
f 186/3/2 180/3/2 194/3/2
f 195/4/2 196/4/2 198/4/2
f 198/4/2 196/4/2 199/4/2
f 199/4/2 196/4/2 200/4/2
f 197/3/2 198/3/2 201/3/2
f 198/3/2 199/3/2 201/3/2
f 201/3/2 199/3/2 202/3/2
f 197/3/2 201/3/2 203/3/2
f 201/4/2 202/4/2 203/4/2
f 203/4/2 202/4/2 204/4/2
f 197/3/2 203/3/2 206/3/2
f 203/3/2 204/3/2 206/3/2
f 206/3/2 204/3/2 207/3/2
f 207/3/2 204/3/2 208/3/2
f 205/3/2 206/3/2 209/3/2
f 206/4/2 207/4/2 209/4/2
f 209/4/2 207/4/2 210/4/2
f 205/3/2 209/3/2 211/3/2
f 209/3/2 210/3/2 211/3/2
f 211/3/2 210/3/2 212/3/2
f 205/3/2 211/3/2 214/3/2
f 211/4/2 212/4/2 215/4/2
f 214/3/2 211/3/2 215/3/2
f 215/4/2 212/4/2 216/4/2
f 216/4/2 212/4/2 217/4/2
f 213/3/2 214/3/2 218/3/2
f 214/3/2 215/3/2 218/3/2
f 215/3/2 216/3/2 218/3/2
f 218/3/2 216/3/2 219/3/2
f 213/3/2 218/3/2 220/3/2
f 218/4/2 219/4/2 220/4/2
f 220/4/2 219/4/2 221/4/2
f 213/3/2 220/3/2 222/3/2
f 220/3/2 221/3/2 222/3/2
f 222/3/2 221/3/2 223/3/2
f 213/3/2 222/3/2 224/3/2
f 222/4/2 223/4/2 224/4/2
f 224/4/2 223/4/2 225/4/2
f 213/3/2 224/3/2 226/3/2
f 224/3/2 225/3/2 226/3/2
f 226/3/2 225/3/2 227/3/2
f 233/4/3 229/4/3 228/4/3
f 234/3/3 230/3/3 229/3/3
f 234/4/3 229/4/3 233/4/3
f 235/3/3 230/3/3 234/3/3
f 236/3/3 232/3/3 231/3/3
f 237/3/3 232/3/3 236/3/3
f 238/3/3 232/3/3 237/3/3
f 239/3/3 232/3/3 238/3/3
f 243/2/3 237/2/3 236/2/3
f 244/3/3 238/3/3 237/3/3
f 244/2/3 237/2/3 243/2/3
f 245/4/3 241/4/3 240/4/3
f 246/3/3 242/3/3 241/3/3
f 246/4/3 241/4/3 245/4/3
f 247/3/3 242/3/3 246/3/3
f 248/3/3 244/3/3 243/3/3
f 249/3/3 238/3/3 244/3/3
f 249/3/3 244/3/3 248/3/3
f 254/4/3 251/4/3 250/4/3
f 255/4/3 251/4/3 254/4/3
f 256/4/3 253/4/3 252/4/3
f 257/4/3 253/4/3 256/4/3
f 260/3/3 259/3/3 258/3/3
f 261/3/3 259/3/3 260/3/3
f 264/2/3 263/2/3 262/2/3
f 265/2/3 263/2/3 264/2/3
f 268/1/3 267/1/3 266/1/3
f 269/1/3 267/1/3 268/1/3
f 272/3/3 271/3/3 270/3/3
f 273/3/3 271/3/3 272/3/3
f 276/3/3 275/3/3 274/3/3
f 277/3/3 275/3/3 276/3/3
f 281/3/3 279/3/3 278/3/3
f 281/3/3 280/3/3 279/3/3
f 282/3/3 280/3/3 281/3/3
f 285/3/3 284/3/3 283/3/3
f 286/3/3 284/3/3 285/3/3
f 289/4/3 288/4/3 287/4/3
f 290/4/3 288/4/3 289/4/3
f 298/4/3 292/4/3 291/4/3
f 299/4/3 292/4/3 298/4/3
f 300/4/3 294/4/3 293/4/3
f 301/4/3 294/4/3 300/4/3
f 304/4/3 296/4/3 295/4/3
f 305/3/3 297/3/3 296/3/3
f 305/4/3 296/4/3 304/4/3
f 306/3/3 297/3/3 305/3/3
f 307/3/3 303/3/3 302/3/3
f 308/3/3 303/3/3 307/3/3
f 312/4/3 310/4/3 309/4/3
f 313/3/3 311/3/3 310/3/3
f 313/4/3 310/4/3 312/4/3
f 314/3/3 311/3/3 313/3/3
f 317/3/3 316/3/3 315/3/3
f 318/3/3 316/3/3 317/3/3
f 319/3/4 320/3/4 321/3/4
f 321/3/4 320/3/4 322/3/4
f 323/4/4 324/4/4 330/4/4
f 330/4/4 324/4/4 331/4/4
f 325/4/4 326/4/4 332/4/4
f 332/4/4 326/4/4 333/4/4
f 327/4/4 328/4/4 336/4/4
f 328/3/4 329/3/4 337/3/4
f 336/4/4 328/4/4 337/4/4
f 337/3/4 329/3/4 338/3/4
f 334/3/4 335/3/4 339/3/4
f 339/3/4 335/3/4 340/3/4
f 341/4/4 342/4/4 344/4/4
f 342/3/4 343/3/4 345/3/4
f 344/4/4 342/4/4 345/4/4
f 345/3/4 343/3/4 346/3/4
f 347/3/4 348/3/4 349/3/4
f 349/3/4 348/3/4 350/3/4
f 351/1/4 352/1/4 353/1/4
f 353/1/4 352/1/4 354/1/4
f 355/2/4 356/2/4 357/2/4
f 357/2/4 356/2/4 358/2/4
f 359/3/4 360/3/4 365/3/4
f 360/4/4 361/4/4 366/4/4
f 365/3/4 360/3/4 366/3/4
f 361/3/4 362/3/4 367/3/4
f 366/4/4 361/4/4 367/4/4
f 362/4/4 363/4/4 368/4/4
f 367/3/4 362/3/4 368/3/4
f 363/3/4 364/3/4 369/3/4
f 368/4/4 363/4/4 369/4/4
f 369/3/4 364/3/4 370/3/4
f 371/4/4 372/4/4 375/4/4
f 372/3/4 373/3/4 376/3/4
f 375/4/4 372/4/4 376/4/4
f 373/4/4 374/4/4 377/4/4
f 376/3/4 373/3/4 377/3/4
f 377/4/4 374/4/4 378/4/4
f 379/3/4 380/3/4 383/3/4
f 380/4/4 381/4/4 384/4/4
f 383/3/4 380/3/4 384/3/4
f 381/3/4 382/3/4 385/3/4
f 384/4/4 381/4/4 385/4/4
f 385/3/4 382/3/4 386/3/4
f 387/4/4 388/4/4 391/4/4
f 391/4/4 388/4/4 392/4/4
f 389/4/4 390/4/4 393/4/4
f 393/4/4 390/4/4 394/4/4
f 395/3/4 396/3/4 397/3/4
f 397/3/4 396/3/4 398/3/4
f 399/4/4 400/4/4 401/4/4
f 401/4/4 400/4/4 402/4/4
f 403/4/4 404/4/4 408/4/4
f 404/3/4 405/3/4 409/3/4
f 408/4/4 404/4/4 409/4/4
f 409/3/4 405/3/4 410/3/4
f 406/3/4 407/3/4 411/3/4
f 411/3/4 407/3/4 412/3/4
f 412/3/4 407/3/4 413/3/4
f 413/3/4 407/3/4 414/3/4
f 411/2/4 412/2/4 418/2/4
f 412/3/4 413/3/4 419/3/4
f 418/2/4 412/2/4 419/2/4
f 415/4/4 416/4/4 420/4/4
f 416/3/4 417/3/4 421/3/4
f 420/4/4 416/4/4 421/4/4
f 421/3/4 417/3/4 422/3/4
f 418/3/4 419/3/4 423/3/4
f 419/3/4 413/3/4 424/3/4
f 423/3/4 419/3/4 424/3/4
f 429/4/5 426/4/5 425/4/5
f 430/4/5 426/4/5 429/4/5
f 431/4/5 428/4/5 427/4/5
f 432/4/5 428/4/5 431/4/5
f 437/4/5 434/4/5 433/4/5
f 438/4/5 434/4/5 437/4/5
f 439/4/5 436/4/5 435/4/5
f 440/4/5 436/4/5 439/4/5
f 443/4/5 442/4/5 441/4/5
f 444/4/5 442/4/5 443/4/5
f 447/3/5 446/3/5 445/3/5
f 448/3/5 446/3/5 447/3/5
f 453/3/5 450/3/5 449/3/5
f 454/2/5 451/2/5 450/2/5
f 454/3/5 450/3/5 453/3/5
f 455/3/5 452/3/5 451/3/5
f 455/2/5 451/2/5 454/2/5
f 456/3/5 452/3/5 455/3/5
f 457/3/5 453/3/5 449/3/5
f 458/4/5 454/4/5 453/4/5
f 458/3/5 453/3/5 457/3/5
f 459/2/5 455/2/5 454/2/5
f 459/4/5 454/4/5 458/4/5
f 460/4/5 456/4/5 455/4/5
f 460/2/5 455/2/5 459/2/5
f 461/3/5 452/3/5 456/3/5
f 461/4/5 456/4/5 460/4/5
f 462/3/5 452/3/5 461/3/5
f 463/2/5 460/2/5 459/2/5
f 463/2/5 458/2/5 457/2/5
f 463/2/5 462/2/5 461/2/5
f 463/2/5 461/2/5 460/2/5
f 463/2/5 459/2/5 458/2/5
f 464/2/5 463/2/5 457/2/5
f 465/2/5 463/2/5 464/2/5
f 466/2/5 463/2/5 465/2/5
f 467/2/5 463/2/5 466/2/5
f 468/2/5 463/2/5 467/2/5
f 469/2/5 463/2/5 468/2/5
f 470/3/5 469/3/5 468/3/5
f 471/3/5 465/3/5 464/3/5
f 471/4/5 466/4/5 465/4/5
f 472/2/5 467/2/5 466/2/5
f 472/4/5 466/4/5 471/4/5
f 473/4/5 468/4/5 467/4/5
f 473/2/5 467/2/5 472/2/5
f 474/3/5 470/3/5 468/3/5
f 474/4/5 468/4/5 473/4/5
f 475/3/5 471/3/5 464/3/5
f 475/3/5 472/3/5 471/3/5
f 476/2/5 473/2/5 472/2/5
f 476/3/5 472/3/5 475/3/5
f 477/3/5 474/3/5 473/3/5
f 477/2/5 473/2/5 476/2/5
f 478/3/5 470/3/5 474/3/5
f 478/3/5 474/3/5 477/3/5
f 481/3/5 480/3/5 479/3/5
f 482/3/5 480/3/5 481/3/5
f 485/4/5 484/4/5 483/4/5
f 486/4/5 484/4/5 485/4/5
f 489/4/5 488/4/5 487/4/5
f 490/4/5 488/4/5 489/4/5
f 495/3/5 494/3/5 493/3/5
f 496/3/5 494/3/5 495/3/5
f 497/2/5 492/2/5 491/2/5
f 498/2/5 492/2/5 497/2/5
f 501/4/5 500/4/5 499/4/5
f 502/4/5 500/4/5 501/4/5
f 505/4/5 504/4/5 503/4/5
f 506/4/5 504/4/5 505/4/5
f 507/3/6 508/3/6 511/3/6
f 511/3/6 508/3/6 512/3/6
f 509/3/6 510/3/6 513/3/6
f 513/3/6 510/3/6 514/3/6
f 507/3/6 511/3/6 515/3/6
f 511/4/6 512/4/6 515/4/6
f 512/3/6 508/3/6 516/3/6
f 515/4/6 512/4/6 516/4/6
f 513/4/6 514/4/6 517/4/6
f 509/3/6 513/3/6 517/3/6
f 514/3/6 510/3/6 518/3/6
f 517/4/6 514/4/6 518/4/6
f 507/3/6 515/3/6 519/3/6
f 515/3/6 516/3/6 519/3/6
f 516/3/6 508/3/6 520/3/6
f 519/3/6 516/3/6 520/3/6
f 509/3/6 517/3/6 521/3/6
f 517/3/6 518/3/6 521/3/6
f 518/3/6 510/3/6 522/3/6
f 521/3/6 518/3/6 522/3/6
f 523/3/6 524/3/6 527/3/6
f 527/3/6 524/3/6 528/3/6
f 523/3/6 527/3/6 531/3/6
f 527/4/6 528/4/6 531/4/6
f 528/3/6 524/3/6 532/3/6
f 531/4/6 528/4/6 532/4/6
f 529/4/6 530/4/6 533/4/6
f 533/4/6 530/4/6 534/4/6
f 523/3/6 531/3/6 535/3/6
f 531/3/6 532/3/6 535/3/6
f 532/3/6 524/3/6 536/3/6
f 535/3/6 532/3/6 536/3/6
f 525/3/6 526/3/6 537/3/6
f 537/3/6 526/3/6 538/3/6
f 539/3/6 540/3/6 541/3/6
f 541/3/6 540/3/6 542/3/6
f 543/4/6 544/4/6 545/4/6
f 545/4/6 544/4/6 546/4/6
f 547/4/6 548/4/6 551/4/6
f 551/4/6 548/4/6 552/4/6
f 549/4/6 550/4/6 553/4/6
f 553/4/6 550/4/6 554/4/6
f 555/2/6 556/2/6 557/2/6
f 557/2/6 556/2/6 558/2/6
f 559/2/6 560/2/6 561/2/6
f 561/2/6 560/2/6 562/2/6
f 563/4/6 564/4/6 565/4/6
f 565/4/6 564/4/6 566/4/6
f 567/1/6 568/1/6 569/1/6
f 569/1/6 568/1/6 570/1/6
f 571/4/6 572/4/6 573/4/6
f 573/4/6 572/4/6 574/4/6
f 575/3/6 576/3/6 577/3/6
f 577/3/6 576/3/6 578/3/6
f 579/3/6 580/3/6 582/3/6
f 581/3/6 582/3/6 583/3/6
f 582/3/6 580/3/6 584/3/6
f 583/3/6 582/3/6 584/3/6
f 584/3/6 580/3/6 585/3/6
f 585/3/6 580/3/6 586/3/6
f 587/3/6 588/3/6 589/3/6
f 589/3/6 588/3/6 590/3/6
f 591/3/6 592/3/6 593/3/6
f 593/3/6 592/3/6 594/3/6
f 595/3/6 596/3/6 597/3/6
f 597/3/6 596/3/6 598/3/6
f 599/3/6 600/3/6 601/3/6
f 601/3/6 600/3/6 602/3/6
f 603/3/6 604/3/6 605/3/6
f 605/3/6 604/3/6 606/3/6
f 607/3/6 608/3/6 609/3/6
f 609/3/6 608/3/6 610/3/6
f 611/3/6 612/3/6 613/3/6
f 613/3/6 612/3/6 614/3/6
f 615/3/6 616/3/6 617/3/6
f 617/3/6 616/3/6 618/3/6
