# MagicaVoxel @ Ephtracy

# group
g dog

# material
mtllib dog.mtl
usemtl palette

# normals
vn -1 0 0
vn 1 0 0
vn 0 0 1
vn 0 0 -1
vn 0 -1 0
vn 0 1 0

# texcoords
vt 0.0605469 0.5
vt 0.0917969 0.5
vt 0.220703 0.5
vt 0.306641 0.5
vt 0.955078 0.5
vt 0.958984 0.5
vt 0.994141 0.5

# verts
v -9.5 8 1.5
v -9.5 8 -1.5
v -9.5 9 1.5
v -9.5 9 -1.5
v -9.5 10 1.5
v -9.5 10 -1.5
v -9.5 11 1.5
v -9.5 11 -1.5
v -8.5 7 3.5
v -8.5 7 -3.5
v -8.5 8 1.5
v -8.5 8 -1.5
v -8.5 9 1.5
v -8.5 9 -1.5
v -8.5 10 3.5
v -8.5 10 2.5
v -8.5 10 1.5
v -8.5 10 -1.5
v -8.5 10 -2.5
v -8.5 10 -3.5
v -8.5 11 2.5
v -8.5 11 1.5
v -8.5 11 -1.5
v -8.5 11 -2.5
v -7.5 0 7.5
v -7.5 0 2.5
v -7.5 0 -3.5
v -7.5 0 -7.5
v -7.5 2 2.5
v -7.5 2 -3.5
v -7.5 4 2.5
v -7.5 4 -3.5
v -7.5 7 3.5
v -7.5 7 -3.5
v -7.5 10 3.5
v -7.5 10 2.5
v -7.5 10 -2.5
v -7.5 10 -3.5
v -7.5 11 2.5
v -7.5 11 -2.5
v -7.5 12 4.5
v -7.5 12 2.5
v -7.5 12 1.5
v -7.5 12 -1.5
v -7.5 12 -3.5
v -7.5 12 -4.5
v -7.5 14 4.5
v -7.5 14 2.5
v -7.5 14 -1.5
v -7.5 14 -3.5
v -7.5 15 4.5
v -7.5 15 1.5
v -7.5 15 -1.5
v -7.5 15 -4.5
v -7.5 17 7.5
v -7.5 17 -7.5
v -6.5 13 8.5
v -6.5 13 7.5
v -6.5 13 -7.5
v -6.5 13 -8.5
v -6.5 17 7.5
v -6.5 17 3.5
v -6.5 17 -3.5
v -6.5 17 -7.5
v -6.5 18 8.5
v -6.5 18 3.5
v -6.5 18 -3.5
v -6.5 18 -8.5
v -4.5 1 6.5
v -4.5 1 3.5
v -4.5 1 -4.5
v -4.5 1 -6.5
v -4.5 2 6.5
v -4.5 2 3.5
v -4.5 2 -4.5
v -4.5 2 -6.5
v -4.5 3 6.5
v -4.5 3 3.5
v -4.5 3 -4.5
v -4.5 3 -6.5
v -4.5 6 6.5
v -4.5 6 3.5
v -4.5 15 6.5
v -4.5 15 3.5
v -4.5 16 6.5
v -4.5 16 3.5
v 2.5 0 7.5
v 2.5 0 2.5
v 2.5 0 -3.5
v 2.5 0 -7.5
v 2.5 2 7.5
v 2.5 2 2.5
v 2.5 2 -3.5
v 2.5 2 -7.5
v 6.5 1 6.5
v 6.5 1 3.5
v 6.5 1 -4.5
v 6.5 1 -6.5
v 6.5 2 3.5
v 6.5 2 -4.5
v 6.5 3 3.5
v 6.5 3 2.5
v 6.5 3 -3.5
v 6.5 3 -4.5
v 6.5 4 2.5
v 6.5 4 -3.5
v 6.5 6 6.5
v 6.5 6 2.5
v 6.5 16 2.5
v 6.5 16 -6.5
v 7.5 17 1.5
v 7.5 17 -1.5
v 7.5 18 1.5
v 7.5 18 0.5
v 7.5 18 -1.5
v 7.5 18 -2.5
v 7.5 21 0.5
v 7.5 21 -2.5
v -6.5 1 6.5
v -6.5 1 3.5
v -6.5 1 -4.5
v -6.5 1 -6.5
v -6.5 2 3.5
v -6.5 2 -4.5
v -6.5 3 3.5
v -6.5 3 2.5
v -6.5 3 -3.5
v -6.5 3 -4.5
v -6.5 4 2.5
v -6.5 4 -3.5
v -6.5 5 3.5
v -6.5 5 -6.5
v -6.5 12 4.5
v -6.5 12 3.5
v -6.5 14 4.5
v -6.5 14 3.5
v -6.5 15 6.5
v -6.5 15 4.5
v -6.5 15 3.5
v -6.5 16 6.5
v -6.5 16 3.5
v -3.5 0 7.5
v -3.5 0 2.5
v -3.5 0 -3.5
v -3.5 0 -7.5
v -3.5 2 7.5
v -3.5 2 2.5
v -3.5 2 -3.5
v -3.5 2 -7.5
v -3.5 5 3.5
v -3.5 5 -6.5
v -3.5 6 3.5
v -3.5 6 2.5
v -3.5 15 -3.5
v -3.5 15 -6.5
v -3.5 16 2.5
v -3.5 16 -3.5
v -1.5 13 8.5
v -1.5 13 7.5
v -1.5 13 -7.5
v -1.5 13 -8.5
v -1.5 15 -3.5
v -1.5 15 -6.5
v -1.5 16 -3.5
v -1.5 16 -6.5
v -1.5 17 7.5
v -1.5 17 3.5
v -1.5 17 -3.5
v -1.5 17 -7.5
v -1.5 18 8.5
v -1.5 18 3.5
v -1.5 18 -3.5
v -1.5 18 -8.5
v 3.5 1 6.5
v 3.5 1 3.5
v 3.5 1 -4.5
v 3.5 1 -6.5
v 3.5 2 6.5
v 3.5 2 3.5
v 3.5 2 -4.5
v 3.5 2 -6.5
v 3.5 3 6.5
v 3.5 3 3.5
v 3.5 3 -4.5
v 3.5 3 -6.5
v 7.5 0 7.5
v 7.5 0 2.5
v 7.5 0 -3.5
v 7.5 0 -7.5
v 7.5 2 2.5
v 7.5 2 -3.5
v 7.5 4 2.5
v 7.5 4 -3.5
v 7.5 9 1.5
v 7.5 9 -1.5
v 7.5 17 7.5
v 7.5 17 1.5
v 7.5 17 -1.5
v 7.5 17 -7.5
v 8.5 9 1.5
v 8.5 9 -1.5
v 8.5 18 1.5
v 8.5 18 0.5
v 8.5 18 -1.5
v 8.5 18 -2.5
v 8.5 21 0.5
v 8.5 21 -2.5
v -6.5 13 8.5
v -6.5 18 8.5
v -1.5 13 8.5
v -1.5 18 8.5
v -7.5 0 7.5
v -7.5 17 7.5
v -6.5 13 7.5
v -6.5 17 7.5
v -3.5 0 7.5
v -3.5 2 7.5
v -3.5 4 7.5
v -1.5 13 7.5
v -1.5 17 7.5
v 2.5 0 7.5
v 2.5 2 7.5
v 2.5 4 7.5
v 7.5 0 7.5
v 7.5 17 7.5
v -8.5 7 3.5
v -8.5 10 3.5
v -7.5 7 3.5
v -7.5 10 3.5
v -6.5 1 3.5
v -6.5 2 3.5
v -6.5 3 3.5
v -6.5 5 3.5
v -6.5 12 3.5
v -6.5 14 3.5
v -6.5 15 3.5
v -6.5 16 3.5
v -4.5 1 3.5
v -4.5 2 3.5
v -4.5 3 3.5
v -4.5 6 3.5
v -4.5 15 3.5
v -4.5 16 3.5
v -3.5 5 3.5
v -3.5 6 3.5
v 3.5 1 3.5
v 3.5 2 3.5
v 3.5 3 3.5
v 6.5 1 3.5
v 6.5 2 3.5
v 6.5 3 3.5
v -8.5 10 2.5
v -8.5 11 2.5
v -7.5 10 2.5
v -7.5 11 2.5
v -9.5 8 1.5
v -9.5 9 1.5
v -9.5 10 1.5
v -9.5 11 1.5
v -8.5 8 1.5
v -8.5 9 1.5
v -8.5 10 1.5
v -8.5 11 1.5
v 7.5 9 1.5
v 7.5 17 1.5
v 7.5 18 1.5
v 8.5 9 1.5
v 8.5 18 1.5
v 7.5 18 0.5
v 7.5 21 0.5
v 8.5 18 0.5
v 8.5 21 0.5
v -7.5 0 -3.5
v -7.5 2 -3.5
v -6.5 17 -3.5
v -6.5 18 -3.5
v -3.5 0 -3.5
v -3.5 2 -3.5
v -3.5 15 -3.5
v -3.5 16 -3.5
v -1.5 15 -3.5
v -1.5 16 -3.5
v -1.5 17 -3.5
v -1.5 18 -3.5
v 2.5 0 -3.5
v 2.5 2 -3.5
v 7.5 0 -3.5
v 7.5 2 -3.5
v -6.5 1 -6.5
v -6.5 5 -6.5
v -4.5 1 -6.5
v -4.5 2 -6.5
v -4.5 3 -6.5
v -3.5 3 -6.5
v -3.5 4 -6.5
v -3.5 5 -6.5
v -3.5 15 -6.5
v -1.5 15 -6.5
v -1.5 16 -6.5
v 2.5 3 -6.5
v 2.5 4 -6.5
v 3.5 1 -6.5
v 3.5 2 -6.5
v 3.5 3 -6.5
v 6.5 1 -6.5
v 6.5 16 -6.5
v -6.5 1 6.5
v -6.5 15 6.5
v -6.5 16 6.5
v -4.5 1 6.5
v -4.5 2 6.5
v -4.5 3 6.5
v -4.5 6 6.5
v -4.5 15 6.5
v -4.5 16 6.5
v -3.5 3 6.5
v -3.5 4 6.5
v 2.5 3 6.5
v 2.5 4 6.5
v 3.5 1 6.5
v 3.5 2 6.5
v 3.5 3 6.5
v 6.5 1 6.5
v 6.5 6 6.5
v -6.5 17 3.5
v -6.5 18 3.5
v -1.5 17 3.5
v -1.5 18 3.5
v -7.5 0 2.5
v -7.5 2 2.5
v -3.5 0 2.5
v -3.5 2 2.5
v -3.5 6 2.5
v -3.5 16 2.5
v 2.5 0 2.5
v 2.5 2 2.5
v 6.5 6 2.5
v 6.5 16 2.5
v 7.5 0 2.5
v 7.5 2 2.5
v -9.5 8 -1.5
v -9.5 9 -1.5
v -9.5 10 -1.5
v -9.5 11 -1.5
v -8.5 8 -1.5
v -8.5 9 -1.5
v -8.5 10 -1.5
v -8.5 11 -1.5
v 7.5 9 -1.5
v 7.5 17 -1.5
v 7.5 18 -1.5
v 8.5 9 -1.5
v 8.5 18 -1.5
v -8.5 10 -2.5
v -8.5 11 -2.5
v -7.5 10 -2.5
v -7.5 11 -2.5
v 7.5 18 -2.5
v 7.5 21 -2.5
v 8.5 18 -2.5
v 8.5 21 -2.5
v -8.5 7 -3.5
v -8.5 10 -3.5
v -7.5 7 -3.5
v -7.5 10 -3.5
v -6.5 1 -4.5
v -6.5 2 -4.5
v -6.5 3 -4.5
v -4.5 1 -4.5
v -4.5 2 -4.5
v -4.5 3 -4.5
v 3.5 1 -4.5
v 3.5 2 -4.5
v 3.5 3 -4.5
v 6.5 1 -4.5
v 6.5 2 -4.5
v 6.5 3 -4.5
v -7.5 0 -7.5
v -7.5 17 -7.5
v -6.5 13 -7.5
v -6.5 17 -7.5
v -3.5 0 -7.5
v -3.5 2 -7.5
v -3.5 4 -7.5
v -1.5 13 -7.5
v -1.5 17 -7.5
v 2.5 0 -7.5
v 2.5 2 -7.5
v 2.5 4 -7.5
v 7.5 0 -7.5
v 7.5 17 -7.5
v -6.5 13 -8.5
v -6.5 18 -8.5
v -1.5 13 -8.5
v -1.5 18 -8.5
v -7.5 0 7.5
v -3.5 0 7.5
v 2.5 0 7.5
v 7.5 0 7.5
v -7.5 0 2.5
v -3.5 0 2.5
v 2.5 0 2.5
v 7.5 0 2.5
v -7.5 0 -3.5
v -3.5 0 -3.5
v 2.5 0 -3.5
v 7.5 0 -3.5
v -7.5 0 -7.5
v -3.5 0 -7.5
v 2.5 0 -7.5
v 7.5 0 -7.5
v -3.5 2 7.5
v 2.5 2 7.5
v -7.5 2 2.5
v -3.5 2 2.5
v 2.5 2 2.5
v 7.5 2 2.5
v -7.5 2 -3.5
v -3.5 2 -3.5
v 2.5 2 -3.5
v 7.5 2 -3.5
v -3.5 2 -7.5
v 2.5 2 -7.5
v -6.5 5 3.5
v -3.5 5 3.5
v -6.5 5 -6.5
v -3.5 5 -6.5
v -4.5 6 6.5
v 6.5 6 6.5
v -4.5 6 3.5
v -3.5 6 3.5
v -3.5 6 2.5
v 6.5 6 2.5
v -8.5 7 3.5
v -7.5 7 3.5
v -8.5 7 -3.5
v -7.5 7 -3.5
v -9.5 8 1.5
v -8.5 8 1.5
v -9.5 8 -1.5
v -8.5 8 -1.5
v 7.5 9 1.5
v 8.5 9 1.5
v 7.5 9 -1.5
v 8.5 9 -1.5
v -9.5 10 1.5
v -8.5 10 1.5
v -9.5 10 -1.5
v -8.5 10 -1.5
v -6.5 13 8.5
v -1.5 13 8.5
v -6.5 13 7.5
v -1.5 13 7.5
v -6.5 13 -7.5
v -1.5 13 -7.5
v -6.5 13 -8.5
v -1.5 13 -8.5
v -3.5 15 -3.5
v -1.5 15 -3.5
v -3.5 15 -6.5
v -1.5 15 -6.5
v -6.5 16 6.5
v -4.5 16 6.5
v -6.5 16 3.5
v -4.5 16 3.5
v -3.5 16 2.5
v 6.5 16 2.5
v -3.5 16 -3.5
v -1.5 16 -3.5
v -1.5 16 -6.5
v 6.5 16 -6.5
v 7.5 18 -1.5
v 8.5 18 -1.5
v 7.5 18 -2.5
v 8.5 18 -2.5
v -6.5 1 6.5
v -4.5 1 6.5
v 3.5 1 6.5
v 6.5 1 6.5
v -6.5 1 3.5
v -4.5 1 3.5
v 3.5 1 3.5
v 6.5 1 3.5
v -6.5 1 -4.5
v -4.5 1 -4.5
v 3.5 1 -4.5
v 6.5 1 -4.5
v -6.5 1 -6.5
v -4.5 1 -6.5
v 3.5 1 -6.5
v 6.5 1 -6.5
v -4.5 3 6.5
v -3.5 3 6.5
v 2.5 3 6.5
v 3.5 3 6.5
v -6.5 3 3.5
v -4.5 3 3.5
v 3.5 3 3.5
v 6.5 3 3.5
v -6.5 3 2.5
v -3.5 3 2.5
v 2.5 3 2.5
v 6.5 3 2.5
v -6.5 3 -3.5
v -3.5 3 -3.5
v 2.5 3 -3.5
v 6.5 3 -3.5
v -6.5 3 -4.5
v -4.5 3 -4.5
v 3.5 3 -4.5
v 6.5 3 -4.5
v -4.5 3 -6.5
v -3.5 3 -6.5
v 2.5 3 -6.5
v 3.5 3 -6.5
v -9.5 9 1.5
v -8.5 9 1.5
v -9.5 9 -1.5
v -8.5 9 -1.5
v -8.5 10 3.5
v -7.5 10 3.5
v -8.5 10 2.5
v -7.5 10 2.5
v -8.5 10 -2.5
v -7.5 10 -2.5
v -8.5 10 -3.5
v -7.5 10 -3.5
v -8.5 11 2.5
v -7.5 11 2.5
v -9.5 11 1.5
v -8.5 11 1.5
v -9.5 11 -1.5
v -8.5 11 -1.5
v -8.5 11 -2.5
v -7.5 11 -2.5
v -7.5 17 7.5
v -6.5 17 7.5
v -1.5 17 7.5
v 7.5 17 7.5
v -6.5 17 3.5
v -1.5 17 3.5
v 7.5 17 1.5
v 7.5 17 -1.5
v -6.5 17 -3.5
v -1.5 17 -3.5
v -7.5 17 -7.5
v -6.5 17 -7.5
v -1.5 17 -7.5
v 7.5 17 -7.5
v -6.5 18 8.5
v -1.5 18 8.5
v -6.5 18 3.5
v -1.5 18 3.5
v 7.5 18 1.5
v 8.5 18 1.5
v 7.5 18 0.5
v 8.5 18 0.5
v -6.5 18 -3.5
v -1.5 18 -3.5
v -6.5 18 -8.5
v -1.5 18 -8.5
v 7.5 21 0.5
v 8.5 21 0.5
v 7.5 21 -2.5
v 8.5 21 -2.5

# faces
f 3/3/1 2/3/1 1/3/1
f 4/3/1 2/3/1 3/3/1
f 7/5/1 6/5/1 5/5/1
f 8/5/1 6/5/1 7/5/1
f 11/6/1 10/6/1 9/6/1
f 12/6/1 10/6/1 11/6/1
f 13/6/1 11/6/1 9/6/1
f 14/6/1 10/6/1 12/6/1
f 15/6/1 13/6/1 9/6/1
f 15/6/1 14/6/1 13/6/1
f 16/6/1 14/6/1 15/6/1
f 17/6/1 14/6/1 16/6/1
f 18/6/1 10/6/1 14/6/1
f 18/6/1 14/6/1 17/6/1
f 19/6/1 10/6/1 18/6/1
f 20/6/1 10/6/1 19/6/1
f 21/6/1 17/6/1 16/6/1
f 22/6/1 17/6/1 21/6/1
f 23/6/1 19/6/1 18/6/1
f 24/6/1 19/6/1 23/6/1
f 29/1/1 26/1/1 25/1/1
f 30/1/1 28/1/1 27/1/1
f 31/1/1 29/1/1 25/1/1
f 31/6/1 30/6/1 29/6/1
f 32/1/1 28/1/1 30/1/1
f 32/6/1 30/6/1 31/6/1
f 33/1/1 31/1/1 25/1/1
f 33/1/1 32/1/1 31/1/1
f 34/1/1 28/1/1 32/1/1
f 34/1/1 32/1/1 33/1/1
f 35/1/1 33/1/1 25/1/1
f 38/1/1 28/1/1 34/1/1
f 39/1/1 36/1/1 35/1/1
f 40/1/1 38/1/1 37/1/1
f 41/1/1 39/1/1 35/1/1
f 41/1/1 40/1/1 39/1/1
f 41/1/1 35/1/1 25/1/1
f 42/1/1 40/1/1 41/1/1
f 43/1/1 40/1/1 42/1/1
f 44/1/1 40/1/1 43/1/1
f 45/1/1 38/1/1 40/1/1
f 45/1/1 40/1/1 44/1/1
f 45/1/1 28/1/1 38/1/1
f 46/1/1 28/1/1 45/1/1
f 47/1/1 41/1/1 25/1/1
f 47/7/1 42/7/1 41/7/1
f 48/6/1 43/6/1 42/6/1
f 48/7/1 42/7/1 47/7/1
f 49/1/1 44/1/1 43/1/1
f 49/7/1 45/7/1 44/7/1
f 50/6/1 46/6/1 45/6/1
f 50/7/1 45/7/1 49/7/1
f 51/1/1 47/1/1 25/1/1
f 51/6/1 48/6/1 47/6/1
f 52/6/1 43/6/1 48/6/1
f 52/6/1 48/6/1 51/6/1
f 52/1/1 49/1/1 43/1/1
f 53/6/1 50/6/1 49/6/1
f 53/1/1 49/1/1 52/1/1
f 54/6/1 46/6/1 50/6/1
f 54/6/1 50/6/1 53/6/1
f 54/1/1 28/1/1 46/1/1
f 55/1/1 51/1/1 25/1/1
f 55/1/1 53/1/1 52/1/1
f 55/1/1 54/1/1 53/1/1
f 55/1/1 52/1/1 51/1/1
f 56/1/1 28/1/1 54/1/1
f 56/1/1 54/1/1 55/1/1
f 61/2/1 58/2/1 57/2/1
f 64/2/1 60/2/1 59/2/1
f 65/2/1 62/2/1 61/2/1
f 65/2/1 61/2/1 57/2/1
f 66/2/1 62/2/1 65/2/1
f 67/2/1 64/2/1 63/2/1
f 68/2/1 60/2/1 64/2/1
f 68/2/1 64/2/1 67/2/1
f 73/1/1 70/1/1 69/1/1
f 74/1/1 70/1/1 73/1/1
f 75/1/1 72/1/1 71/1/1
f 76/1/1 72/1/1 75/1/1
f 77/4/1 74/4/1 73/4/1
f 78/4/1 74/4/1 77/4/1
f 79/4/1 76/4/1 75/4/1
f 80/4/1 76/4/1 79/4/1
f 83/4/1 82/4/1 81/4/1
f 84/4/1 82/4/1 83/4/1
f 85/2/1 84/2/1 83/2/1
f 86/2/1 84/2/1 85/2/1
f 91/1/1 88/1/1 87/1/1
f 92/1/1 88/1/1 91/1/1
f 93/1/1 90/1/1 89/1/1
f 94/1/1 90/1/1 93/1/1
f 99/1/1 96/1/1 95/1/1
f 100/1/1 98/1/1 97/1/1
f 101/1/1 99/1/1 95/1/1
f 104/1/1 98/1/1 100/1/1
f 105/6/1 103/6/1 102/6/1
f 105/1/1 102/1/1 101/1/1
f 106/1/1 104/1/1 103/1/1
f 106/6/1 103/6/1 105/6/1
f 107/1/1 105/1/1 101/1/1
f 107/1/1 101/1/1 95/1/1
f 107/1/1 106/1/1 105/1/1
f 108/1/1 106/1/1 107/1/1
f 109/1/1 106/1/1 108/1/1
f 110/1/1 104/1/1 106/1/1
f 110/1/1 106/1/1 109/1/1
f 110/1/1 98/1/1 104/1/1
f 113/2/1 112/2/1 111/2/1
f 114/2/1 112/2/1 113/2/1
f 115/2/1 112/2/1 114/2/1
f 117/2/1 116/2/1 115/2/1
f 117/2/1 115/2/1 114/2/1
f 118/2/1 116/2/1 117/2/1
f 119/1/2 120/1/2 123/1/2
f 121/1/2 122/1/2 124/1/2
f 119/1/2 123/1/2 125/1/2
f 124/1/2 122/1/2 128/1/2
f 126/6/2 127/6/2 129/6/2
f 125/1/2 126/1/2 129/1/2
f 127/1/2 128/1/2 130/1/2
f 129/6/2 127/6/2 130/6/2
f 125/1/2 129/1/2 131/1/2
f 119/1/2 125/1/2 131/1/2
f 129/1/2 130/1/2 131/1/2
f 130/1/2 128/1/2 132/1/2
f 131/1/2 130/1/2 132/1/2
f 128/1/2 122/1/2 132/1/2
f 119/1/2 131/1/2 133/1/2
f 133/1/2 131/1/2 134/1/2
f 119/1/2 133/1/2 135/1/2
f 133/7/2 134/7/2 135/7/2
f 135/7/2 134/7/2 136/7/2
f 119/1/2 135/1/2 137/1/2
f 135/6/2 136/6/2 138/6/2
f 137/1/2 135/1/2 138/1/2
f 138/6/2 136/6/2 139/6/2
f 137/1/2 138/1/2 140/1/2
f 138/1/2 139/1/2 140/1/2
f 140/1/2 139/1/2 141/1/2
f 142/1/2 143/1/2 146/1/2
f 146/1/2 143/1/2 147/1/2
f 144/1/2 145/1/2 148/1/2
f 148/1/2 145/1/2 149/1/2
f 150/4/2 151/4/2 152/4/2
f 152/4/2 151/4/2 153/4/2
f 153/4/2 151/4/2 154/4/2
f 154/4/2 151/4/2 155/4/2
f 153/4/2 154/4/2 156/4/2
f 156/4/2 154/4/2 157/4/2
f 162/1/2 163/1/2 164/1/2
f 164/1/2 163/1/2 165/1/2
f 158/2/2 159/2/2 166/2/2
f 160/2/2 161/2/2 169/2/2
f 166/2/2 167/2/2 170/2/2
f 158/2/2 166/2/2 170/2/2
f 170/2/2 167/2/2 171/2/2
f 168/2/2 169/2/2 172/2/2
f 169/2/2 161/2/2 173/2/2
f 172/2/2 169/2/2 173/2/2
f 174/1/2 175/1/2 178/1/2
f 178/1/2 175/1/2 179/1/2
f 176/1/2 177/1/2 180/1/2
f 180/1/2 177/1/2 181/1/2
f 178/4/2 179/4/2 182/4/2
f 182/4/2 179/4/2 183/4/2
f 180/4/2 181/4/2 184/4/2
f 184/4/2 181/4/2 185/4/2
f 186/1/2 187/1/2 190/1/2
f 188/1/2 189/1/2 191/1/2
f 186/1/2 190/1/2 192/1/2
f 190/6/2 191/6/2 192/6/2
f 191/1/2 189/1/2 193/1/2
f 192/6/2 191/6/2 193/6/2
f 192/1/2 193/1/2 194/1/2
f 194/1/2 193/1/2 195/1/2
f 186/1/2 192/1/2 196/1/2
f 192/1/2 194/1/2 196/1/2
f 196/1/2 194/1/2 197/1/2
f 195/1/2 193/1/2 198/1/2
f 193/1/2 189/1/2 199/1/2
f 198/1/2 193/1/2 199/1/2
f 200/2/2 201/2/2 202/2/2
f 202/2/2 201/2/2 203/2/2
f 203/2/2 201/2/2 204/2/2
f 204/2/2 205/2/2 206/2/2
f 203/2/2 204/2/2 206/2/2
f 206/2/2 205/2/2 207/2/2
f 210/2/3 209/2/3 208/2/3
f 211/2/3 209/2/3 210/2/3
f 214/1/3 213/1/3 212/1/3
f 215/1/3 213/1/3 214/1/3
f 216/1/3 214/1/3 212/1/3
f 217/1/3 214/1/3 216/1/3
f 218/1/3 214/1/3 217/1/3
f 219/1/3 214/1/3 218/1/3
f 222/6/3 218/6/3 217/6/3
f 223/1/3 220/1/3 219/1/3
f 223/1/3 219/1/3 218/1/3
f 223/6/3 218/6/3 222/6/3
f 224/1/3 222/1/3 221/1/3
f 224/1/3 223/1/3 222/1/3
f 225/1/3 220/1/3 223/1/3
f 225/1/3 223/1/3 224/1/3
f 228/6/3 227/6/3 226/6/3
f 229/6/3 227/6/3 228/6/3
f 238/1/3 231/1/3 230/1/3
f 239/4/3 232/4/3 231/4/3
f 239/1/3 231/1/3 238/1/3
f 240/4/3 232/4/3 239/4/3
f 241/4/3 237/4/3 236/4/3
f 241/4/3 234/4/3 233/4/3
f 241/4/3 235/4/3 234/4/3
f 241/4/3 236/4/3 235/4/3
f 242/4/3 237/4/3 241/4/3
f 243/4/3 237/4/3 242/4/3
f 244/4/3 241/4/3 233/4/3
f 245/4/3 241/4/3 244/4/3
f 249/1/3 247/1/3 246/1/3
f 250/4/3 248/4/3 247/4/3
f 250/1/3 247/1/3 249/1/3
f 251/4/3 248/4/3 250/4/3
f 254/6/3 253/6/3 252/6/3
f 255/6/3 253/6/3 254/6/3
f 260/3/3 257/3/3 256/3/3
f 261/3/3 257/3/3 260/3/3
f 262/5/3 259/5/3 258/5/3
f 263/5/3 259/5/3 262/5/3
f 267/2/3 265/2/3 264/2/3
f 267/2/3 266/2/3 265/2/3
f 268/2/3 266/2/3 267/2/3
f 271/2/3 270/2/3 269/2/3
f 272/2/3 270/2/3 271/2/3
f 277/1/3 274/1/3 273/1/3
f 278/1/3 274/1/3 277/1/3
f 281/1/3 280/1/3 279/1/3
f 282/1/3 280/1/3 281/1/3
f 283/2/3 276/2/3 275/2/3
f 284/2/3 276/2/3 283/2/3
f 287/1/3 286/1/3 285/1/3
f 288/1/3 286/1/3 287/1/3
f 291/1/3 290/1/3 289/1/3
f 292/1/3 290/1/3 291/1/3
f 293/1/3 290/1/3 292/1/3
f 294/1/3 290/1/3 293/1/3
f 295/1/3 290/1/3 294/1/3
f 296/1/3 290/1/3 295/1/3
f 298/1/3 296/1/3 295/1/3
f 298/1/3 297/1/3 296/1/3
f 300/6/3 295/6/3 294/6/3
f 301/1/3 299/1/3 298/1/3
f 301/6/3 295/6/3 300/6/3
f 301/1/3 298/1/3 295/1/3
f 304/1/3 301/1/3 300/1/3
f 305/1/3 303/1/3 302/1/3
f 305/1/3 304/1/3 303/1/3
f 306/1/3 301/1/3 304/1/3
f 306/1/3 304/1/3 305/1/3
f 306/1/3 299/1/3 301/1/3
f 307/1/4 308/1/4 310/1/4
f 310/1/4 308/1/4 311/1/4
f 311/1/4 308/1/4 312/1/4
f 312/1/4 308/1/4 313/1/4
f 308/2/4 309/2/4 314/2/4
f 313/1/4 308/1/4 314/1/4
f 314/2/4 309/2/4 315/2/4
f 312/1/4 313/1/4 316/1/4
f 316/1/4 313/1/4 317/1/4
f 316/6/4 317/6/4 318/6/4
f 317/1/4 313/1/4 319/1/4
f 318/6/4 317/6/4 319/6/4
f 318/1/4 319/1/4 322/1/4
f 320/1/4 321/1/4 323/1/4
f 321/1/4 322/1/4 323/1/4
f 322/1/4 319/1/4 324/1/4
f 323/1/4 322/1/4 324/1/4
f 319/1/4 313/1/4 324/1/4
f 325/2/4 326/2/4 327/2/4
f 327/2/4 326/2/4 328/2/4
f 329/1/4 330/1/4 331/1/4
f 331/1/4 330/1/4 332/1/4
f 333/4/4 334/4/4 337/4/4
f 337/4/4 334/4/4 338/4/4
f 335/1/4 336/1/4 339/1/4
f 339/1/4 336/1/4 340/1/4
f 341/3/4 342/3/4 345/3/4
f 345/3/4 342/3/4 346/3/4
f 343/5/4 344/5/4 347/5/4
f 347/5/4 344/5/4 348/5/4
f 349/2/4 350/2/4 352/2/4
f 350/2/4 351/2/4 352/2/4
f 352/2/4 351/2/4 353/2/4
f 354/6/4 355/6/4 356/6/4
f 356/6/4 355/6/4 357/6/4
f 358/2/4 359/2/4 360/2/4
f 360/2/4 359/2/4 361/2/4
f 362/6/4 363/6/4 364/6/4
f 364/6/4 363/6/4 365/6/4
f 366/1/4 367/1/4 369/1/4
f 367/4/4 368/4/4 370/4/4
f 369/1/4 367/1/4 370/1/4
f 370/4/4 368/4/4 371/4/4
f 372/1/4 373/1/4 375/1/4
f 373/4/4 374/4/4 376/4/4
f 375/1/4 373/1/4 376/1/4
f 376/4/4 374/4/4 377/4/4
f 378/1/4 379/1/4 380/1/4
f 380/1/4 379/1/4 381/1/4
f 378/1/4 380/1/4 382/1/4
f 382/1/4 380/1/4 383/1/4
f 383/1/4 380/1/4 384/1/4
f 384/1/4 380/1/4 385/1/4
f 383/6/4 384/6/4 388/6/4
f 385/1/4 386/1/4 389/1/4
f 384/1/4 385/1/4 389/1/4
f 388/6/4 384/6/4 389/6/4
f 387/1/4 388/1/4 390/1/4
f 388/1/4 389/1/4 390/1/4
f 389/1/4 386/1/4 391/1/4
f 390/1/4 389/1/4 391/1/4
f 392/2/4 393/2/4 394/2/4
f 394/2/4 393/2/4 395/2/4
f 400/1/5 397/1/5 396/1/5
f 401/1/5 397/1/5 400/1/5
f 402/1/5 399/1/5 398/1/5
f 403/1/5 399/1/5 402/1/5
f 408/1/5 405/1/5 404/1/5
f 409/1/5 405/1/5 408/1/5
f 410/1/5 407/1/5 406/1/5
f 411/1/5 407/1/5 410/1/5
f 415/6/5 413/6/5 412/6/5
f 416/6/5 413/6/5 415/6/5
f 418/6/5 415/6/5 414/6/5
f 418/6/5 417/6/5 416/6/5
f 418/6/5 416/6/5 415/6/5
f 419/6/5 417/6/5 418/6/5
f 420/6/5 417/6/5 419/6/5
f 421/6/5 417/6/5 420/6/5
f 422/6/5 420/6/5 419/6/5
f 423/6/5 420/6/5 422/6/5
f 426/4/5 425/4/5 424/4/5
f 427/4/5 425/4/5 426/4/5
f 430/4/5 429/4/5 428/4/5
f 431/4/5 429/4/5 430/4/5
f 432/4/5 429/4/5 431/4/5
f 433/4/5 429/4/5 432/4/5
f 436/6/5 435/6/5 434/6/5
f 437/6/5 435/6/5 436/6/5
f 440/3/5 439/3/5 438/3/5
f 441/3/5 439/3/5 440/3/5
f 444/2/5 443/2/5 442/2/5
f 445/2/5 443/2/5 444/2/5
f 448/5/5 447/5/5 446/5/5
f 449/5/5 447/5/5 448/5/5
f 452/2/5 451/2/5 450/2/5
f 453/2/5 451/2/5 452/2/5
f 456/2/5 455/2/5 454/2/5
f 457/2/5 455/2/5 456/2/5
f 460/1/5 459/1/5 458/1/5
f 461/1/5 459/1/5 460/1/5
f 464/2/5 463/2/5 462/2/5
f 465/2/5 463/2/5 464/2/5
f 468/1/5 467/1/5 466/1/5
f 469/1/5 467/1/5 468/1/5
f 470/1/5 467/1/5 469/1/5
f 471/1/5 467/1/5 470/1/5
f 474/2/5 473/2/5 472/2/5
f 475/2/5 473/2/5 474/2/5
f 476/1/6 477/1/6 480/1/6
f 480/1/6 477/1/6 481/1/6
f 478/1/6 479/1/6 482/1/6
f 482/1/6 479/1/6 483/1/6
f 484/1/6 485/1/6 488/1/6
f 488/1/6 485/1/6 489/1/6
f 486/1/6 487/1/6 490/1/6
f 490/1/6 487/1/6 491/1/6
f 492/4/6 493/4/6 497/4/6
f 494/4/6 495/4/6 498/4/6
f 496/4/6 497/4/6 500/4/6
f 493/6/6 494/6/6 501/6/6
f 500/4/6 497/4/6 501/4/6
f 497/4/6 493/4/6 501/4/6
f 498/4/6 499/4/6 502/4/6
f 501/6/6 494/6/6 502/6/6
f 494/4/6 498/4/6 502/4/6
f 502/4/6 499/4/6 503/4/6
f 500/6/6 501/6/6 504/6/6
f 501/6/6 502/6/6 504/6/6
f 502/6/6 503/6/6 504/6/6
f 504/6/6 503/6/6 505/6/6
f 505/6/6 503/6/6 506/6/6
f 506/6/6 503/6/6 507/6/6
f 504/4/6 505/4/6 508/4/6
f 508/4/6 505/4/6 509/4/6
f 506/4/6 507/4/6 510/4/6
f 510/4/6 507/4/6 511/4/6
f 509/4/6 505/4/6 512/4/6
f 505/6/6 506/6/6 513/6/6
f 512/4/6 505/4/6 513/4/6
f 506/4/6 510/4/6 514/4/6
f 513/6/6 506/6/6 514/6/6
f 514/4/6 510/4/6 515/4/6
f 516/3/6 517/3/6 518/3/6
f 518/3/6 517/3/6 519/3/6
f 520/6/6 521/6/6 522/6/6
f 522/6/6 521/6/6 523/6/6
f 524/6/6 525/6/6 526/6/6
f 526/6/6 525/6/6 527/6/6
f 528/6/6 529/6/6 531/6/6
f 530/5/6 531/5/6 532/5/6
f 531/6/6 529/6/6 533/6/6
f 532/5/6 531/5/6 533/5/6
f 533/6/6 529/6/6 534/6/6
f 534/6/6 529/6/6 535/6/6
f 536/1/6 537/1/6 540/1/6
f 538/1/6 539/1/6 541/1/6
f 541/1/6 539/1/6 542/1/6
f 540/1/6 541/1/6 542/1/6
f 540/1/6 542/1/6 543/1/6
f 536/1/6 540/1/6 544/1/6
f 540/1/6 543/1/6 544/1/6
f 544/1/6 543/1/6 545/1/6
f 536/1/6 544/1/6 546/1/6
f 546/1/6 544/1/6 547/1/6
f 545/1/6 543/1/6 548/1/6
f 548/1/6 543/1/6 549/1/6
f 550/2/6 551/2/6 552/2/6
f 552/2/6 551/2/6 553/2/6
f 554/2/6 555/2/6 556/2/6
f 556/2/6 555/2/6 557/2/6
f 558/2/6 559/2/6 560/2/6
f 560/2/6 559/2/6 561/2/6
f 562/2/6 563/2/6 564/2/6
f 564/2/6 563/2/6 565/2/6
