# MagicaVoxel @ Ephtracy

# group
g dog

# material
mtllib dog.mtl
usemtl palette

# normals
vn -1 0 0
vn 1 0 0
vn 0 0 1
vn 0 0 -1
vn 0 -1 0
vn 0 1 0

# texcoords
vt 0.0605469 0.5
vt 0.0917969 0.5
vt 0.220703 0.5
vt 0.306641 0.5
vt 0.955078 0.5
vt 0.958984 0.5
vt 0.994141 0.5

# verts
v -9.5 8 1.5
v -9.5 8 -1.5
v -9.5 9 1.5
v -9.5 9 -1.5
v -9.5 10 1.5
v -9.5 10 -1.5
v -9.5 11 1.5
v -9.5 11 -1.5
v -8.5 7 3.5
v -8.5 7 -3.5
v -8.5 8 1.5
v -8.5 8 -1.5
v -8.5 9 1.5
v -8.5 9 -1.5
v -8.5 10 3.5
v -8.5 10 2.5
v -8.5 10 1.5
v -8.5 10 -1.5
v -8.5 10 -2.5
v -8.5 10 -3.5
v -8.5 11 2.5
v -8.5 11 1.5
v -8.5 11 -1.5
v -8.5 11 -2.5
v -7.5 0 7.5
v -7.5 0 3.5
v -7.5 0 -3.5
v -7.5 0 -7.5
v -7.5 2 3.5
v -7.5 2 -3.5
v -7.5 4 3.5
v -7.5 4 -3.5
v -7.5 7 3.5
v -7.5 7 -3.5
v -7.5 10 3.5
v -7.5 10 2.5
v -7.5 10 -2.5
v -7.5 10 -3.5
v -7.5 11 2.5
v -7.5 11 -2.5
v -7.5 12 4.5
v -7.5 12 2.5
v -7.5 12 1.5
v -7.5 12 -1.5
v -7.5 12 -3.5
v -7.5 12 -4.5
v -7.5 14 4.5
v -7.5 14 2.5
v -7.5 14 -1.5
v -7.5 14 -3.5
v -7.5 15 4.5
v -7.5 15 1.5
v -7.5 15 -1.5
v -7.5 15 -4.5
v -7.5 17 7.5
v -7.5 17 -7.5
v -6.5 13 8.5
v -6.5 13 7.5
v -6.5 13 -7.5
v -6.5 13 -8.5
v -6.5 17 7.5
v -6.5 17 3.5
v -6.5 17 -3.5
v -6.5 17 -7.5
v -6.5 18 8.5
v -6.5 18 3.5
v -6.5 18 -3.5
v -6.5 18 -8.5
v -4.5 1 6.5
v -4.5 1 4.5
v -4.5 1 -4.5
v -4.5 1 -6.5
v -4.5 2 6.5
v -4.5 2 4.5
v -4.5 2 3.5
v -4.5 2 -4.5
v -4.5 2 -6.5
v -4.5 3 6.5
v -4.5 3 3.5
v -4.5 3 -4.5
v -4.5 3 -6.5
v -4.5 6 6.5
v -4.5 6 3.5
v -4.5 15 6.5
v -4.5 15 3.5
v -4.5 16 6.5
v -4.5 16 3.5
v 3.5 0 7.5
v 3.5 0 3.5
v 3.5 0 -3.5
v 3.5 0 -7.5
v 3.5 2 7.5
v 3.5 2 3.5
v 3.5 2 -3.5
v 3.5 2 -7.5
v 6.5 1 6.5
v 6.5 1 4.5
v 6.5 1 -4.5
v 6.5 1 -6.5
v 6.5 2 4.5
v 6.5 2 3.5
v 6.5 2 -4.5
v 6.5 3 3.5
v 6.5 3 -3.5
v 6.5 3 -4.5
v 6.5 4 3.5
v 6.5 4 -3.5
v 6.5 6 6.5
v 6.5 6 2.5
v 6.5 16 2.5
v 6.5 16 -6.5
v 7.5 17 1.5
v 7.5 17 -1.5
v 7.5 18 1.5
v 7.5 18 0.5
v 7.5 18 -1.5
v 7.5 18 -2.5
v 7.5 21 0.5
v 7.5 21 -2.5
v -6.5 1 6.5
v -6.5 1 4.5
v -6.5 1 -4.5
v -6.5 1 -6.5
v -6.5 2 4.5
v -6.5 2 3.5
v -6.5 2 -4.5
v -6.5 3 3.5
v -6.5 3 -3.5
v -6.5 3 -4.5
v -6.5 4 3.5
v -6.5 4 -3.5
v -6.5 5 3.5
v -6.5 5 -6.5
v -6.5 12 4.5
v -6.5 12 3.5
v -6.5 14 4.5
v -6.5 14 3.5
v -6.5 15 6.5
v -6.5 15 4.5
v -6.5 15 3.5
v -6.5 16 6.5
v -6.5 16 3.5
v -3.5 0 7.5
v -3.5 0 3.5
v -3.5 0 -3.5
v -3.5 0 -7.5
v -3.5 2 7.5
v -3.5 2 3.5
v -3.5 2 -3.5
v -3.5 2 -7.5
v -3.5 5 3.5
v -3.5 5 -6.5
v -3.5 6 3.5
v -3.5 6 2.5
v -3.5 15 -3.5
v -3.5 15 -6.5
v -3.5 16 2.5
v -3.5 16 -3.5
v -1.5 13 8.5
v -1.5 13 7.5
v -1.5 13 -7.5
v -1.5 13 -8.5
v -1.5 15 -3.5
v -1.5 15 -6.5
v -1.5 16 -3.5
v -1.5 16 -6.5
v -1.5 17 7.5
v -1.5 17 3.5
v -1.5 17 -3.5
v -1.5 17 -7.5
v -1.5 18 8.5
v -1.5 18 3.5
v -1.5 18 -3.5
v -1.5 18 -8.5
v 3.5 2 6.5
v 3.5 2 3.5
v 3.5 2 -4.5
v 3.5 2 -6.5
v 3.5 3 6.5
v 3.5 3 3.5
v 3.5 3 -4.5
v 3.5 3 -6.5
v 4.5 1 6.5
v 4.5 1 4.5
v 4.5 1 -4.5
v 4.5 1 -6.5
v 4.5 2 6.5
v 4.5 2 4.5
v 4.5 2 -4.5
v 4.5 2 -6.5
v 7.5 0 7.5
v 7.5 0 3.5
v 7.5 0 -3.5
v 7.5 0 -7.5
v 7.5 2 3.5
v 7.5 2 -3.5
v 7.5 4 3.5
v 7.5 4 -3.5
v 7.5 9 1.5
v 7.5 9 -1.5
v 7.5 17 7.5
v 7.5 17 1.5
v 7.5 17 -1.5
v 7.5 17 -7.5
v 8.5 9 1.5
v 8.5 9 -1.5
v 8.5 18 1.5
v 8.5 18 0.5
v 8.5 18 -1.5
v 8.5 18 -2.5
v 8.5 21 0.5
v 8.5 21 -2.5
v -6.5 13 8.5
v -6.5 18 8.5
v -1.5 13 8.5
v -1.5 18 8.5
v -7.5 0 7.5
v -7.5 17 7.5
v -6.5 13 7.5
v -6.5 17 7.5
v -3.5 0 7.5
v -3.5 2 7.5
v -3.5 4 7.5
v -1.5 13 7.5
v -1.5 17 7.5
v 3.5 0 7.5
v 3.5 2 7.5
v 3.5 4 7.5
v 7.5 0 7.5
v 7.5 17 7.5
v -6.5 1 4.5
v -6.5 2 4.5
v -4.5 1 4.5
v -4.5 2 4.5
v 4.5 1 4.5
v 4.5 2 4.5
v 6.5 1 4.5
v 6.5 2 4.5
v -8.5 7 3.5
v -8.5 10 3.5
v -7.5 7 3.5
v -7.5 10 3.5
v -6.5 2 3.5
v -6.5 3 3.5
v -6.5 5 3.5
v -6.5 12 3.5
v -6.5 14 3.5
v -6.5 15 3.5
v -6.5 16 3.5
v -4.5 2 3.5
v -4.5 3 3.5
v -4.5 6 3.5
v -4.5 15 3.5
v -4.5 16 3.5
v -3.5 5 3.5
v -3.5 6 3.5
v 3.5 2 3.5
v 3.5 3 3.5
v 6.5 2 3.5
v 6.5 3 3.5
v -8.5 10 2.5
v -8.5 11 2.5
v -7.5 10 2.5
v -7.5 11 2.5
v -9.5 8 1.5
v -9.5 9 1.5
v -9.5 10 1.5
v -9.5 11 1.5
v -8.5 8 1.5
v -8.5 9 1.5
v -8.5 10 1.5
v -8.5 11 1.5
v 7.5 9 1.5
v 7.5 17 1.5
v 7.5 18 1.5
v 8.5 9 1.5
v 8.5 18 1.5
v 7.5 18 0.5
v 7.5 21 0.5
v 8.5 18 0.5
v 8.5 21 0.5
v -7.5 0 -3.5
v -7.5 2 -3.5
v -6.5 17 -3.5
v -6.5 18 -3.5
v -3.5 0 -3.5
v -3.5 2 -3.5
v -3.5 15 -3.5
v -3.5 16 -3.5
v -1.5 15 -3.5
v -1.5 16 -3.5
v -1.5 17 -3.5
v -1.5 18 -3.5
v 3.5 0 -3.5
v 3.5 2 -3.5
v 7.5 0 -3.5
v 7.5 2 -3.5
v -6.5 1 -6.5
v -6.5 5 -6.5
v -4.5 1 -6.5
v -4.5 2 -6.5
v -4.5 3 -6.5
v -3.5 3 -6.5
v -3.5 4 -6.5
v -3.5 5 -6.5
v -3.5 15 -6.5
v -1.5 15 -6.5
v -1.5 16 -6.5
v 3.5 2 -6.5
v 3.5 3 -6.5
v 3.5 4 -6.5
v 4.5 1 -6.5
v 4.5 2 -6.5
v 6.5 1 -6.5
v 6.5 16 -6.5
v -6.5 1 6.5
v -6.5 15 6.5
v -6.5 16 6.5
v -4.5 1 6.5
v -4.5 2 6.5
v -4.5 3 6.5
v -4.5 6 6.5
v -4.5 15 6.5
v -4.5 16 6.5
v -3.5 3 6.5
v -3.5 4 6.5
v 3.5 2 6.5
v 3.5 3 6.5
v 3.5 4 6.5
v 4.5 1 6.5
v 4.5 2 6.5
v 6.5 1 6.5
v 6.5 6 6.5
v -7.5 0 3.5
v -7.5 2 3.5
v -6.5 17 3.5
v -6.5 18 3.5
v -3.5 0 3.5
v -3.5 2 3.5
v -1.5 17 3.5
v -1.5 18 3.5
v 3.5 0 3.5
v 3.5 2 3.5
v 7.5 0 3.5
v 7.5 2 3.5
v -3.5 6 2.5
v -3.5 16 2.5
v 6.5 6 2.5
v 6.5 16 2.5
v -9.5 8 -1.5
v -9.5 9 -1.5
v -9.5 10 -1.5
v -9.5 11 -1.5
v -8.5 8 -1.5
v -8.5 9 -1.5
v -8.5 10 -1.5
v -8.5 11 -1.5
v 7.5 9 -1.5
v 7.5 17 -1.5
v 7.5 18 -1.5
v 8.5 9 -1.5
v 8.5 18 -1.5
v -8.5 10 -2.5
v -8.5 11 -2.5
v -7.5 10 -2.5
v -7.5 11 -2.5
v 7.5 18 -2.5
v 7.5 21 -2.5
v 8.5 18 -2.5
v 8.5 21 -2.5
v -8.5 7 -3.5
v -8.5 10 -3.5
v -7.5 7 -3.5
v -7.5 10 -3.5
v -6.5 1 -4.5
v -6.5 2 -4.5
v -6.5 3 -4.5
v -4.5 1 -4.5
v -4.5 2 -4.5
v -4.5 3 -4.5
v 3.5 2 -4.5
v 3.5 3 -4.5
v 4.5 1 -4.5
v 4.5 2 -4.5
v 6.5 1 -4.5
v 6.5 2 -4.5
v 6.5 3 -4.5
v -7.5 0 -7.5
v -7.5 17 -7.5
v -6.5 13 -7.5
v -6.5 17 -7.5
v -3.5 0 -7.5
v -3.5 2 -7.5
v -3.5 4 -7.5
v -1.5 13 -7.5
v -1.5 17 -7.5
v 3.5 0 -7.5
v 3.5 2 -7.5
v 3.5 4 -7.5
v 7.5 0 -7.5
v 7.5 17 -7.5
v -6.5 13 -8.5
v -6.5 18 -8.5
v -1.5 13 -8.5
v -1.5 18 -8.5
v -7.5 0 7.5
v -3.5 0 7.5
v 3.5 0 7.5
v 7.5 0 7.5
v -7.5 0 3.5
v -3.5 0 3.5
v 3.5 0 3.5
v 7.5 0 3.5
v -7.5 0 -3.5
v -3.5 0 -3.5
v 3.5 0 -3.5
v 7.5 0 -3.5
v -7.5 0 -7.5
v -3.5 0 -7.5
v 3.5 0 -7.5
v 7.5 0 -7.5
v -3.5 2 7.5
v 3.5 2 7.5
v -7.5 2 3.5
v -3.5 2 3.5
v 3.5 2 3.5
v 7.5 2 3.5
v -7.5 2 -3.5
v -3.5 2 -3.5
v 3.5 2 -3.5
v 7.5 2 -3.5
v -3.5 2 -7.5
v 3.5 2 -7.5
v -6.5 5 3.5
v -3.5 5 3.5
v -6.5 5 -6.5
v -3.5 5 -6.5
v -4.5 6 6.5
v 6.5 6 6.5
v -4.5 6 3.5
v -3.5 6 3.5
v -3.5 6 2.5
v 6.5 6 2.5
v -8.5 7 3.5
v -7.5 7 3.5
v -8.5 7 -3.5
v -7.5 7 -3.5
v -9.5 8 1.5
v -8.5 8 1.5
v -9.5 8 -1.5
v -8.5 8 -1.5
v 7.5 9 1.5
v 8.5 9 1.5
v 7.5 9 -1.5
v 8.5 9 -1.5
v -9.5 10 1.5
v -8.5 10 1.5
v -9.5 10 -1.5
v -8.5 10 -1.5
v -6.5 13 8.5
v -1.5 13 8.5
v -6.5 13 7.5
v -1.5 13 7.5
v -6.5 13 -7.5
v -1.5 13 -7.5
v -6.5 13 -8.5
v -1.5 13 -8.5
v -3.5 15 -3.5
v -1.5 15 -3.5
v -3.5 15 -6.5
v -1.5 15 -6.5
v -6.5 16 6.5
v -4.5 16 6.5
v -6.5 16 3.5
v -4.5 16 3.5
v -3.5 16 2.5
v 6.5 16 2.5
v -3.5 16 -3.5
v -1.5 16 -3.5
v -1.5 16 -6.5
v 6.5 16 -6.5
v 7.5 18 -1.5
v 8.5 18 -1.5
v 7.5 18 -2.5
v 8.5 18 -2.5
v -6.5 1 6.5
v -4.5 1 6.5
v 4.5 1 6.5
v 6.5 1 6.5
v -6.5 1 4.5
v -4.5 1 4.5
v 4.5 1 4.5
v 6.5 1 4.5
v -6.5 1 -4.5
v -4.5 1 -4.5
v 4.5 1 -4.5
v 6.5 1 -4.5
v -6.5 1 -6.5
v -4.5 1 -6.5
v 4.5 1 -6.5
v 6.5 1 -6.5
v 3.5 2 6.5
v 4.5 2 6.5
v -6.5 2 4.5
v -4.5 2 4.5
v 4.5 2 4.5
v 6.5 2 4.5
v -6.5 2 3.5
v -4.5 2 3.5
v 3.5 2 3.5
v 6.5 2 3.5
v 3.5 2 -4.5
v 4.5 2 -4.5
v 3.5 2 -6.5
v 4.5 2 -6.5
v -4.5 3 6.5
v -3.5 3 6.5
v 3.5 3 6.5
v -6.5 3 3.5
v -4.5 3 3.5
v -3.5 3 3.5
v 3.5 3 3.5
v 6.5 3 3.5
v -6.5 3 -3.5
v -3.5 3 -3.5
v 3.5 3 -3.5
v 6.5 3 -3.5
v -6.5 3 -4.5
v -4.5 3 -4.5
v 3.5 3 -4.5
v 6.5 3 -4.5
v -4.5 3 -6.5
v -3.5 3 -6.5
v 3.5 3 -6.5
v -9.5 9 1.5
v -8.5 9 1.5
v -9.5 9 -1.5
v -8.5 9 -1.5
v -8.5 10 3.5
v -7.5 10 3.5
v -8.5 10 2.5
v -7.5 10 2.5
v -8.5 10 -2.5
v -7.5 10 -2.5
v -8.5 10 -3.5
v -7.5 10 -3.5
v -8.5 11 2.5
v -7.5 11 2.5
v -9.5 11 1.5
v -8.5 11 1.5
v -9.5 11 -1.5
v -8.5 11 -1.5
v -8.5 11 -2.5
v -7.5 11 -2.5
v -7.5 17 7.5
v -6.5 17 7.5
v -1.5 17 7.5
v 7.5 17 7.5
v -6.5 17 3.5
v -1.5 17 3.5
v 7.5 17 1.5
v 7.5 17 -1.5
v -6.5 17 -3.5
v -1.5 17 -3.5
v -7.5 17 -7.5
v -6.5 17 -7.5
v -1.5 17 -7.5
v 7.5 17 -7.5
v -6.5 18 8.5
v -1.5 18 8.5
v -6.5 18 3.5
v -1.5 18 3.5
v 7.5 18 1.5
v 8.5 18 1.5
v 7.5 18 0.5
v 8.5 18 0.5
v -6.5 18 -3.5
v -1.5 18 -3.5
v -6.5 18 -8.5
v -1.5 18 -8.5
v 7.5 21 0.5
v 8.5 21 0.5
v 7.5 21 -2.5
v 8.5 21 -2.5

# faces
f 3/3/1 2/3/1 1/3/1
f 4/3/1 2/3/1 3/3/1
f 7/5/1 6/5/1 5/5/1
f 8/5/1 6/5/1 7/5/1
f 11/6/1 10/6/1 9/6/1
f 12/6/1 10/6/1 11/6/1
f 13/6/1 11/6/1 9/6/1
f 14/6/1 10/6/1 12/6/1
f 15/6/1 13/6/1 9/6/1
f 15/6/1 14/6/1 13/6/1
f 16/6/1 14/6/1 15/6/1
f 17/6/1 14/6/1 16/6/1
f 18/6/1 10/6/1 14/6/1
f 18/6/1 14/6/1 17/6/1
f 19/6/1 10/6/1 18/6/1
f 20/6/1 10/6/1 19/6/1
f 21/6/1 17/6/1 16/6/1
f 22/6/1 17/6/1 21/6/1
f 23/6/1 19/6/1 18/6/1
f 24/6/1 19/6/1 23/6/1
f 29/1/1 26/1/1 25/1/1
f 30/1/1 28/1/1 27/1/1
f 31/1/1 29/1/1 25/1/1
f 31/6/1 30/6/1 29/6/1
f 32/1/1 28/1/1 30/1/1
f 32/6/1 30/6/1 31/6/1
f 33/1/1 31/1/1 25/1/1
f 33/1/1 32/1/1 31/1/1
f 34/1/1 28/1/1 32/1/1
f 34/1/1 32/1/1 33/1/1
f 35/1/1 33/1/1 25/1/1
f 38/1/1 28/1/1 34/1/1
f 39/1/1 36/1/1 35/1/1
f 40/1/1 38/1/1 37/1/1
f 41/1/1 39/1/1 35/1/1
f 41/1/1 40/1/1 39/1/1
f 41/1/1 35/1/1 25/1/1
f 42/1/1 40/1/1 41/1/1
f 43/1/1 40/1/1 42/1/1
f 44/1/1 40/1/1 43/1/1
f 45/1/1 38/1/1 40/1/1
f 45/1/1 40/1/1 44/1/1
f 45/1/1 28/1/1 38/1/1
f 46/1/1 28/1/1 45/1/1
f 47/1/1 41/1/1 25/1/1
f 47/7/1 42/7/1 41/7/1
f 48/6/1 43/6/1 42/6/1
f 48/7/1 42/7/1 47/7/1
f 49/1/1 44/1/1 43/1/1
f 49/7/1 45/7/1 44/7/1
f 50/6/1 46/6/1 45/6/1
f 50/7/1 45/7/1 49/7/1
f 51/1/1 47/1/1 25/1/1
f 51/6/1 48/6/1 47/6/1
f 52/6/1 43/6/1 48/6/1
f 52/6/1 48/6/1 51/6/1
f 52/1/1 49/1/1 43/1/1
f 53/6/1 50/6/1 49/6/1
f 53/1/1 49/1/1 52/1/1
f 54/6/1 46/6/1 50/6/1
f 54/6/1 50/6/1 53/6/1
f 54/1/1 28/1/1 46/1/1
f 55/1/1 51/1/1 25/1/1
f 55/1/1 53/1/1 52/1/1
f 55/1/1 54/1/1 53/1/1
f 55/1/1 52/1/1 51/1/1
f 56/1/1 28/1/1 54/1/1
f 56/1/1 54/1/1 55/1/1
f 61/2/1 58/2/1 57/2/1
f 64/2/1 60/2/1 59/2/1
f 65/2/1 62/2/1 61/2/1
f 65/2/1 61/2/1 57/2/1
f 66/2/1 62/2/1 65/2/1
f 67/2/1 64/2/1 63/2/1
f 68/2/1 60/2/1 64/2/1
f 68/2/1 64/2/1 67/2/1
f 73/1/1 70/1/1 69/1/1
f 74/1/1 70/1/1 73/1/1
f 76/1/1 72/1/1 71/1/1
f 77/1/1 72/1/1 76/1/1
f 78/4/1 75/4/1 74/4/1
f 78/4/1 74/4/1 73/4/1
f 79/4/1 75/4/1 78/4/1
f 80/4/1 77/4/1 76/4/1
f 81/4/1 77/4/1 80/4/1
f 84/4/1 83/4/1 82/4/1
f 85/4/1 83/4/1 84/4/1
f 86/2/1 85/2/1 84/2/1
f 87/2/1 85/2/1 86/2/1
f 92/1/1 89/1/1 88/1/1
f 93/1/1 89/1/1 92/1/1
f 94/1/1 91/1/1 90/1/1
f 95/1/1 91/1/1 94/1/1
f 100/1/1 97/1/1 96/1/1
f 102/1/1 99/1/1 98/1/1
f 103/1/1 101/1/1 100/1/1
f 105/1/1 99/1/1 102/1/1
f 106/6/1 104/6/1 103/6/1
f 106/1/1 103/1/1 100/1/1
f 107/1/1 105/1/1 104/1/1
f 107/6/1 104/6/1 106/6/1
f 108/1/1 106/1/1 100/1/1
f 108/1/1 100/1/1 96/1/1
f 108/1/1 107/1/1 106/1/1
f 109/1/1 107/1/1 108/1/1
f 110/1/1 107/1/1 109/1/1
f 111/1/1 105/1/1 107/1/1
f 111/1/1 107/1/1 110/1/1
f 111/1/1 99/1/1 105/1/1
f 114/2/1 113/2/1 112/2/1
f 115/2/1 113/2/1 114/2/1
f 116/2/1 113/2/1 115/2/1
f 118/2/1 117/2/1 116/2/1
f 118/2/1 116/2/1 115/2/1
f 119/2/1 117/2/1 118/2/1
f 120/1/2 121/1/2 124/1/2
f 122/1/2 123/1/2 126/1/2
f 124/1/2 125/1/2 127/1/2
f 126/1/2 123/1/2 129/1/2
f 127/6/2 128/6/2 130/6/2
f 124/1/2 127/1/2 130/1/2
f 128/1/2 129/1/2 131/1/2
f 130/6/2 128/6/2 131/6/2
f 124/1/2 130/1/2 132/1/2
f 130/1/2 131/1/2 132/1/2
f 131/1/2 129/1/2 133/1/2
f 132/1/2 131/1/2 133/1/2
f 129/1/2 123/1/2 133/1/2
f 124/1/2 132/1/2 134/1/2
f 120/1/2 124/1/2 134/1/2
f 134/1/2 132/1/2 135/1/2
f 120/1/2 134/1/2 136/1/2
f 134/7/2 135/7/2 136/7/2
f 136/7/2 135/7/2 137/7/2
f 120/1/2 136/1/2 138/1/2
f 136/6/2 137/6/2 139/6/2
f 138/1/2 136/1/2 139/1/2
f 139/6/2 137/6/2 140/6/2
f 138/1/2 139/1/2 141/1/2
f 139/1/2 140/1/2 141/1/2
f 141/1/2 140/1/2 142/1/2
f 143/1/2 144/1/2 147/1/2
f 147/1/2 144/1/2 148/1/2
f 145/1/2 146/1/2 149/1/2
f 149/1/2 146/1/2 150/1/2
f 151/4/2 152/4/2 153/4/2
f 153/4/2 152/4/2 154/4/2
f 154/4/2 152/4/2 155/4/2
f 155/4/2 152/4/2 156/4/2
f 154/4/2 155/4/2 157/4/2
f 157/4/2 155/4/2 158/4/2
f 163/1/2 164/1/2 165/1/2
f 165/1/2 164/1/2 166/1/2
f 159/2/2 160/2/2 167/2/2
f 161/2/2 162/2/2 170/2/2
f 167/2/2 168/2/2 171/2/2
f 159/2/2 167/2/2 171/2/2
f 171/2/2 168/2/2 172/2/2
f 169/2/2 170/2/2 173/2/2
f 170/2/2 162/2/2 174/2/2
f 173/2/2 170/2/2 174/2/2
f 175/6/2 176/6/2 179/6/2
f 179/6/2 176/6/2 180/6/2
f 177/6/2 178/6/2 181/6/2
f 181/6/2 178/6/2 182/6/2
f 183/1/2 184/1/2 187/1/2
f 187/1/2 184/1/2 188/1/2
f 185/1/2 186/1/2 189/1/2
f 189/1/2 186/1/2 190/1/2
f 191/1/2 192/1/2 195/1/2
f 193/1/2 194/1/2 196/1/2
f 191/1/2 195/1/2 197/1/2
f 195/6/2 196/6/2 197/6/2
f 196/1/2 194/1/2 198/1/2
f 197/6/2 196/6/2 198/6/2
f 197/1/2 198/1/2 199/1/2
f 199/1/2 198/1/2 200/1/2
f 191/1/2 197/1/2 201/1/2
f 197/1/2 199/1/2 201/1/2
f 201/1/2 199/1/2 202/1/2
f 200/1/2 198/1/2 203/1/2
f 198/1/2 194/1/2 204/1/2
f 203/1/2 198/1/2 204/1/2
f 205/2/2 206/2/2 207/2/2
f 207/2/2 206/2/2 208/2/2
f 208/2/2 206/2/2 209/2/2
f 209/2/2 210/2/2 211/2/2
f 208/2/2 209/2/2 211/2/2
f 211/2/2 210/2/2 212/2/2
f 215/2/3 214/2/3 213/2/3
f 216/2/3 214/2/3 215/2/3
f 219/1/3 218/1/3 217/1/3
f 220/1/3 218/1/3 219/1/3
f 221/1/3 219/1/3 217/1/3
f 222/1/3 219/1/3 221/1/3
f 223/1/3 219/1/3 222/1/3
f 224/1/3 219/1/3 223/1/3
f 227/6/3 223/6/3 222/6/3
f 228/1/3 225/1/3 224/1/3
f 228/1/3 224/1/3 223/1/3
f 228/6/3 223/6/3 227/6/3
f 229/1/3 227/1/3 226/1/3
f 229/1/3 228/1/3 227/1/3
f 230/1/3 225/1/3 228/1/3
f 230/1/3 228/1/3 229/1/3
f 233/1/3 232/1/3 231/1/3
f 234/1/3 232/1/3 233/1/3
f 237/1/3 236/1/3 235/1/3
f 238/1/3 236/1/3 237/1/3
f 241/6/3 240/6/3 239/6/3
f 242/6/3 240/6/3 241/6/3
f 250/6/3 244/6/3 243/6/3
f 251/6/3 244/6/3 250/6/3
f 252/4/3 249/4/3 248/4/3
f 252/4/3 246/4/3 245/4/3
f 252/4/3 247/4/3 246/4/3
f 252/4/3 248/4/3 247/4/3
f 253/4/3 249/4/3 252/4/3
f 254/4/3 249/4/3 253/4/3
f 255/4/3 252/4/3 245/4/3
f 256/4/3 252/4/3 255/4/3
f 259/6/3 258/6/3 257/6/3
f 260/6/3 258/6/3 259/6/3
f 263/6/3 262/6/3 261/6/3
f 264/6/3 262/6/3 263/6/3
f 269/3/3 266/3/3 265/3/3
f 270/3/3 266/3/3 269/3/3
f 271/5/3 268/5/3 267/5/3
f 272/5/3 268/5/3 271/5/3
f 276/2/3 274/2/3 273/2/3
f 276/2/3 275/2/3 274/2/3
f 277/2/3 275/2/3 276/2/3
f 280/2/3 279/2/3 278/2/3
f 281/2/3 279/2/3 280/2/3
f 286/1/3 283/1/3 282/1/3
f 287/1/3 283/1/3 286/1/3
f 290/1/3 289/1/3 288/1/3
f 291/1/3 289/1/3 290/1/3
f 292/2/3 285/2/3 284/2/3
f 293/2/3 285/2/3 292/2/3
f 296/1/3 295/1/3 294/1/3
f 297/1/3 295/1/3 296/1/3
f 300/1/3 299/1/3 298/1/3
f 301/1/3 299/1/3 300/1/3
f 302/1/3 299/1/3 301/1/3
f 303/1/3 299/1/3 302/1/3
f 304/1/3 299/1/3 303/1/3
f 305/1/3 299/1/3 304/1/3
f 307/1/3 305/1/3 304/1/3
f 307/1/3 306/1/3 305/1/3
f 310/6/3 304/6/3 303/6/3
f 311/1/3 308/1/3 307/1/3
f 311/1/3 307/1/3 304/1/3
f 311/6/3 304/6/3 310/6/3
f 313/1/3 310/1/3 309/1/3
f 313/1/3 311/1/3 310/1/3
f 314/1/3 313/1/3 312/1/3
f 315/1/3 308/1/3 311/1/3
f 315/1/3 313/1/3 314/1/3
f 315/1/3 311/1/3 313/1/3
f 316/1/4 317/1/4 319/1/4
f 319/1/4 317/1/4 320/1/4
f 320/1/4 317/1/4 321/1/4
f 321/1/4 317/1/4 322/1/4
f 317/2/4 318/2/4 323/2/4
f 322/1/4 317/1/4 323/1/4
f 323/2/4 318/2/4 324/2/4
f 321/1/4 322/1/4 325/1/4
f 325/1/4 322/1/4 326/1/4
f 325/6/4 326/6/4 328/6/4
f 326/1/4 322/1/4 329/1/4
f 328/6/4 326/6/4 329/6/4
f 327/1/4 328/1/4 331/1/4
f 328/1/4 329/1/4 331/1/4
f 330/1/4 331/1/4 332/1/4
f 329/1/4 322/1/4 333/1/4
f 332/1/4 331/1/4 333/1/4
f 331/1/4 329/1/4 333/1/4
f 334/1/4 335/1/4 338/1/4
f 338/1/4 335/1/4 339/1/4
f 336/2/4 337/2/4 340/2/4
f 340/2/4 337/2/4 341/2/4
f 342/1/4 343/1/4 344/1/4
f 344/1/4 343/1/4 345/1/4
f 346/4/4 347/4/4 348/4/4
f 348/4/4 347/4/4 349/4/4
f 350/3/4 351/3/4 354/3/4
f 354/3/4 351/3/4 355/3/4
f 352/5/4 353/5/4 356/5/4
f 356/5/4 353/5/4 357/5/4
f 358/2/4 359/2/4 361/2/4
f 359/2/4 360/2/4 361/2/4
f 361/2/4 360/2/4 362/2/4
f 363/6/4 364/6/4 365/6/4
f 365/6/4 364/6/4 366/6/4
f 367/2/4 368/2/4 369/2/4
f 369/2/4 368/2/4 370/2/4
f 371/6/4 372/6/4 373/6/4
f 373/6/4 372/6/4 374/6/4
f 375/1/4 376/1/4 378/1/4
f 376/4/4 377/4/4 379/4/4
f 378/1/4 376/1/4 379/1/4
f 379/4/4 377/4/4 380/4/4
f 381/4/4 382/4/4 384/4/4
f 383/1/4 384/1/4 385/1/4
f 384/4/4 382/4/4 386/4/4
f 385/1/4 384/1/4 386/1/4
f 386/4/4 382/4/4 387/4/4
f 388/1/4 389/1/4 390/1/4
f 390/1/4 389/1/4 391/1/4
f 388/1/4 390/1/4 392/1/4
f 392/1/4 390/1/4 393/1/4
f 393/1/4 390/1/4 394/1/4
f 394/1/4 390/1/4 395/1/4
f 393/6/4 394/6/4 398/6/4
f 395/1/4 396/1/4 399/1/4
f 394/1/4 395/1/4 399/1/4
f 398/6/4 394/6/4 399/6/4
f 397/1/4 398/1/4 400/1/4
f 398/1/4 399/1/4 400/1/4
f 399/1/4 396/1/4 401/1/4
f 400/1/4 399/1/4 401/1/4
f 402/2/4 403/2/4 404/2/4
f 404/2/4 403/2/4 405/2/4
f 410/1/5 407/1/5 406/1/5
f 411/1/5 407/1/5 410/1/5
f 412/1/5 409/1/5 408/1/5
f 413/1/5 409/1/5 412/1/5
f 418/1/5 415/1/5 414/1/5
f 419/1/5 415/1/5 418/1/5
f 420/1/5 417/1/5 416/1/5
f 421/1/5 417/1/5 420/1/5
f 425/6/5 423/6/5 422/6/5
f 426/6/5 423/6/5 425/6/5
f 428/6/5 425/6/5 424/6/5
f 428/6/5 427/6/5 426/6/5
f 428/6/5 426/6/5 425/6/5
f 429/6/5 427/6/5 428/6/5
f 430/6/5 427/6/5 429/6/5
f 431/6/5 427/6/5 430/6/5
f 432/6/5 430/6/5 429/6/5
f 433/6/5 430/6/5 432/6/5
f 436/4/5 435/4/5 434/4/5
f 437/4/5 435/4/5 436/4/5
f 440/4/5 439/4/5 438/4/5
f 441/4/5 439/4/5 440/4/5
f 442/4/5 439/4/5 441/4/5
f 443/4/5 439/4/5 442/4/5
f 446/6/5 445/6/5 444/6/5
f 447/6/5 445/6/5 446/6/5
f 450/3/5 449/3/5 448/3/5
f 451/3/5 449/3/5 450/3/5
f 454/2/5 453/2/5 452/2/5
f 455/2/5 453/2/5 454/2/5
f 458/5/5 457/5/5 456/5/5
f 459/5/5 457/5/5 458/5/5
f 462/2/5 461/2/5 460/2/5
f 463/2/5 461/2/5 462/2/5
f 466/2/5 465/2/5 464/2/5
f 467/2/5 465/2/5 466/2/5
f 470/1/5 469/1/5 468/1/5
f 471/1/5 469/1/5 470/1/5
f 474/2/5 473/2/5 472/2/5
f 475/2/5 473/2/5 474/2/5
f 478/1/5 477/1/5 476/1/5
f 479/1/5 477/1/5 478/1/5
f 480/1/5 477/1/5 479/1/5
f 481/1/5 477/1/5 480/1/5
f 484/2/5 483/2/5 482/2/5
f 485/2/5 483/2/5 484/2/5
f 486/1/6 487/1/6 490/1/6
f 490/1/6 487/1/6 491/1/6
f 488/1/6 489/1/6 492/1/6
f 492/1/6 489/1/6 493/1/6
f 494/1/6 495/1/6 498/1/6
f 498/1/6 495/1/6 499/1/6
f 496/1/6 497/1/6 500/1/6
f 500/1/6 497/1/6 501/1/6
f 502/1/6 503/1/6 506/1/6
f 504/1/6 505/1/6 508/1/6
f 508/1/6 505/1/6 509/1/6
f 506/1/6 507/1/6 510/1/6
f 502/1/6 506/1/6 510/1/6
f 510/1/6 507/1/6 511/1/6
f 512/1/6 513/1/6 514/1/6
f 514/1/6 513/1/6 515/1/6
f 516/4/6 517/4/6 520/4/6
f 517/6/6 518/6/6 521/6/6
f 520/4/6 517/4/6 521/4/6
f 521/6/6 518/6/6 522/6/6
f 519/6/6 520/6/6 524/6/6
f 522/6/6 523/6/6 524/6/6
f 521/6/6 522/6/6 524/6/6
f 520/6/6 521/6/6 524/6/6
f 524/6/6 523/6/6 525/6/6
f 525/6/6 523/6/6 526/6/6
f 526/6/6 523/6/6 527/6/6
f 524/4/6 525/4/6 528/4/6
f 528/4/6 525/4/6 529/4/6
f 525/6/6 526/6/6 530/6/6
f 526/4/6 527/4/6 530/4/6
f 530/4/6 527/4/6 531/4/6
f 529/4/6 525/4/6 532/4/6
f 525/6/6 530/6/6 533/6/6
f 532/4/6 525/4/6 533/4/6
f 533/6/6 530/6/6 534/6/6
f 535/3/6 536/3/6 537/3/6
f 537/3/6 536/3/6 538/3/6
f 539/6/6 540/6/6 541/6/6
f 541/6/6 540/6/6 542/6/6
f 543/6/6 544/6/6 545/6/6
f 545/6/6 544/6/6 546/6/6
f 547/6/6 548/6/6 550/6/6
f 549/5/6 550/5/6 551/5/6
f 550/6/6 548/6/6 552/6/6
f 551/5/6 550/5/6 552/5/6
f 552/6/6 548/6/6 553/6/6
f 553/6/6 548/6/6 554/6/6
f 555/1/6 556/1/6 559/1/6
f 557/1/6 558/1/6 560/1/6
f 560/1/6 558/1/6 561/1/6
f 559/1/6 560/1/6 561/1/6
f 559/1/6 561/1/6 562/1/6
f 555/1/6 559/1/6 563/1/6
f 559/1/6 562/1/6 563/1/6
f 563/1/6 562/1/6 564/1/6
f 555/1/6 563/1/6 565/1/6
f 565/1/6 563/1/6 566/1/6
f 564/1/6 562/1/6 567/1/6
f 567/1/6 562/1/6 568/1/6
f 569/2/6 570/2/6 571/2/6
f 571/2/6 570/2/6 572/2/6
f 573/2/6 574/2/6 575/2/6
f 575/2/6 574/2/6 576/2/6
f 577/2/6 578/2/6 579/2/6
f 579/2/6 578/2/6 580/2/6
f 581/2/6 582/2/6 583/2/6
f 583/2/6 582/2/6 584/2/6
