# MagicaVoxel @ Ephtracy

# group
g dot_sep

# material
mtllib dot_sep.mtl
usemtl palette

# normals
vn -1 0 0
vn 1 0 0
vn 0 0 1
vn 0 0 -1
vn 0 -1 0
vn 0 1 0

# texcoords
vt 0.0605469 0.5
vt 0.0917969 0.5
vt 0.220703 0.5
vt 0.306641 0.5
vt 0.955078 0.5
vt 0.958984 0.5
vt 0.994141 0.5

# verts
v -9.5 9 1.5
v -9.5 9 -1.5
v -9.5 10 1.5
v -9.5 10 -1.5
v -9.5 11 1.5
v -9.5 11 -1.5
v -9.5 12 1.5
v -9.5 12 -1.5
v -8.5 8 3.5
v -8.5 8 -3.5
v -8.5 9 1.5
v -8.5 9 -1.5
v -8.5 10 1.5
v -8.5 10 -1.5
v -8.5 11 3.5
v -8.5 11 2.5
v -8.5 11 1.5
v -8.5 11 -1.5
v -8.5 11 -2.5
v -8.5 11 -3.5
v -8.5 12 2.5
v -8.5 12 1.5
v -8.5 12 -1.5
v -8.5 12 -2.5
v -7.5 0 7.5
v -7.5 0 3.5
v -7.5 0 -3.5
v -7.5 0 -7.5
v -7.5 2 7.5
v -7.5 2 3.5
v -7.5 2 -3.5
v -7.5 2 -7.5
v -7.5 3 7.5
v -7.5 3 3.5
v -7.5 3 -3.5
v -7.5 3 -7.5
v -7.5 5 3.5
v -7.5 5 -3.5
v -7.5 8 3.5
v -7.5 8 -3.5
v -7.5 11 3.5
v -7.5 11 2.5
v -7.5 11 -2.5
v -7.5 11 -3.5
v -7.5 12 2.5
v -7.5 12 -2.5
v -7.5 13 4.5
v -7.5 13 2.5
v -7.5 13 1.5
v -7.5 13 -1.5
v -7.5 13 -3.5
v -7.5 13 -4.5
v -7.5 15 4.5
v -7.5 15 2.5
v -7.5 15 -1.5
v -7.5 15 -3.5
v -7.5 16 4.5
v -7.5 16 1.5
v -7.5 16 -1.5
v -7.5 16 -4.5
v -7.5 18 7.5
v -7.5 18 -7.5
v -6.5 14 8.5
v -6.5 14 7.5
v -6.5 14 -7.5
v -6.5 14 -8.5
v -6.5 18 7.5
v -6.5 18 3.5
v -6.5 18 -3.5
v -6.5 18 -7.5
v -6.5 19 8.5
v -6.5 19 3.5
v -6.5 19 -3.5
v -6.5 19 -8.5
v -4.5 8 6.5
v -4.5 8 3.5
v -4.5 16 6.5
v -4.5 16 3.5
v -4.5 17 6.5
v -4.5 17 3.5
v 1.5 4 1.5
v 1.5 4 -6.5
v 1.5 5 -6.5
v 1.5 17 1.5
v 1.5 17 -6.5
v 3.5 0 7.5
v 3.5 0 3.5
v 3.5 0 -3.5
v 3.5 0 -7.5
v 3.5 2 7.5
v 3.5 2 3.5
v 3.5 2 -3.5
v 3.5 2 -7.5
v 3.5 4 6.5
v 3.5 4 3.5
v 3.5 5 6.5
v 3.5 7 6.5
v 3.5 7 3.5
v 6.5 4 3.5
v 6.5 4 -3.5
v 6.5 4 -4.5
v 6.5 5 3.5
v 6.5 5 -3.5
v 6.5 5 -4.5
v 6.5 5 -6.5
v 6.5 7 3.5
v 6.5 7 2.5
v 6.5 17 2.5
v 6.5 17 -6.5
v 7.5 18 1.5
v 7.5 18 -1.5
v 7.5 19 1.5
v 7.5 19 0.5
v 7.5 19 -1.5
v 7.5 19 -2.5
v 7.5 22 0.5
v 7.5 22 -2.5
v -6.5 4 3.5
v -6.5 4 -3.5
v -6.5 4 -4.5
v -6.5 5 3.5
v -6.5 5 -3.5
v -6.5 6 3.5
v -6.5 6 -4.5
v -6.5 8 6.5
v -6.5 8 3.5
v -6.5 13 4.5
v -6.5 13 3.5
v -6.5 15 4.5
v -6.5 15 3.5
v -6.5 16 6.5
v -6.5 16 4.5
v -6.5 16 3.5
v -6.5 17 6.5
v -6.5 17 3.5
v -4.5 4 6.5
v -4.5 4 3.5
v -4.5 4 -4.5
v -4.5 4 -6.5
v -4.5 6 3.5
v -4.5 6 -4.5
v -4.5 6 -6.5
v -4.5 7 6.5
v -4.5 7 3.5
v -3.5 0 7.5
v -3.5 0 3.5
v -3.5 0 -3.5
v -3.5 0 -7.5
v -3.5 2 7.5
v -3.5 2 3.5
v -3.5 2 -3.5
v -3.5 2 -7.5
v -3.5 6 3.5
v -3.5 6 -6.5
v -3.5 7 3.5
v -3.5 7 2.5
v -3.5 16 -3.5
v -3.5 16 -6.5
v -3.5 17 2.5
v -3.5 17 -3.5
v -1.5 14 8.5
v -1.5 14 7.5
v -1.5 14 -7.5
v -1.5 14 -8.5
v -1.5 16 -3.5
v -1.5 16 -6.5
v -1.5 17 -3.5
v -1.5 17 -6.5
v -1.5 18 7.5
v -1.5 18 3.5
v -1.5 18 -3.5
v -1.5 18 -7.5
v -1.5 19 8.5
v -1.5 19 3.5
v -1.5 19 -3.5
v -1.5 19 -8.5
v 4.5 4 1.5
v 4.5 4 -3.5
v 4.5 4 -4.5
v 4.5 5 -4.5
v 4.5 5 -6.5
v 4.5 17 1.5
v 4.5 17 -6.5
v 7.5 0 7.5
v 7.5 0 3.5
v 7.5 0 -3.5
v 7.5 0 -7.5
v 7.5 2 7.5
v 7.5 2 3.5
v 7.5 2 -3.5
v 7.5 2 -7.5
v 7.5 3 7.5
v 7.5 3 3.5
v 7.5 3 -3.5
v 7.5 3 -7.5
v 7.5 5 3.5
v 7.5 5 -3.5
v 7.5 10 1.5
v 7.5 10 -1.5
v 7.5 18 7.5
v 7.5 18 1.5
v 7.5 18 -1.5
v 7.5 18 -7.5
v 8.5 10 1.5
v 8.5 10 -1.5
v 8.5 19 1.5
v 8.5 19 0.5
v 8.5 19 -1.5
v 8.5 19 -2.5
v 8.5 22 0.5
v 8.5 22 -2.5
v -6.5 14 8.5
v -6.5 19 8.5
v -1.5 14 8.5
v -1.5 19 8.5
v -7.5 0 7.5
v -7.5 2 7.5
v -7.5 3 7.5
v -7.5 18 7.5
v -6.5 14 7.5
v -6.5 18 7.5
v -3.5 0 7.5
v -3.5 2 7.5
v -3.5 3 7.5
v -3.5 5 7.5
v -1.5 14 7.5
v -1.5 18 7.5
v 3.5 0 7.5
v 3.5 2 7.5
v 3.5 3 7.5
v 3.5 5 7.5
v 7.5 0 7.5
v 7.5 2 7.5
v 7.5 3 7.5
v 7.5 18 7.5
v -8.5 8 3.5
v -8.5 11 3.5
v -7.5 8 3.5
v -7.5 11 3.5
v -6.5 8 3.5
v -6.5 13 3.5
v -6.5 15 3.5
v -6.5 16 3.5
v -6.5 17 3.5
v -4.5 6 3.5
v -4.5 7 3.5
v -4.5 8 3.5
v -4.5 16 3.5
v -4.5 17 3.5
v -3.5 6 3.5
v -3.5 7 3.5
v -8.5 11 2.5
v -8.5 12 2.5
v -7.5 11 2.5
v -7.5 12 2.5
v -9.5 9 1.5
v -9.5 10 1.5
v -9.5 11 1.5
v -9.5 12 1.5
v -8.5 9 1.5
v -8.5 10 1.5
v -8.5 11 1.5
v -8.5 12 1.5
v 1.5 4 1.5
v 1.5 17 1.5
v 4.5 4 1.5
v 4.5 17 1.5
v 7.5 10 1.5
v 7.5 18 1.5
v 7.5 19 1.5
v 8.5 10 1.5
v 8.5 19 1.5
v 7.5 19 0.5
v 7.5 22 0.5
v 8.5 19 0.5
v 8.5 22 0.5
v -7.5 0 -3.5
v -7.5 2 -3.5
v -6.5 18 -3.5
v -6.5 19 -3.5
v -3.5 0 -3.5
v -3.5 2 -3.5
v -3.5 16 -3.5
v -3.5 17 -3.5
v -1.5 16 -3.5
v -1.5 17 -3.5
v -1.5 18 -3.5
v -1.5 19 -3.5
v 3.5 0 -3.5
v 3.5 2 -3.5
v 7.5 0 -3.5
v 7.5 2 -3.5
v -6.5 4 -4.5
v -6.5 6 -4.5
v -4.5 4 -4.5
v -4.5 6 -4.5
v 4.5 4 -4.5
v 4.5 5 -4.5
v 6.5 4 -4.5
v 6.5 5 -4.5
v -4.5 4 -6.5
v -4.5 6 -6.5
v -3.5 4 -6.5
v -3.5 5 -6.5
v -3.5 6 -6.5
v -3.5 16 -6.5
v -1.5 16 -6.5
v -1.5 17 -6.5
v 1.5 4 -6.5
v 1.5 5 -6.5
v 1.5 17 -6.5
v 4.5 5 -6.5
v 4.5 17 -6.5
v 6.5 5 -6.5
v 6.5 17 -6.5
v -6.5 8 6.5
v -6.5 16 6.5
v -6.5 17 6.5
v -4.5 4 6.5
v -4.5 7 6.5
v -4.5 8 6.5
v -4.5 16 6.5
v -4.5 17 6.5
v -3.5 4 6.5
v -3.5 5 6.5
v 3.5 4 6.5
v 3.5 5 6.5
v 3.5 7 6.5
v -7.5 0 3.5
v -7.5 2 3.5
v -6.5 4 3.5
v -6.5 5 3.5
v -6.5 6 3.5
v -6.5 18 3.5
v -6.5 19 3.5
v -4.5 4 3.5
v -4.5 6 3.5
v -3.5 0 3.5
v -3.5 2 3.5
v -1.5 18 3.5
v -1.5 19 3.5
v 3.5 0 3.5
v 3.5 2 3.5
v 3.5 4 3.5
v 3.5 7 3.5
v 6.5 4 3.5
v 6.5 5 3.5
v 6.5 7 3.5
v 7.5 0 3.5
v 7.5 2 3.5
v -3.5 7 2.5
v -3.5 17 2.5
v 6.5 7 2.5
v 6.5 17 2.5
v -9.5 9 -1.5
v -9.5 10 -1.5
v -9.5 11 -1.5
v -9.5 12 -1.5
v -8.5 9 -1.5
v -8.5 10 -1.5
v -8.5 11 -1.5
v -8.5 12 -1.5
v 7.5 10 -1.5
v 7.5 18 -1.5
v 7.5 19 -1.5
v 8.5 10 -1.5
v 8.5 19 -1.5
v -8.5 11 -2.5
v -8.5 12 -2.5
v -7.5 11 -2.5
v -7.5 12 -2.5
v 7.5 19 -2.5
v 7.5 22 -2.5
v 8.5 19 -2.5
v 8.5 22 -2.5
v -8.5 8 -3.5
v -8.5 11 -3.5
v -7.5 8 -3.5
v -7.5 11 -3.5
v -7.5 0 -7.5
v -7.5 2 -7.5
v -7.5 3 -7.5
v -7.5 18 -7.5
v -6.5 14 -7.5
v -6.5 18 -7.5
v -3.5 0 -7.5
v -3.5 2 -7.5
v -3.5 3 -7.5
v -3.5 5 -7.5
v -1.5 14 -7.5
v -1.5 18 -7.5
v 3.5 0 -7.5
v 3.5 2 -7.5
v 3.5 3 -7.5
v 3.5 5 -7.5
v 7.5 0 -7.5
v 7.5 2 -7.5
v 7.5 3 -7.5
v 7.5 18 -7.5
v -6.5 14 -8.5
v -6.5 19 -8.5
v -1.5 14 -8.5
v -1.5 19 -8.5
v -7.5 0 7.5
v -3.5 0 7.5
v 3.5 0 7.5
v 7.5 0 7.5
v -7.5 0 3.5
v -3.5 0 3.5
v 3.5 0 3.5
v 7.5 0 3.5
v -7.5 0 -3.5
v -3.5 0 -3.5
v 3.5 0 -3.5
v 7.5 0 -3.5
v -7.5 0 -7.5
v -3.5 0 -7.5
v 3.5 0 -7.5
v 7.5 0 -7.5
v -7.5 3 7.5
v -3.5 3 7.5
v 3.5 3 7.5
v 7.5 3 7.5
v -7.5 3 3.5
v -3.5 3 3.5
v 3.5 3 3.5
v 7.5 3 3.5
v -7.5 3 -3.5
v -3.5 3 -3.5
v 3.5 3 -3.5
v 7.5 3 -3.5
v -7.5 3 -7.5
v -3.5 3 -7.5
v 3.5 3 -7.5
v 7.5 3 -7.5
v -6.5 6 3.5
v -4.5 6 3.5
v -3.5 6 3.5
v -6.5 6 -4.5
v -4.5 6 -4.5
v -4.5 6 -6.5
v -3.5 6 -6.5
v -4.5 7 6.5
v 3.5 7 6.5
v -4.5 7 3.5
v -3.5 7 3.5
v 3.5 7 3.5
v 6.5 7 3.5
v -3.5 7 2.5
v 6.5 7 2.5
v -8.5 8 3.5
v -7.5 8 3.5
v -8.5 8 -3.5
v -7.5 8 -3.5
v -9.5 9 1.5
v -8.5 9 1.5
v -9.5 9 -1.5
v -8.5 9 -1.5
v 7.5 10 1.5
v 8.5 10 1.5
v 7.5 10 -1.5
v 8.5 10 -1.5
v -9.5 11 1.5
v -8.5 11 1.5
v -9.5 11 -1.5
v -8.5 11 -1.5
v -6.5 14 8.5
v -1.5 14 8.5
v -6.5 14 7.5
v -1.5 14 7.5
v -6.5 14 -7.5
v -1.5 14 -7.5
v -6.5 14 -8.5
v -1.5 14 -8.5
v -3.5 16 -3.5
v -1.5 16 -3.5
v -3.5 16 -6.5
v -1.5 16 -6.5
v -6.5 17 6.5
v -4.5 17 6.5
v -6.5 17 3.5
v -4.5 17 3.5
v -3.5 17 2.5
v 6.5 17 2.5
v 1.5 17 1.5
v 4.5 17 1.5
v -3.5 17 -3.5
v -1.5 17 -3.5
v -1.5 17 -6.5
v 1.5 17 -6.5
v 4.5 17 -6.5
v 6.5 17 -6.5
v 7.5 19 -1.5
v 8.5 19 -1.5
v 7.5 19 -2.5
v 8.5 19 -2.5
v -7.5 2 7.5
v -3.5 2 7.5
v 3.5 2 7.5
v 7.5 2 7.5
v -7.5 2 3.5
v -3.5 2 3.5
v 3.5 2 3.5
v 7.5 2 3.5
v -7.5 2 -3.5
v -3.5 2 -3.5
v 3.5 2 -3.5
v 7.5 2 -3.5
v -7.5 2 -7.5
v -3.5 2 -7.5
v 3.5 2 -7.5
v 7.5 2 -7.5
v -4.5 4 6.5
v -3.5 4 6.5
v 3.5 4 6.5
v -6.5 4 3.5
v -4.5 4 3.5
v -3.5 4 3.5
v 3.5 4 3.5
v 6.5 4 3.5
v 1.5 4 1.5
v 4.5 4 1.5
v -6.5 4 -3.5
v -3.5 4 -3.5
v 4.5 4 -3.5
v 6.5 4 -3.5
v -6.5 4 -4.5
v -4.5 4 -4.5
v 4.5 4 -4.5
v 6.5 4 -4.5
v -4.5 4 -6.5
v -3.5 4 -6.5
v 1.5 4 -6.5
v 4.5 5 -4.5
v 6.5 5 -4.5
v 4.5 5 -6.5
v 6.5 5 -6.5
v -6.5 8 6.5
v -4.5 8 6.5
v -6.5 8 3.5
v -4.5 8 3.5
v -9.5 10 1.5
v -8.5 10 1.5
v -9.5 10 -1.5
v -8.5 10 -1.5
v -8.5 11 3.5
v -7.5 11 3.5
v -8.5 11 2.5
v -7.5 11 2.5
v -8.5 11 -2.5
v -7.5 11 -2.5
v -8.5 11 -3.5
v -7.5 11 -3.5
v -8.5 12 2.5
v -7.5 12 2.5
v -9.5 12 1.5
v -8.5 12 1.5
v -9.5 12 -1.5
v -8.5 12 -1.5
v -8.5 12 -2.5
v -7.5 12 -2.5
v -7.5 18 7.5
v -6.5 18 7.5
v -1.5 18 7.5
v 7.5 18 7.5
v -6.5 18 3.5
v -1.5 18 3.5
v 7.5 18 1.5
v 7.5 18 -1.5
v -6.5 18 -3.5
v -1.5 18 -3.5
v -7.5 18 -7.5
v -6.5 18 -7.5
v -1.5 18 -7.5
v 7.5 18 -7.5
v -6.5 19 8.5
v -1.5 19 8.5
v -6.5 19 3.5
v -1.5 19 3.5
v 7.5 19 1.5
v 8.5 19 1.5
v 7.5 19 0.5
v 8.5 19 0.5
v -6.5 19 -3.5
v -1.5 19 -3.5
v -6.5 19 -8.5
v -1.5 19 -8.5
v 7.5 22 0.5
v 8.5 22 0.5
v 7.5 22 -2.5
v 8.5 22 -2.5

# faces
f 3/3/1 2/3/1 1/3/1
f 4/3/1 2/3/1 3/3/1
f 7/5/1 6/5/1 5/5/1
f 8/5/1 6/5/1 7/5/1
f 11/6/1 10/6/1 9/6/1
f 12/6/1 10/6/1 11/6/1
f 13/6/1 11/6/1 9/6/1
f 14/6/1 10/6/1 12/6/1
f 15/6/1 13/6/1 9/6/1
f 15/6/1 14/6/1 13/6/1
f 16/6/1 14/6/1 15/6/1
f 17/6/1 14/6/1 16/6/1
f 18/6/1 10/6/1 14/6/1
f 18/6/1 14/6/1 17/6/1
f 19/6/1 10/6/1 18/6/1
f 20/6/1 10/6/1 19/6/1
f 21/6/1 17/6/1 16/6/1
f 22/6/1 17/6/1 21/6/1
f 23/6/1 19/6/1 18/6/1
f 24/6/1 19/6/1 23/6/1
f 29/1/1 26/1/1 25/1/1
f 30/1/1 26/1/1 29/1/1
f 31/1/1 28/1/1 27/1/1
f 32/1/1 28/1/1 31/1/1
f 37/1/1 34/1/1 33/1/1
f 37/6/1 35/6/1 34/6/1
f 38/1/1 36/1/1 35/1/1
f 38/6/1 35/6/1 37/6/1
f 39/1/1 37/1/1 33/1/1
f 39/1/1 38/1/1 37/1/1
f 40/1/1 36/1/1 38/1/1
f 40/1/1 38/1/1 39/1/1
f 41/1/1 39/1/1 33/1/1
f 44/1/1 36/1/1 40/1/1
f 45/1/1 42/1/1 41/1/1
f 46/1/1 44/1/1 43/1/1
f 47/1/1 45/1/1 41/1/1
f 47/1/1 46/1/1 45/1/1
f 47/1/1 41/1/1 33/1/1
f 48/1/1 46/1/1 47/1/1
f 49/1/1 46/1/1 48/1/1
f 50/1/1 46/1/1 49/1/1
f 51/1/1 44/1/1 46/1/1
f 51/1/1 46/1/1 50/1/1
f 51/1/1 36/1/1 44/1/1
f 52/1/1 36/1/1 51/1/1
f 53/1/1 47/1/1 33/1/1
f 53/7/1 48/7/1 47/7/1
f 54/6/1 49/6/1 48/6/1
f 54/7/1 48/7/1 53/7/1
f 55/1/1 50/1/1 49/1/1
f 55/7/1 51/7/1 50/7/1
f 56/6/1 52/6/1 51/6/1
f 56/7/1 51/7/1 55/7/1
f 57/1/1 53/1/1 33/1/1
f 57/6/1 54/6/1 53/6/1
f 58/6/1 49/6/1 54/6/1
f 58/6/1 54/6/1 57/6/1
f 58/1/1 55/1/1 49/1/1
f 59/6/1 56/6/1 55/6/1
f 59/1/1 55/1/1 58/1/1
f 60/6/1 52/6/1 56/6/1
f 60/6/1 56/6/1 59/6/1
f 60/1/1 36/1/1 52/1/1
f 61/1/1 57/1/1 33/1/1
f 61/1/1 59/1/1 58/1/1
f 61/1/1 60/1/1 59/1/1
f 61/1/1 58/1/1 57/1/1
f 62/1/1 36/1/1 60/1/1
f 62/1/1 60/1/1 61/1/1
f 67/2/1 64/2/1 63/2/1
f 70/2/1 66/2/1 65/2/1
f 71/2/1 68/2/1 67/2/1
f 71/2/1 67/2/1 63/2/1
f 72/2/1 68/2/1 71/2/1
f 73/2/1 70/2/1 69/2/1
f 74/2/1 66/2/1 70/2/1
f 74/2/1 70/2/1 73/2/1
f 77/4/1 76/4/1 75/4/1
f 78/4/1 76/4/1 77/4/1
f 79/2/1 78/2/1 77/2/1
f 80/2/1 78/2/1 79/2/1
f 83/1/1 82/1/1 81/1/1
f 84/1/1 83/1/1 81/1/1
f 85/1/1 83/1/1 84/1/1
f 90/1/1 87/1/1 86/1/1
f 91/1/1 87/1/1 90/1/1
f 92/1/1 89/1/1 88/1/1
f 93/1/1 89/1/1 92/1/1
f 96/1/1 95/1/1 94/1/1
f 97/1/1 95/1/1 96/1/1
f 98/1/1 95/1/1 97/1/1
f 102/6/1 100/6/1 99/6/1
f 103/1/1 101/1/1 100/1/1
f 103/6/1 100/6/1 102/6/1
f 104/1/1 101/1/1 103/1/1
f 106/1/1 103/1/1 102/1/1
f 106/1/1 105/1/1 104/1/1
f 106/1/1 104/1/1 103/1/1
f 107/1/1 105/1/1 106/1/1
f 108/1/1 105/1/1 107/1/1
f 109/1/1 105/1/1 108/1/1
f 112/2/1 111/2/1 110/2/1
f 113/2/1 111/2/1 112/2/1
f 114/2/1 111/2/1 113/2/1
f 116/2/1 115/2/1 114/2/1
f 116/2/1 114/2/1 113/2/1
f 117/2/1 115/2/1 116/2/1
f 118/6/2 119/6/2 121/6/2
f 119/1/2 120/1/2 122/1/2
f 121/6/2 119/6/2 122/6/2
f 121/1/2 122/1/2 123/1/2
f 122/1/2 120/1/2 124/1/2
f 123/1/2 122/1/2 124/1/2
f 125/1/2 126/1/2 127/1/2
f 127/1/2 126/1/2 128/1/2
f 125/1/2 127/1/2 129/1/2
f 127/7/2 128/7/2 129/7/2
f 129/7/2 128/7/2 130/7/2
f 125/1/2 129/1/2 131/1/2
f 129/6/2 130/6/2 132/6/2
f 131/1/2 129/1/2 132/1/2
f 132/6/2 130/6/2 133/6/2
f 131/1/2 132/1/2 134/1/2
f 132/1/2 133/1/2 134/1/2
f 134/1/2 133/1/2 135/1/2
f 136/1/2 137/1/2 140/1/2
f 138/1/2 139/1/2 141/1/2
f 141/1/2 139/1/2 142/1/2
f 136/1/2 140/1/2 143/1/2
f 143/1/2 140/1/2 144/1/2
f 145/1/2 146/1/2 149/1/2
f 149/1/2 146/1/2 150/1/2
f 147/1/2 148/1/2 151/1/2
f 151/1/2 148/1/2 152/1/2
f 153/4/2 154/4/2 155/4/2
f 155/4/2 154/4/2 156/4/2
f 156/4/2 154/4/2 157/4/2
f 157/4/2 154/4/2 158/4/2
f 156/4/2 157/4/2 159/4/2
f 159/4/2 157/4/2 160/4/2
f 165/1/2 166/1/2 167/1/2
f 167/1/2 166/1/2 168/1/2
f 161/2/2 162/2/2 169/2/2
f 163/2/2 164/2/2 172/2/2
f 169/2/2 170/2/2 173/2/2
f 161/2/2 169/2/2 173/2/2
f 173/2/2 170/2/2 174/2/2
f 171/2/2 172/2/2 175/2/2
f 172/2/2 164/2/2 176/2/2
f 175/2/2 172/2/2 176/2/2
f 177/1/2 178/1/2 180/1/2
f 178/1/2 179/1/2 180/1/2
f 177/1/2 180/1/2 182/1/2
f 180/1/2 181/1/2 182/1/2
f 182/1/2 181/1/2 183/1/2
f 184/1/2 185/1/2 188/1/2
f 188/1/2 185/1/2 189/1/2
f 186/1/2 187/1/2 190/1/2
f 190/1/2 187/1/2 191/1/2
f 192/1/2 193/1/2 196/1/2
f 193/6/2 194/6/2 196/6/2
f 194/1/2 195/1/2 197/1/2
f 196/6/2 194/6/2 197/6/2
f 196/1/2 197/1/2 198/1/2
f 198/1/2 197/1/2 199/1/2
f 192/1/2 196/1/2 200/1/2
f 196/1/2 198/1/2 200/1/2
f 200/1/2 198/1/2 201/1/2
f 199/1/2 197/1/2 202/1/2
f 197/1/2 195/1/2 203/1/2
f 202/1/2 197/1/2 203/1/2
f 204/2/2 205/2/2 206/2/2
f 206/2/2 205/2/2 207/2/2
f 207/2/2 205/2/2 208/2/2
f 208/2/2 209/2/2 210/2/2
f 207/2/2 208/2/2 210/2/2
f 210/2/2 209/2/2 211/2/2
f 214/2/3 213/2/3 212/2/3
f 215/2/3 213/2/3 214/2/3
f 220/1/3 219/1/3 218/1/3
f 221/1/3 219/1/3 220/1/3
f 222/1/3 217/1/3 216/1/3
f 223/1/3 217/1/3 222/1/3
f 224/1/3 220/1/3 218/1/3
f 225/1/3 220/1/3 224/1/3
f 226/1/3 220/1/3 225/1/3
f 230/6/3 225/6/3 224/6/3
f 231/1/3 226/1/3 225/1/3
f 231/6/3 225/6/3 230/6/3
f 231/1/3 227/1/3 226/1/3
f 232/1/3 229/1/3 228/1/3
f 233/1/3 229/1/3 232/1/3
f 234/1/3 231/1/3 230/1/3
f 235/1/3 227/1/3 231/1/3
f 235/1/3 231/1/3 234/1/3
f 238/6/3 237/6/3 236/6/3
f 239/6/3 237/6/3 238/6/3
f 247/4/3 241/4/3 240/4/3
f 247/4/3 242/4/3 241/4/3
f 247/4/3 244/4/3 243/4/3
f 247/4/3 243/4/3 242/4/3
f 248/4/3 244/4/3 247/4/3
f 249/4/3 244/4/3 248/4/3
f 250/4/3 246/4/3 245/4/3
f 251/4/3 246/4/3 250/4/3
f 254/6/3 253/6/3 252/6/3
f 255/6/3 253/6/3 254/6/3
f 260/3/3 257/3/3 256/3/3
f 261/3/3 257/3/3 260/3/3
f 262/5/3 259/5/3 258/5/3
f 263/5/3 259/5/3 262/5/3
f 266/1/3 265/1/3 264/1/3
f 267/1/3 265/1/3 266/1/3
f 271/2/3 269/2/3 268/2/3
f 271/2/3 270/2/3 269/2/3
f 272/2/3 270/2/3 271/2/3
f 275/2/3 274/2/3 273/2/3
f 276/2/3 274/2/3 275/2/3
f 281/1/3 278/1/3 277/1/3
f 282/1/3 278/1/3 281/1/3
f 285/1/3 284/1/3 283/1/3
f 286/1/3 284/1/3 285/1/3
f 287/2/3 280/2/3 279/2/3
f 288/2/3 280/2/3 287/2/3
f 291/1/3 290/1/3 289/1/3
f 292/1/3 290/1/3 291/1/3
f 295/1/3 294/1/3 293/1/3
f 296/1/3 294/1/3 295/1/3
f 299/1/3 298/1/3 297/1/3
f 300/1/3 298/1/3 299/1/3
f 303/1/3 302/1/3 301/1/3
f 304/1/3 302/1/3 303/1/3
f 305/1/3 302/1/3 304/1/3
f 307/1/3 305/1/3 304/1/3
f 307/1/3 306/1/3 305/1/3
f 309/6/3 304/6/3 303/6/3
f 310/1/3 308/1/3 307/1/3
f 310/6/3 304/6/3 309/6/3
f 310/1/3 307/1/3 304/1/3
f 311/1/3 308/1/3 310/1/3
f 314/1/3 313/1/3 312/1/3
f 315/1/3 313/1/3 314/1/3
f 316/1/4 317/1/4 321/1/4
f 317/2/4 318/2/4 322/2/4
f 321/1/4 317/1/4 322/1/4
f 322/2/4 318/2/4 323/2/4
f 319/1/4 320/1/4 324/1/4
f 324/1/4 320/1/4 325/1/4
f 324/6/4 325/6/4 326/6/4
f 325/1/4 320/1/4 327/1/4
f 326/6/4 325/6/4 327/6/4
f 327/1/4 320/1/4 328/1/4
f 331/1/4 332/1/4 336/1/4
f 332/1/4 333/1/4 336/1/4
f 336/1/4 333/1/4 337/1/4
f 329/1/4 330/1/4 338/1/4
f 338/1/4 330/1/4 339/1/4
f 334/2/4 335/2/4 340/2/4
f 340/2/4 335/2/4 341/2/4
f 344/1/4 345/1/4 346/1/4
f 346/1/4 345/1/4 347/1/4
f 347/1/4 345/1/4 348/1/4
f 342/1/4 343/1/4 349/1/4
f 349/1/4 343/1/4 350/1/4
f 351/4/4 352/4/4 353/4/4
f 353/4/4 352/4/4 354/4/4
f 355/3/4 356/3/4 359/3/4
f 359/3/4 356/3/4 360/3/4
f 357/5/4 358/5/4 361/5/4
f 361/5/4 358/5/4 362/5/4
f 363/2/4 364/2/4 366/2/4
f 364/2/4 365/2/4 366/2/4
f 366/2/4 365/2/4 367/2/4
f 368/6/4 369/6/4 370/6/4
f 370/6/4 369/6/4 371/6/4
f 372/2/4 373/2/4 374/2/4
f 374/2/4 373/2/4 375/2/4
f 376/6/4 377/6/4 378/6/4
f 378/6/4 377/6/4 379/6/4
f 382/1/4 383/1/4 384/1/4
f 384/1/4 383/1/4 385/1/4
f 380/1/4 381/1/4 386/1/4
f 386/1/4 381/1/4 387/1/4
f 382/1/4 384/1/4 388/1/4
f 388/1/4 384/1/4 389/1/4
f 389/1/4 384/1/4 390/1/4
f 388/6/4 389/6/4 394/6/4
f 389/1/4 390/1/4 395/1/4
f 394/6/4 389/6/4 395/6/4
f 390/1/4 391/1/4 395/1/4
f 392/1/4 393/1/4 396/1/4
f 396/1/4 393/1/4 397/1/4
f 394/1/4 395/1/4 398/1/4
f 395/1/4 391/1/4 399/1/4
f 398/1/4 395/1/4 399/1/4
f 400/2/4 401/2/4 402/2/4
f 402/2/4 401/2/4 403/2/4
f 408/1/5 405/1/5 404/1/5
f 409/1/5 405/1/5 408/1/5
f 410/1/5 407/1/5 406/1/5
f 411/1/5 407/1/5 410/1/5
f 416/1/5 413/1/5 412/1/5
f 417/1/5 413/1/5 416/1/5
f 418/1/5 415/1/5 414/1/5
f 419/1/5 415/1/5 418/1/5
f 424/1/5 421/1/5 420/1/5
f 425/6/5 422/6/5 421/6/5
f 425/1/5 421/1/5 424/1/5
f 426/1/5 423/1/5 422/1/5
f 426/6/5 422/6/5 425/6/5
f 427/1/5 423/1/5 426/1/5
f 428/6/5 425/6/5 424/6/5
f 428/6/5 426/6/5 425/6/5
f 428/6/5 427/6/5 426/6/5
f 429/6/5 427/6/5 428/6/5
f 430/6/5 427/6/5 429/6/5
f 431/6/5 427/6/5 430/6/5
f 432/1/5 429/1/5 428/1/5
f 433/6/5 430/6/5 429/6/5
f 433/1/5 429/1/5 432/1/5
f 434/1/5 431/1/5 430/1/5
f 434/6/5 430/6/5 433/6/5
f 435/1/5 431/1/5 434/1/5
f 439/4/5 437/4/5 436/4/5
f 439/4/5 438/4/5 437/4/5
f 440/4/5 438/4/5 439/4/5
f 441/4/5 438/4/5 440/4/5
f 442/4/5 438/4/5 441/4/5
f 445/4/5 444/4/5 443/4/5
f 446/4/5 444/4/5 445/4/5
f 447/4/5 444/4/5 446/4/5
f 449/4/5 448/4/5 447/4/5
f 449/4/5 447/4/5 446/4/5
f 450/4/5 448/4/5 449/4/5
f 453/6/5 452/6/5 451/6/5
f 454/6/5 452/6/5 453/6/5
f 457/3/5 456/3/5 455/3/5
f 458/3/5 456/3/5 457/3/5
f 461/2/5 460/2/5 459/2/5
f 462/2/5 460/2/5 461/2/5
f 465/5/5 464/5/5 463/5/5
f 466/5/5 464/5/5 465/5/5
f 469/2/5 468/2/5 467/2/5
f 470/2/5 468/2/5 469/2/5
f 473/2/5 472/2/5 471/2/5
f 474/2/5 472/2/5 473/2/5
f 477/1/5 476/1/5 475/1/5
f 478/1/5 476/1/5 477/1/5
f 481/2/5 480/2/5 479/2/5
f 482/2/5 480/2/5 481/2/5
f 485/1/5 484/1/5 483/1/5
f 486/1/5 484/1/5 485/1/5
f 487/1/5 485/1/5 483/1/5
f 488/1/5 485/1/5 487/1/5
f 489/1/5 485/1/5 488/1/5
f 490/1/5 485/1/5 489/1/5
f 491/1/5 484/1/5 486/1/5
f 492/1/5 484/1/5 491/1/5
f 495/2/5 494/2/5 493/2/5
f 496/2/5 494/2/5 495/2/5
f 497/1/6 498/1/6 501/1/6
f 501/1/6 498/1/6 502/1/6
f 499/1/6 500/1/6 503/1/6
f 503/1/6 500/1/6 504/1/6
f 505/1/6 506/1/6 509/1/6
f 509/1/6 506/1/6 510/1/6
f 507/1/6 508/1/6 511/1/6
f 511/1/6 508/1/6 512/1/6
f 513/1/6 514/1/6 517/1/6
f 514/6/6 515/6/6 518/6/6
f 517/1/6 514/1/6 518/1/6
f 518/6/6 515/6/6 519/6/6
f 516/6/6 517/6/6 521/6/6
f 519/6/6 520/6/6 521/6/6
f 518/6/6 519/6/6 521/6/6
f 517/6/6 518/6/6 521/6/6
f 521/6/6 520/6/6 522/6/6
f 516/6/6 521/6/6 523/6/6
f 523/6/6 521/6/6 524/6/6
f 522/6/6 520/6/6 525/6/6
f 525/6/6 520/6/6 526/6/6
f 523/1/6 524/1/6 527/1/6
f 527/1/6 524/1/6 528/1/6
f 525/1/6 526/1/6 529/1/6
f 529/1/6 526/1/6 530/1/6
f 528/1/6 524/1/6 531/1/6
f 524/6/6 521/6/6 532/6/6
f 531/1/6 524/1/6 532/1/6
f 532/6/6 521/6/6 533/6/6
f 534/1/6 535/1/6 536/1/6
f 536/1/6 535/1/6 537/1/6
f 538/1/6 539/1/6 540/1/6
f 540/1/6 539/1/6 541/1/6
f 542/3/6 543/3/6 544/3/6
f 544/3/6 543/3/6 545/3/6
f 546/6/6 547/6/6 548/6/6
f 548/6/6 547/6/6 549/6/6
f 550/6/6 551/6/6 552/6/6
f 552/6/6 551/6/6 553/6/6
f 554/6/6 555/6/6 557/6/6
f 556/5/6 557/5/6 558/5/6
f 557/6/6 555/6/6 559/6/6
f 558/5/6 557/5/6 559/5/6
f 559/6/6 555/6/6 560/6/6
f 560/6/6 555/6/6 561/6/6
f 562/1/6 563/1/6 566/1/6
f 564/1/6 565/1/6 567/1/6
f 567/1/6 565/1/6 568/1/6
f 566/1/6 567/1/6 568/1/6
f 566/1/6 568/1/6 569/1/6
f 562/1/6 566/1/6 570/1/6
f 566/1/6 569/1/6 570/1/6
f 570/1/6 569/1/6 571/1/6
f 562/1/6 570/1/6 572/1/6
f 572/1/6 570/1/6 573/1/6
f 571/1/6 569/1/6 574/1/6
f 574/1/6 569/1/6 575/1/6
f 576/2/6 577/2/6 578/2/6
f 578/2/6 577/2/6 579/2/6
f 580/2/6 581/2/6 582/2/6
f 582/2/6 581/2/6 583/2/6
f 584/2/6 585/2/6 586/2/6
f 586/2/6 585/2/6 587/2/6
f 588/2/6 589/2/6 590/2/6
f 590/2/6 589/2/6 591/2/6
