# MagicaVoxel @ Ephtracy

# group
g snake

# material
mtllib snake.mtl
usemtl palette

# normals
vn -1 0 0
vn 1 0 0
vn 0 0 1
vn 0 0 -1
vn 0 -1 0
vn 0 1 0

# texcoords
vt 0.0839844 0.5
vt 0.767578 0.5
vt 0.990234 0.5

# verts
v -7.5 0 -3
v -7.5 0 -4
v -7.5 1 -3
v -7.5 1 -4
v -6.5 0 -1
v -6.5 0 -3
v -6.5 1 -3
v -6.5 2 -1
v -6.5 2 -3
v -5.5 0 1
v -5.5 0 -1
v -5.5 2 1
v -5.5 2 -1
v -4.5 0 2
v -4.5 0 1
v -4.5 2 2
v -4.5 2 1
v -3.5 0 4
v -3.5 0 2
v -3.5 2 4
v -3.5 2 2
v -1.5 0 2
v -1.5 0 -4
v -1.5 2 2
v -1.5 2 -4
v 1.5 0 1
v 1.5 0 -2
v 1.5 2 1
v 1.5 2 -2
v 2.5 0 3
v 2.5 0 1
v 2.5 2 1
v 2.5 2 -1
v 2.5 3 3
v 2.5 3 -1
v 3.5 0 4
v 3.5 0 3
v 3.5 2 4
v 3.5 2 3
v 3.5 3 2
v 3.5 3 -1
v 3.5 6 2
v 3.5 6 1
v 3.5 6 -1
v 3.5 6 -2
v 3.5 12 1
v 3.5 12 -2
v 8.5 8 -0
v 8.5 8 -1
v 8.5 9 -0
v 8.5 9 -1
v -6.5 0 -3
v -6.5 0 -4
v -6.5 1 -3
v -6.5 1 -4
v -5.5 0 -1
v -5.5 0 -3
v -5.5 2 -1
v -5.5 2 -3
v -4.5 0 -0
v -4.5 0 -1
v -4.5 2 -0
v -4.5 2 -1
v -3.5 0 1
v -3.5 0 -0
v -3.5 2 1
v -3.5 2 -0
v -2.5 0 2
v -2.5 0 1
v -2.5 2 2
v -2.5 2 1
v -0.5 0 4
v -0.5 0 2
v -0.5 2 4
v -0.5 2 2
v 0.5 0 2
v 0.5 0 -2
v 0.5 2 2
v 0.5 2 -2
v 2.5 0 -1
v 2.5 0 -4
v 2.5 2 -1
v 2.5 2 -4
v 3.5 0 -0
v 3.5 0 -1
v 3.5 3 -0
v 3.5 3 -1
v 5.5 0 4
v 5.5 0 3
v 5.5 2 4
v 5.5 2 3
v 5.5 2 -0
v 5.5 3 3
v 5.5 3 2
v 5.5 3 -0
v 5.5 3 -1
v 5.5 6 2
v 5.5 6 1
v 5.5 6 -1
v 5.5 6 -2
v 5.5 9 1
v 5.5 9 -2
v 6.5 0 3
v 6.5 0 -0
v 6.5 2 3
v 6.5 2 -0
v 7.5 9 1
v 7.5 9 -0
v 7.5 9 -1
v 7.5 9 -2
v 7.5 10 -0
v 7.5 10 -1
v 7.5 12 1
v 7.5 12 -2
v 8.5 9 -0
v 8.5 9 -1
v 8.5 10 -0
v 8.5 10 -1
v 9.5 8 -0
v 9.5 8 -1
v 9.5 9 -0
v 9.5 9 -1
v -3.5 0 4
v -3.5 2 4
v -0.5 0 4
v -0.5 2 4
v 3.5 0 4
v 3.5 2 4
v 5.5 0 4
v 5.5 2 4
v 2.5 0 3
v 2.5 3 3
v 3.5 0 3
v 3.5 2 3
v 5.5 0 3
v 5.5 2 3
v 5.5 3 3
v 6.5 0 3
v 6.5 2 3
v -4.5 0 2
v -4.5 2 2
v -3.5 0 2
v -3.5 2 2
v -0.5 0 2
v -0.5 2 2
v 0.5 0 2
v 0.5 2 2
v 3.5 3 2
v 3.5 6 2
v 5.5 3 2
v 5.5 6 2
v -5.5 0 1
v -5.5 2 1
v -4.5 0 1
v -4.5 2 1
v 1.5 0 1
v 1.5 2 1
v 2.5 0 1
v 2.5 2 1
v 3.5 6 1
v 3.5 12 1
v 5.5 6 1
v 5.5 9 1
v 5.5 10 1
v 5.5 11 1
v 6.5 10 1
v 6.5 11 1
v 7.5 9 1
v 7.5 12 1
v 7.5 9 -0
v 7.5 10 -0
v 8.5 8 -0
v 8.5 9 -0
v 8.5 10 -0
v 9.5 8 -0
v 9.5 9 -0
v -6.5 0 -1
v -6.5 2 -1
v -5.5 0 -1
v -5.5 2 -1
v 0.5 0 -2
v 0.5 2 -2
v 1.5 0 -2
v 1.5 2 -2
v -7.5 0 -3
v -7.5 1 -3
v -6.5 0 -3
v -6.5 1 -3
v -2.5 0 2
v -2.5 2 2
v -1.5 0 2
v -1.5 2 2
v -3.5 0 1
v -3.5 2 1
v -2.5 0 1
v -2.5 2 1
v -4.5 0 -0
v -4.5 2 -0
v -3.5 0 -0
v -3.5 2 -0
v 3.5 0 -0
v 3.5 3 -0
v 5.5 2 -0
v 5.5 3 -0
v 6.5 0 -0
v 6.5 2 -0
v -5.5 0 -1
v -5.5 2 -1
v -4.5 0 -1
v -4.5 2 -1
v 2.5 0 -1
v 2.5 2 -1
v 2.5 3 -1
v 3.5 0 -1
v 3.5 3 -1
v 3.5 6 -1
v 5.5 3 -1
v 5.5 6 -1
v 7.5 9 -1
v 7.5 10 -1
v 8.5 8 -1
v 8.5 9 -1
v 8.5 10 -1
v 9.5 8 -1
v 9.5 9 -1
v 3.5 6 -2
v 3.5 12 -2
v 5.5 6 -2
v 5.5 9 -2
v 5.5 10 -2
v 5.5 11 -2
v 6.5 10 -2
v 6.5 11 -2
v 7.5 9 -2
v 7.5 12 -2
v -6.5 0 -3
v -6.5 1 -3
v -6.5 2 -3
v -5.5 0 -3
v -5.5 2 -3
v -7.5 0 -4
v -7.5 1 -4
v -6.5 0 -4
v -6.5 1 -4
v -1.5 0 -4
v -1.5 2 -4
v 2.5 0 -4
v 2.5 2 -4
v -3.5 0 4
v -0.5 0 4
v 3.5 0 4
v 5.5 0 4
v 2.5 0 3
v 3.5 0 3
v 5.5 0 3
v 6.5 0 3
v -4.5 0 2
v -3.5 0 2
v -2.5 0 2
v -1.5 0 2
v -0.5 0 2
v 0.5 0 2
v -5.5 0 1
v -4.5 0 1
v -3.5 0 1
v -2.5 0 1
v 1.5 0 1
v 2.5 0 1
v -4.5 0 -0
v -3.5 0 -0
v 3.5 0 -0
v 6.5 0 -0
v -6.5 0 -1
v -5.5 0 -1
v -4.5 0 -1
v 2.5 0 -1
v 3.5 0 -1
v 0.5 0 -2
v 1.5 0 -2
v -7.5 0 -3
v -6.5 0 -3
v -5.5 0 -3
v -7.5 0 -4
v -6.5 0 -4
v -1.5 0 -4
v 2.5 0 -4
v 3.5 3 -0
v 5.5 3 -0
v 3.5 3 -1
v 5.5 3 -1
v 3.5 6 -1
v 5.5 6 -1
v 3.5 6 -2
v 5.5 6 -2
v 8.5 8 -0
v 9.5 8 -0
v 8.5 8 -1
v 9.5 8 -1
v 5.5 9 1
v 7.5 9 1
v 6.5 9 -0
v 7.5 9 -0
v 8.5 9 -0
v 6.5 9 -1
v 7.5 9 -1
v 8.5 9 -1
v 5.5 9 -2
v 7.5 9 -2
v -7.5 1 -3
v -6.5 1 -3
v -7.5 1 -4
v -6.5 1 -4
v -3.5 2 4
v -0.5 2 4
v 3.5 2 4
v 5.5 2 4
v 3.5 2 3
v 5.5 2 3
v 6.5 2 3
v -4.5 2 2
v -3.5 2 2
v -2.5 2 2
v -1.5 2 2
v -0.5 2 2
v 0.5 2 2
v -5.5 2 1
v -4.5 2 1
v -3.5 2 1
v -2.5 2 1
v 1.5 2 1
v 2.5 2 1
v -4.5 2 -0
v -3.5 2 -0
v 5.5 2 -0
v 6.5 2 -0
v -6.5 2 -1
v -5.5 2 -1
v -4.5 2 -1
v 2.5 2 -1
v 0.5 2 -2
v 1.5 2 -2
v -6.5 2 -3
v -5.5 2 -3
v -1.5 2 -4
v 2.5 2 -4
v 2.5 3 3
v 5.5 3 3
v 3.5 3 2
v 5.5 3 2
v 2.5 3 -1
v 3.5 3 -1
v 3.5 6 2
v 5.5 6 2
v 3.5 6 1
v 5.5 6 1
v 8.5 9 -0
v 9.5 9 -0
v 8.5 9 -1
v 9.5 9 -1
v 7.5 10 -0
v 8.5 10 -0
v 7.5 10 -1
v 8.5 10 -1
v 3.5 12 1
v 7.5 12 1
v 3.5 12 -2
v 7.5 12 -2

# faces
f 3/2/1 2/2/1 1/2/1
f 4/2/1 2/2/1 3/2/1
f 7/2/1 6/2/1 5/2/1
f 8/2/1 7/2/1 5/2/1
f 9/2/1 7/2/1 8/2/1
f 12/2/1 11/2/1 10/2/1
f 13/2/1 11/2/1 12/2/1
f 16/2/1 15/2/1 14/2/1
f 17/2/1 15/2/1 16/2/1
f 20/2/1 19/2/1 18/2/1
f 21/2/1 19/2/1 20/2/1
f 24/2/1 23/2/1 22/2/1
f 25/2/1 23/2/1 24/2/1
f 28/2/1 27/2/1 26/2/1
f 29/2/1 27/2/1 28/2/1
f 32/2/1 31/2/1 30/2/1
f 34/2/1 32/2/1 30/2/1
f 34/2/1 33/2/1 32/2/1
f 35/2/1 33/2/1 34/2/1
f 38/2/1 37/2/1 36/2/1
f 39/2/1 37/2/1 38/2/1
f 42/2/1 41/2/1 40/2/1
f 43/2/1 41/2/1 42/2/1
f 44/2/1 41/2/1 43/2/1
f 46/2/1 45/2/1 44/2/1
f 46/2/1 44/2/1 43/2/1
f 47/2/1 45/2/1 46/2/1
f 50/1/1 49/1/1 48/1/1
f 51/1/1 49/1/1 50/1/1
f 52/2/2 53/2/2 54/2/2
f 54/2/2 53/2/2 55/2/2
f 56/2/2 57/2/2 58/2/2
f 58/2/2 57/2/2 59/2/2
f 60/2/2 61/2/2 62/2/2
f 62/2/2 61/2/2 63/2/2
f 64/2/2 65/2/2 66/2/2
f 66/2/2 65/2/2 67/2/2
f 68/2/2 69/2/2 70/2/2
f 70/2/2 69/2/2 71/2/2
f 72/2/2 73/2/2 74/2/2
f 74/2/2 73/2/2 75/2/2
f 76/2/2 77/2/2 78/2/2
f 78/2/2 77/2/2 79/2/2
f 80/2/2 81/2/2 82/2/2
f 82/2/2 81/2/2 83/2/2
f 84/2/2 85/2/2 86/2/2
f 86/2/2 85/2/2 87/2/2
f 88/2/2 89/2/2 90/2/2
f 90/2/2 89/2/2 91/2/2
f 91/2/2 92/2/2 93/2/2
f 93/2/2 92/2/2 94/2/2
f 94/2/2 92/2/2 95/2/2
f 95/2/2 96/2/2 97/2/2
f 94/2/2 95/2/2 97/2/2
f 97/2/2 96/2/2 98/2/2
f 98/2/2 96/2/2 99/2/2
f 99/2/2 100/2/2 101/2/2
f 98/2/2 99/2/2 101/2/2
f 101/2/2 100/2/2 102/2/2
f 103/2/2 104/2/2 105/2/2
f 105/2/2 104/2/2 106/2/2
f 107/2/2 108/2/2 111/2/2
f 109/2/2 110/2/2 112/2/2
f 107/2/2 111/2/2 113/2/2
f 111/2/2 112/2/2 113/2/2
f 112/2/2 110/2/2 114/2/2
f 113/2/2 112/2/2 114/2/2
f 115/1/2 116/1/2 117/1/2
f 117/1/2 116/1/2 118/1/2
f 119/1/2 120/1/2 121/1/2
f 121/1/2 120/1/2 122/1/2
f 125/2/3 124/2/3 123/2/3
f 126/2/3 124/2/3 125/2/3
f 129/2/3 128/2/3 127/2/3
f 130/2/3 128/2/3 129/2/3
f 133/2/3 132/2/3 131/2/3
f 134/2/3 132/2/3 133/2/3
f 136/2/3 132/2/3 134/2/3
f 137/2/3 132/2/3 136/2/3
f 138/2/3 136/2/3 135/2/3
f 139/2/3 136/2/3 138/2/3
f 142/2/3 141/2/3 140/2/3
f 143/2/3 141/2/3 142/2/3
f 146/2/3 145/2/3 144/2/3
f 147/2/3 145/2/3 146/2/3
f 150/2/3 149/2/3 148/2/3
f 151/2/3 149/2/3 150/2/3
f 154/2/3 153/2/3 152/2/3
f 155/2/3 153/2/3 154/2/3
f 158/2/3 157/2/3 156/2/3
f 159/2/3 157/2/3 158/2/3
f 162/2/3 161/2/3 160/2/3
f 163/2/3 161/2/3 162/2/3
f 164/2/3 161/2/3 163/2/3
f 165/2/3 161/2/3 164/2/3
f 166/2/3 164/2/3 163/2/3
f 166/3/3 165/3/3 164/3/3
f 167/2/3 161/2/3 165/2/3
f 167/3/3 165/3/3 166/3/3
f 168/2/3 166/2/3 163/2/3
f 168/2/3 167/2/3 166/2/3
f 169/2/3 161/2/3 167/2/3
f 169/2/3 167/2/3 168/2/3
f 173/1/3 171/1/3 170/1/3
f 174/1/3 171/1/3 173/1/3
f 175/1/3 173/1/3 172/1/3
f 176/1/3 173/1/3 175/1/3
f 179/2/3 178/2/3 177/2/3
f 180/2/3 178/2/3 179/2/3
f 183/2/3 182/2/3 181/2/3
f 184/2/3 182/2/3 183/2/3
f 187/2/3 186/2/3 185/2/3
f 188/2/3 186/2/3 187/2/3
f 189/2/4 190/2/4 191/2/4
f 191/2/4 190/2/4 192/2/4
f 193/2/4 194/2/4 195/2/4
f 195/2/4 194/2/4 196/2/4
f 197/2/4 198/2/4 199/2/4
f 199/2/4 198/2/4 200/2/4
f 201/2/4 202/2/4 203/2/4
f 203/2/4 202/2/4 204/2/4
f 201/2/4 203/2/4 205/2/4
f 205/2/4 203/2/4 206/2/4
f 207/2/4 208/2/4 209/2/4
f 209/2/4 208/2/4 210/2/4
f 211/2/4 212/2/4 214/2/4
f 212/2/4 213/2/4 214/2/4
f 214/2/4 213/2/4 215/2/4
f 215/2/4 216/2/4 217/2/4
f 217/2/4 216/2/4 218/2/4
f 219/1/4 220/1/4 222/1/4
f 222/1/4 220/1/4 223/1/4
f 221/1/4 222/1/4 224/1/4
f 224/1/4 222/1/4 225/1/4
f 226/2/4 227/2/4 228/2/4
f 228/2/4 227/2/4 229/2/4
f 229/2/4 227/2/4 230/2/4
f 230/2/4 227/2/4 231/2/4
f 229/2/4 230/2/4 232/2/4
f 230/3/4 231/3/4 232/3/4
f 231/2/4 227/2/4 233/2/4
f 232/3/4 231/3/4 233/3/4
f 229/2/4 232/2/4 234/2/4
f 232/2/4 233/2/4 234/2/4
f 233/2/4 227/2/4 235/2/4
f 234/2/4 233/2/4 235/2/4
f 236/2/4 237/2/4 239/2/4
f 237/2/4 238/2/4 239/2/4
f 239/2/4 238/2/4 240/2/4
f 241/2/4 242/2/4 243/2/4
f 243/2/4 242/2/4 244/2/4
f 245/2/4 246/2/4 247/2/4
f 247/2/4 246/2/4 248/2/4
f 254/2/5 252/2/5 251/2/5
f 255/2/5 252/2/5 254/2/5
f 258/2/5 250/2/5 249/2/5
f 259/2/5 250/2/5 258/2/5
f 260/2/5 250/2/5 259/2/5
f 261/2/5 250/2/5 260/2/5
f 264/2/5 258/2/5 257/2/5
f 264/2/5 259/2/5 258/2/5
f 265/2/5 259/2/5 264/2/5
f 266/2/5 259/2/5 265/2/5
f 268/2/5 256/2/5 255/2/5
f 268/2/5 254/2/5 253/2/5
f 268/2/5 255/2/5 254/2/5
f 269/2/5 265/2/5 264/2/5
f 269/2/5 264/2/5 263/2/5
f 270/2/5 265/2/5 269/2/5
f 271/2/5 268/2/5 267/2/5
f 271/2/5 256/2/5 268/2/5
f 272/2/5 256/2/5 271/2/5
f 274/2/5 269/2/5 263/2/5
f 275/2/5 269/2/5 274/2/5
f 276/2/5 271/2/5 267/2/5
f 277/2/5 271/2/5 276/2/5
f 278/2/5 261/2/5 260/2/5
f 278/2/5 262/2/5 261/2/5
f 279/2/5 276/2/5 267/2/5
f 281/2/5 274/2/5 273/2/5
f 282/2/5 274/2/5 281/2/5
f 283/2/5 281/2/5 280/2/5
f 284/2/5 281/2/5 283/2/5
f 285/2/5 278/2/5 260/2/5
f 285/2/5 279/2/5 278/2/5
f 286/2/5 276/2/5 279/2/5
f 286/2/5 279/2/5 285/2/5
f 289/2/5 288/2/5 287/2/5
f 290/2/5 288/2/5 289/2/5
f 293/2/5 292/2/5 291/2/5
f 294/2/5 292/2/5 293/2/5
f 297/1/5 296/1/5 295/1/5
f 298/1/5 296/1/5 297/1/5
f 301/2/5 300/2/5 299/2/5
f 302/2/5 300/2/5 301/2/5
f 304/2/5 301/2/5 299/2/5
f 304/1/5 303/1/5 302/1/5
f 304/1/5 302/1/5 301/1/5
f 305/1/5 303/1/5 304/1/5
f 306/1/5 303/1/5 305/1/5
f 307/2/5 304/2/5 299/2/5
f 307/2/5 305/2/5 304/2/5
f 308/2/5 305/2/5 307/2/5
f 309/2/6 310/2/6 311/2/6
f 311/2/6 310/2/6 312/2/6
f 315/2/6 316/2/6 317/2/6
f 317/2/6 316/2/6 318/2/6
f 313/2/6 314/2/6 321/2/6
f 321/2/6 314/2/6 322/2/6
f 322/2/6 314/2/6 323/2/6
f 323/2/6 314/2/6 324/2/6
f 320/2/6 321/2/6 327/2/6
f 321/2/6 322/2/6 327/2/6
f 327/2/6 322/2/6 328/2/6
f 328/2/6 322/2/6 329/2/6
f 326/2/6 327/2/6 332/2/6
f 327/2/6 328/2/6 332/2/6
f 332/2/6 328/2/6 333/2/6
f 318/2/6 319/2/6 334/2/6
f 334/2/6 319/2/6 335/2/6
f 326/2/6 332/2/6 337/2/6
f 337/2/6 332/2/6 338/2/6
f 330/2/6 331/2/6 339/2/6
f 323/2/6 324/2/6 340/2/6
f 324/2/6 325/2/6 340/2/6
f 330/2/6 339/2/6 341/2/6
f 336/2/6 337/2/6 342/2/6
f 342/2/6 337/2/6 343/2/6
f 323/2/6 340/2/6 344/2/6
f 340/2/6 341/2/6 344/2/6
f 341/2/6 339/2/6 345/2/6
f 344/2/6 341/2/6 345/2/6
f 346/2/6 347/2/6 348/2/6
f 348/2/6 347/2/6 349/2/6
f 346/2/6 348/2/6 350/2/6
f 350/2/6 348/2/6 351/2/6
f 352/2/6 353/2/6 354/2/6
f 354/2/6 353/2/6 355/2/6
f 356/1/6 357/1/6 358/1/6
f 358/1/6 357/1/6 359/1/6
f 360/1/6 361/1/6 362/1/6
f 362/1/6 361/1/6 363/1/6
f 364/2/6 365/2/6 366/2/6
f 366/2/6 365/2/6 367/2/6
