# MagicaVoxel @ Ephtracy

# group
g jiraffe

# material
mtllib jiraffe.mtl
usemtl palette

# normals
vn -1 0 0
vn 1 0 0
vn 0 0 1
vn 0 0 -1
vn 0 -1 0
vn 0 1 0

# texcoords
vt 0.00195313 0.5
vt 0.00976563 0.5
vt 0.0253906 0.5
vt 0.533203 0.5
vt 0.537109 0.5
vt 0.994141 0.5

# verts
v -10.5 23 2.5
v -10.5 23 -1.5
v -10.5 27 2.5
v -10.5 27 -1.5
v -7.5 0 4.5
v -7.5 0 2.5
v -7.5 0 -1.5
v -7.5 0 -3.5
v -7.5 1 4.5
v -7.5 1 2.5
v -7.5 1 -1.5
v -7.5 1 -3.5
v -7.5 5 -2.5
v -7.5 5 -3.5
v -7.5 7 2.5
v -7.5 7 -1.5
v -7.5 7 -2.5
v -7.5 7 -3.5
v -7.5 8 1.5
v -7.5 8 -1.5
v -7.5 9 4.5
v -7.5 9 3.5
v -7.5 11 1.5
v -7.5 11 -1.5
v -7.5 12 4.5
v -7.5 12 3.5
v -7.5 13 4.5
v -7.5 13 2.5
v -7.5 13 0.5
v -7.5 13 -1.5
v -7.5 13 -3.5
v -7.5 14 2.5
v -7.5 14 1.5
v -7.5 16 0.5
v -7.5 16 -1.5
v -7.5 17 2.5
v -7.5 17 1.5
v -7.5 18 0.5
v -7.5 18 -1.5
v -7.5 21 0.5
v -7.5 21 -1.5
v -7.5 23 2.5
v -7.5 23 -1.5
v -5.5 25 5.5
v -5.5 25 4.5
v -5.5 25 2.5
v -5.5 25 -1.5
v -5.5 25 -3.5
v -5.5 25 -4.5
v -5.5 26 2.5
v -5.5 26 -1.5
v -5.5 27 5.5
v -5.5 27 4.5
v -5.5 27 2.5
v -5.5 27 1.5
v -5.5 27 -0.5
v -5.5 27 -1.5
v -5.5 27 -3.5
v -5.5 27 -4.5
v -5.5 30 2.5
v -5.5 30 1.5
v -5.5 30 -0.5
v -5.5 30 -1.5
v -2.5 8 1.5
v -2.5 8 -1.5
v -2.5 11 1.5
v -2.5 11 -1.5
v -0.5 10 2.5
v -0.5 10 1.5
v -0.5 11 2.5
v -0.5 11 1.5
v 2.5 0 4.5
v 2.5 0 2.5
v 2.5 0 -1.5
v 2.5 0 -3.5
v 2.5 1 4.5
v 2.5 1 2.5
v 2.5 1 -1.5
v 2.5 1 -3.5
v 2.5 7 4.5
v 2.5 7 2.5
v 2.5 7 -1.5
v 2.5 7 -3.5
v 3.5 8 2.5
v 3.5 8 -1.5
v 3.5 8 -2.5
v 3.5 10 2.5
v 3.5 10 1.5
v 3.5 12 1.5
v 3.5 12 -1.5
v 3.5 12 -2.5
v 6.5 6 0.5
v 6.5 6 -0.5
v 6.5 8 1.5
v 6.5 8 0.5
v 6.5 8 -0.5
v 6.5 8 -1.5
v 6.5 9 0.5
v 6.5 9 -0.5
v 6.5 11 1.5
v 6.5 11 0.5
v 6.5 11 -0.5
v 6.5 11 -1.5
v -5.5 0 4.5
v -5.5 0 2.5
v -5.5 0 -1.5
v -5.5 0 -3.5
v -5.5 1 4.5
v -5.5 1 2.5
v -5.5 1 -1.5
v -5.5 1 -3.5
v -5.5 7 4.5
v -5.5 7 2.5
v -5.5 7 -1.5
v -5.5 7 -3.5
v -4.5 27 2.5
v -4.5 27 1.5
v -4.5 27 -0.5
v -4.5 27 -1.5
v -4.5 30 2.5
v -4.5 30 1.5
v -4.5 30 -0.5
v -4.5 30 -1.5
v -3.5 8 2.5
v -3.5 8 -1.5
v -3.5 11 2.5
v -3.5 11 -1.5
v -3.5 13 2.5
v -3.5 13 -1.5
v -3.5 16 0.5
v -3.5 16 -1.5
v -3.5 18 0.5
v -3.5 18 -1.5
v -3.5 19 2.5
v -3.5 19 0.5
v -3.5 21 2.5
v -3.5 21 0.5
v -3.5 22 -0.5
v -3.5 22 -1.5
v -3.5 24 -0.5
v -3.5 24 -1.5
v -3.5 25 5.5
v -3.5 25 4.5
v -3.5 25 2.5
v -3.5 25 -1.5
v -3.5 25 -3.5
v -3.5 25 -4.5
v -3.5 27 5.5
v -3.5 27 4.5
v -3.5 27 -3.5
v -3.5 27 -4.5
v -1.5 8 1.5
v -1.5 8 -2.5
v -1.5 11 1.5
v -1.5 12 1.5
v -1.5 12 0.5
v -1.5 12 -2.5
v 4.5 0 4.5
v 4.5 0 2.5
v 4.5 0 -1.5
v 4.5 0 -3.5
v 4.5 1 4.5
v 4.5 1 2.5
v 4.5 1 -1.5
v 4.5 1 -3.5
v 4.5 7 2.5
v 4.5 7 -1.5
v 4.5 8 2.5
v 4.5 8 -1.5
v 4.5 8 -2.5
v 4.5 8 -3.5
v 4.5 10 1.5
v 4.5 10 -0.5
v 4.5 10 -2.5
v 4.5 10 -3.5
v 4.5 12 3.5
v 4.5 12 1.5
v 4.5 13 4.5
v 4.5 13 3.5
v 4.5 13 1.5
v 4.5 13 -0.5
v 4.5 13 -3.5
v 5.5 10 1.5
v 5.5 10 -0.5
v 5.5 11 0.5
v 5.5 11 -0.5
v 5.5 12 1.5
v 5.5 12 0.5
v 6.5 12 1.5
v 6.5 12 0.5
v 6.5 13 1.5
v 6.5 13 0.5
v 7.5 6 0.5
v 7.5 6 -0.5
v 7.5 7 0.5
v 7.5 7 -0.5
v 7.5 8 1.5
v 7.5 8 0.5
v 7.5 8 -0.5
v 7.5 8 -1.5
v 7.5 11 1.5
v 7.5 11 0.5
v 7.5 11 -0.5
v 7.5 11 -1.5
v 7.5 13 0.5
v 7.5 13 -0.5
v 8.5 7 0.5
v 8.5 7 -0.5
v 8.5 11 0.5
v 8.5 11 -0.5
v -5.5 25 5.5
v -5.5 27 5.5
v -3.5 25 5.5
v -3.5 27 5.5
v -7.5 0 4.5
v -7.5 1 4.5
v -7.5 9 4.5
v -7.5 12 4.5
v -7.5 13 4.5
v -5.5 0 4.5
v -5.5 1 4.5
v -5.5 7 4.5
v -5.5 8 4.5
v -5.5 9 4.5
v -5.5 12 4.5
v -3.5 7 4.5
v -3.5 8 4.5
v -3.5 10 4.5
v -0.5 7 4.5
v -0.5 8 4.5
v -0.5 10 4.5
v 0.5 10 4.5
v 0.5 12 4.5
v 2.5 0 4.5
v 2.5 1 4.5
v 2.5 7 4.5
v 2.5 8 4.5
v 2.5 10 4.5
v 2.5 12 4.5
v 4.5 0 4.5
v 4.5 1 4.5
v 4.5 13 4.5
v -10.5 23 2.5
v -10.5 27 2.5
v -7.5 13 2.5
v -7.5 14 2.5
v -7.5 17 2.5
v -7.5 23 2.5
v -7.5 24 2.5
v -7.5 26 2.5
v -7.5 27 2.5
v -6.5 13 2.5
v -6.5 14 2.5
v -6.5 17 2.5
v -6.5 22 2.5
v -6.5 24 2.5
v -6.5 25 2.5
v -6.5 26 2.5
v -5.5 14 2.5
v -5.5 17 2.5
v -5.5 24 2.5
v -5.5 25 2.5
v -5.5 26 2.5
v -5.5 27 2.5
v -5.5 30 2.5
v -4.5 19 2.5
v -4.5 21 2.5
v -4.5 22 2.5
v -4.5 24 2.5
v -4.5 27 2.5
v -4.5 30 2.5
v -3.5 13 2.5
v -3.5 19 2.5
v -3.5 21 2.5
v -3.5 25 2.5
v -2.5 8 1.5
v -2.5 11 1.5
v -1.5 8 1.5
v -1.5 11 1.5
v 4.5 10 1.5
v 4.5 12 1.5
v 4.5 13 1.5
v 5.5 10 1.5
v 5.5 12 1.5
v 6.5 8 1.5
v 6.5 11 1.5
v 6.5 12 1.5
v 6.5 13 1.5
v 7.5 8 1.5
v 7.5 11 1.5
v 5.5 11 0.5
v 5.5 12 0.5
v 6.5 6 0.5
v 6.5 8 0.5
v 6.5 11 0.5
v 6.5 12 0.5
v 6.5 13 0.5
v 7.5 6 0.5
v 7.5 7 0.5
v 7.5 8 0.5
v 7.5 11 0.5
v 7.5 13 0.5
v 8.5 7 0.5
v 8.5 11 0.5
v -5.5 27 -0.5
v -5.5 30 -0.5
v -4.5 27 -0.5
v -4.5 30 -0.5
v -7.5 0 -1.5
v -7.5 1 -1.5
v -7.5 7 -1.5
v -5.5 0 -1.5
v -5.5 1 -1.5
v -5.5 7 -1.5
v -3.5 8 -1.5
v -3.5 11 -1.5
v -2.5 8 -1.5
v -2.5 11 -1.5
v 2.5 0 -1.5
v 2.5 1 -1.5
v 2.5 7 -1.5
v 4.5 0 -1.5
v 4.5 1 -1.5
v 4.5 7 -1.5
v -1.5 8 -2.5
v -1.5 12 -2.5
v 0.5 12 -2.5
v 2.5 8 -2.5
v 3.5 8 -2.5
v 3.5 12 -2.5
v -7.5 0 2.5
v -7.5 1 2.5
v -7.5 7 2.5
v -5.5 0 2.5
v -5.5 1 2.5
v -5.5 7 2.5
v -3.5 8 2.5
v -3.5 11 2.5
v -0.5 10 2.5
v -0.5 11 2.5
v 2.5 0 2.5
v 2.5 1 2.5
v 2.5 7 2.5
v 3.5 8 2.5
v 3.5 10 2.5
v 4.5 0 2.5
v 4.5 1 2.5
v 4.5 7 2.5
v -5.5 27 1.5
v -5.5 30 1.5
v -4.5 27 1.5
v -4.5 30 1.5
v -1.5 11 1.5
v -1.5 12 1.5
v -0.5 10 1.5
v -0.5 11 1.5
v 0.5 12 1.5
v 3.5 10 1.5
v 3.5 12 1.5
v 4.5 10 -0.5
v 4.5 13 -0.5
v 5.5 10 -0.5
v 5.5 11 -0.5
v 6.5 6 -0.5
v 6.5 8 -0.5
v 6.5 11 -0.5
v 7.5 6 -0.5
v 7.5 7 -0.5
v 7.5 8 -0.5
v 7.5 11 -0.5
v 7.5 13 -0.5
v 8.5 7 -0.5
v 8.5 11 -0.5
v -10.5 23 -1.5
v -10.5 27 -1.5
v -7.5 13 -1.5
v -7.5 16 -1.5
v -7.5 18 -1.5
v -7.5 21 -1.5
v -7.5 23 -1.5
v -7.5 24 -1.5
v -7.5 26 -1.5
v -7.5 27 -1.5
v -6.5 13 -1.5
v -6.5 16 -1.5
v -6.5 18 -1.5
v -6.5 21 -1.5
v -6.5 24 -1.5
v -6.5 25 -1.5
v -6.5 26 -1.5
v -5.5 24 -1.5
v -5.5 25 -1.5
v -5.5 26 -1.5
v -5.5 27 -1.5
v -5.5 30 -1.5
v -4.5 16 -1.5
v -4.5 18 -1.5
v -4.5 22 -1.5
v -4.5 24 -1.5
v -4.5 27 -1.5
v -4.5 30 -1.5
v -3.5 13 -1.5
v -3.5 16 -1.5
v -3.5 18 -1.5
v -3.5 22 -1.5
v -3.5 24 -1.5
v -3.5 25 -1.5
v 6.5 8 -1.5
v 6.5 11 -1.5
v 7.5 8 -1.5
v 7.5 11 -1.5
v -7.5 0 -3.5
v -7.5 1 -3.5
v -7.5 5 -3.5
v -7.5 7 -3.5
v -7.5 13 -3.5
v -6.5 5 -3.5
v -6.5 7 -3.5
v -5.5 0 -3.5
v -5.5 1 -3.5
v -5.5 7 -3.5
v -5.5 8 -3.5
v -4.5 9 -3.5
v -4.5 12 -3.5
v -1.5 9 -3.5
v -1.5 12 -3.5
v 0.5 12 -3.5
v 0.5 13 -3.5
v 2.5 0 -3.5
v 2.5 1 -3.5
v 2.5 7 -3.5
v 2.5 8 -3.5
v 3.5 8 -3.5
v 3.5 10 -3.5
v 3.5 12 -3.5
v 3.5 13 -3.5
v 4.5 0 -3.5
v 4.5 1 -3.5
v 4.5 8 -3.5
v 4.5 10 -3.5
v 4.5 13 -3.5
v -5.5 25 -4.5
v -5.5 27 -4.5
v -3.5 25 -4.5
v -3.5 27 -4.5
v -7.5 0 4.5
v -5.5 0 4.5
v 2.5 0 4.5
v 4.5 0 4.5
v -7.5 0 2.5
v -5.5 0 2.5
v 2.5 0 2.5
v 4.5 0 2.5
v -7.5 0 -1.5
v -5.5 0 -1.5
v 2.5 0 -1.5
v 4.5 0 -1.5
v -7.5 0 -3.5
v -5.5 0 -3.5
v 2.5 0 -3.5
v 4.5 0 -3.5
v 6.5 6 0.5
v 7.5 6 0.5
v 6.5 6 -0.5
v 7.5 6 -0.5
v -5.5 7 4.5
v -3.5 7 4.5
v -0.5 7 4.5
v 2.5 7 4.5
v -3.5 7 3.5
v -0.5 7 3.5
v -7.5 7 2.5
v -5.5 7 2.5
v 2.5 7 2.5
v 4.5 7 2.5
v 7.5 7 0.5
v 8.5 7 0.5
v 7.5 7 -0.5
v 8.5 7 -0.5
v -7.5 7 -1.5
v -5.5 7 -1.5
v 2.5 7 -1.5
v 4.5 7 -1.5
v -5.5 7 -3.5
v 2.5 7 -3.5
v 6.5 8 1.5
v 7.5 8 1.5
v 6.5 8 0.5
v 7.5 8 0.5
v 6.5 8 -0.5
v 7.5 8 -0.5
v 6.5 8 -1.5
v 7.5 8 -1.5
v -0.5 10 2.5
v 3.5 10 2.5
v -0.5 10 1.5
v 3.5 10 1.5
v 4.5 10 1.5
v 5.5 10 1.5
v 4.5 10 -0.5
v 5.5 10 -0.5
v -3.5 11 2.5
v -0.5 11 2.5
v -2.5 11 1.5
v -1.5 11 1.5
v -0.5 11 1.5
v 5.5 11 0.5
v 6.5 11 0.5
v 5.5 11 -0.5
v 6.5 11 -0.5
v -3.5 11 -1.5
v -2.5 11 -1.5
v -1.5 12 1.5
v 0.5 12 1.5
v 3.5 12 1.5
v 5.5 12 1.5
v 6.5 12 1.5
v -1.5 12 0.5
v 0.5 12 0.5
v 5.5 12 0.5
v 6.5 12 0.5
v 0.5 12 -1.5
v 3.5 12 -1.5
v -1.5 12 -2.5
v 0.5 12 -2.5
v 3.5 12 -2.5
v -10.5 23 2.5
v -7.5 23 2.5
v -10.5 23 -1.5
v -7.5 23 -1.5
v -5.5 25 5.5
v -3.5 25 5.5
v -5.5 25 4.5
v -3.5 25 4.5
v -5.5 25 2.5
v -3.5 25 2.5
v -5.5 25 -1.5
v -3.5 25 -1.5
v -5.5 25 -3.5
v -3.5 25 -3.5
v -5.5 25 -4.5
v -3.5 25 -4.5
v -3.5 8 2.5
v 3.5 8 2.5
v -2.5 8 1.5
v -1.5 8 1.5
v -3.5 8 -1.5
v -2.5 8 -1.5
v 2.5 8 -1.5
v 3.5 8 -1.5
v -1.5 8 -2.5
v 2.5 8 -2.5
v 3.5 8 -2.5
v 6.5 11 1.5
v 7.5 11 1.5
v 6.5 11 0.5
v 7.5 11 0.5
v 8.5 11 0.5
v 6.5 11 -0.5
v 7.5 11 -0.5
v 8.5 11 -0.5
v 6.5 11 -1.5
v 7.5 11 -1.5
v -7.5 13 4.5
v 4.5 13 4.5
v -2.5 13 3.5
v 0.5 13 3.5
v 3.5 13 3.5
v 4.5 13 3.5
v -7.5 13 2.5
v -6.5 13 2.5
v -3.5 13 2.5
v 3.5 13 1.5
v 4.5 13 1.5
v 6.5 13 1.5
v -2.5 13 0.5
v 0.5 13 0.5
v 6.5 13 0.5
v 7.5 13 0.5
v 4.5 13 -0.5
v 7.5 13 -0.5
v -7.5 13 -1.5
v -6.5 13 -1.5
v -3.5 13 -1.5
v 0.5 13 -1.5
v 3.5 13 -1.5
v -7.5 13 -3.5
v 0.5 13 -3.5
v 3.5 13 -3.5
v 4.5 13 -3.5
v -5.5 27 5.5
v -3.5 27 5.5
v -5.5 27 4.5
v -3.5 27 4.5
v -10.5 27 2.5
v -7.5 27 2.5
v -5.5 27 2.5
v -4.5 27 2.5
v -7.5 27 1.5
v -5.5 27 1.5
v -4.5 27 1.5
v -7.5 27 -0.5
v -5.5 27 -0.5
v -4.5 27 -0.5
v -10.5 27 -1.5
v -7.5 27 -1.5
v -5.5 27 -1.5
v -4.5 27 -1.5
v -5.5 27 -3.5
v -3.5 27 -3.5
v -5.5 27 -4.5
v -3.5 27 -4.5
v -5.5 30 2.5
v -4.5 30 2.5
v -5.5 30 1.5
v -4.5 30 1.5
v -5.5 30 -0.5
v -4.5 30 -0.5
v -5.5 30 -1.5
v -4.5 30 -1.5

# faces
f 3/2/1 2/2/1 1/2/1
f 4/2/1 2/2/1 3/2/1
f 9/5/1 6/5/1 5/5/1
f 10/5/1 6/5/1 9/5/1
f 11/5/1 8/5/1 7/5/1
f 12/5/1 8/5/1 11/5/1
f 13/3/1 12/3/1 11/3/1
f 14/3/1 12/3/1 13/3/1
f 15/3/1 10/3/1 9/3/1
f 16/3/1 13/3/1 11/3/1
f 17/4/1 14/4/1 13/4/1
f 17/3/1 13/3/1 16/3/1
f 18/4/1 14/4/1 17/4/1
f 19/2/1 16/2/1 15/2/1
f 20/3/1 17/3/1 16/3/1
f 20/2/1 16/2/1 19/2/1
f 20/3/1 18/3/1 17/3/1
f 21/3/1 15/3/1 9/3/1
f 22/3/1 15/3/1 21/3/1
f 23/2/1 19/2/1 15/2/1
f 23/4/1 20/4/1 19/4/1
f 24/3/1 18/3/1 20/3/1
f 24/4/1 20/4/1 23/4/1
f 25/4/1 22/4/1 21/4/1
f 26/3/1 15/3/1 22/3/1
f 26/4/1 22/4/1 25/4/1
f 27/3/1 26/3/1 25/3/1
f 28/2/1 23/2/1 15/2/1
f 28/3/1 26/3/1 27/3/1
f 28/2/1 24/2/1 23/2/1
f 28/3/1 15/3/1 26/3/1
f 29/2/1 24/2/1 28/2/1
f 30/3/1 18/3/1 24/3/1
f 30/2/1 24/2/1 29/2/1
f 31/3/1 18/3/1 30/3/1
f 32/2/1 29/2/1 28/2/1
f 33/2/1 29/2/1 32/2/1
f 34/4/1 30/4/1 29/4/1
f 34/2/1 29/2/1 33/2/1
f 35/4/1 30/4/1 34/4/1
f 36/4/1 33/4/1 32/4/1
f 37/2/1 34/2/1 33/2/1
f 37/4/1 33/4/1 36/4/1
f 37/2/1 35/2/1 34/2/1
f 38/2/1 37/2/1 36/2/1
f 38/2/1 35/2/1 37/2/1
f 39/2/1 35/2/1 38/2/1
f 40/2/1 38/2/1 36/2/1
f 40/4/1 39/4/1 38/4/1
f 41/4/1 39/4/1 40/4/1
f 42/2/1 40/2/1 36/2/1
f 42/2/1 41/2/1 40/2/1
f 43/2/1 41/2/1 42/2/1
f 50/3/1 46/3/1 45/3/1
f 51/3/1 48/3/1 47/3/1
f 52/2/1 45/2/1 44/2/1
f 53/3/1 50/3/1 45/3/1
f 53/2/1 45/2/1 52/2/1
f 54/3/1 50/3/1 53/3/1
f 57/3/1 48/3/1 51/3/1
f 58/2/1 49/2/1 48/2/1
f 58/3/1 48/3/1 57/3/1
f 59/2/1 49/2/1 58/2/1
f 60/5/1 55/5/1 54/5/1
f 61/5/1 55/5/1 60/5/1
f 62/5/1 57/5/1 56/5/1
f 63/5/1 57/5/1 62/5/1
f 66/3/1 65/3/1 64/3/1
f 67/3/1 65/3/1 66/3/1
f 70/3/1 69/3/1 68/3/1
f 71/3/1 69/3/1 70/3/1
f 76/5/1 73/5/1 72/5/1
f 77/5/1 73/5/1 76/5/1
f 78/5/1 75/5/1 74/5/1
f 79/5/1 75/5/1 78/5/1
f 80/3/1 77/3/1 76/3/1
f 81/3/1 77/3/1 80/3/1
f 82/3/1 79/3/1 78/3/1
f 83/3/1 79/3/1 82/3/1
f 87/3/1 85/3/1 84/3/1
f 87/3/1 86/3/1 85/3/1
f 88/3/1 86/3/1 87/3/1
f 89/3/1 86/3/1 88/3/1
f 90/3/1 86/3/1 89/3/1
f 91/3/1 86/3/1 90/3/1
f 95/5/1 93/5/1 92/5/1
f 96/5/1 93/5/1 95/5/1
f 98/5/1 95/5/1 94/5/1
f 98/5/1 97/5/1 96/5/1
f 98/5/1 96/5/1 95/5/1
f 99/5/1 97/5/1 98/5/1
f 100/5/1 98/5/1 94/5/1
f 101/3/1 99/3/1 98/3/1
f 101/5/1 98/5/1 100/5/1
f 102/5/1 97/5/1 99/5/1
f 102/3/1 99/3/1 101/3/1
f 103/5/1 97/5/1 102/5/1
f 104/5/2 105/5/2 108/5/2
f 108/5/2 105/5/2 109/5/2
f 106/5/2 107/5/2 110/5/2
f 110/5/2 107/5/2 111/5/2
f 108/3/2 109/3/2 112/3/2
f 112/3/2 109/3/2 113/3/2
f 110/3/2 111/3/2 114/3/2
f 114/3/2 111/3/2 115/3/2
f 116/5/2 117/5/2 120/5/2
f 120/5/2 117/5/2 121/5/2
f 118/5/2 119/5/2 122/5/2
f 122/5/2 119/5/2 123/5/2
f 124/3/2 125/3/2 126/3/2
f 126/3/2 125/3/2 127/3/2
f 128/3/2 129/3/2 130/3/2
f 130/3/2 129/3/2 131/3/2
f 128/3/2 130/3/2 132/3/2
f 130/4/2 131/4/2 132/4/2
f 132/4/2 131/4/2 133/4/2
f 128/3/2 132/3/2 134/3/2
f 132/3/2 133/3/2 134/3/2
f 134/3/2 133/3/2 135/3/2
f 134/4/2 135/4/2 136/4/2
f 135/3/2 133/3/2 137/3/2
f 136/4/2 135/4/2 137/4/2
f 136/3/2 137/3/2 138/3/2
f 137/3/2 133/3/2 138/3/2
f 138/3/2 133/3/2 139/3/2
f 136/3/2 138/3/2 140/3/2
f 138/4/2 139/4/2 140/4/2
f 140/4/2 139/4/2 141/4/2
f 136/3/2 140/3/2 144/3/2
f 140/3/2 141/3/2 144/3/2
f 144/3/2 141/3/2 145/3/2
f 142/2/2 143/2/2 148/2/2
f 144/3/2 145/3/2 149/3/2
f 148/2/2 143/2/2 149/2/2
f 143/3/2 144/3/2 149/3/2
f 145/3/2 146/3/2 149/3/2
f 146/2/2 147/2/2 150/2/2
f 149/3/2 146/3/2 150/3/2
f 150/2/2 147/2/2 151/2/2
f 152/3/2 153/3/2 154/3/2
f 154/3/2 153/3/2 155/3/2
f 155/3/2 153/3/2 156/3/2
f 156/3/2 153/3/2 157/3/2
f 158/5/2 159/5/2 162/5/2
f 162/5/2 159/5/2 163/5/2
f 160/5/2 161/5/2 164/5/2
f 164/5/2 161/5/2 165/5/2
f 162/3/2 163/3/2 166/3/2
f 164/3/2 165/3/2 167/3/2
f 162/3/2 166/3/2 168/3/2
f 166/2/2 167/2/2 168/2/2
f 167/3/2 165/3/2 169/3/2
f 168/2/2 167/2/2 169/2/2
f 169/3/2 165/3/2 170/3/2
f 170/3/2 165/3/2 171/3/2
f 168/3/2 169/3/2 172/3/2
f 169/3/2 170/3/2 172/3/2
f 172/3/2 170/3/2 173/3/2
f 170/5/2 171/5/2 174/5/2
f 173/3/2 170/3/2 174/3/2
f 174/5/2 171/5/2 175/5/2
f 162/3/2 168/3/2 176/3/2
f 168/3/2 172/3/2 176/3/2
f 176/3/2 172/3/2 177/3/2
f 162/3/2 176/3/2 178/3/2
f 176/4/2 177/4/2 179/4/2
f 178/3/2 176/3/2 179/3/2
f 179/4/2 177/4/2 180/4/2
f 174/3/2 175/3/2 181/3/2
f 173/3/2 174/3/2 181/3/2
f 181/3/2 175/3/2 182/3/2
f 183/3/2 184/3/2 185/3/2
f 185/3/2 184/3/2 186/3/2
f 183/3/2 185/3/2 187/3/2
f 187/3/2 185/3/2 188/3/2
f 189/3/2 190/3/2 191/3/2
f 191/3/2 190/3/2 192/3/2
f 193/5/2 194/5/2 195/5/2
f 195/5/2 194/5/2 196/5/2
f 197/5/2 198/5/2 201/5/2
f 201/5/2 198/5/2 202/5/2
f 199/5/2 200/5/2 203/5/2
f 203/5/2 200/5/2 204/5/2
f 202/3/2 203/3/2 205/3/2
f 205/3/2 203/3/2 206/3/2
f 207/5/2 208/5/2 209/5/2
f 209/5/2 208/5/2 210/5/2
f 213/2/3 212/2/3 211/2/3
f 214/2/3 212/2/3 213/2/3
f 220/5/3 216/5/3 215/5/3
f 221/3/3 217/3/3 216/3/3
f 221/5/3 216/5/3 220/5/3
f 222/3/3 217/3/3 221/3/3
f 223/3/3 217/3/3 222/3/3
f 224/4/3 218/4/3 217/4/3
f 224/3/3 217/3/3 223/3/3
f 225/3/3 219/3/3 218/3/3
f 225/4/3 218/4/3 224/4/3
f 226/2/3 223/2/3 222/2/3
f 227/3/3 224/3/3 223/3/3
f 227/2/3 223/2/3 226/2/3
f 227/3/3 225/3/3 224/3/3
f 228/3/3 225/3/3 227/3/3
f 229/4/3 227/4/3 226/4/3
f 229/4/3 228/4/3 227/4/3
f 230/4/3 228/4/3 229/4/3
f 231/3/3 225/3/3 228/3/3
f 231/4/3 228/4/3 230/4/3
f 232/3/3 231/3/3 230/3/3
f 232/3/3 225/3/3 231/3/3
f 233/3/3 219/3/3 225/3/3
f 233/3/3 225/3/3 232/3/3
f 236/2/3 230/2/3 229/2/3
f 237/3/3 232/3/3 230/3/3
f 237/2/3 230/2/3 236/2/3
f 238/4/3 233/4/3 232/4/3
f 238/3/3 232/3/3 237/3/3
f 239/3/3 219/3/3 233/3/3
f 239/4/3 233/4/3 238/4/3
f 240/5/3 235/5/3 234/5/3
f 241/3/3 236/3/3 235/3/3
f 241/5/3 235/5/3 240/5/3
f 241/3/3 237/3/3 236/3/3
f 241/3/3 239/3/3 238/3/3
f 241/3/3 238/3/3 237/3/3
f 242/3/3 219/3/3 239/3/3
f 242/3/3 239/3/3 241/3/3
f 248/2/3 244/2/3 243/2/3
f 249/2/3 244/2/3 248/2/3
f 250/2/3 244/2/3 249/2/3
f 251/2/3 244/2/3 250/2/3
f 252/2/3 246/2/3 245/2/3
f 253/4/3 247/4/3 246/4/3
f 253/2/3 246/2/3 252/2/3
f 254/2/3 248/2/3 247/2/3
f 254/4/3 247/4/3 253/4/3
f 254/2/3 249/2/3 248/2/3
f 255/2/3 249/2/3 254/2/3
f 256/6/3 250/6/3 249/6/3
f 256/2/3 249/2/3 255/2/3
f 257/6/3 250/6/3 256/6/3
f 258/3/3 251/3/3 250/3/3
f 258/6/3 250/6/3 257/6/3
f 259/3/3 253/3/3 252/3/3
f 259/4/3 254/4/3 253/4/3
f 260/3/3 255/3/3 254/3/3
f 260/4/3 254/4/3 259/4/3
f 261/6/3 257/6/3 256/6/3
f 261/4/3 256/4/3 255/4/3
f 262/1/3 258/1/3 257/1/3
f 262/6/3 257/6/3 261/6/3
f 263/3/3 251/3/3 258/3/3
f 263/1/3 258/1/3 262/1/3
f 264/3/3 251/3/3 263/3/3
f 266/3/3 255/3/3 260/3/3
f 266/3/3 260/3/3 259/3/3
f 267/3/3 255/3/3 266/3/3
f 268/4/3 261/4/3 255/4/3
f 268/3/3 255/3/3 267/3/3
f 269/3/3 262/3/3 261/3/3
f 269/4/3 261/4/3 268/4/3
f 270/5/3 265/5/3 264/5/3
f 271/5/3 265/5/3 270/5/3
f 272/3/3 259/3/3 252/3/3
f 272/3/3 266/3/3 259/3/3
f 273/4/3 267/4/3 266/4/3
f 273/3/3 266/3/3 272/3/3
f 274/3/3 268/3/3 267/3/3
f 274/4/3 267/4/3 273/4/3
f 274/3/3 269/3/3 268/3/3
f 275/3/3 262/3/3 269/3/3
f 275/3/3 269/3/3 274/3/3
f 278/3/3 277/3/3 276/3/3
f 279/3/3 277/3/3 278/3/3
f 283/3/3 281/3/3 280/3/3
f 283/3/3 282/3/3 281/3/3
f 284/3/3 282/3/3 283/3/3
f 287/3/3 282/3/3 284/3/3
f 288/3/3 282/3/3 287/3/3
f 289/5/3 286/5/3 285/5/3
f 290/5/3 286/5/3 289/5/3
f 295/3/3 292/3/3 291/3/3
f 296/3/3 292/3/3 295/3/3
f 298/5/3 294/5/3 293/5/3
f 299/5/3 294/5/3 298/5/3
f 300/5/3 294/5/3 299/5/3
f 301/3/3 297/3/3 296/3/3
f 301/3/3 296/3/3 295/3/3
f 302/3/3 297/3/3 301/3/3
f 303/5/3 300/5/3 299/5/3
f 303/5/3 301/5/3 300/5/3
f 304/5/3 301/5/3 303/5/3
f 307/5/3 306/5/3 305/5/3
f 308/5/3 306/5/3 307/5/3
f 312/5/3 310/5/3 309/5/3
f 313/3/3 311/3/3 310/3/3
f 313/5/3 310/5/3 312/5/3
f 314/3/3 311/3/3 313/3/3
f 317/3/3 316/3/3 315/3/3
f 318/3/3 316/3/3 317/3/3
f 322/5/3 320/5/3 319/5/3
f 323/3/3 321/3/3 320/3/3
f 323/5/3 320/5/3 322/5/3
f 324/3/3 321/3/3 323/3/3
f 327/3/3 326/3/3 325/3/3
f 328/3/3 327/3/3 325/3/3
f 329/3/3 327/3/3 328/3/3
f 330/3/3 327/3/3 329/3/3
f 331/5/4 332/5/4 334/5/4
f 332/3/4 333/3/4 335/3/4
f 334/5/4 332/5/4 335/5/4
f 335/3/4 333/3/4 336/3/4
f 337/3/4 338/3/4 339/3/4
f 339/3/4 338/3/4 340/3/4
f 337/3/4 339/3/4 344/3/4
f 344/3/4 339/3/4 345/3/4
f 341/5/4 342/5/4 346/5/4
f 342/3/4 343/3/4 347/3/4
f 346/5/4 342/5/4 347/5/4
f 347/3/4 343/3/4 348/3/4
f 349/5/4 350/5/4 351/5/4
f 351/5/4 350/5/4 352/5/4
f 353/3/4 354/3/4 356/3/4
f 356/3/4 354/3/4 357/3/4
f 355/3/4 356/3/4 357/3/4
f 355/3/4 357/3/4 358/3/4
f 358/3/4 357/3/4 359/3/4
f 360/3/4 361/3/4 362/3/4
f 362/3/4 361/3/4 363/3/4
f 363/3/4 361/3/4 366/3/4
f 364/5/4 365/5/4 367/5/4
f 367/5/4 365/5/4 368/5/4
f 368/5/4 365/5/4 369/5/4
f 366/3/4 361/3/4 370/3/4
f 370/3/4 361/3/4 371/3/4
f 368/5/4 369/5/4 372/5/4
f 369/5/4 370/5/4 372/5/4
f 372/5/4 370/5/4 373/5/4
f 374/2/4 375/2/4 380/2/4
f 380/2/4 375/2/4 381/2/4
f 381/2/4 375/2/4 382/2/4
f 382/2/4 375/2/4 383/2/4
f 376/4/4 377/4/4 384/4/4
f 377/2/4 378/2/4 385/2/4
f 384/4/4 377/4/4 385/4/4
f 378/4/4 379/4/4 386/4/4
f 385/2/4 378/2/4 386/2/4
f 379/2/4 380/2/4 387/2/4
f 386/4/4 379/4/4 387/4/4
f 380/2/4 381/2/4 387/2/4
f 381/6/4 382/6/4 388/6/4
f 387/2/4 381/2/4 388/2/4
f 388/6/4 382/6/4 389/6/4
f 382/3/4 383/3/4 390/3/4
f 389/6/4 382/6/4 390/6/4
f 384/3/4 385/3/4 391/3/4
f 385/3/4 386/3/4 391/3/4
f 388/6/4 389/6/4 391/6/4
f 387/3/4 388/3/4 391/3/4
f 386/3/4 387/3/4 391/3/4
f 389/1/4 390/1/4 392/1/4
f 391/6/4 389/6/4 392/6/4
f 390/3/4 383/3/4 393/3/4
f 392/1/4 390/1/4 393/1/4
f 393/3/4 383/3/4 394/3/4
f 391/3/4 392/3/4 396/3/4
f 384/3/4 391/3/4 396/3/4
f 396/3/4 392/3/4 397/3/4
f 397/3/4 392/3/4 398/3/4
f 398/3/4 392/3/4 399/3/4
f 394/5/4 395/5/4 400/5/4
f 400/5/4 395/5/4 401/5/4
f 384/3/4 396/3/4 402/3/4
f 396/4/4 397/4/4 403/4/4
f 402/3/4 396/3/4 403/3/4
f 397/3/4 398/3/4 404/3/4
f 403/4/4 397/4/4 404/4/4
f 398/4/4 399/4/4 405/4/4
f 404/3/4 398/3/4 405/3/4
f 399/3/4 392/3/4 406/3/4
f 405/4/4 399/4/4 406/4/4
f 406/3/4 392/3/4 407/3/4
f 408/5/4 409/5/4 410/5/4
f 410/5/4 409/5/4 411/5/4
f 413/3/4 414/3/4 417/3/4
f 414/4/4 415/4/4 417/4/4
f 415/3/4 416/3/4 418/3/4
f 417/4/4 415/4/4 418/4/4
f 412/5/4 413/5/4 419/5/4
f 413/3/4 417/3/4 420/3/4
f 419/5/4 413/5/4 420/5/4
f 417/3/4 418/3/4 420/3/4
f 418/3/4 416/3/4 421/3/4
f 420/3/4 418/3/4 421/3/4
f 421/3/4 416/3/4 422/3/4
f 422/3/4 416/3/4 423/3/4
f 423/3/4 416/3/4 424/3/4
f 422/3/4 423/3/4 425/3/4
f 423/5/4 424/5/4 425/5/4
f 424/3/4 416/3/4 426/3/4
f 425/5/4 424/5/4 426/5/4
f 425/3/4 426/3/4 427/3/4
f 426/3/4 416/3/4 427/3/4
f 427/3/4 416/3/4 428/3/4
f 421/2/4 422/2/4 431/2/4
f 422/3/4 425/3/4 432/3/4
f 425/3/4 427/3/4 432/3/4
f 431/2/4 422/2/4 432/2/4
f 430/3/4 431/3/4 433/3/4
f 432/3/4 427/3/4 433/3/4
f 431/3/4 432/3/4 433/3/4
f 433/3/4 427/3/4 434/3/4
f 427/4/4 428/4/4 435/4/4
f 434/3/4 427/3/4 435/3/4
f 435/4/4 428/4/4 436/4/4
f 429/5/4 430/5/4 437/5/4
f 430/3/4 433/3/4 438/3/4
f 437/5/4 430/5/4 438/5/4
f 433/5/4 434/5/4 439/5/4
f 438/3/4 433/3/4 439/3/4
f 434/3/4 435/3/4 440/3/4
f 439/5/4 434/5/4 440/5/4
f 435/3/4 436/3/4 440/3/4
f 440/3/4 436/3/4 441/3/4
f 442/2/4 443/2/4 444/2/4
f 444/2/4 443/2/4 445/2/4
f 450/5/5 447/5/5 446/5/5
f 451/5/5 447/5/5 450/5/5
f 452/5/5 449/5/5 448/5/5
f 453/5/5 449/5/5 452/5/5
f 458/5/5 455/5/5 454/5/5
f 459/5/5 455/5/5 458/5/5
f 460/5/5 457/5/5 456/5/5
f 461/5/5 457/5/5 460/5/5
f 464/5/5 463/5/5 462/5/5
f 465/5/5 463/5/5 464/5/5
f 470/2/5 467/2/5 466/2/5
f 470/4/5 468/4/5 467/4/5
f 471/2/5 469/2/5 468/2/5
f 471/4/5 468/4/5 470/4/5
f 473/2/5 470/2/5 466/2/5
f 473/2/5 471/2/5 470/2/5
f 474/2/5 469/2/5 471/2/5
f 474/2/5 471/2/5 473/2/5
f 478/5/5 477/5/5 476/5/5
f 479/5/5 477/5/5 478/5/5
f 480/2/5 473/2/5 472/2/5
f 480/2/5 474/2/5 473/2/5
f 480/2/5 475/2/5 474/2/5
f 481/2/5 475/2/5 480/2/5
f 482/2/5 475/2/5 481/2/5
f 483/2/5 475/2/5 482/2/5
f 484/2/5 482/2/5 481/2/5
f 485/2/5 482/2/5 484/2/5
f 488/5/5 487/5/5 486/5/5
f 489/5/5 487/5/5 488/5/5
f 492/5/5 491/5/5 490/5/5
f 493/5/5 491/5/5 492/5/5
f 496/3/5 495/3/5 494/3/5
f 497/3/5 495/3/5 496/3/5
f 500/3/5 499/3/5 498/3/5
f 501/3/5 499/3/5 500/3/5
f 504/3/5 503/3/5 502/3/5
f 505/3/5 503/3/5 504/3/5
f 506/3/5 503/3/5 505/3/5
f 509/3/5 508/3/5 507/3/5
f 510/3/5 508/3/5 509/3/5
f 511/3/5 504/3/5 502/3/5
f 512/3/5 504/3/5 511/3/5
f 518/4/5 514/4/5 513/4/5
f 519/3/5 515/3/5 514/3/5
f 519/4/5 514/4/5 518/4/5
f 520/3/5 517/3/5 516/3/5
f 521/3/5 517/3/5 520/3/5
f 522/3/5 515/3/5 519/3/5
f 522/3/5 519/3/5 518/3/5
f 523/3/5 515/3/5 522/3/5
f 524/3/5 522/3/5 518/3/5
f 525/4/5 523/4/5 522/4/5
f 525/3/5 522/3/5 524/3/5
f 526/4/5 523/4/5 525/4/5
f 529/2/5 528/2/5 527/2/5
f 530/2/5 528/2/5 529/2/5
f 533/2/5 532/2/5 531/2/5
f 534/2/5 532/2/5 533/2/5
f 535/3/5 534/3/5 533/3/5
f 536/3/5 534/3/5 535/3/5
f 539/3/5 538/3/5 537/3/5
f 540/3/5 538/3/5 539/3/5
f 541/2/5 540/2/5 539/2/5
f 542/2/5 540/2/5 541/2/5
f 543/2/6 544/2/6 545/2/6
f 545/2/6 544/2/6 546/2/6
f 543/2/6 545/2/6 547/2/6
f 547/2/6 545/2/6 548/2/6
f 546/2/6 544/2/6 549/2/6
f 549/2/6 544/2/6 550/2/6
f 546/2/6 549/2/6 551/2/6
f 549/3/6 550/3/6 552/3/6
f 551/2/6 549/2/6 552/2/6
f 552/3/6 550/3/6 553/3/6
f 554/5/6 555/5/6 556/5/6
f 556/5/6 555/5/6 557/5/6
f 557/5/6 558/5/6 560/5/6
f 560/5/6 558/5/6 561/5/6
f 559/5/6 560/5/6 562/5/6
f 562/5/6 560/5/6 563/5/6
f 564/3/6 565/3/6 566/3/6
f 566/3/6 565/3/6 567/3/6
f 567/3/6 565/3/6 568/3/6
f 568/3/6 565/3/6 569/3/6
f 564/3/6 566/3/6 570/3/6
f 570/3/6 566/3/6 571/3/6
f 571/3/6 566/3/6 572/3/6
f 567/3/6 568/3/6 573/3/6
f 568/4/6 569/4/6 573/4/6
f 573/4/6 569/4/6 574/4/6
f 566/4/6 567/4/6 576/4/6
f 572/3/6 566/3/6 576/3/6
f 573/3/6 574/3/6 577/3/6
f 576/4/6 567/4/6 577/4/6
f 574/3/6 575/3/6 577/3/6
f 567/3/6 573/3/6 577/3/6
f 577/3/6 575/3/6 578/3/6
f 576/3/6 577/3/6 580/3/6
f 578/3/6 579/3/6 580/3/6
f 577/3/6 578/3/6 580/3/6
f 580/3/6 579/3/6 581/3/6
f 572/3/6 576/3/6 584/3/6
f 576/3/6 580/3/6 584/3/6
f 584/3/6 580/3/6 585/3/6
f 585/3/6 580/3/6 586/3/6
f 582/3/6 583/3/6 587/3/6
f 583/3/6 584/3/6 587/3/6
f 584/3/6 585/3/6 587/3/6
f 585/4/6 586/4/6 588/4/6
f 587/3/6 585/3/6 588/3/6
f 586/3/6 580/3/6 589/3/6
f 588/4/6 586/4/6 589/4/6
f 589/3/6 580/3/6 590/3/6
f 591/2/6 592/2/6 593/2/6
f 593/2/6 592/2/6 594/2/6
f 593/3/6 594/3/6 597/3/6
f 597/3/6 594/3/6 598/3/6
f 595/2/6 596/2/6 599/2/6
f 596/3/6 597/3/6 599/3/6
f 599/3/6 597/3/6 600/3/6
f 598/3/6 594/3/6 601/3/6
f 599/2/6 600/2/6 602/2/6
f 595/2/6 599/2/6 602/2/6
f 600/3/6 601/3/6 603/3/6
f 602/2/6 600/2/6 603/2/6
f 601/3/6 594/3/6 604/3/6
f 603/3/6 601/3/6 604/3/6
f 595/2/6 602/2/6 605/2/6
f 602/3/6 603/3/6 606/3/6
f 605/2/6 602/2/6 606/2/6
f 606/3/6 603/3/6 607/3/6
f 604/3/6 594/3/6 608/3/6
f 607/3/6 608/3/6 609/3/6
f 608/3/6 594/3/6 610/3/6
f 609/3/6 608/3/6 610/3/6
f 609/2/6 610/2/6 611/2/6
f 611/2/6 610/2/6 612/2/6
f 613/5/6 614/5/6 615/5/6
f 615/5/6 614/5/6 616/5/6
f 617/5/6 618/5/6 619/5/6
f 619/5/6 618/5/6 620/5/6
