# MagicaVoxel @ Ephtracy

# group
g jiraffe

# material
mtllib jiraffe.mtl
usemtl palette

# normals
vn -1 0 0
vn 1 0 0
vn 0 0 1
vn 0 0 -1
vn 0 -1 0
vn 0 1 0

# texcoords
vt 0.00195313 0.5
vt 0.00976563 0.5
vt 0.0253906 0.5
vt 0.0878906 0.5
vt 0.533203 0.5
vt 0.537109 0.5
vt 0.994141 0.5

# verts
v -10.5 23 2.5
v -10.5 23 -1.5
v -10.5 27 2.5
v -10.5 27 -1.5
v -7.5 0 4.5
v -7.5 0 2.5
v -7.5 0 -1.5
v -7.5 0 -3.5
v -7.5 1 4.5
v -7.5 1 2.5
v -7.5 1 -1.5
v -7.5 1 -3.5
v -7.5 5 -2.5
v -7.5 5 -3.5
v -7.5 7 2.5
v -7.5 7 -1.5
v -7.5 7 -2.5
v -7.5 7 -3.5
v -7.5 8 1.5
v -7.5 8 -1.5
v -7.5 9 4.5
v -7.5 9 3.5
v -7.5 11 1.5
v -7.5 11 -1.5
v -7.5 12 4.5
v -7.5 12 3.5
v -7.5 13 4.5
v -7.5 13 2.5
v -7.5 13 0.5
v -7.5 13 -1.5
v -7.5 13 -3.5
v -7.5 14 2.5
v -7.5 14 1.5
v -7.5 16 0.5
v -7.5 16 -1.5
v -7.5 17 2.5
v -7.5 17 1.5
v -7.5 18 0.5
v -7.5 18 -1.5
v -7.5 21 0.5
v -7.5 21 -1.5
v -7.5 23 2.5
v -7.5 23 -1.5
v -5.5 25 5.5
v -5.5 25 4.5
v -5.5 25 2.5
v -5.5 25 -1.5
v -5.5 25 -3.5
v -5.5 25 -4.5
v -5.5 26 2.5
v -5.5 26 -1.5
v -5.5 27 5.5
v -5.5 27 4.5
v -5.5 27 2.5
v -5.5 27 1.5
v -5.5 27 -0.5
v -5.5 27 -1.5
v -5.5 27 -3.5
v -5.5 27 -4.5
v -5.5 30 2.5
v -5.5 30 1.5
v -5.5 30 -0.5
v -5.5 30 -1.5
v -2.5 8 1.5
v -2.5 8 -1.5
v -2.5 11 1.5
v -2.5 11 -1.5
v -0.5 10 2.5
v -0.5 10 1.5
v -0.5 11 2.5
v -0.5 11 1.5
v 2.5 0 4.5
v 2.5 0 2.5
v 2.5 0 -1.5
v 2.5 0 -3.5
v 2.5 1 4.5
v 2.5 1 2.5
v 2.5 1 -1.5
v 2.5 1 -3.5
v 2.5 7 4.5
v 2.5 7 2.5
v 2.5 7 -1.5
v 2.5 7 -3.5
v 3.5 8 2.5
v 3.5 8 -1.5
v 3.5 8 -2.5
v 3.5 10 2.5
v 3.5 10 1.5
v 3.5 10 -0.5
v 3.5 12 1.5
v 3.5 12 -0.5
v 3.5 12 -1.5
v 3.5 12 -2.5
v 6.5 6 0.5
v 6.5 6 -0.5
v 6.5 8 1.5
v 6.5 8 0.5
v 6.5 8 -0.5
v 6.5 8 -1.5
v 6.5 9 0.5
v 6.5 9 -0.5
v 6.5 11 1.5
v 6.5 11 0.5
v 6.5 11 -0.5
v 6.5 11 -1.5
v -5.5 0 4.5
v -5.5 0 2.5
v -5.5 0 -1.5
v -5.5 0 -3.5
v -5.5 1 4.5
v -5.5 1 2.5
v -5.5 1 -1.5
v -5.5 1 -3.5
v -5.5 7 4.5
v -5.5 7 2.5
v -5.5 7 -1.5
v -5.5 7 -3.5
v -4.5 27 2.5
v -4.5 27 1.5
v -4.5 27 -0.5
v -4.5 27 -1.5
v -4.5 30 2.5
v -4.5 30 1.5
v -4.5 30 -0.5
v -4.5 30 -1.5
v -3.5 8 2.5
v -3.5 8 -1.5
v -3.5 11 2.5
v -3.5 11 -1.5
v -3.5 13 2.5
v -3.5 13 -1.5
v -3.5 16 0.5
v -3.5 16 -1.5
v -3.5 18 0.5
v -3.5 18 -1.5
v -3.5 19 2.5
v -3.5 19 0.5
v -3.5 21 2.5
v -3.5 21 0.5
v -3.5 22 -0.5
v -3.5 22 -1.5
v -3.5 24 -0.5
v -3.5 24 -1.5
v -3.5 25 5.5
v -3.5 25 4.5
v -3.5 25 2.5
v -3.5 25 -1.5
v -3.5 25 -3.5
v -3.5 25 -4.5
v -3.5 27 5.5
v -3.5 27 4.5
v -3.5 27 -3.5
v -3.5 27 -4.5
v -1.5 8 1.5
v -1.5 8 -2.5
v -1.5 11 1.5
v -1.5 12 1.5
v -1.5 12 0.5
v -1.5 12 -2.5
v 4.5 0 4.5
v 4.5 0 2.5
v 4.5 0 -1.5
v 4.5 0 -3.5
v 4.5 1 4.5
v 4.5 1 2.5
v 4.5 1 -1.5
v 4.5 1 -3.5
v 4.5 7 2.5
v 4.5 7 -1.5
v 4.5 8 2.5
v 4.5 8 -1.5
v 4.5 8 -2.5
v 4.5 8 -3.5
v 4.5 10 1.5
v 4.5 10 -0.5
v 4.5 10 -2.5
v 4.5 10 -3.5
v 4.5 12 3.5
v 4.5 12 1.5
v 4.5 13 4.5
v 4.5 13 3.5
v 4.5 13 1.5
v 4.5 13 -0.5
v 4.5 13 -3.5
v 5.5 10 1.5
v 5.5 10 -0.5
v 5.5 11 0.5
v 5.5 11 -0.5
v 5.5 12 1.5
v 5.5 12 0.5
v 6.5 12 1.5
v 6.5 12 0.5
v 6.5 13 1.5
v 6.5 13 0.5
v 7.5 6 0.5
v 7.5 6 -0.5
v 7.5 7 0.5
v 7.5 7 -0.5
v 7.5 8 1.5
v 7.5 8 0.5
v 7.5 8 -0.5
v 7.5 8 -1.5
v 7.5 11 1.5
v 7.5 11 0.5
v 7.5 11 -0.5
v 7.5 11 -1.5
v 7.5 13 0.5
v 7.5 13 -0.5
v 8.5 7 0.5
v 8.5 7 -0.5
v 8.5 11 0.5
v 8.5 11 -0.5
v -5.5 25 5.5
v -5.5 27 5.5
v -3.5 25 5.5
v -3.5 27 5.5
v -7.5 0 4.5
v -7.5 1 4.5
v -7.5 9 4.5
v -7.5 12 4.5
v -7.5 13 4.5
v -5.5 0 4.5
v -5.5 1 4.5
v -5.5 7 4.5
v -5.5 8 4.5
v -5.5 9 4.5
v -5.5 12 4.5
v -3.5 7 4.5
v -3.5 8 4.5
v -3.5 10 4.5
v -0.5 7 4.5
v -0.5 8 4.5
v -0.5 10 4.5
v 0.5 10 4.5
v 0.5 12 4.5
v 2.5 0 4.5
v 2.5 1 4.5
v 2.5 7 4.5
v 2.5 8 4.5
v 2.5 10 4.5
v 2.5 12 4.5
v 4.5 0 4.5
v 4.5 1 4.5
v 4.5 13 4.5
v -10.5 23 2.5
v -10.5 27 2.5
v -7.5 13 2.5
v -7.5 14 2.5
v -7.5 17 2.5
v -7.5 23 2.5
v -7.5 24 2.5
v -7.5 26 2.5
v -7.5 27 2.5
v -6.5 13 2.5
v -6.5 14 2.5
v -6.5 17 2.5
v -6.5 22 2.5
v -6.5 24 2.5
v -6.5 25 2.5
v -6.5 26 2.5
v -5.5 14 2.5
v -5.5 17 2.5
v -5.5 24 2.5
v -5.5 25 2.5
v -5.5 26 2.5
v -5.5 27 2.5
v -5.5 30 2.5
v -4.5 19 2.5
v -4.5 21 2.5
v -4.5 22 2.5
v -4.5 24 2.5
v -4.5 27 2.5
v -4.5 30 2.5
v -3.5 13 2.5
v -3.5 19 2.5
v -3.5 21 2.5
v -3.5 25 2.5
v -2.5 8 1.5
v -2.5 11 1.5
v -1.5 8 1.5
v -1.5 11 1.5
v 4.5 10 1.5
v 4.5 12 1.5
v 4.5 13 1.5
v 5.5 10 1.5
v 5.5 12 1.5
v 6.5 8 1.5
v 6.5 11 1.5
v 6.5 12 1.5
v 6.5 13 1.5
v 7.5 8 1.5
v 7.5 11 1.5
v 5.5 11 0.5
v 5.5 12 0.5
v 6.5 6 0.5
v 6.5 8 0.5
v 6.5 11 0.5
v 6.5 12 0.5
v 6.5 13 0.5
v 7.5 6 0.5
v 7.5 7 0.5
v 7.5 8 0.5
v 7.5 11 0.5
v 7.5 13 0.5
v 8.5 7 0.5
v 8.5 11 0.5
v -5.5 27 -0.5
v -5.5 30 -0.5
v -4.5 27 -0.5
v -4.5 30 -0.5
v -7.5 0 -1.5
v -7.5 1 -1.5
v -7.5 7 -1.5
v -5.5 0 -1.5
v -5.5 1 -1.5
v -5.5 7 -1.5
v -3.5 8 -1.5
v -3.5 11 -1.5
v -2.5 8 -1.5
v -2.5 11 -1.5
v 2.5 0 -1.5
v 2.5 1 -1.5
v 2.5 7 -1.5
v 4.5 0 -1.5
v 4.5 1 -1.5
v 4.5 7 -1.5
v -1.5 8 -2.5
v -1.5 12 -2.5
v 0.5 12 -2.5
v 2.5 8 -2.5
v 3.5 8 -2.5
v 3.5 12 -2.5
v -7.5 0 2.5
v -7.5 1 2.5
v -7.5 7 2.5
v -5.5 0 2.5
v -5.5 1 2.5
v -5.5 7 2.5
v -3.5 8 2.5
v -3.5 11 2.5
v -0.5 10 2.5
v -0.5 11 2.5
v 2.5 0 2.5
v 2.5 1 2.5
v 2.5 7 2.5
v 3.5 8 2.5
v 3.5 10 2.5
v 4.5 0 2.5
v 4.5 1 2.5
v 4.5 7 2.5
v -5.5 27 1.5
v -5.5 30 1.5
v -4.5 27 1.5
v -4.5 30 1.5
v -1.5 11 1.5
v -1.5 12 1.5
v -0.5 10 1.5
v -0.5 11 1.5
v 0.5 12 1.5
v 3.5 10 1.5
v 3.5 12 1.5
v 4.5 10 -0.5
v 4.5 13 -0.5
v 5.5 10 -0.5
v 5.5 11 -0.5
v 6.5 6 -0.5
v 6.5 8 -0.5
v 6.5 11 -0.5
v 7.5 6 -0.5
v 7.5 7 -0.5
v 7.5 8 -0.5
v 7.5 11 -0.5
v 7.5 13 -0.5
v 8.5 7 -0.5
v 8.5 11 -0.5
v -10.5 23 -1.5
v -10.5 27 -1.5
v -7.5 13 -1.5
v -7.5 16 -1.5
v -7.5 18 -1.5
v -7.5 21 -1.5
v -7.5 23 -1.5
v -7.5 24 -1.5
v -7.5 26 -1.5
v -7.5 27 -1.5
v -6.5 13 -1.5
v -6.5 16 -1.5
v -6.5 18 -1.5
v -6.5 21 -1.5
v -6.5 24 -1.5
v -6.5 25 -1.5
v -6.5 26 -1.5
v -5.5 24 -1.5
v -5.5 25 -1.5
v -5.5 26 -1.5
v -5.5 27 -1.5
v -5.5 30 -1.5
v -4.5 16 -1.5
v -4.5 18 -1.5
v -4.5 22 -1.5
v -4.5 24 -1.5
v -4.5 27 -1.5
v -4.5 30 -1.5
v -3.5 13 -1.5
v -3.5 16 -1.5
v -3.5 18 -1.5
v -3.5 22 -1.5
v -3.5 24 -1.5
v -3.5 25 -1.5
v 6.5 8 -1.5
v 6.5 11 -1.5
v 7.5 8 -1.5
v 7.5 11 -1.5
v -7.5 0 -3.5
v -7.5 1 -3.5
v -7.5 5 -3.5
v -7.5 7 -3.5
v -7.5 13 -3.5
v -6.5 5 -3.5
v -6.5 7 -3.5
v -5.5 0 -3.5
v -5.5 1 -3.5
v -5.5 7 -3.5
v -5.5 8 -3.5
v -4.5 9 -3.5
v -4.5 12 -3.5
v -1.5 9 -3.5
v -1.5 12 -3.5
v 0.5 12 -3.5
v 0.5 13 -3.5
v 2.5 0 -3.5
v 2.5 1 -3.5
v 2.5 7 -3.5
v 2.5 8 -3.5
v 3.5 8 -3.5
v 3.5 10 -3.5
v 3.5 12 -3.5
v 3.5 13 -3.5
v 4.5 0 -3.5
v 4.5 1 -3.5
v 4.5 8 -3.5
v 4.5 10 -3.5
v 4.5 13 -3.5
v -5.5 25 -4.5
v -5.5 27 -4.5
v -3.5 25 -4.5
v -3.5 27 -4.5
v -7.5 0 4.5
v -5.5 0 4.5
v 2.5 0 4.5
v 4.5 0 4.5
v -7.5 0 2.5
v -5.5 0 2.5
v 2.5 0 2.5
v 4.5 0 2.5
v -7.5 0 -1.5
v -5.5 0 -1.5
v 2.5 0 -1.5
v 4.5 0 -1.5
v -7.5 0 -3.5
v -5.5 0 -3.5
v 2.5 0 -3.5
v 4.5 0 -3.5
v 6.5 6 0.5
v 7.5 6 0.5
v 6.5 6 -0.5
v 7.5 6 -0.5
v -5.5 7 4.5
v -3.5 7 4.5
v -0.5 7 4.5
v 2.5 7 4.5
v -3.5 7 3.5
v -0.5 7 3.5
v -7.5 7 2.5
v -5.5 7 2.5
v 2.5 7 2.5
v 4.5 7 2.5
v 7.5 7 0.5
v 8.5 7 0.5
v 7.5 7 -0.5
v 8.5 7 -0.5
v -7.5 7 -1.5
v -5.5 7 -1.5
v 2.5 7 -1.5
v 4.5 7 -1.5
v -5.5 7 -3.5
v 2.5 7 -3.5
v 6.5 8 1.5
v 7.5 8 1.5
v 6.5 8 0.5
v 7.5 8 0.5
v 6.5 8 -0.5
v 7.5 8 -0.5
v 6.5 8 -1.5
v 7.5 8 -1.5
v -0.5 10 2.5
v 3.5 10 2.5
v -0.5 10 1.5
v 3.5 10 1.5
v 4.5 10 1.5
v 5.5 10 1.5
v 4.5 10 -0.5
v 5.5 10 -0.5
v -3.5 11 2.5
v -0.5 11 2.5
v -2.5 11 1.5
v -1.5 11 1.5
v -0.5 11 1.5
v 5.5 11 0.5
v 6.5 11 0.5
v 5.5 11 -0.5
v 6.5 11 -0.5
v -3.5 11 -1.5
v -2.5 11 -1.5
v -1.5 12 1.5
v 0.5 12 1.5
v 3.5 12 1.5
v 5.5 12 1.5
v 6.5 12 1.5
v -1.5 12 0.5
v 0.5 12 0.5
v 5.5 12 0.5
v 6.5 12 0.5
v 3.5 12 -0.5
v 0.5 12 -1.5
v 3.5 12 -1.5
v -1.5 12 -2.5
v 0.5 12 -2.5
v 3.5 12 -2.5
v -10.5 23 2.5
v -7.5 23 2.5
v -10.5 23 -1.5
v -7.5 23 -1.5
v -5.5 25 5.5
v -3.5 25 5.5
v -5.5 25 4.5
v -3.5 25 4.5
v -5.5 25 2.5
v -3.5 25 2.5
v -5.5 25 -1.5
v -3.5 25 -1.5
v -5.5 25 -3.5
v -3.5 25 -3.5
v -5.5 25 -4.5
v -3.5 25 -4.5
v -3.5 8 2.5
v 3.5 8 2.5
v -2.5 8 1.5
v -1.5 8 1.5
v -3.5 8 -1.5
v -2.5 8 -1.5
v 2.5 8 -1.5
v 3.5 8 -1.5
v -1.5 8 -2.5
v 2.5 8 -2.5
v 3.5 8 -2.5
v 6.5 11 1.5
v 7.5 11 1.5
v 6.5 11 0.5
v 7.5 11 0.5
v 8.5 11 0.5
v 6.5 11 -0.5
v 7.5 11 -0.5
v 8.5 11 -0.5
v 6.5 11 -1.5
v 7.5 11 -1.5
v -7.5 13 4.5
v 4.5 13 4.5
v -2.5 13 3.5
v 0.5 13 3.5
v 3.5 13 3.5
v 4.5 13 3.5
v -7.5 13 2.5
v -6.5 13 2.5
v -3.5 13 2.5
v 3.5 13 1.5
v 4.5 13 1.5
v 6.5 13 1.5
v -2.5 13 0.5
v 0.5 13 0.5
v 6.5 13 0.5
v 7.5 13 0.5
v 4.5 13 -0.5
v 7.5 13 -0.5
v -7.5 13 -1.5
v -6.5 13 -1.5
v -3.5 13 -1.5
v 0.5 13 -1.5
v 3.5 13 -1.5
v -7.5 13 -3.5
v 0.5 13 -3.5
v 3.5 13 -3.5
v 4.5 13 -3.5
v -5.5 27 5.5
v -3.5 27 5.5
v -5.5 27 4.5
v -3.5 27 4.5
v -10.5 27 2.5
v -7.5 27 2.5
v -5.5 27 2.5
v -4.5 27 2.5
v -7.5 27 1.5
v -5.5 27 1.5
v -4.5 27 1.5
v -7.5 27 -0.5
v -5.5 27 -0.5
v -4.5 27 -0.5
v -10.5 27 -1.5
v -7.5 27 -1.5
v -5.5 27 -1.5
v -4.5 27 -1.5
v -5.5 27 -3.5
v -3.5 27 -3.5
v -5.5 27 -4.5
v -3.5 27 -4.5
v -5.5 30 2.5
v -4.5 30 2.5
v -5.5 30 1.5
v -4.5 30 1.5
v -5.5 30 -0.5
v -4.5 30 -0.5
v -5.5 30 -1.5
v -4.5 30 -1.5

# faces
f 3/2/1 2/2/1 1/2/1
f 4/2/1 2/2/1 3/2/1
f 9/6/1 6/6/1 5/6/1
f 10/6/1 6/6/1 9/6/1
f 11/6/1 8/6/1 7/6/1
f 12/6/1 8/6/1 11/6/1
f 13/4/1 12/4/1 11/4/1
f 14/4/1 12/4/1 13/4/1
f 15/4/1 10/4/1 9/4/1
f 16/4/1 13/4/1 11/4/1
f 17/5/1 14/5/1 13/5/1
f 17/4/1 13/4/1 16/4/1
f 18/5/1 14/5/1 17/5/1
f 19/2/1 16/2/1 15/2/1
f 20/4/1 17/4/1 16/4/1
f 20/2/1 16/2/1 19/2/1
f 20/4/1 18/4/1 17/4/1
f 21/4/1 15/4/1 9/4/1
f 22/4/1 15/4/1 21/4/1
f 23/2/1 19/2/1 15/2/1
f 23/5/1 20/5/1 19/5/1
f 24/4/1 18/4/1 20/4/1
f 24/5/1 20/5/1 23/5/1
f 25/5/1 22/5/1 21/5/1
f 26/4/1 15/4/1 22/4/1
f 26/5/1 22/5/1 25/5/1
f 27/4/1 26/4/1 25/4/1
f 28/2/1 23/2/1 15/2/1
f 28/4/1 26/4/1 27/4/1
f 28/2/1 24/2/1 23/2/1
f 28/4/1 15/4/1 26/4/1
f 29/2/1 24/2/1 28/2/1
f 30/4/1 18/4/1 24/4/1
f 30/2/1 24/2/1 29/2/1
f 31/4/1 18/4/1 30/4/1
f 32/2/1 29/2/1 28/2/1
f 33/2/1 29/2/1 32/2/1
f 34/5/1 30/5/1 29/5/1
f 34/2/1 29/2/1 33/2/1
f 35/5/1 30/5/1 34/5/1
f 36/5/1 33/5/1 32/5/1
f 37/2/1 34/2/1 33/2/1
f 37/5/1 33/5/1 36/5/1
f 37/2/1 35/2/1 34/2/1
f 38/2/1 37/2/1 36/2/1
f 38/2/1 35/2/1 37/2/1
f 39/2/1 35/2/1 38/2/1
f 40/2/1 38/2/1 36/2/1
f 40/5/1 39/5/1 38/5/1
f 41/5/1 39/5/1 40/5/1
f 42/2/1 40/2/1 36/2/1
f 42/2/1 41/2/1 40/2/1
f 43/2/1 41/2/1 42/2/1
f 50/4/1 46/4/1 45/4/1
f 51/4/1 48/4/1 47/4/1
f 52/2/1 45/2/1 44/2/1
f 53/4/1 50/4/1 45/4/1
f 53/2/1 45/2/1 52/2/1
f 54/4/1 50/4/1 53/4/1
f 57/4/1 48/4/1 51/4/1
f 58/2/1 49/2/1 48/2/1
f 58/4/1 48/4/1 57/4/1
f 59/2/1 49/2/1 58/2/1
f 60/6/1 55/6/1 54/6/1
f 61/6/1 55/6/1 60/6/1
f 62/6/1 57/6/1 56/6/1
f 63/6/1 57/6/1 62/6/1
f 66/3/1 65/3/1 64/3/1
f 67/3/1 65/3/1 66/3/1
f 70/3/1 69/3/1 68/3/1
f 71/3/1 69/3/1 70/3/1
f 76/6/1 73/6/1 72/6/1
f 77/6/1 73/6/1 76/6/1
f 78/6/1 75/6/1 74/6/1
f 79/6/1 75/6/1 78/6/1
f 80/4/1 77/4/1 76/4/1
f 81/4/1 77/4/1 80/4/1
f 82/4/1 79/4/1 78/4/1
f 83/4/1 79/4/1 82/4/1
f 87/4/1 85/4/1 84/4/1
f 87/4/1 86/4/1 85/4/1
f 88/4/1 86/4/1 87/4/1
f 89/4/1 86/4/1 88/4/1
f 90/3/1 89/3/1 88/3/1
f 91/4/1 86/4/1 89/4/1
f 91/3/1 89/3/1 90/3/1
f 92/4/1 86/4/1 91/4/1
f 93/4/1 86/4/1 92/4/1
f 97/6/1 95/6/1 94/6/1
f 98/6/1 95/6/1 97/6/1
f 100/6/1 97/6/1 96/6/1
f 100/6/1 99/6/1 98/6/1
f 100/6/1 98/6/1 97/6/1
f 101/6/1 99/6/1 100/6/1
f 102/6/1 100/6/1 96/6/1
f 103/4/1 101/4/1 100/4/1
f 103/6/1 100/6/1 102/6/1
f 104/6/1 99/6/1 101/6/1
f 104/4/1 101/4/1 103/4/1
f 105/6/1 99/6/1 104/6/1
f 106/6/2 107/6/2 110/6/2
f 110/6/2 107/6/2 111/6/2
f 108/6/2 109/6/2 112/6/2
f 112/6/2 109/6/2 113/6/2
f 110/4/2 111/4/2 114/4/2
f 114/4/2 111/4/2 115/4/2
f 112/4/2 113/4/2 116/4/2
f 116/4/2 113/4/2 117/4/2
f 118/6/2 119/6/2 122/6/2
f 122/6/2 119/6/2 123/6/2
f 120/6/2 121/6/2 124/6/2
f 124/6/2 121/6/2 125/6/2
f 126/3/2 127/3/2 128/3/2
f 128/3/2 127/3/2 129/3/2
f 130/4/2 131/4/2 132/4/2
f 132/4/2 131/4/2 133/4/2
f 130/4/2 132/4/2 134/4/2
f 132/5/2 133/5/2 134/5/2
f 134/5/2 133/5/2 135/5/2
f 130/4/2 134/4/2 136/4/2
f 134/4/2 135/4/2 136/4/2
f 136/4/2 135/4/2 137/4/2
f 136/5/2 137/5/2 138/5/2
f 137/4/2 135/4/2 139/4/2
f 138/5/2 137/5/2 139/5/2
f 138/4/2 139/4/2 140/4/2
f 139/4/2 135/4/2 140/4/2
f 140/4/2 135/4/2 141/4/2
f 138/4/2 140/4/2 142/4/2
f 140/5/2 141/5/2 142/5/2
f 142/5/2 141/5/2 143/5/2
f 138/4/2 142/4/2 146/4/2
f 142/4/2 143/4/2 146/4/2
f 146/4/2 143/4/2 147/4/2
f 144/2/2 145/2/2 150/2/2
f 146/4/2 147/4/2 151/4/2
f 150/2/2 145/2/2 151/2/2
f 145/4/2 146/4/2 151/4/2
f 147/4/2 148/4/2 151/4/2
f 148/2/2 149/2/2 152/2/2
f 151/4/2 148/4/2 152/4/2
f 152/2/2 149/2/2 153/2/2
f 154/3/2 155/3/2 156/3/2
f 156/3/2 155/3/2 157/3/2
f 157/3/2 155/3/2 158/3/2
f 158/3/2 155/3/2 159/3/2
f 160/6/2 161/6/2 164/6/2
f 164/6/2 161/6/2 165/6/2
f 162/6/2 163/6/2 166/6/2
f 166/6/2 163/6/2 167/6/2
f 164/4/2 165/4/2 168/4/2
f 166/4/2 167/4/2 169/4/2
f 164/4/2 168/4/2 170/4/2
f 168/2/2 169/2/2 170/2/2
f 169/4/2 167/4/2 171/4/2
f 170/2/2 169/2/2 171/2/2
f 171/4/2 167/4/2 172/4/2
f 172/4/2 167/4/2 173/4/2
f 170/4/2 171/4/2 174/4/2
f 171/4/2 172/4/2 174/4/2
f 174/4/2 172/4/2 175/4/2
f 172/6/2 173/6/2 176/6/2
f 175/4/2 172/4/2 176/4/2
f 176/6/2 173/6/2 177/6/2
f 164/4/2 170/4/2 178/4/2
f 170/4/2 174/4/2 178/4/2
f 178/4/2 174/4/2 179/4/2
f 164/4/2 178/4/2 180/4/2
f 178/5/2 179/5/2 181/5/2
f 180/4/2 178/4/2 181/4/2
f 181/5/2 179/5/2 182/5/2
f 176/4/2 177/4/2 183/4/2
f 175/4/2 176/4/2 183/4/2
f 183/4/2 177/4/2 184/4/2
f 185/4/2 186/4/2 187/4/2
f 187/4/2 186/4/2 188/4/2
f 185/4/2 187/4/2 189/4/2
f 189/4/2 187/4/2 190/4/2
f 191/4/2 192/4/2 193/4/2
f 193/4/2 192/4/2 194/4/2
f 195/6/2 196/6/2 197/6/2
f 197/6/2 196/6/2 198/6/2
f 199/6/2 200/6/2 203/6/2
f 203/6/2 200/6/2 204/6/2
f 201/6/2 202/6/2 205/6/2
f 205/6/2 202/6/2 206/6/2
f 204/4/2 205/4/2 207/4/2
f 207/4/2 205/4/2 208/4/2
f 209/6/2 210/6/2 211/6/2
f 211/6/2 210/6/2 212/6/2
f 215/2/3 214/2/3 213/2/3
f 216/2/3 214/2/3 215/2/3
f 222/6/3 218/6/3 217/6/3
f 223/4/3 219/4/3 218/4/3
f 223/6/3 218/6/3 222/6/3
f 224/4/3 219/4/3 223/4/3
f 225/4/3 219/4/3 224/4/3
f 226/5/3 220/5/3 219/5/3
f 226/4/3 219/4/3 225/4/3
f 227/4/3 221/4/3 220/4/3
f 227/5/3 220/5/3 226/5/3
f 228/2/3 225/2/3 224/2/3
f 229/4/3 226/4/3 225/4/3
f 229/2/3 225/2/3 228/2/3
f 229/4/3 227/4/3 226/4/3
f 230/4/3 227/4/3 229/4/3
f 231/5/3 229/5/3 228/5/3
f 231/5/3 230/5/3 229/5/3
f 232/5/3 230/5/3 231/5/3
f 233/4/3 227/4/3 230/4/3
f 233/5/3 230/5/3 232/5/3
f 234/4/3 233/4/3 232/4/3
f 234/4/3 227/4/3 233/4/3
f 235/4/3 221/4/3 227/4/3
f 235/4/3 227/4/3 234/4/3
f 238/2/3 232/2/3 231/2/3
f 239/4/3 234/4/3 232/4/3
f 239/2/3 232/2/3 238/2/3
f 240/5/3 235/5/3 234/5/3
f 240/4/3 234/4/3 239/4/3
f 241/4/3 221/4/3 235/4/3
f 241/5/3 235/5/3 240/5/3
f 242/6/3 237/6/3 236/6/3
f 243/4/3 238/4/3 237/4/3
f 243/6/3 237/6/3 242/6/3
f 243/4/3 239/4/3 238/4/3
f 243/4/3 241/4/3 240/4/3
f 243/4/3 240/4/3 239/4/3
f 244/4/3 221/4/3 241/4/3
f 244/4/3 241/4/3 243/4/3
f 250/2/3 246/2/3 245/2/3
f 251/2/3 246/2/3 250/2/3
f 252/2/3 246/2/3 251/2/3
f 253/2/3 246/2/3 252/2/3
f 254/2/3 248/2/3 247/2/3
f 255/5/3 249/5/3 248/5/3
f 255/2/3 248/2/3 254/2/3
f 256/2/3 250/2/3 249/2/3
f 256/5/3 249/5/3 255/5/3
f 256/2/3 251/2/3 250/2/3
f 257/2/3 251/2/3 256/2/3
f 258/7/3 252/7/3 251/7/3
f 258/2/3 251/2/3 257/2/3
f 259/7/3 252/7/3 258/7/3
f 260/4/3 253/4/3 252/4/3
f 260/7/3 252/7/3 259/7/3
f 261/4/3 255/4/3 254/4/3
f 261/5/3 256/5/3 255/5/3
f 262/4/3 257/4/3 256/4/3
f 262/5/3 256/5/3 261/5/3
f 263/7/3 259/7/3 258/7/3
f 263/5/3 258/5/3 257/5/3
f 264/1/3 260/1/3 259/1/3
f 264/7/3 259/7/3 263/7/3
f 265/4/3 253/4/3 260/4/3
f 265/1/3 260/1/3 264/1/3
f 266/4/3 253/4/3 265/4/3
f 268/4/3 257/4/3 262/4/3
f 268/4/3 262/4/3 261/4/3
f 269/4/3 257/4/3 268/4/3
f 270/5/3 263/5/3 257/5/3
f 270/4/3 257/4/3 269/4/3
f 271/4/3 264/4/3 263/4/3
f 271/5/3 263/5/3 270/5/3
f 272/6/3 267/6/3 266/6/3
f 273/6/3 267/6/3 272/6/3
f 274/4/3 261/4/3 254/4/3
f 274/4/3 268/4/3 261/4/3
f 275/5/3 269/5/3 268/5/3
f 275/4/3 268/4/3 274/4/3
f 276/4/3 270/4/3 269/4/3
f 276/5/3 269/5/3 275/5/3
f 276/4/3 271/4/3 270/4/3
f 277/4/3 264/4/3 271/4/3
f 277/4/3 271/4/3 276/4/3
f 280/3/3 279/3/3 278/3/3
f 281/3/3 279/3/3 280/3/3
f 285/4/3 283/4/3 282/4/3
f 285/4/3 284/4/3 283/4/3
f 286/4/3 284/4/3 285/4/3
f 289/4/3 284/4/3 286/4/3
f 290/4/3 284/4/3 289/4/3
f 291/6/3 288/6/3 287/6/3
f 292/6/3 288/6/3 291/6/3
f 297/4/3 294/4/3 293/4/3
f 298/4/3 294/4/3 297/4/3
f 300/6/3 296/6/3 295/6/3
f 301/6/3 296/6/3 300/6/3
f 302/6/3 296/6/3 301/6/3
f 303/4/3 299/4/3 298/4/3
f 303/4/3 298/4/3 297/4/3
f 304/4/3 299/4/3 303/4/3
f 305/6/3 302/6/3 301/6/3
f 305/6/3 303/6/3 302/6/3
f 306/6/3 303/6/3 305/6/3
f 309/6/3 308/6/3 307/6/3
f 310/6/3 308/6/3 309/6/3
f 314/6/3 312/6/3 311/6/3
f 315/4/3 313/4/3 312/4/3
f 315/6/3 312/6/3 314/6/3
f 316/4/3 313/4/3 315/4/3
f 319/3/3 318/3/3 317/3/3
f 320/3/3 318/3/3 319/3/3
f 324/6/3 322/6/3 321/6/3
f 325/4/3 323/4/3 322/4/3
f 325/6/3 322/6/3 324/6/3
f 326/4/3 323/4/3 325/4/3
f 329/4/3 328/4/3 327/4/3
f 330/4/3 329/4/3 327/4/3
f 331/4/3 329/4/3 330/4/3
f 332/4/3 329/4/3 331/4/3
f 333/6/4 334/6/4 336/6/4
f 334/4/4 335/4/4 337/4/4
f 336/6/4 334/6/4 337/6/4
f 337/4/4 335/4/4 338/4/4
f 339/3/4 340/3/4 341/3/4
f 341/3/4 340/3/4 342/3/4
f 339/3/4 341/3/4 346/3/4
f 346/3/4 341/3/4 347/3/4
f 343/6/4 344/6/4 348/6/4
f 344/4/4 345/4/4 349/4/4
f 348/6/4 344/6/4 349/6/4
f 349/4/4 345/4/4 350/4/4
f 351/6/4 352/6/4 353/6/4
f 353/6/4 352/6/4 354/6/4
f 355/3/4 356/3/4 358/3/4
f 358/3/4 356/3/4 359/3/4
f 357/3/4 358/3/4 359/3/4
f 357/3/4 359/3/4 360/3/4
f 360/3/4 359/3/4 361/3/4
f 362/4/4 363/4/4 364/4/4
f 364/4/4 363/4/4 365/4/4
f 365/4/4 363/4/4 368/4/4
f 366/6/4 367/6/4 369/6/4
f 369/6/4 367/6/4 370/6/4
f 370/6/4 367/6/4 371/6/4
f 368/4/4 363/4/4 372/4/4
f 372/4/4 363/4/4 373/4/4
f 370/6/4 371/6/4 374/6/4
f 371/6/4 372/6/4 374/6/4
f 374/6/4 372/6/4 375/6/4
f 376/2/4 377/2/4 382/2/4
f 382/2/4 377/2/4 383/2/4
f 383/2/4 377/2/4 384/2/4
f 384/2/4 377/2/4 385/2/4
f 378/5/4 379/5/4 386/5/4
f 379/2/4 380/2/4 387/2/4
f 386/5/4 379/5/4 387/5/4
f 380/5/4 381/5/4 388/5/4
f 387/2/4 380/2/4 388/2/4
f 381/2/4 382/2/4 389/2/4
f 388/5/4 381/5/4 389/5/4
f 382/2/4 383/2/4 389/2/4
f 383/7/4 384/7/4 390/7/4
f 389/2/4 383/2/4 390/2/4
f 390/7/4 384/7/4 391/7/4
f 384/4/4 385/4/4 392/4/4
f 391/7/4 384/7/4 392/7/4
f 386/4/4 387/4/4 393/4/4
f 387/4/4 388/4/4 393/4/4
f 390/7/4 391/7/4 393/7/4
f 389/4/4 390/4/4 393/4/4
f 388/4/4 389/4/4 393/4/4
f 391/1/4 392/1/4 394/1/4
f 393/7/4 391/7/4 394/7/4
f 392/4/4 385/4/4 395/4/4
f 394/1/4 392/1/4 395/1/4
f 395/4/4 385/4/4 396/4/4
f 393/4/4 394/4/4 398/4/4
f 386/4/4 393/4/4 398/4/4
f 398/4/4 394/4/4 399/4/4
f 399/4/4 394/4/4 400/4/4
f 400/4/4 394/4/4 401/4/4
f 396/6/4 397/6/4 402/6/4
f 402/6/4 397/6/4 403/6/4
f 386/4/4 398/4/4 404/4/4
f 398/5/4 399/5/4 405/5/4
f 404/4/4 398/4/4 405/4/4
f 399/4/4 400/4/4 406/4/4
f 405/5/4 399/5/4 406/5/4
f 400/5/4 401/5/4 407/5/4
f 406/4/4 400/4/4 407/4/4
f 401/4/4 394/4/4 408/4/4
f 407/5/4 401/5/4 408/5/4
f 408/4/4 394/4/4 409/4/4
f 410/6/4 411/6/4 412/6/4
f 412/6/4 411/6/4 413/6/4
f 415/4/4 416/4/4 419/4/4
f 416/5/4 417/5/4 419/5/4
f 417/4/4 418/4/4 420/4/4
f 419/5/4 417/5/4 420/5/4
f 414/6/4 415/6/4 421/6/4
f 415/4/4 419/4/4 422/4/4
f 421/6/4 415/6/4 422/6/4
f 419/4/4 420/4/4 422/4/4
f 420/4/4 418/4/4 423/4/4
f 422/4/4 420/4/4 423/4/4
f 423/4/4 418/4/4 424/4/4
f 424/4/4 418/4/4 425/4/4
f 425/4/4 418/4/4 426/4/4
f 424/4/4 425/4/4 427/4/4
f 425/6/4 426/6/4 427/6/4
f 426/4/4 418/4/4 428/4/4
f 427/6/4 426/6/4 428/6/4
f 427/4/4 428/4/4 429/4/4
f 428/4/4 418/4/4 429/4/4
f 429/4/4 418/4/4 430/4/4
f 423/2/4 424/2/4 433/2/4
f 424/4/4 427/4/4 434/4/4
f 427/4/4 429/4/4 434/4/4
f 433/2/4 424/2/4 434/2/4
f 432/4/4 433/4/4 435/4/4
f 434/4/4 429/4/4 435/4/4
f 433/4/4 434/4/4 435/4/4
f 435/4/4 429/4/4 436/4/4
f 429/5/4 430/5/4 437/5/4
f 436/4/4 429/4/4 437/4/4
f 437/5/4 430/5/4 438/5/4
f 431/6/4 432/6/4 439/6/4
f 432/4/4 435/4/4 440/4/4
f 439/6/4 432/6/4 440/6/4
f 435/6/4 436/6/4 441/6/4
f 440/4/4 435/4/4 441/4/4
f 436/4/4 437/4/4 442/4/4
f 441/6/4 436/6/4 442/6/4
f 437/4/4 438/4/4 442/4/4
f 442/4/4 438/4/4 443/4/4
f 444/2/4 445/2/4 446/2/4
f 446/2/4 445/2/4 447/2/4
f 452/6/5 449/6/5 448/6/5
f 453/6/5 449/6/5 452/6/5
f 454/6/5 451/6/5 450/6/5
f 455/6/5 451/6/5 454/6/5
f 460/6/5 457/6/5 456/6/5
f 461/6/5 457/6/5 460/6/5
f 462/6/5 459/6/5 458/6/5
f 463/6/5 459/6/5 462/6/5
f 466/6/5 465/6/5 464/6/5
f 467/6/5 465/6/5 466/6/5
f 472/2/5 469/2/5 468/2/5
f 472/5/5 470/5/5 469/5/5
f 473/2/5 471/2/5 470/2/5
f 473/5/5 470/5/5 472/5/5
f 475/2/5 472/2/5 468/2/5
f 475/2/5 473/2/5 472/2/5
f 476/2/5 471/2/5 473/2/5
f 476/2/5 473/2/5 475/2/5
f 480/6/5 479/6/5 478/6/5
f 481/6/5 479/6/5 480/6/5
f 482/2/5 475/2/5 474/2/5
f 482/2/5 476/2/5 475/2/5
f 482/2/5 477/2/5 476/2/5
f 483/2/5 477/2/5 482/2/5
f 484/2/5 477/2/5 483/2/5
f 485/2/5 477/2/5 484/2/5
f 486/2/5 484/2/5 483/2/5
f 487/2/5 484/2/5 486/2/5
f 490/6/5 489/6/5 488/6/5
f 491/6/5 489/6/5 490/6/5
f 494/6/5 493/6/5 492/6/5
f 495/6/5 493/6/5 494/6/5
f 498/3/5 497/3/5 496/3/5
f 499/3/5 497/3/5 498/3/5
f 502/4/5 501/4/5 500/4/5
f 503/4/5 501/4/5 502/4/5
f 506/3/5 505/3/5 504/3/5
f 507/3/5 505/3/5 506/3/5
f 508/3/5 505/3/5 507/3/5
f 511/4/5 510/4/5 509/4/5
f 512/4/5 510/4/5 511/4/5
f 513/3/5 506/3/5 504/3/5
f 514/3/5 506/3/5 513/3/5
f 520/5/5 516/5/5 515/5/5
f 521/4/5 517/4/5 516/4/5
f 521/5/5 516/5/5 520/5/5
f 522/4/5 519/4/5 518/4/5
f 523/4/5 519/4/5 522/4/5
f 524/4/5 517/4/5 521/4/5
f 524/4/5 521/4/5 520/4/5
f 525/4/5 524/4/5 520/4/5
f 526/4/5 524/4/5 525/4/5
f 527/4/5 525/4/5 520/4/5
f 528/5/5 526/5/5 525/5/5
f 528/4/5 525/4/5 527/4/5
f 529/5/5 526/5/5 528/5/5
f 532/2/5 531/2/5 530/2/5
f 533/2/5 531/2/5 532/2/5
f 536/2/5 535/2/5 534/2/5
f 537/2/5 535/2/5 536/2/5
f 538/4/5 537/4/5 536/4/5
f 539/4/5 537/4/5 538/4/5
f 542/4/5 541/4/5 540/4/5
f 543/4/5 541/4/5 542/4/5
f 544/2/5 543/2/5 542/2/5
f 545/2/5 543/2/5 544/2/5
f 546/2/6 547/2/6 548/2/6
f 548/2/6 547/2/6 549/2/6
f 546/2/6 548/2/6 550/2/6
f 550/2/6 548/2/6 551/2/6
f 549/2/6 547/2/6 552/2/6
f 552/2/6 547/2/6 553/2/6
f 549/2/6 552/2/6 554/2/6
f 552/3/6 553/3/6 555/3/6
f 554/2/6 552/2/6 555/2/6
f 555/3/6 553/3/6 556/3/6
f 557/6/6 558/6/6 559/6/6
f 559/6/6 558/6/6 560/6/6
f 560/6/6 561/6/6 563/6/6
f 563/6/6 561/6/6 564/6/6
f 562/6/6 563/6/6 565/6/6
f 565/6/6 563/6/6 566/6/6
f 567/4/6 568/4/6 569/4/6
f 569/4/6 568/4/6 570/4/6
f 570/4/6 568/4/6 571/4/6
f 571/4/6 568/4/6 572/4/6
f 567/4/6 569/4/6 573/4/6
f 573/4/6 569/4/6 574/4/6
f 574/4/6 569/4/6 575/4/6
f 570/4/6 571/4/6 576/4/6
f 571/5/6 572/5/6 576/5/6
f 576/5/6 572/5/6 577/5/6
f 569/5/6 570/5/6 579/5/6
f 575/4/6 569/4/6 579/4/6
f 576/4/6 577/4/6 580/4/6
f 579/5/6 570/5/6 580/5/6
f 577/4/6 578/4/6 580/4/6
f 570/4/6 576/4/6 580/4/6
f 580/4/6 578/4/6 581/4/6
f 579/4/6 580/4/6 583/4/6
f 581/4/6 582/4/6 583/4/6
f 580/4/6 581/4/6 583/4/6
f 583/4/6 582/4/6 584/4/6
f 575/4/6 579/4/6 587/4/6
f 579/4/6 583/4/6 587/4/6
f 587/4/6 583/4/6 588/4/6
f 588/4/6 583/4/6 589/4/6
f 585/4/6 586/4/6 590/4/6
f 586/4/6 587/4/6 590/4/6
f 587/4/6 588/4/6 590/4/6
f 588/5/6 589/5/6 591/5/6
f 590/4/6 588/4/6 591/4/6
f 589/4/6 583/4/6 592/4/6
f 591/5/6 589/5/6 592/5/6
f 592/4/6 583/4/6 593/4/6
f 594/2/6 595/2/6 596/2/6
f 596/2/6 595/2/6 597/2/6
f 596/4/6 597/4/6 600/4/6
f 600/4/6 597/4/6 601/4/6
f 598/2/6 599/2/6 602/2/6
f 599/4/6 600/4/6 602/4/6
f 602/4/6 600/4/6 603/4/6
f 601/4/6 597/4/6 604/4/6
f 602/2/6 603/2/6 605/2/6
f 598/2/6 602/2/6 605/2/6
f 603/4/6 604/4/6 606/4/6
f 605/2/6 603/2/6 606/2/6
f 604/4/6 597/4/6 607/4/6
f 606/4/6 604/4/6 607/4/6
f 598/2/6 605/2/6 608/2/6
f 605/4/6 606/4/6 609/4/6
f 608/2/6 605/2/6 609/2/6
f 609/4/6 606/4/6 610/4/6
f 607/4/6 597/4/6 611/4/6
f 610/4/6 611/4/6 612/4/6
f 611/4/6 597/4/6 613/4/6
f 612/4/6 611/4/6 613/4/6
f 612/2/6 613/2/6 614/2/6
f 614/2/6 613/2/6 615/2/6
f 616/6/6 617/6/6 618/6/6
f 618/6/6 617/6/6 619/6/6
f 620/6/6 621/6/6 622/6/6
f 622/6/6 621/6/6 623/6/6
