# MagicaVoxel @ Ephtracy

# group
g house

# material
mtllib house.mtl
usemtl palette

# normals
vn -1 0 0
vn 1 0 0
vn 0 0 1
vn 0 0 -1
vn 0 -1 0
vn 0 1 0

# texcoords
vt 0.0449219 0.5
vt 0.373047 0.5
vt 0.712891 0.5
vt 0.767578 0.5
vt 0.771484 0.5
vt 0.833984 0.5
vt 0.861328 0.5
vt 0.888672 0.5
vt 0.916016 0.5
vt 0.958984 0.5
vt 0.974609 0.5
vt 0.978516 0.5
vt 0.994141 0.5

# verts
v -10 0 10
v -10 0 9
v -10 0 8
v -10 0 6
v -10 0 5
v -10 0 4
v -10 0 -3
v -10 0 -7
v -10 0 -9
v -10 1 9
v -10 1 8
v -10 1 7
v -10 1 6
v -10 1 5
v -10 1 -7
v -10 1 -8
v -10 2 7
v -10 2 6
v -10 2 -8
v -10 2 -9
v -10 3 -8
v -10 3 -9
v -10 4 -8
v -10 4 -9
v -10 10 5
v -10 10 4
v -10 10 -3
v -10 10 -4
v -10 11 5
v -10 11 4
v -10 11 -3
v -10 11 -4
v -10 12 12
v -10 12 10
v -10 12 9
v -10 12 4
v -10 12 -3
v -10 12 -8
v -10 12 -9
v -10 12 -11
v -10 13 9
v -10 13 8
v -10 13 -7
v -10 13 -8
v -10 14 8
v -10 14 7
v -10 14 2
v -10 14 -1
v -10 14 -6
v -10 14 -7
v -10 15 7
v -10 15 6
v -10 15 -5
v -10 15 -6
v -10 16 12
v -10 16 8
v -10 16 6
v -10 16 5
v -10 16 -4
v -10 16 -5
v -10 16 -7
v -10 16 -11
v -10 17 8
v -10 17 7
v -10 17 5
v -10 17 4
v -10 17 2
v -10 17 -1
v -10 17 -3
v -10 17 -4
v -10 17 -6
v -10 17 -7
v -10 18 7
v -10 18 6
v -10 18 4
v -10 18 3
v -10 18 -2
v -10 18 -3
v -10 18 -5
v -10 18 -6
v -10 19 6
v -10 19 5
v -10 19 3
v -10 19 2
v -10 19 -1
v -10 19 -2
v -10 19 -4
v -10 19 -5
v -10 20 5
v -10 20 4
v -10 20 2
v -10 20 -1
v -10 20 -3
v -10 20 -4
v -10 21 4
v -10 21 3
v -10 21 -2
v -10 21 -3
v -10 22 3
v -10 22 2
v -10 22 -1
v -10 22 -2
v -10 24 2
v -10 24 -1
v -2 21 -5
v -2 21 -6
v -2 21 -10
v -2 22 -5
v -2 22 -6
v -2 23 -5
v -2 23 -10
v -1 16 -7
v -1 16 -9
v -1 17 -6
v -1 17 -7
v -1 17 -8
v -1 17 -9
v -1 18 -6
v -1 18 -8
v -1 18 -9
v -1 21 -6
v -1 21 -9
v 1 18 -7
v 1 18 -8
v 1 19 -8
v 1 21 -7
v 1 21 -8
v 1 22 -7
v 1 22 -8
v 1 23 -7
v 1 23 -8
v 0 18 -7
v 0 18 -8
v 0 19 -8
v 0 21 -7
v 0 21 -8
v 0 22 -7
v 0 22 -8
v 0 23 -7
v 0 23 -8
v 2 16 -7
v 2 16 -9
v 2 17 -6
v 2 17 -7
v 2 18 -6
v 2 21 -6
v 2 21 -9
v 3 21 -5
v 3 21 -10
v 3 22 -9
v 3 22 -10
v 3 23 -5
v 3 23 -9
v 3 23 -10
v 9 0 10
v 9 0 9
v 9 0 -8
v 9 0 -9
v 9 11 9
v 9 11 -8
v 9 12 12
v 9 12 10
v 9 12 9
v 9 12 -8
v 9 12 -9
v 9 12 -11
v 9 13 9
v 9 13 8
v 9 13 -7
v 9 13 -8
v 9 14 8
v 9 14 7
v 9 14 -6
v 9 14 -7
v 9 15 7
v 9 15 6
v 9 15 -5
v 9 15 -6
v 9 16 12
v 9 16 8
v 9 16 6
v 9 16 5
v 9 16 -4
v 9 16 -5
v 9 16 -7
v 9 16 -11
v 9 17 8
v 9 17 7
v 9 17 5
v 9 17 4
v 9 17 -3
v 9 17 -4
v 9 17 -6
v 9 17 -7
v 9 18 7
v 9 18 6
v 9 18 4
v 9 18 3
v 9 18 -2
v 9 18 -3
v 9 18 -5
v 9 18 -6
v 9 19 6
v 9 19 5
v 9 19 3
v 9 19 2
v 9 19 -1
v 9 19 -2
v 9 19 -4
v 9 19 -5
v 9 20 5
v 9 20 4
v 9 20 2
v 9 20 -1
v 9 20 -3
v 9 20 -4
v 9 21 4
v 9 21 3
v 9 21 -2
v 9 21 -3
v 9 22 3
v 9 22 2
v 9 22 -1
v 9 22 -2
v 9 24 2
v 9 24 -1
v -10 12 12
v -10 16 12
v 9 12 12
v 9 16 12
v -10 0 10
v -10 12 10
v -8 1 10
v -8 2 10
v -7 1 10
v -7 2 10
v -5 0 10
v -5 1 10
v -4 0 10
v -4 1 10
v -1 12 10
v 8 12 10
v 9 0 10
v 9 12 10
v -10 16 8
v -10 17 8
v 9 16 8
v 9 17 8
v -10 17 7
v -10 18 7
v 9 17 7
v 9 18 7
v -10 18 6
v -10 19 6
v 9 18 6
v 9 19 6
v -10 19 5
v -10 20 5
v 9 19 5
v 9 20 5
v -10 20 4
v -10 21 4
v 9 20 4
v 9 21 4
v -10 21 3
v -10 22 3
v 9 21 3
v 9 22 3
v -10 22 2
v -10 24 2
v 9 22 2
v 9 24 2
v -2 21 -5
v -2 22 -5
v -2 23 -5
v -1 21 -5
v -1 22 -5
v 1 22 -5
v 1 23 -5
v 2 22 -5
v 2 23 -5
v 3 21 -5
v 3 23 -5
v -1 18 -6
v -1 21 -6
v 2 18 -6
v 2 21 -6
v 0 18 -8
v 0 19 -8
v 0 21 -8
v 0 22 -8
v 0 23 -8
v 1 18 -8
v 1 19 -8
v 1 21 -8
v 1 22 -8
v 1 23 -8
v -10 22 -1
v -10 24 -1
v 9 22 -1
v 9 24 -1
v -10 21 -2
v -10 22 -2
v 9 21 -2
v 9 22 -2
v -10 20 -3
v -10 21 -3
v 9 20 -3
v 9 21 -3
v -10 19 -4
v -10 20 -4
v 9 19 -4
v 9 20 -4
v -10 18 -5
v -10 19 -5
v 9 18 -5
v 9 19 -5
v -10 17 -6
v -10 18 -6
v -1 17 -6
v -1 18 -6
v 2 17 -6
v 2 18 -6
v 9 17 -6
v 9 18 -6
v -10 16 -7
v -10 17 -7
v -1 16 -7
v -1 17 -7
v 0 18 -7
v 0 21 -7
v 0 22 -7
v 0 23 -7
v 1 18 -7
v 1 21 -7
v 1 22 -7
v 1 23 -7
v 2 16 -7
v 2 17 -7
v 9 16 -7
v 9 17 -7
v -10 0 -9
v -10 2 -9
v -10 3 -9
v -10 4 -9
v -10 12 -9
v -9 0 -9
v -9 2 -9
v -9 3 -9
v -9 4 -9
v -5 2 -9
v -5 3 -9
v -4 2 -9
v -4 3 -9
v -1 16 -9
v -1 17 -9
v -1 18 -9
v -1 21 -9
v 0 17 -9
v 0 18 -9
v 0 19 -9
v 1 18 -9
v 1 19 -9
v 2 0 -9
v 2 1 -9
v 2 16 -9
v 2 21 -9
v 3 0 -9
v 3 1 -9
v 9 0 -9
v 9 12 -9
v -2 21 -10
v -2 23 -10
v 2 22 -10
v 2 23 -10
v 3 21 -10
v 3 22 -10
v 3 23 -10
v -10 12 -11
v -10 16 -11
v 9 12 -11
v 9 16 -11
v -10 0 10
v -5 0 10
v -4 0 10
v 9 0 10
v -10 0 9
v -9 0 9
v -5 0 9
v -4 0 9
v 9 0 9
v -10 0 8
v -9 0 8
v -10 0 6
v -9 0 6
v -10 0 5
v -9 0 5
v -10 0 4
v -9 0 4
v -10 0 -3
v -9 0 -3
v -10 0 -7
v -9 0 -7
v -9 0 -8
v 2 0 -8
v 3 0 -8
v 9 0 -8
v -10 0 -9
v -9 0 -9
v 2 0 -9
v 3 0 -9
v 9 0 -9
v -10 12 12
v 9 12 12
v -1 12 11
v 8 12 11
v -10 12 10
v -1 12 10
v 8 12 10
v 9 12 10
v -10 12 -9
v 9 12 -9
v -10 12 -11
v 9 12 -11
v -2 21 -5
v -1 21 -5
v 3 21 -5
v -2 21 -6
v -1 21 -6
v 2 21 -6
v 0 21 -7
v 1 21 -7
v 0 21 -8
v 1 21 -8
v -1 21 -9
v 2 21 -9
v -2 21 -10
v 3 21 -10
v -10 16 12
v 9 16 12
v -10 16 8
v 9 16 8
v -10 16 -7
v -1 16 -7
v 2 16 -7
v 9 16 -7
v -1 16 -9
v 2 16 -9
v -10 16 -11
v 9 16 -11
v -10 17 8
v 9 17 8
v -10 17 7
v 9 17 7
v -10 17 -6
v -1 17 -6
v 2 17 -6
v 9 17 -6
v -10 17 -7
v -1 17 -7
v 2 17 -7
v 9 17 -7
v -10 18 7
v 9 18 7
v -10 18 6
v 9 18 6
v -10 18 -5
v 9 18 -5
v -10 18 -6
v -1 18 -6
v 2 18 -6
v 9 18 -6
v 0 18 -7
v 1 18 -7
v 0 18 -8
v 1 18 -8
v -10 19 6
v 9 19 6
v -10 19 5
v 9 19 5
v -10 19 -4
v 9 19 -4
v -10 19 -5
v 9 19 -5
v -10 20 5
v 9 20 5
v -10 20 4
v 9 20 4
v -10 20 -3
v 9 20 -3
v -10 20 -4
v 9 20 -4
v -10 21 4
v 9 21 4
v -10 21 3
v 9 21 3
v -10 21 -2
v 9 21 -2
v -10 21 -3
v 9 21 -3
v -10 22 3
v 9 22 3
v -10 22 2
v 9 22 2
v -10 22 -1
v 9 22 -1
v -10 22 -2
v 9 22 -2
v 0 22 -7
v 1 22 -7
v 0 22 -8
v 1 22 -8
v -2 23 -5
v 1 23 -5
v 2 23 -5
v 3 23 -5
v -1 23 -6
v 1 23 -6
v 2 23 -6
v 0 23 -7
v 1 23 -7
v 0 23 -8
v 1 23 -8
v -1 23 -9
v 2 23 -9
v 3 23 -9
v -2 23 -10
v 2 23 -10
v 3 23 -10
v -10 24 2
v 9 24 2
v -10 24 -1
v 9 24 -1

# faces
f 10/10/1 2/10/1 1/10/1
f 10/3/1 3/3/1 2/3/1
f 11/10/1 4/10/1 3/10/1
f 11/3/1 3/3/1 10/3/1
f 12/10/1 4/10/1 11/10/1
f 13/3/1 5/3/1 4/3/1
f 13/10/1 4/10/1 12/10/1
f 14/10/1 6/10/1 5/10/1
f 14/3/1 5/3/1 13/3/1
f 15/3/1 9/3/1 8/3/1
f 15/10/1 8/10/1 7/10/1
f 16/3/1 9/3/1 15/3/1
f 17/10/1 12/10/1 11/10/1
f 17/1/1 13/1/1 12/1/1
f 17/10/1 11/10/1 10/10/1
f 18/10/1 14/10/1 13/10/1
f 18/1/1 13/1/1 17/1/1
f 19/3/1 9/3/1 16/3/1
f 19/10/1 16/10/1 15/10/1
f 20/3/1 9/3/1 19/3/1
f 21/10/1 19/10/1 15/10/1
f 21/10/1 20/10/1 19/10/1
f 22/10/1 20/10/1 21/10/1
f 23/10/1 21/10/1 15/10/1
f 23/1/1 22/1/1 21/1/1
f 24/1/1 22/1/1 23/1/1
f 25/10/1 6/10/1 14/10/1
f 25/10/1 14/10/1 18/10/1
f 25/10/1 18/10/1 17/10/1
f 26/13/1 7/13/1 6/13/1
f 26/10/1 6/10/1 25/10/1
f 27/10/1 24/10/1 23/10/1
f 27/13/1 7/13/1 26/13/1
f 27/10/1 23/10/1 15/10/1
f 27/10/1 15/10/1 7/10/1
f 28/10/1 24/10/1 27/10/1
f 29/12/1 26/12/1 25/12/1
f 29/10/1 25/10/1 17/10/1
f 29/12/1 28/12/1 27/12/1
f 29/12/1 27/12/1 26/12/1
f 30/12/1 28/12/1 29/12/1
f 31/12/1 28/12/1 30/12/1
f 32/10/1 24/10/1 28/10/1
f 32/12/1 28/12/1 31/12/1
f 34/10/1 17/10/1 10/10/1
f 34/10/1 10/10/1 1/10/1
f 34/10/1 29/10/1 17/10/1
f 34/10/1 30/10/1 29/10/1
f 35/10/1 30/10/1 34/10/1
f 36/12/1 31/12/1 30/12/1
f 36/10/1 30/10/1 35/10/1
f 37/10/1 32/10/1 31/10/1
f 37/12/1 31/12/1 36/12/1
f 38/10/1 24/10/1 32/10/1
f 38/10/1 32/10/1 37/10/1
f 39/10/1 24/10/1 38/10/1
f 41/10/1 37/10/1 36/10/1
f 41/10/1 36/10/1 35/10/1
f 41/7/1 35/7/1 34/7/1
f 41/7/1 34/7/1 33/7/1
f 41/10/1 38/10/1 37/10/1
f 42/10/1 38/10/1 41/10/1
f 43/10/1 38/10/1 42/10/1
f 44/7/1 39/7/1 38/7/1
f 44/10/1 38/10/1 43/10/1
f 44/7/1 40/7/1 39/7/1
f 45/10/1 43/10/1 42/10/1
f 45/7/1 42/7/1 41/7/1
f 46/10/1 43/10/1 45/10/1
f 47/10/1 43/10/1 46/10/1
f 48/10/1 43/10/1 47/10/1
f 49/10/1 43/10/1 48/10/1
f 50/7/1 44/7/1 43/7/1
f 50/10/1 43/10/1 49/10/1
f 51/7/1 46/7/1 45/7/1
f 51/10/1 47/10/1 46/10/1
f 52/10/1 47/10/1 51/10/1
f 53/10/1 49/10/1 48/10/1
f 54/7/1 50/7/1 49/7/1
f 54/10/1 49/10/1 53/10/1
f 55/7/1 41/7/1 33/7/1
f 55/7/1 45/7/1 41/7/1
f 55/7/1 51/7/1 45/7/1
f 55/7/1 52/7/1 51/7/1
f 56/7/1 52/7/1 55/7/1
f 57/10/1 47/10/1 52/10/1
f 57/7/1 52/7/1 56/7/1
f 58/10/1 47/10/1 57/10/1
f 59/10/1 53/10/1 48/10/1
f 60/7/1 54/7/1 53/7/1
f 60/10/1 53/10/1 59/10/1
f 61/7/1 50/7/1 54/7/1
f 61/7/1 54/7/1 60/7/1
f 61/7/1 44/7/1 50/7/1
f 62/7/1 40/7/1 44/7/1
f 62/7/1 44/7/1 61/7/1
f 63/7/1 58/7/1 57/7/1
f 63/7/1 57/7/1 56/7/1
f 64/7/1 58/7/1 63/7/1
f 65/10/1 47/10/1 58/10/1
f 65/7/1 58/7/1 64/7/1
f 66/10/1 47/10/1 65/10/1
f 67/6/1 48/6/1 47/6/1
f 67/10/1 47/10/1 66/10/1
f 68/10/1 59/10/1 48/10/1
f 68/6/1 48/6/1 67/6/1
f 69/10/1 59/10/1 68/10/1
f 70/7/1 61/7/1 60/7/1
f 70/10/1 59/10/1 69/10/1
f 70/7/1 60/7/1 59/7/1
f 71/7/1 61/7/1 70/7/1
f 72/7/1 61/7/1 71/7/1
f 73/7/1 66/7/1 65/7/1
f 73/7/1 65/7/1 64/7/1
f 74/7/1 66/7/1 73/7/1
f 75/10/1 69/10/1 68/10/1
f 75/7/1 66/7/1 74/7/1
f 75/10/1 68/10/1 67/10/1
f 75/10/1 67/10/1 66/10/1
f 76/10/1 69/10/1 75/10/1
f 77/10/1 69/10/1 76/10/1
f 78/7/1 70/7/1 69/7/1
f 78/10/1 69/10/1 77/10/1
f 78/7/1 71/7/1 70/7/1
f 79/7/1 71/7/1 78/7/1
f 80/7/1 71/7/1 79/7/1
f 81/7/1 76/7/1 75/7/1
f 81/7/1 75/7/1 74/7/1
f 82/7/1 76/7/1 81/7/1
f 83/10/1 77/10/1 76/10/1
f 83/7/1 76/7/1 82/7/1
f 84/10/1 77/10/1 83/10/1
f 85/10/1 77/10/1 84/10/1
f 86/7/1 79/7/1 78/7/1
f 86/10/1 77/10/1 85/10/1
f 86/7/1 78/7/1 77/7/1
f 87/7/1 79/7/1 86/7/1
f 88/7/1 79/7/1 87/7/1
f 89/7/1 84/7/1 83/7/1
f 89/7/1 83/7/1 82/7/1
f 90/7/1 84/7/1 89/7/1
f 91/10/1 85/10/1 84/10/1
f 91/7/1 84/7/1 90/7/1
f 92/7/1 87/7/1 86/7/1
f 92/10/1 85/10/1 91/10/1
f 92/7/1 86/7/1 85/7/1
f 93/7/1 87/7/1 92/7/1
f 94/7/1 87/7/1 93/7/1
f 95/7/1 91/7/1 90/7/1
f 95/7/1 93/7/1 92/7/1
f 95/7/1 92/7/1 91/7/1
f 96/7/1 93/7/1 95/7/1
f 97/7/1 93/7/1 96/7/1
f 98/7/1 93/7/1 97/7/1
f 99/7/1 97/7/1 96/7/1
f 100/7/1 97/7/1 99/7/1
f 101/7/1 97/7/1 100/7/1
f 102/7/1 97/7/1 101/7/1
f 103/7/1 101/7/1 100/7/1
f 104/7/1 101/7/1 103/7/1
f 108/1/1 106/1/1 105/1/1
f 109/10/1 107/10/1 106/10/1
f 109/1/1 106/1/1 108/1/1
f 110/10/1 109/10/1 108/10/1
f 111/10/1 107/10/1 109/10/1
f 111/10/1 109/10/1 110/10/1
f 115/10/1 113/10/1 112/10/1
f 116/10/1 113/10/1 115/10/1
f 117/10/1 113/10/1 116/10/1
f 118/10/1 115/10/1 114/10/1
f 118/10/1 116/10/1 115/10/1
f 119/1/1 117/1/1 116/1/1
f 119/10/1 116/10/1 118/10/1
f 120/1/1 117/1/1 119/1/1
f 121/10/1 119/10/1 118/10/1
f 121/10/1 120/10/1 119/10/1
f 122/10/1 120/10/1 121/10/1
f 125/10/1 124/10/1 123/10/1
f 126/10/1 125/10/1 123/10/1
f 127/10/1 125/10/1 126/10/1
f 130/9/1 129/9/1 128/9/1
f 131/9/1 129/9/1 130/9/1
f 132/10/2 133/10/2 134/10/2
f 132/10/2 134/10/2 135/10/2
f 135/10/2 134/10/2 136/10/2
f 137/9/2 138/9/2 139/9/2
f 139/9/2 138/9/2 140/9/2
f 141/10/2 142/10/2 144/10/2
f 143/10/2 144/10/2 145/10/2
f 145/10/2 144/10/2 146/10/2
f 144/10/2 142/10/2 147/10/2
f 146/10/2 144/10/2 147/10/2
f 148/10/2 149/10/2 150/10/2
f 150/10/2 149/10/2 151/10/2
f 148/10/2 150/10/2 152/10/2
f 150/1/2 151/1/2 153/1/2
f 152/10/2 150/10/2 153/10/2
f 153/1/2 151/1/2 154/1/2
f 155/10/2 156/10/2 159/10/2
f 156/11/2 157/11/2 159/11/2
f 157/10/2 158/10/2 160/10/2
f 159/11/2 157/11/2 160/11/2
f 155/10/2 159/10/2 162/10/2
f 159/10/2 160/10/2 162/10/2
f 162/10/2 160/10/2 163/10/2
f 160/10/2 158/10/2 164/10/2
f 163/10/2 160/10/2 164/10/2
f 164/10/2 158/10/2 165/10/2
f 162/7/2 163/7/2 167/7/2
f 161/7/2 162/7/2 167/7/2
f 163/10/2 164/10/2 167/10/2
f 167/10/2 164/10/2 168/10/2
f 168/10/2 164/10/2 169/10/2
f 165/7/2 166/7/2 170/7/2
f 169/10/2 164/10/2 170/10/2
f 164/7/2 165/7/2 170/7/2
f 168/10/2 169/10/2 171/10/2
f 167/7/2 168/7/2 171/7/2
f 171/10/2 169/10/2 172/10/2
f 172/10/2 169/10/2 173/10/2
f 169/7/2 170/7/2 174/7/2
f 173/10/2 169/10/2 174/10/2
f 172/10/2 173/10/2 175/10/2
f 171/7/2 172/7/2 175/7/2
f 175/10/2 173/10/2 176/10/2
f 176/10/2 173/10/2 177/10/2
f 173/7/2 174/7/2 178/7/2
f 177/10/2 173/10/2 178/10/2
f 161/7/2 167/7/2 179/7/2
f 167/7/2 171/7/2 179/7/2
f 171/7/2 175/7/2 179/7/2
f 175/7/2 176/7/2 179/7/2
f 179/7/2 176/7/2 180/7/2
f 176/10/2 177/10/2 181/10/2
f 180/7/2 176/7/2 181/7/2
f 181/10/2 177/10/2 182/10/2
f 182/10/2 177/10/2 183/10/2
f 177/7/2 178/7/2 184/7/2
f 183/10/2 177/10/2 184/10/2
f 174/7/2 170/7/2 185/7/2
f 184/7/2 178/7/2 185/7/2
f 178/7/2 174/7/2 185/7/2
f 170/7/2 166/7/2 186/7/2
f 185/7/2 170/7/2 186/7/2
f 181/7/2 182/7/2 187/7/2
f 180/7/2 181/7/2 187/7/2
f 187/7/2 182/7/2 188/7/2
f 182/10/2 183/10/2 189/10/2
f 188/7/2 182/7/2 189/7/2
f 189/10/2 183/10/2 190/10/2
f 190/10/2 183/10/2 191/10/2
f 184/7/2 185/7/2 192/7/2
f 191/10/2 183/10/2 192/10/2
f 183/7/2 184/7/2 192/7/2
f 192/7/2 185/7/2 193/7/2
f 193/7/2 185/7/2 194/7/2
f 189/7/2 190/7/2 195/7/2
f 188/7/2 189/7/2 195/7/2
f 195/7/2 190/7/2 196/7/2
f 190/10/2 191/10/2 197/10/2
f 196/7/2 190/7/2 197/7/2
f 197/10/2 191/10/2 198/10/2
f 198/10/2 191/10/2 199/10/2
f 192/7/2 193/7/2 200/7/2
f 199/10/2 191/10/2 200/10/2
f 191/7/2 192/7/2 200/7/2
f 200/7/2 193/7/2 201/7/2
f 201/7/2 193/7/2 202/7/2
f 197/7/2 198/7/2 203/7/2
f 196/7/2 197/7/2 203/7/2
f 203/7/2 198/7/2 204/7/2
f 198/10/2 199/10/2 205/10/2
f 204/7/2 198/7/2 205/7/2
f 205/10/2 199/10/2 206/10/2
f 206/10/2 199/10/2 207/10/2
f 200/7/2 201/7/2 208/7/2
f 207/10/2 199/10/2 208/10/2
f 199/7/2 200/7/2 208/7/2
f 208/7/2 201/7/2 209/7/2
f 209/7/2 201/7/2 210/7/2
f 205/7/2 206/7/2 211/7/2
f 204/7/2 205/7/2 211/7/2
f 211/7/2 206/7/2 212/7/2
f 206/10/2 207/10/2 213/10/2
f 212/7/2 206/7/2 213/7/2
f 208/7/2 209/7/2 214/7/2
f 213/10/2 207/10/2 214/10/2
f 207/7/2 208/7/2 214/7/2
f 214/7/2 209/7/2 215/7/2
f 215/7/2 209/7/2 216/7/2
f 212/7/2 213/7/2 217/7/2
f 214/7/2 215/7/2 217/7/2
f 213/7/2 214/7/2 217/7/2
f 217/7/2 215/7/2 218/7/2
f 218/7/2 215/7/2 219/7/2
f 219/7/2 215/7/2 220/7/2
f 218/7/2 219/7/2 221/7/2
f 221/7/2 219/7/2 222/7/2
f 222/7/2 219/7/2 223/7/2
f 223/7/2 219/7/2 224/7/2
f 222/7/2 223/7/2 225/7/2
f 225/7/2 223/7/2 226/7/2
f 229/7/3 228/7/3 227/7/3
f 230/7/3 228/7/3 229/7/3
f 233/10/3 232/10/3 231/10/3
f 234/10/3 232/10/3 233/10/3
f 235/10/3 233/10/3 231/10/3
f 235/1/3 234/1/3 233/1/3
f 236/10/3 232/10/3 234/10/3
f 236/1/3 234/1/3 235/1/3
f 237/10/3 235/10/3 231/10/3
f 237/10/3 236/10/3 235/10/3
f 238/10/3 236/10/3 237/10/3
f 239/8/3 238/8/3 237/8/3
f 240/10/3 236/10/3 238/10/3
f 240/8/3 238/8/3 239/8/3
f 241/10/3 232/10/3 236/10/3
f 241/10/3 236/10/3 240/10/3
f 241/10/3 240/10/3 239/10/3
f 242/10/3 241/10/3 239/10/3
f 243/10/3 242/10/3 239/10/3
f 244/10/3 242/10/3 243/10/3
f 247/7/3 246/7/3 245/7/3
f 248/7/3 246/7/3 247/7/3
f 251/7/3 250/7/3 249/7/3
f 252/7/3 250/7/3 251/7/3
f 255/7/3 254/7/3 253/7/3
f 256/7/3 254/7/3 255/7/3
f 259/7/3 258/7/3 257/7/3
f 260/7/3 258/7/3 259/7/3
f 263/7/3 262/7/3 261/7/3
f 264/7/3 262/7/3 263/7/3
f 267/7/3 266/7/3 265/7/3
f 268/7/3 266/7/3 267/7/3
f 271/7/3 270/7/3 269/7/3
f 272/7/3 270/7/3 271/7/3
f 276/1/3 274/1/3 273/1/3
f 277/10/3 275/10/3 274/10/3
f 277/1/3 274/1/3 276/1/3
f 278/10/3 277/10/3 276/10/3
f 278/10/3 275/10/3 277/10/3
f 279/10/3 275/10/3 278/10/3
f 280/10/3 278/10/3 276/10/3
f 280/1/3 279/1/3 278/1/3
f 281/1/3 279/1/3 280/1/3
f 282/10/3 280/10/3 276/10/3
f 282/10/3 281/10/3 280/10/3
f 283/10/3 281/10/3 282/10/3
f 286/10/3 285/10/3 284/10/3
f 287/10/3 285/10/3 286/10/3
f 293/1/3 289/1/3 288/1/3
f 294/10/3 290/10/3 289/10/3
f 294/1/3 289/1/3 293/1/3
f 295/10/3 290/10/3 294/10/3
f 296/9/3 292/9/3 291/9/3
f 297/9/3 292/9/3 296/9/3
f 298/7/4 299/7/4 300/7/4
f 300/7/4 299/7/4 301/7/4
f 302/7/4 303/7/4 304/7/4
f 304/7/4 303/7/4 305/7/4
f 306/7/4 307/7/4 308/7/4
f 308/7/4 307/7/4 309/7/4
f 310/7/4 311/7/4 312/7/4
f 312/7/4 311/7/4 313/7/4
f 314/7/4 315/7/4 316/7/4
f 316/7/4 315/7/4 317/7/4
f 318/7/4 319/7/4 320/7/4
f 320/7/4 319/7/4 321/7/4
f 322/7/4 323/7/4 324/7/4
f 324/7/4 323/7/4 325/7/4
f 326/7/4 327/7/4 328/7/4
f 328/7/4 327/7/4 329/7/4
f 330/10/4 331/10/4 334/10/4
f 334/10/4 331/10/4 335/10/4
f 332/9/4 333/9/4 336/9/4
f 336/9/4 333/9/4 337/9/4
f 338/7/4 339/7/4 340/7/4
f 340/7/4 339/7/4 341/7/4
f 342/3/4 343/3/4 347/3/4
f 343/10/4 344/10/4 348/10/4
f 347/3/4 343/3/4 348/3/4
f 344/1/4 345/1/4 349/1/4
f 348/10/4 344/10/4 349/10/4
f 345/10/4 346/10/4 350/10/4
f 349/1/4 345/1/4 350/1/4
f 348/10/4 349/10/4 351/10/4
f 347/10/4 348/10/4 351/10/4
f 349/10/4 350/10/4 351/10/4
f 351/10/4 350/10/4 352/10/4
f 347/10/4 351/10/4 353/10/4
f 351/1/4 352/1/4 353/1/4
f 352/10/4 350/10/4 354/10/4
f 353/1/4 352/1/4 354/1/4
f 355/10/4 356/10/4 359/10/4
f 356/1/4 357/1/4 359/1/4
f 357/10/4 358/10/4 360/10/4
f 359/1/4 357/1/4 360/1/4
f 360/10/4 358/10/4 361/10/4
f 359/10/4 360/10/4 362/10/4
f 360/1/4 361/1/4 362/1/4
f 361/10/4 358/10/4 363/10/4
f 362/1/4 361/1/4 363/1/4
f 347/10/4 353/10/4 364/10/4
f 353/10/4 354/10/4 364/10/4
f 364/10/4 354/10/4 365/10/4
f 362/10/4 363/10/4 366/10/4
f 355/10/4 359/10/4 366/10/4
f 359/10/4 362/10/4 366/10/4
f 363/10/4 358/10/4 367/10/4
f 366/10/4 363/10/4 367/10/4
f 364/1/4 365/1/4 368/1/4
f 365/10/4 354/10/4 369/10/4
f 368/1/4 365/1/4 369/1/4
f 368/10/4 369/10/4 370/10/4
f 350/10/4 346/10/4 371/10/4
f 370/10/4 369/10/4 371/10/4
f 354/10/4 350/10/4 371/10/4
f 369/10/4 354/10/4 371/10/4
f 372/10/4 373/10/4 374/10/4
f 374/10/4 373/10/4 375/10/4
f 372/10/4 374/10/4 376/10/4
f 374/1/4 375/1/4 377/1/4
f 376/10/4 374/10/4 377/10/4
f 377/1/4 375/1/4 378/1/4
f 379/7/4 380/7/4 381/7/4
f 381/7/4 380/7/4 382/7/4
f 387/10/5 384/10/5 383/10/5
f 388/10/5 384/10/5 387/10/5
f 389/8/5 385/8/5 384/8/5
f 389/10/5 384/10/5 388/10/5
f 390/10/5 386/10/5 385/10/5
f 390/8/5 385/8/5 389/8/5
f 391/10/5 386/10/5 390/10/5
f 392/3/5 388/3/5 387/3/5
f 393/11/5 389/11/5 388/11/5
f 393/3/5 388/3/5 392/3/5
f 393/11/5 390/11/5 389/11/5
f 393/11/5 391/11/5 390/11/5
f 394/10/5 393/10/5 392/10/5
f 395/11/5 391/11/5 393/11/5
f 395/10/5 393/10/5 394/10/5
f 396/3/5 395/3/5 394/3/5
f 397/11/5 391/11/5 395/11/5
f 397/3/5 395/3/5 396/3/5
f 398/10/5 397/10/5 396/10/5
f 399/11/5 391/11/5 397/11/5
f 399/10/5 397/10/5 398/10/5
f 400/13/5 399/13/5 398/13/5
f 401/11/5 391/11/5 399/11/5
f 401/13/5 399/13/5 400/13/5
f 402/10/5 401/10/5 400/10/5
f 403/11/5 391/11/5 401/11/5
f 403/10/5 401/10/5 402/10/5
f 404/3/5 403/3/5 402/3/5
f 404/11/5 391/11/5 403/11/5
f 405/11/5 391/11/5 404/11/5
f 406/11/5 391/11/5 405/11/5
f 407/11/5 391/11/5 406/11/5
f 408/3/5 404/3/5 402/3/5
f 409/10/5 405/10/5 404/10/5
f 409/3/5 404/3/5 408/3/5
f 410/1/5 406/1/5 405/1/5
f 410/10/5 405/10/5 409/10/5
f 411/10/5 407/10/5 406/10/5
f 411/1/5 406/1/5 410/1/5
f 412/10/5 407/10/5 411/10/5
f 415/7/5 414/7/5 413/7/5
f 416/7/5 414/7/5 415/7/5
f 417/7/5 415/7/5 413/7/5
f 418/2/5 416/2/5 415/2/5
f 418/7/5 415/7/5 417/7/5
f 419/7/5 414/7/5 416/7/5
f 419/2/5 416/2/5 418/2/5
f 420/7/5 414/7/5 419/7/5
f 423/7/5 422/7/5 421/7/5
f 424/7/5 422/7/5 423/7/5
f 428/1/5 426/1/5 425/1/5
f 429/10/5 427/10/5 426/10/5
f 429/1/5 426/1/5 428/1/5
f 430/10/5 427/10/5 429/10/5
f 433/9/5 432/9/5 431/9/5
f 434/9/5 432/9/5 433/9/5
f 435/10/5 429/10/5 428/10/5
f 436/10/5 427/10/5 430/10/5
f 437/10/5 435/10/5 428/10/5
f 437/10/5 436/10/5 435/10/5
f 438/10/5 427/10/5 436/10/5
f 438/10/5 436/10/5 437/10/5
f 439/7/6 440/7/6 441/7/6
f 441/7/6 440/7/6 442/7/6
f 443/7/6 444/7/6 447/7/6
f 445/7/6 446/7/6 448/7/6
f 443/7/6 447/7/6 449/7/6
f 447/7/6 448/7/6 449/7/6
f 448/7/6 446/7/6 450/7/6
f 449/7/6 448/7/6 450/7/6
f 451/7/6 452/7/6 453/7/6
f 453/7/6 452/7/6 454/7/6
f 455/7/6 456/7/6 459/7/6
f 459/7/6 456/7/6 460/7/6
f 457/7/6 458/7/6 461/7/6
f 461/7/6 458/7/6 462/7/6
f 463/7/6 464/7/6 465/7/6
f 465/7/6 464/7/6 466/7/6
f 467/7/6 468/7/6 469/7/6
f 469/7/6 468/7/6 470/7/6
f 470/7/6 468/7/6 471/7/6
f 471/7/6 468/7/6 472/7/6
f 473/10/6 474/10/6 475/10/6
f 475/10/6 474/10/6 476/10/6
f 477/7/6 478/7/6 479/7/6
f 479/7/6 478/7/6 480/7/6
f 481/7/6 482/7/6 483/7/6
f 483/7/6 482/7/6 484/7/6
f 485/7/6 486/7/6 487/7/6
f 487/7/6 486/7/6 488/7/6
f 489/7/6 490/7/6 491/7/6
f 491/7/6 490/7/6 492/7/6
f 493/7/6 494/7/6 495/7/6
f 495/7/6 494/7/6 496/7/6
f 497/7/6 498/7/6 499/7/6
f 499/7/6 498/7/6 500/7/6
f 501/7/6 502/7/6 503/7/6
f 503/7/6 502/7/6 504/7/6
f 505/7/6 506/7/6 507/7/6
f 507/7/6 506/7/6 508/7/6
f 509/9/6 510/9/6 511/9/6
f 511/9/6 510/9/6 512/9/6
f 513/10/6 514/10/6 517/10/6
f 514/1/6 515/1/6 518/1/6
f 517/10/6 514/10/6 518/10/6
f 515/10/6 516/10/6 519/10/6
f 518/1/6 515/1/6 519/1/6
f 517/9/6 518/9/6 520/9/6
f 518/9/6 519/9/6 520/9/6
f 520/9/6 519/9/6 521/9/6
f 517/9/6 520/9/6 522/9/6
f 521/9/6 519/9/6 523/9/6
f 513/10/6 517/10/6 524/10/6
f 522/9/6 523/9/6 524/9/6
f 517/9/6 522/9/6 524/9/6
f 519/10/6 516/10/6 525/10/6
f 524/9/6 523/9/6 525/9/6
f 523/9/6 519/9/6 525/9/6
f 525/10/6 516/10/6 526/10/6
f 513/10/6 524/10/6 527/10/6
f 524/10/6 525/10/6 527/10/6
f 525/1/6 526/1/6 528/1/6
f 527/10/6 525/10/6 528/10/6
f 528/1/6 526/1/6 529/1/6
f 530/7/6 531/7/6 532/7/6
f 532/7/6 531/7/6 533/7/6
