# MagicaVoxel @ Ephtracy

# group
g sea

# material
mtllib sea.mtl
usemtl palette

# normals
vn -1 0 0
vn 1 0 0
vn 0 0 1
vn 0 0 -1
vn 0 -1 0
vn 0 1 0

# texcoords
vt 0.205078 0.5
vt 0.681641 0.5
vt 0.751953 0.5
vt 0.779297 0.5
vt 0.806641 0.5
vt 0.958984 0.5

# verts
v -60 0 60
v -60 0 -60
v -60 8 60
v -60 8 -60
v 60 0 60
v 60 0 -60
v 60 8 60
v 60 8 -60
v -60 0 60
v -60 8 60
v 60 0 60
v 60 8 60
v -60 0 -60
v -60 8 -60
v 49 4 -60
v 49 5 -60
v 50 4 -60
v 50 5 -60
v 60 0 -60
v 60 8 -60
v -60 0 60
v 60 0 60
v -59 0 59
v 59 0 59
v -59 0 -59
v 59 0 -59
v -60 0 -60
v 60 0 -60
v -60 8 60
v 60 8 60
v 56 8 59
v 57 8 59
v 56 8 58
v 57 8 58
v -57 8 51
v -56 8 51
v -57 8 50
v -56 8 50
v -12 8 50
v -11 8 50
v -12 8 48
v -11 8 48
v -47 8 47
v -46 8 47
v 18 8 47
v 19 8 47
v -47 8 46
v -46 8 46
v 18 8 46
v 19 8 46
v 30 8 43
v 31 8 43
v 30 8 41
v 31 8 41
v -28 8 40
v -27 8 40
v -16 8 40
v -15 8 40
v -28 8 39
v -27 8 39
v -16 8 39
v -15 8 39
v -25 8 37
v -24 8 37
v -25 8 36
v -24 8 36
v -5 8 35
v -4 8 35
v 51 8 35
v 52 8 35
v -47 8 34
v -46 8 34
v -5 8 34
v -4 8 34
v 16 8 34
v 17 8 34
v 51 8 34
v 52 8 34
v -47 8 33
v -46 8 33
v 16 8 33
v 17 8 33
v -36 8 29
v -35 8 29
v -36 8 28
v -35 8 28
v -39 8 27
v -38 8 27
v -39 8 26
v -38 8 26
v 29 8 25
v 30 8 25
v 29 8 24
v 30 8 24
v 35 8 24
v 36 8 24
v 35 8 23
v 36 8 23
v -53 8 22
v -52 8 22
v -22 8 22
v -21 8 22
v -22 8 21
v -21 8 21
v 35 8 21
v 36 8 21
v -53 8 20
v -52 8 20
v -35 8 20
v -34 8 20
v 35 8 20
v 36 8 20
v -35 8 19
v -34 8 19
v 35 8 19
v 36 8 19
v 3 8 16
v 4 8 16
v 17 8 16
v 18 8 16
v 3 8 15
v 4 8 15
v 17 8 15
v 18 8 15
v 12 8 13
v 13 8 13
v 12 8 12
v 13 8 12
v 49 8 11
v 50 8 11
v -32 8 10
v -31 8 10
v 0 8 10
v 1 8 10
v 13 8 10
v 14 8 10
v 49 8 10
v 50 8 10
v -32 8 9
v -31 8 9
v 0 8 9
v 1 8 9
v 13 8 9
v 14 8 9
v -13 8 8
v -12 8 8
v -13 8 7
v -12 8 7
v -51 8 6
v -50 8 6
v -51 8 5
v -50 8 5
v -30 8 4
v -29 8 4
v -28 8 4
v -27 8 4
v -30 8 3
v -29 8 3
v -28 8 3
v -27 8 3
v 55 8 3
v 56 8 3
v 55 8 2
v 56 8 2
v 15 8 1
v 16 8 1
v -51 8 -0
v -50 8 -0
v -35 8 -0
v -34 8 -0
v 15 8 -0
v 16 8 -0
v -51 8 -1
v -50 8 -1
v -49 8 -1
v -48 8 -1
v -35 8 -1
v -34 8 -1
v -49 8 -2
v -48 8 -2
v -53 8 -5
v -52 8 -5
v 34 8 -5
v 35 8 -5
v 45 8 -5
v 46 8 -5
v -53 8 -6
v -52 8 -6
v 34 8 -6
v 35 8 -6
v 45 8 -6
v 46 8 -6
v 18 8 -10
v 19 8 -10
v -26 8 -11
v -25 8 -11
v -19 8 -11
v -18 8 -11
v 18 8 -11
v 19 8 -11
v -26 8 -12
v -25 8 -12
v -19 8 -12
v -18 8 -12
v -6 8 -15
v -5 8 -15
v -6 8 -16
v -5 8 -16
v 1 8 -16
v 2 8 -16
v 1 8 -17
v 2 8 -17
v 51 8 -17
v 52 8 -17
v 51 8 -18
v 52 8 -18
v -34 8 -20
v -33 8 -20
v -27 8 -20
v -26 8 -20
v -34 8 -21
v -33 8 -21
v -27 8 -21
v -26 8 -21
v 15 8 -21
v 16 8 -21
v -4 8 -22
v -3 8 -22
v 15 8 -22
v 16 8 -22
v -19 8 -23
v -18 8 -23
v -4 8 -23
v -3 8 -23
v -48 8 -24
v -47 8 -24
v -19 8 -24
v -18 8 -24
v 38 8 -24
v 39 8 -24
v -48 8 -25
v -47 8 -25
v 38 8 -25
v 39 8 -25
v 58 8 -25
v 59 8 -25
v 58 8 -26
v 59 8 -26
v -12 8 -29
v -11 8 -29
v -8 8 -29
v -7 8 -29
v -12 8 -30
v -11 8 -30
v 47 8 -30
v 48 8 -30
v -8 8 -31
v -7 8 -31
v 47 8 -31
v 48 8 -31
v -56 8 -34
v -55 8 -34
v 18 8 -34
v 19 8 -34
v -56 8 -35
v -55 8 -35
v -48 8 -35
v -47 8 -35
v -36 8 -35
v -35 8 -35
v -5 8 -35
v -3 8 -35
v 17 8 -35
v 18 8 -35
v 19 8 -35
v -48 8 -36
v -47 8 -36
v -36 8 -36
v -35 8 -36
v 17 8 -36
v 18 8 -36
v -5 8 -37
v -3 8 -37
v 33 8 -37
v 34 8 -37
v 36 8 -37
v 37 8 -37
v 21 8 -38
v 22 8 -38
v 33 8 -38
v 34 8 -38
v 35 8 -38
v 36 8 -38
v 37 8 -38
v 21 8 -39
v 22 8 -39
v 35 8 -39
v 36 8 -39
v -52 8 -40
v -51 8 -40
v -52 8 -41
v -51 8 -41
v -15 8 -42
v -14 8 -42
v -15 8 -43
v -14 8 -43
v -34 8 -44
v -33 8 -44
v -44 8 -45
v -43 8 -45
v -34 8 -45
v -33 8 -45
v 17 8 -45
v 18 8 -45
v -44 8 -46
v -43 8 -46
v 17 8 -46
v 18 8 -46
v 29 8 -47
v 31 8 -47
v -11 8 -48
v -10 8 -48
v 29 8 -48
v 31 8 -48
v -11 8 -49
v -10 8 -49
v 35 8 -49
v 36 8 -49
v 45 8 -49
v 46 8 -49
v -37 8 -50
v -36 8 -50
v 35 8 -50
v 36 8 -50
v 45 8 -50
v 46 8 -50
v -37 8 -51
v -36 8 -51
v 51 8 -53
v 52 8 -53
v -1 8 -54
v 0 8 -54
v 51 8 -54
v 52 8 -54
v -1 8 -55
v 0 8 -55
v -7 8 -56
v -6 8 -56
v 2 8 -56
v 3 8 -56
v -7 8 -57
v -6 8 -57
v 2 8 -57
v 3 8 -57
v -60 8 -60
v 60 8 -60

# faces
f 3/3/1 2/3/1 1/3/1
f 4/3/1 2/3/1 3/3/1
f 5/3/2 6/3/2 7/3/2
f 7/3/2 6/3/2 8/3/2
f 11/3/3 10/3/3 9/3/3
f 12/3/3 10/3/3 11/3/3
f 13/3/4 14/3/4 15/3/4
f 15/3/4 14/3/4 16/3/4
f 13/3/4 15/3/4 17/3/4
f 15/5/4 16/5/4 17/5/4
f 16/3/4 14/3/4 18/3/4
f 17/5/4 16/5/4 18/5/4
f 13/3/4 17/3/4 19/3/4
f 17/3/4 18/3/4 19/3/4
f 18/3/4 14/3/4 20/3/4
f 19/3/4 18/3/4 20/3/4
f 23/3/5 22/3/5 21/3/5
f 24/3/5 22/3/5 23/3/5
f 25/3/5 23/3/5 21/3/5
f 25/1/5 24/1/5 23/1/5
f 26/3/5 22/3/5 24/3/5
f 26/1/5 24/1/5 25/1/5
f 27/3/5 25/3/5 21/3/5
f 27/3/5 26/3/5 25/3/5
f 28/3/5 22/3/5 26/3/5
f 28/3/5 26/3/5 27/3/5
f 29/3/6 30/3/6 31/3/6
f 31/3/6 30/3/6 32/3/6
f 29/3/6 31/3/6 33/3/6
f 31/5/6 32/5/6 33/5/6
f 32/3/6 30/3/6 34/3/6
f 33/5/6 32/5/6 34/5/6
f 29/3/6 33/3/6 35/3/6
f 33/3/6 34/3/6 35/3/6
f 35/3/6 34/3/6 36/3/6
f 29/3/6 35/3/6 37/3/6
f 35/6/6 36/6/6 37/6/6
f 36/3/6 34/3/6 38/3/6
f 37/6/6 36/6/6 38/6/6
f 38/3/6 34/3/6 39/3/6
f 39/3/6 34/3/6 40/3/6
f 37/3/6 38/3/6 41/3/6
f 38/3/6 39/3/6 41/3/6
f 39/2/6 40/2/6 41/2/6
f 40/3/6 34/3/6 42/3/6
f 41/2/6 40/2/6 42/2/6
f 37/3/6 41/3/6 43/3/6
f 41/3/6 42/3/6 43/3/6
f 43/3/6 42/3/6 44/3/6
f 42/3/6 34/3/6 45/3/6
f 44/3/6 42/3/6 45/3/6
f 45/3/6 34/3/6 46/3/6
f 43/4/6 44/4/6 47/4/6
f 37/3/6 43/3/6 47/3/6
f 44/3/6 45/3/6 48/3/6
f 47/4/6 44/4/6 48/4/6
f 45/4/6 46/4/6 49/4/6
f 48/3/6 45/3/6 49/3/6
f 46/3/6 34/3/6 50/3/6
f 49/4/6 46/4/6 50/4/6
f 48/3/6 49/3/6 51/3/6
f 50/3/6 34/3/6 51/3/6
f 49/3/6 50/3/6 51/3/6
f 47/3/6 48/3/6 51/3/6
f 51/3/6 34/3/6 52/3/6
f 47/3/6 51/3/6 53/3/6
f 51/4/6 52/4/6 53/4/6
f 52/3/6 34/3/6 54/3/6
f 53/4/6 52/4/6 54/4/6
f 47/3/6 53/3/6 55/3/6
f 53/3/6 54/3/6 55/3/6
f 55/3/6 54/3/6 56/3/6
f 56/3/6 54/3/6 57/3/6
f 57/3/6 54/3/6 58/3/6
f 47/3/6 55/3/6 59/3/6
f 55/2/6 56/2/6 59/2/6
f 56/3/6 57/3/6 60/3/6
f 59/2/6 56/2/6 60/2/6
f 57/4/6 58/4/6 61/4/6
f 60/3/6 57/3/6 61/3/6
f 58/3/6 54/3/6 62/3/6
f 61/4/6 58/4/6 62/4/6
f 60/3/6 61/3/6 63/3/6
f 59/3/6 60/3/6 63/3/6
f 61/3/6 62/3/6 63/3/6
f 63/3/6 62/3/6 64/3/6
f 59/3/6 63/3/6 65/3/6
f 63/4/6 64/4/6 65/4/6
f 64/3/6 62/3/6 66/3/6
f 65/4/6 64/4/6 66/4/6
f 62/3/6 54/3/6 67/3/6
f 66/3/6 62/3/6 67/3/6
f 65/3/6 66/3/6 67/3/6
f 67/3/6 54/3/6 68/3/6
f 54/3/6 34/3/6 69/3/6
f 68/3/6 54/3/6 69/3/6
f 69/3/6 34/3/6 70/3/6
f 37/3/6 47/3/6 71/3/6
f 59/3/6 65/3/6 71/3/6
f 47/3/6 59/3/6 71/3/6
f 65/3/6 67/3/6 71/3/6
f 71/3/6 67/3/6 72/3/6
f 67/6/6 68/6/6 73/6/6
f 72/3/6 67/3/6 73/3/6
f 68/3/6 69/3/6 74/3/6
f 73/6/6 68/6/6 74/6/6
f 74/3/6 69/3/6 75/3/6
f 75/3/6 69/3/6 76/3/6
f 69/5/6 70/5/6 77/5/6
f 76/3/6 69/3/6 77/3/6
f 70/3/6 34/3/6 78/3/6
f 77/5/6 70/5/6 78/5/6
f 71/4/6 72/4/6 79/4/6
f 37/3/6 71/3/6 79/3/6
f 72/3/6 73/3/6 80/3/6
f 79/4/6 72/4/6 80/4/6
f 73/3/6 74/3/6 80/3/6
f 74/3/6 75/3/6 80/3/6
f 75/5/6 76/5/6 81/5/6
f 80/3/6 75/3/6 81/3/6
f 76/3/6 77/3/6 82/3/6
f 81/5/6 76/5/6 82/5/6
f 77/3/6 78/3/6 82/3/6
f 80/3/6 81/3/6 83/3/6
f 79/3/6 80/3/6 83/3/6
f 81/3/6 82/3/6 83/3/6
f 83/3/6 82/3/6 84/3/6
f 79/3/6 83/3/6 85/3/6
f 83/5/6 84/5/6 85/5/6
f 84/3/6 82/3/6 86/3/6
f 85/5/6 84/5/6 86/5/6
f 79/3/6 85/3/6 87/3/6
f 85/3/6 86/3/6 87/3/6
f 87/3/6 86/3/6 88/3/6
f 79/3/6 87/3/6 89/3/6
f 87/2/6 88/2/6 89/2/6
f 88/3/6 86/3/6 90/3/6
f 89/2/6 88/2/6 90/2/6
f 82/3/6 78/3/6 91/3/6
f 90/3/6 86/3/6 91/3/6
f 89/3/6 90/3/6 91/3/6
f 86/3/6 82/3/6 91/3/6
f 91/3/6 78/3/6 92/3/6
f 89/3/6 91/3/6 93/3/6
f 91/6/6 92/6/6 93/6/6
f 92/3/6 78/3/6 94/3/6
f 93/6/6 92/6/6 94/6/6
f 94/3/6 78/3/6 95/3/6
f 95/3/6 78/3/6 96/3/6
f 93/3/6 94/3/6 97/3/6
f 94/3/6 95/3/6 97/3/6
f 95/5/6 96/5/6 97/5/6
f 96/3/6 78/3/6 98/3/6
f 97/5/6 96/5/6 98/5/6
f 79/3/6 89/3/6 99/3/6
f 37/3/6 79/3/6 99/3/6
f 97/3/6 98/3/6 99/3/6
f 93/3/6 97/3/6 99/3/6
f 89/3/6 93/3/6 99/3/6
f 99/3/6 98/3/6 100/3/6
f 100/3/6 98/3/6 101/3/6
f 101/3/6 98/3/6 102/3/6
f 100/3/6 101/3/6 103/3/6
f 101/4/6 102/4/6 103/4/6
f 102/3/6 98/3/6 104/3/6
f 103/4/6 102/4/6 104/4/6
f 104/3/6 98/3/6 105/3/6
f 98/3/6 78/3/6 106/3/6
f 105/3/6 98/3/6 106/3/6
f 37/3/6 99/3/6 107/3/6
f 99/2/6 100/2/6 107/2/6
f 104/3/6 105/3/6 108/3/6
f 107/2/6 100/2/6 108/2/6
f 100/3/6 103/3/6 108/3/6
f 103/3/6 104/3/6 108/3/6
f 108/3/6 105/3/6 109/3/6
f 109/3/6 105/3/6 110/3/6
f 105/4/6 106/4/6 111/4/6
f 110/3/6 105/3/6 111/3/6
f 106/3/6 78/3/6 112/3/6
f 111/4/6 106/4/6 112/4/6
f 109/6/6 110/6/6 113/6/6
f 107/3/6 108/3/6 113/3/6
f 108/3/6 109/3/6 113/3/6
f 110/3/6 111/3/6 114/3/6
f 113/6/6 110/6/6 114/6/6
f 111/5/6 112/5/6 115/5/6
f 114/3/6 111/3/6 115/3/6
f 112/3/6 78/3/6 116/3/6
f 115/5/6 112/5/6 116/5/6
f 114/3/6 115/3/6 117/3/6
f 113/3/6 114/3/6 117/3/6
f 115/3/6 116/3/6 117/3/6
f 117/3/6 116/3/6 118/3/6
f 118/3/6 116/3/6 119/3/6
f 119/3/6 116/3/6 120/3/6
f 113/3/6 117/3/6 121/3/6
f 117/4/6 118/4/6 121/4/6
f 118/3/6 119/3/6 122/3/6
f 121/4/6 118/4/6 122/4/6
f 119/4/6 120/4/6 123/4/6
f 122/3/6 119/3/6 123/3/6
f 120/3/6 116/3/6 124/3/6
f 123/4/6 120/4/6 124/4/6
f 122/3/6 123/3/6 125/3/6
f 121/3/6 122/3/6 125/3/6
f 123/3/6 124/3/6 125/3/6
f 125/3/6 124/3/6 126/3/6
f 121/3/6 125/3/6 127/3/6
f 125/6/6 126/6/6 127/6/6
f 126/3/6 124/3/6 128/3/6
f 127/6/6 126/6/6 128/6/6
f 116/3/6 78/3/6 129/3/6
f 128/3/6 124/3/6 129/3/6
f 127/3/6 128/3/6 129/3/6
f 124/3/6 116/3/6 129/3/6
f 129/3/6 78/3/6 130/3/6
f 121/3/6 127/3/6 131/3/6
f 113/3/6 121/3/6 131/3/6
f 127/3/6 129/3/6 131/3/6
f 131/3/6 129/3/6 132/3/6
f 132/3/6 129/3/6 133/3/6
f 133/3/6 129/3/6 134/3/6
f 134/3/6 129/3/6 135/3/6
f 135/3/6 129/3/6 136/3/6
f 129/4/6 130/4/6 137/4/6
f 136/3/6 129/3/6 137/3/6
f 130/3/6 78/3/6 138/3/6
f 137/4/6 130/4/6 138/4/6
f 113/3/6 131/3/6 139/3/6
f 131/4/6 132/4/6 139/4/6
f 132/3/6 133/3/6 140/3/6
f 139/4/6 132/4/6 140/4/6
f 133/2/6 134/2/6 141/2/6
f 140/3/6 133/3/6 141/3/6
f 134/3/6 135/3/6 142/3/6
f 141/2/6 134/2/6 142/2/6
f 135/5/6 136/5/6 143/5/6
f 142/3/6 135/3/6 143/3/6
f 136/3/6 137/3/6 144/3/6
f 143/5/6 136/5/6 144/5/6
f 137/3/6 138/3/6 144/3/6
f 142/3/6 143/3/6 145/3/6
f 141/3/6 142/3/6 145/3/6
f 143/3/6 144/3/6 145/3/6
f 139/3/6 140/3/6 145/3/6
f 140/3/6 141/3/6 145/3/6
f 145/3/6 144/3/6 146/3/6
f 139/3/6 145/3/6 147/3/6
f 145/6/6 146/6/6 147/6/6
f 146/3/6 144/3/6 148/3/6
f 147/6/6 146/6/6 148/6/6
f 107/3/6 113/3/6 149/3/6
f 113/3/6 139/3/6 149/3/6
f 147/3/6 148/3/6 149/3/6
f 139/3/6 147/3/6 149/3/6
f 149/3/6 148/3/6 150/3/6
f 107/3/6 149/3/6 151/3/6
f 149/5/6 150/5/6 151/5/6
f 150/3/6 148/3/6 152/3/6
f 151/5/6 150/5/6 152/5/6
f 151/3/6 152/3/6 153/3/6
f 152/3/6 148/3/6 153/3/6
f 153/3/6 148/3/6 154/3/6
f 154/3/6 148/3/6 155/3/6
f 155/3/6 148/3/6 156/3/6
f 151/3/6 153/3/6 157/3/6
f 153/4/6 154/4/6 157/4/6
f 154/3/6 155/3/6 158/3/6
f 157/4/6 154/4/6 158/4/6
f 155/4/6 156/4/6 159/4/6
f 158/3/6 155/3/6 159/3/6
f 156/3/6 148/3/6 160/3/6
f 159/4/6 156/4/6 160/4/6
f 78/3/6 34/3/6 161/3/6
f 160/3/6 148/3/6 161/3/6
f 148/3/6 144/3/6 161/3/6
f 144/3/6 138/3/6 161/3/6
f 138/3/6 78/3/6 161/3/6
f 161/3/6 34/3/6 162/3/6
f 159/3/6 160/3/6 163/3/6
f 157/3/6 158/3/6 163/3/6
f 161/5/6 162/5/6 163/5/6
f 160/3/6 161/3/6 163/3/6
f 158/3/6 159/3/6 163/3/6
f 162/3/6 34/3/6 164/3/6
f 163/5/6 162/5/6 164/5/6
f 157/3/6 163/3/6 165/3/6
f 163/3/6 164/3/6 165/3/6
f 165/3/6 164/3/6 166/3/6
f 151/3/6 157/3/6 167/3/6
f 107/3/6 151/3/6 167/3/6
f 157/3/6 165/3/6 167/3/6
f 167/3/6 165/3/6 168/3/6
f 168/3/6 165/3/6 169/3/6
f 169/3/6 165/3/6 170/3/6
f 165/4/6 166/4/6 171/4/6
f 170/3/6 165/3/6 171/3/6
f 166/3/6 164/3/6 172/3/6
f 171/4/6 166/4/6 172/4/6
f 107/3/6 167/3/6 173/3/6
f 167/4/6 168/4/6 173/4/6
f 168/3/6 169/3/6 174/3/6
f 173/4/6 168/4/6 174/4/6
f 174/3/6 169/3/6 175/3/6
f 175/3/6 169/3/6 176/3/6
f 169/5/6 170/5/6 177/5/6
f 176/3/6 169/3/6 177/3/6
f 170/3/6 171/3/6 178/3/6
f 177/5/6 170/5/6 178/5/6
f 171/3/6 172/3/6 178/3/6
f 175/2/6 176/2/6 179/2/6
f 174/3/6 175/3/6 179/3/6
f 173/3/6 174/3/6 179/3/6
f 176/3/6 177/3/6 180/3/6
f 179/2/6 176/2/6 180/2/6
f 177/3/6 178/3/6 180/3/6
f 37/3/6 107/3/6 181/3/6
f 173/3/6 179/3/6 181/3/6
f 179/3/6 180/3/6 181/3/6
f 107/3/6 173/3/6 181/3/6
f 181/3/6 180/3/6 182/3/6
f 180/3/6 178/3/6 183/3/6
f 182/3/6 180/3/6 183/3/6
f 172/3/6 164/3/6 183/3/6
f 178/3/6 172/3/6 183/3/6
f 183/3/6 164/3/6 184/3/6
f 184/3/6 164/3/6 185/3/6
f 185/3/6 164/3/6 186/3/6
f 181/6/6 182/6/6 187/6/6
f 37/3/6 181/3/6 187/3/6
f 182/3/6 183/3/6 188/3/6
f 187/6/6 182/6/6 188/6/6
f 183/5/6 184/5/6 189/5/6
f 188/3/6 183/3/6 189/3/6
f 184/3/6 185/3/6 190/3/6
f 189/5/6 184/5/6 190/5/6
f 185/6/6 186/6/6 191/6/6
f 190/3/6 185/3/6 191/3/6
f 186/3/6 164/3/6 192/3/6
f 191/6/6 186/6/6 192/6/6
f 190/3/6 191/3/6 193/3/6
f 189/3/6 190/3/6 193/3/6
f 191/3/6 192/3/6 193/3/6
f 188/3/6 189/3/6 193/3/6
f 187/3/6 188/3/6 193/3/6
f 193/3/6 192/3/6 194/3/6
f 187/3/6 193/3/6 195/3/6
f 195/3/6 193/3/6 196/3/6
f 196/3/6 193/3/6 197/3/6
f 197/3/6 193/3/6 198/3/6
f 193/5/6 194/5/6 199/5/6
f 198/3/6 193/3/6 199/3/6
f 194/3/6 192/3/6 200/3/6
f 199/5/6 194/5/6 200/5/6
f 187/3/6 195/3/6 201/3/6
f 195/4/6 196/4/6 201/4/6
f 196/3/6 197/3/6 202/3/6
f 201/4/6 196/4/6 202/4/6
f 197/5/6 198/5/6 203/5/6
f 202/3/6 197/3/6 203/3/6
f 198/3/6 199/3/6 204/3/6
f 203/5/6 198/5/6 204/5/6
f 199/3/6 200/3/6 204/3/6
f 202/3/6 203/3/6 205/3/6
f 204/3/6 200/3/6 205/3/6
f 203/3/6 204/3/6 205/3/6
f 201/3/6 202/3/6 205/3/6
f 205/3/6 200/3/6 206/3/6
f 201/3/6 205/3/6 207/3/6
f 205/4/6 206/4/6 207/4/6
f 206/3/6 200/3/6 208/3/6
f 207/4/6 206/4/6 208/4/6
f 208/3/6 200/3/6 209/3/6
f 209/3/6 200/3/6 210/3/6
f 207/3/6 208/3/6 211/3/6
f 208/3/6 209/3/6 211/3/6
f 209/6/6 210/6/6 211/6/6
f 210/3/6 200/3/6 212/3/6
f 211/6/6 210/6/6 212/6/6
f 192/3/6 164/3/6 213/3/6
f 212/3/6 200/3/6 213/3/6
f 200/3/6 192/3/6 213/3/6
f 213/3/6 164/3/6 214/3/6
f 211/3/6 212/3/6 215/3/6
f 212/3/6 213/3/6 215/3/6
f 213/2/6 214/2/6 215/2/6
f 214/3/6 164/3/6 216/3/6
f 215/2/6 214/2/6 216/2/6
f 211/3/6 215/3/6 217/3/6
f 187/3/6 201/3/6 217/3/6
f 215/3/6 216/3/6 217/3/6
f 201/3/6 207/3/6 217/3/6
f 207/3/6 211/3/6 217/3/6
f 217/3/6 216/3/6 218/3/6
f 218/3/6 216/3/6 219/3/6
f 219/3/6 216/3/6 220/3/6
f 187/3/6 217/3/6 221/3/6
f 217/2/6 218/2/6 221/2/6
f 218/3/6 219/3/6 222/3/6
f 221/2/6 218/2/6 222/2/6
f 219/6/6 220/6/6 223/6/6
f 222/3/6 219/3/6 223/3/6
f 220/3/6 216/3/6 224/3/6
f 223/6/6 220/6/6 224/6/6
f 224/3/6 216/3/6 225/3/6
f 225/3/6 216/3/6 226/3/6
f 222/3/6 223/3/6 227/3/6
f 221/3/6 222/3/6 227/3/6
f 223/3/6 224/3/6 227/3/6
f 224/3/6 225/3/6 227/3/6
f 227/3/6 225/3/6 228/3/6
f 225/5/6 226/5/6 229/5/6
f 228/3/6 225/3/6 229/3/6
f 226/3/6 216/3/6 230/3/6
f 229/5/6 226/5/6 230/5/6
f 221/3/6 227/3/6 231/3/6
f 231/3/6 227/3/6 232/3/6
f 227/4/6 228/4/6 233/4/6
f 232/3/6 227/3/6 233/3/6
f 228/3/6 229/3/6 234/3/6
f 233/4/6 228/4/6 234/4/6
f 229/3/6 230/3/6 234/3/6
f 187/3/6 221/3/6 235/3/6
f 221/3/6 231/3/6 235/3/6
f 235/3/6 231/3/6 236/3/6
f 231/6/6 232/6/6 237/6/6
f 236/3/6 231/3/6 237/3/6
f 232/3/6 233/3/6 238/3/6
f 237/6/6 232/6/6 238/6/6
f 233/3/6 234/3/6 238/3/6
f 234/3/6 230/3/6 239/3/6
f 238/3/6 234/3/6 239/3/6
f 230/3/6 216/3/6 239/3/6
f 239/3/6 216/3/6 240/3/6
f 235/5/6 236/5/6 241/5/6
f 187/3/6 235/3/6 241/3/6
f 236/3/6 237/3/6 242/3/6
f 241/5/6 236/5/6 242/5/6
f 237/3/6 238/3/6 242/3/6
f 238/3/6 239/3/6 242/3/6
f 239/4/6 240/4/6 243/4/6
f 242/3/6 239/3/6 243/3/6
f 240/3/6 216/3/6 244/3/6
f 243/4/6 240/4/6 244/4/6
f 34/3/6 30/3/6 245/3/6
f 244/3/6 216/3/6 245/3/6
f 216/3/6 164/3/6 245/3/6
f 164/3/6 34/3/6 245/3/6
f 245/3/6 30/3/6 246/3/6
f 243/3/6 244/3/6 247/3/6
f 241/3/6 242/3/6 247/3/6
f 245/5/6 246/5/6 247/5/6
f 244/3/6 245/3/6 247/3/6
f 242/3/6 243/3/6 247/3/6
f 246/3/6 30/3/6 248/3/6
f 247/5/6 246/5/6 248/5/6
f 241/3/6 247/3/6 249/3/6
f 247/3/6 248/3/6 249/3/6
f 249/3/6 248/3/6 250/3/6
f 250/3/6 248/3/6 251/3/6
f 251/3/6 248/3/6 252/3/6
f 241/3/6 249/3/6 253/3/6
f 249/5/6 250/5/6 253/5/6
f 250/3/6 251/3/6 254/3/6
f 253/5/6 250/5/6 254/5/6
f 252/3/6 248/3/6 255/3/6
f 255/3/6 248/3/6 256/3/6
f 254/3/6 251/3/6 257/3/6
f 251/2/6 252/2/6 257/2/6
f 253/3/6 254/3/6 257/3/6
f 252/3/6 255/3/6 258/3/6
f 257/2/6 252/2/6 258/2/6
f 255/5/6 256/5/6 259/5/6
f 258/3/6 255/3/6 259/3/6
f 256/3/6 248/3/6 260/3/6
f 259/5/6 256/5/6 260/5/6
f 187/3/6 241/3/6 261/3/6
f 37/3/6 187/3/6 261/3/6
f 259/3/6 260/3/6 261/3/6
f 253/3/6 257/3/6 261/3/6
f 241/3/6 253/3/6 261/3/6
f 257/3/6 258/3/6 261/3/6
f 258/3/6 259/3/6 261/3/6
f 261/3/6 260/3/6 262/3/6
f 262/3/6 260/3/6 263/3/6
f 263/3/6 260/3/6 264/3/6
f 37/3/6 261/3/6 265/3/6
f 261/2/6 262/2/6 265/2/6
f 262/3/6 263/3/6 266/3/6
f 265/2/6 262/2/6 266/2/6
f 266/3/6 263/3/6 267/3/6
f 267/3/6 263/3/6 268/3/6
f 268/3/6 263/3/6 269/3/6
f 269/3/6 263/3/6 270/3/6
f 270/3/6 263/3/6 271/3/6
f 271/3/6 263/3/6 272/3/6
f 272/3/6 263/3/6 273/3/6
f 263/4/6 264/4/6 274/4/6
f 273/3/6 263/3/6 274/3/6
f 264/3/6 260/3/6 275/3/6
f 274/4/6 264/4/6 275/4/6
f 265/3/6 266/3/6 276/3/6
f 266/3/6 267/3/6 276/3/6
f 267/6/6 268/6/6 276/6/6
f 268/3/6 269/3/6 277/3/6
f 276/6/6 268/6/6 277/6/6
f 269/5/6 270/5/6 278/5/6
f 277/3/6 269/3/6 278/3/6
f 270/3/6 271/3/6 279/3/6
f 278/5/6 270/5/6 279/5/6
f 273/4/6 274/4/6 280/4/6
f 272/3/6 273/3/6 280/3/6
f 274/3/6 275/3/6 281/3/6
f 280/4/6 274/4/6 281/4/6
f 279/3/6 271/3/6 282/3/6
f 278/3/6 279/3/6 282/3/6
f 271/6/6 272/6/6 282/6/6
f 277/3/6 278/3/6 282/3/6
f 276/3/6 277/3/6 282/3/6
f 280/3/6 281/3/6 283/3/6
f 282/6/6 272/6/6 283/6/6
f 272/3/6 280/3/6 283/3/6
f 281/3/6 275/3/6 284/3/6
f 283/3/6 281/3/6 284/3/6
f 275/3/6 260/3/6 284/3/6
f 284/3/6 260/3/6 285/3/6
f 285/3/6 260/3/6 286/3/6
f 286/3/6 260/3/6 287/3/6
f 282/3/6 283/3/6 288/3/6
f 283/3/6 284/3/6 288/3/6
f 288/3/6 284/3/6 289/3/6
f 284/5/6 285/5/6 290/5/6
f 289/3/6 284/3/6 290/3/6
f 285/3/6 286/3/6 291/3/6
f 290/5/6 285/5/6 291/5/6
f 291/3/6 286/3/6 292/3/6
f 286/6/6 287/6/6 293/6/6
f 292/3/6 286/3/6 293/3/6
f 287/3/6 260/3/6 294/3/6
f 293/6/6 287/6/6 294/6/6
f 288/5/6 289/5/6 295/5/6
f 282/3/6 288/3/6 295/3/6
f 291/3/6 292/3/6 296/3/6
f 295/5/6 289/5/6 296/5/6
f 289/3/6 290/3/6 296/3/6
f 290/3/6 291/3/6 296/3/6
f 292/4/6 293/4/6 297/4/6
f 296/3/6 292/3/6 297/3/6
f 293/3/6 294/3/6 298/3/6
f 297/4/6 293/4/6 298/4/6
f 295/3/6 296/3/6 299/3/6
f 276/3/6 282/3/6 299/3/6
f 297/3/6 298/3/6 299/3/6
f 296/3/6 297/3/6 299/3/6
f 265/3/6 276/3/6 299/3/6
f 282/3/6 295/3/6 299/3/6
f 299/3/6 298/3/6 300/3/6
f 265/3/6 299/3/6 301/3/6
f 299/4/6 300/4/6 301/4/6
f 300/3/6 298/3/6 302/3/6
f 301/4/6 300/4/6 302/4/6
f 301/3/6 302/3/6 303/3/6
f 302/3/6 298/3/6 303/3/6
f 303/3/6 298/3/6 304/3/6
f 301/3/6 303/3/6 305/3/6
f 303/4/6 304/4/6 305/4/6
f 304/3/6 298/3/6 306/3/6
f 305/4/6 304/4/6 306/4/6
f 301/3/6 305/3/6 307/3/6
f 305/3/6 306/3/6 307/3/6
f 307/3/6 306/3/6 308/3/6
f 301/3/6 307/3/6 309/3/6
f 309/3/6 307/3/6 310/3/6
f 307/4/6 308/4/6 311/4/6
f 310/3/6 307/3/6 311/3/6
f 308/3/6 306/3/6 312/3/6
f 311/4/6 308/4/6 312/4/6
f 306/3/6 298/3/6 313/3/6
f 312/3/6 306/3/6 313/3/6
f 313/3/6 298/3/6 314/3/6
f 309/4/6 310/4/6 315/4/6
f 301/3/6 309/3/6 315/3/6
f 311/3/6 312/3/6 316/3/6
f 315/4/6 310/4/6 316/4/6
f 310/3/6 311/3/6 316/3/6
f 312/3/6 313/3/6 316/3/6
f 313/6/6 314/6/6 317/6/6
f 316/3/6 313/3/6 317/3/6
f 314/3/6 298/3/6 318/3/6
f 317/6/6 314/6/6 318/6/6
f 315/3/6 316/3/6 319/3/6
f 318/3/6 298/3/6 319/3/6
f 317/3/6 318/3/6 319/3/6
f 316/3/6 317/3/6 319/3/6
f 319/3/6 298/3/6 320/3/6
f 315/3/6 319/3/6 321/3/6
f 321/3/6 319/3/6 322/3/6
f 319/5/6 320/5/6 323/5/6
f 322/3/6 319/3/6 323/3/6
f 320/3/6 298/3/6 324/3/6
f 323/5/6 320/5/6 324/5/6
f 321/6/6 322/6/6 325/6/6
f 315/3/6 321/3/6 325/3/6
f 322/3/6 323/3/6 326/3/6
f 325/6/6 322/6/6 326/6/6
f 323/3/6 324/3/6 326/3/6
f 324/3/6 298/3/6 327/3/6
f 326/3/6 324/3/6 327/3/6
f 298/3/6 294/3/6 328/3/6
f 327/3/6 298/3/6 328/3/6
f 294/3/6 260/3/6 329/3/6
f 328/3/6 294/3/6 329/3/6
f 329/3/6 260/3/6 330/3/6
f 326/3/6 327/3/6 331/3/6
f 315/3/6 325/3/6 331/3/6
f 325/3/6 326/3/6 331/3/6
f 331/3/6 327/3/6 332/3/6
f 327/6/6 328/6/6 333/6/6
f 332/3/6 327/3/6 333/3/6
f 328/3/6 329/3/6 334/3/6
f 333/6/6 328/6/6 334/6/6
f 329/4/6 330/4/6 335/4/6
f 334/3/6 329/3/6 335/3/6
f 330/3/6 260/3/6 336/3/6
f 335/4/6 330/4/6 336/4/6
f 331/6/6 332/6/6 337/6/6
f 315/3/6 331/3/6 337/3/6
f 334/3/6 335/3/6 338/3/6
f 337/6/6 332/6/6 338/6/6
f 333/3/6 334/3/6 338/3/6
f 335/3/6 336/3/6 338/3/6
f 332/3/6 333/3/6 338/3/6
f 260/3/6 248/3/6 339/3/6
f 338/3/6 336/3/6 339/3/6
f 337/3/6 338/3/6 339/3/6
f 336/3/6 260/3/6 339/3/6
f 339/3/6 248/3/6 340/3/6
f 337/3/6 339/3/6 341/3/6
f 341/3/6 339/3/6 342/3/6
f 339/5/6 340/5/6 343/5/6
f 342/3/6 339/3/6 343/3/6
f 340/3/6 248/3/6 344/3/6
f 343/5/6 340/5/6 344/5/6
f 341/6/6 342/6/6 345/6/6
f 337/3/6 341/3/6 345/3/6
f 342/3/6 343/3/6 346/3/6
f 345/6/6 342/6/6 346/6/6
f 343/3/6 344/3/6 346/3/6
f 337/3/6 345/3/6 347/3/6
f 345/3/6 346/3/6 347/3/6
f 347/3/6 346/3/6 348/3/6
f 346/3/6 344/3/6 349/3/6
f 348/3/6 346/3/6 349/3/6
f 349/3/6 344/3/6 350/3/6
f 347/5/6 348/5/6 351/5/6
f 337/3/6 347/3/6 351/3/6
f 348/3/6 349/3/6 352/3/6
f 351/5/6 348/5/6 352/5/6
f 349/4/6 350/4/6 353/4/6
f 352/3/6 349/3/6 353/3/6
f 350/3/6 344/3/6 354/3/6
f 353/4/6 350/4/6 354/4/6
f 29/3/6 37/3/6 355/3/6
f 301/3/6 315/3/6 355/3/6
f 353/3/6 354/3/6 355/3/6
f 337/3/6 351/3/6 355/3/6
f 351/3/6 352/3/6 355/3/6
f 315/3/6 337/3/6 355/3/6
f 352/3/6 353/3/6 355/3/6
f 37/3/6 265/3/6 355/3/6
f 265/3/6 301/3/6 355/3/6
f 248/3/6 30/3/6 356/3/6
f 355/3/6 354/3/6 356/3/6
f 354/3/6 344/3/6 356/3/6
f 344/3/6 248/3/6 356/3/6
