# MagicaVoxel @ Ephtracy

# group
g chicken

# material
mtllib chicken.mtl
usemtl palette

# normals
vn -1 0 0
vn 1 0 0
vn 0 0 1
vn 0 0 -1
vn 0 -1 0
vn 0 1 0

# texcoords
vt 0.0644531 0.5
vt 0.0878906 0.5
vt 0.841797 0.5
vt 0.958984 0.5
vt 0.990234 0.5

# verts
v -8.5 12 0.5
v -8.5 12 -0.5
v -8.5 13 1.5
v -8.5 13 0.5
v -8.5 13 -0.5
v -8.5 13 -1.5
v -8.5 15 1.5
v -8.5 15 -1.5
v -7.5 5 4.5
v -7.5 5 -4.5
v -7.5 6 5.5
v -7.5 6 4.5
v -7.5 6 -4.5
v -7.5 6 -5.5
v -7.5 12 5.5
v -7.5 12 4.5
v -7.5 12 0.5
v -7.5 12 -0.5
v -7.5 12 -4.5
v -7.5 12 -5.5
v -7.5 13 4.5
v -7.5 13 3.5
v -7.5 13 1.5
v -7.5 13 0.5
v -7.5 13 -0.5
v -7.5 13 -1.5
v -7.5 13 -3.5
v -7.5 13 -4.5
v -7.5 15 2.5
v -7.5 15 1.5
v -7.5 15 -1.5
v -7.5 15 -2.5
v -7.5 16 2.5
v -7.5 16 1.5
v -7.5 16 -1.5
v -7.5 16 -2.5
v -7.5 18 3.5
v -7.5 18 -3.5
v -3.5 2 3.5
v -3.5 2 2.5
v -3.5 2 1.5
v -3.5 2 0.5
v -3.5 2 -0.5
v -3.5 2 -1.5
v -3.5 2 -2.5
v -3.5 2 -3.5
v -3.5 3 3.5
v -3.5 3 2.5
v -3.5 3 1.5
v -3.5 3 0.5
v -3.5 3 -0.5
v -3.5 3 -1.5
v -3.5 3 -2.5
v -3.5 3 -3.5
v -2.5 2 2.5
v -2.5 2 1.5
v -2.5 2 -1.5
v -2.5 2 -2.5
v -2.5 3 2.5
v -2.5 3 1.5
v -2.5 3 -1.5
v -2.5 3 -2.5
v -2.5 5 2.5
v -2.5 5 1.5
v -2.5 5 -1.5
v -2.5 5 -2.5
v 4.5 13 1.5
v 4.5 13 -1.5
v 4.5 14 1.5
v 4.5 14 0.5
v 4.5 14 -0.5
v 4.5 14 -1.5
v 4.5 15 0.5
v 4.5 15 -0.5
v -0.5 2 3.5
v -0.5 2 0.5
v -0.5 2 -0.5
v -0.5 2 -3.5
v -0.5 3 3.5
v -0.5 3 2.5
v -0.5 3 1.5
v -0.5 3 0.5
v -0.5 3 -0.5
v -0.5 3 -1.5
v -0.5 3 -2.5
v -0.5 3 -3.5
v -0.5 5 2.5
v -0.5 5 1.5
v -0.5 5 -1.5
v -0.5 5 -2.5
v -0.5 13 3.5
v -0.5 13 -3.5
v -0.5 18 3.5
v -0.5 18 -3.5
v 4.5 5 4.5
v 4.5 5 -4.5
v 4.5 6 5.5
v 4.5 6 4.5
v 4.5 6 -4.5
v 4.5 6 -5.5
v 4.5 8 1.5
v 4.5 8 -1.5
v 4.5 9 2.5
v 4.5 9 1.5
v 4.5 9 -1.5
v 4.5 9 -2.5
v 4.5 12 5.5
v 4.5 12 4.5
v 4.5 12 -4.5
v 4.5 12 -5.5
v 4.5 13 4.5
v 4.5 13 2.5
v 4.5 13 -2.5
v 4.5 13 -4.5
v 6.5 8 1.5
v 6.5 8 -1.5
v 6.5 9 2.5
v 6.5 9 1.5
v 6.5 9 -1.5
v 6.5 9 -2.5
v 6.5 13 2.5
v 6.5 13 1.5
v 6.5 13 -1.5
v 6.5 13 -2.5
v 6.5 14 1.5
v 6.5 14 0.5
v 6.5 14 -0.5
v 6.5 14 -1.5
v 6.5 15 0.5
v 6.5 15 -0.5
v -7.5 6 5.5
v -7.5 12 5.5
v 4.5 6 5.5
v 4.5 12 5.5
v -7.5 5 4.5
v -7.5 6 4.5
v -7.5 12 4.5
v -7.5 13 4.5
v 4.5 5 4.5
v 4.5 6 4.5
v 4.5 12 4.5
v 4.5 13 4.5
v -7.5 13 3.5
v -7.5 18 3.5
v -3.5 2 3.5
v -3.5 3 3.5
v -0.5 2 3.5
v -0.5 3 3.5
v -0.5 13 3.5
v -0.5 18 3.5
v -2.5 3 2.5
v -2.5 5 2.5
v -0.5 3 2.5
v -0.5 5 2.5
v 4.5 9 2.5
v 4.5 13 2.5
v 6.5 9 2.5
v 6.5 13 2.5
v -8.5 13 1.5
v -8.5 15 1.5
v -7.5 13 1.5
v -7.5 15 1.5
v -3.5 2 1.5
v -3.5 3 1.5
v -2.5 2 1.5
v -2.5 3 1.5
v 4.5 8 1.5
v 4.5 9 1.5
v 4.5 13 1.5
v 4.5 14 1.5
v 6.5 8 1.5
v 6.5 9 1.5
v 6.5 13 1.5
v 6.5 14 1.5
v -8.5 12 0.5
v -8.5 13 0.5
v -7.5 12 0.5
v -7.5 13 0.5
v 4.5 14 0.5
v 4.5 15 0.5
v 6.5 14 0.5
v 6.5 15 0.5
v -3.5 2 -0.5
v -3.5 3 -0.5
v -0.5 2 -0.5
v -0.5 3 -0.5
v -2.5 3 -1.5
v -2.5 5 -1.5
v -0.5 3 -1.5
v -0.5 5 -1.5
v -3.5 2 -2.5
v -3.5 3 -2.5
v -2.5 2 -2.5
v -2.5 3 -2.5
v -3.5 2 2.5
v -3.5 3 2.5
v -2.5 2 2.5
v -2.5 3 2.5
v -2.5 3 1.5
v -2.5 5 1.5
v -0.5 3 1.5
v -0.5 5 1.5
v -3.5 2 0.5
v -3.5 3 0.5
v -0.5 2 0.5
v -0.5 3 0.5
v -8.5 12 -0.5
v -8.5 13 -0.5
v -7.5 12 -0.5
v -7.5 13 -0.5
v 4.5 14 -0.5
v 4.5 15 -0.5
v 6.5 14 -0.5
v 6.5 15 -0.5
v -8.5 13 -1.5
v -8.5 15 -1.5
v -7.5 13 -1.5
v -7.5 15 -1.5
v -3.5 2 -1.5
v -3.5 3 -1.5
v -2.5 2 -1.5
v -2.5 3 -1.5
v 4.5 8 -1.5
v 4.5 9 -1.5
v 4.5 13 -1.5
v 4.5 14 -1.5
v 6.5 8 -1.5
v 6.5 9 -1.5
v 6.5 13 -1.5
v 6.5 14 -1.5
v -2.5 3 -2.5
v -2.5 5 -2.5
v -0.5 3 -2.5
v -0.5 5 -2.5
v 4.5 9 -2.5
v 4.5 13 -2.5
v 6.5 9 -2.5
v 6.5 13 -2.5
v -7.5 13 -3.5
v -7.5 18 -3.5
v -3.5 2 -3.5
v -3.5 3 -3.5
v -0.5 2 -3.5
v -0.5 3 -3.5
v -0.5 13 -3.5
v -0.5 18 -3.5
v -7.5 5 -4.5
v -7.5 6 -4.5
v -7.5 12 -4.5
v -7.5 13 -4.5
v 4.5 5 -4.5
v 4.5 6 -4.5
v 4.5 12 -4.5
v 4.5 13 -4.5
v -7.5 6 -5.5
v -7.5 12 -5.5
v 4.5 6 -5.5
v 4.5 12 -5.5
v -3.5 2 3.5
v -0.5 2 3.5
v -3.5 2 2.5
v -2.5 2 2.5
v -3.5 2 1.5
v -2.5 2 1.5
v -3.5 2 0.5
v -0.5 2 0.5
v -3.5 2 -0.5
v -0.5 2 -0.5
v -3.5 2 -1.5
v -2.5 2 -1.5
v -3.5 2 -2.5
v -2.5 2 -2.5
v -3.5 2 -3.5
v -0.5 2 -3.5
v -7.5 5 4.5
v 4.5 5 4.5
v -2.5 5 2.5
v -0.5 5 2.5
v -2.5 5 1.5
v -0.5 5 1.5
v -2.5 5 -1.5
v -0.5 5 -1.5
v -2.5 5 -2.5
v -0.5 5 -2.5
v -7.5 5 -4.5
v 4.5 5 -4.5
v -7.5 6 5.5
v 4.5 6 5.5
v -7.5 6 4.5
v 4.5 6 4.5
v -7.5 6 -4.5
v 4.5 6 -4.5
v -7.5 6 -5.5
v 4.5 6 -5.5
v 4.5 8 1.5
v 6.5 8 1.5
v 4.5 8 -1.5
v 6.5 8 -1.5
v 4.5 9 2.5
v 6.5 9 2.5
v 4.5 9 1.5
v 6.5 9 1.5
v 4.5 9 -1.5
v 6.5 9 -1.5
v 4.5 9 -2.5
v 6.5 9 -2.5
v -8.5 12 0.5
v -7.5 12 0.5
v -8.5 12 -0.5
v -7.5 12 -0.5
v -8.5 13 1.5
v -7.5 13 1.5
v -8.5 13 0.5
v -7.5 13 0.5
v -8.5 13 -0.5
v -7.5 13 -0.5
v -8.5 13 -1.5
v -7.5 13 -1.5
v -3.5 3 3.5
v -0.5 3 3.5
v -3.5 3 2.5
v -2.5 3 2.5
v -0.5 3 2.5
v -3.5 3 1.5
v -2.5 3 1.5
v -0.5 3 1.5
v -3.5 3 0.5
v -0.5 3 0.5
v -3.5 3 -0.5
v -0.5 3 -0.5
v -3.5 3 -1.5
v -2.5 3 -1.5
v -0.5 3 -1.5
v -3.5 3 -2.5
v -2.5 3 -2.5
v -0.5 3 -2.5
v -3.5 3 -3.5
v -0.5 3 -3.5
v -7.5 12 5.5
v 4.5 12 5.5
v -7.5 12 4.5
v 4.5 12 4.5
v -7.5 12 -4.5
v 4.5 12 -4.5
v -7.5 12 -5.5
v 4.5 12 -5.5
v -7.5 13 4.5
v 4.5 13 4.5
v -7.5 13 3.5
v -0.5 13 3.5
v 4.5 13 2.5
v 6.5 13 2.5
v 4.5 13 1.5
v 6.5 13 1.5
v 4.5 13 -1.5
v 6.5 13 -1.5
v 4.5 13 -2.5
v 6.5 13 -2.5
v -7.5 13 -3.5
v -0.5 13 -3.5
v -7.5 13 -4.5
v 4.5 13 -4.5
v 4.5 14 1.5
v 6.5 14 1.5
v 4.5 14 0.5
v 6.5 14 0.5
v 4.5 14 -0.5
v 6.5 14 -0.5
v 4.5 14 -1.5
v 6.5 14 -1.5
v -8.5 15 1.5
v -7.5 15 1.5
v 4.5 15 0.5
v 6.5 15 0.5
v 4.5 15 -0.5
v 6.5 15 -0.5
v -8.5 15 -1.5
v -7.5 15 -1.5
v -7.5 18 3.5
v -0.5 18 3.5
v -7.5 18 -3.5
v -0.5 18 -3.5

# faces
f 4/3/1 2/3/1 1/3/1
f 5/3/1 2/3/1 4/3/1
f 7/1/1 4/1/1 3/1/1
f 7/1/1 6/1/1 5/1/1
f 7/1/1 5/1/1 4/1/1
f 8/1/1 6/1/1 7/1/1
f 12/4/1 10/4/1 9/4/1
f 13/4/1 10/4/1 12/4/1
f 15/4/1 12/4/1 11/4/1
f 15/4/1 14/4/1 13/4/1
f 15/4/1 13/4/1 12/4/1
f 16/4/1 14/4/1 15/4/1
f 17/4/1 14/4/1 16/4/1
f 18/4/1 14/4/1 17/4/1
f 19/4/1 14/4/1 18/4/1
f 20/4/1 14/4/1 19/4/1
f 21/4/1 17/4/1 16/4/1
f 22/4/1 17/4/1 21/4/1
f 23/4/1 17/4/1 22/4/1
f 24/4/1 17/4/1 23/4/1
f 25/4/1 19/4/1 18/4/1
f 26/4/1 19/4/1 25/4/1
f 27/4/1 19/4/1 26/4/1
f 28/4/1 19/4/1 27/4/1
f 29/4/1 23/4/1 22/4/1
f 30/4/1 23/4/1 29/4/1
f 31/4/1 27/4/1 26/4/1
f 32/4/1 27/4/1 31/4/1
f 33/5/1 30/5/1 29/5/1
f 33/4/1 29/4/1 22/4/1
f 34/4/1 31/4/1 30/4/1
f 34/5/1 30/5/1 33/5/1
f 35/5/1 32/5/1 31/5/1
f 35/4/1 31/4/1 34/4/1
f 36/4/1 27/4/1 32/4/1
f 36/5/1 32/5/1 35/5/1
f 37/4/1 35/4/1 34/4/1
f 37/4/1 34/4/1 33/4/1
f 37/4/1 36/4/1 35/4/1
f 37/4/1 33/4/1 22/4/1
f 38/4/1 27/4/1 36/4/1
f 38/4/1 36/4/1 37/4/1
f 47/2/1 40/2/1 39/2/1
f 48/2/1 40/2/1 47/2/1
f 49/2/1 42/2/1 41/2/1
f 50/2/1 42/2/1 49/2/1
f 51/2/1 44/2/1 43/2/1
f 52/2/1 44/2/1 51/2/1
f 53/2/1 46/2/1 45/2/1
f 54/2/1 46/2/1 53/2/1
f 59/2/1 56/2/1 55/2/1
f 60/2/1 56/2/1 59/2/1
f 61/2/1 58/2/1 57/2/1
f 62/2/1 58/2/1 61/2/1
f 63/2/1 60/2/1 59/2/1
f 64/2/1 60/2/1 63/2/1
f 65/2/1 62/2/1 61/2/1
f 66/2/1 62/2/1 65/2/1
f 69/4/1 68/4/1 67/4/1
f 70/4/1 68/4/1 69/4/1
f 71/4/1 68/4/1 70/4/1
f 72/4/1 68/4/1 71/4/1
f 73/4/1 71/4/1 70/4/1
f 74/4/1 71/4/1 73/4/1
f 75/2/2 76/2/2 79/2/2
f 79/2/2 76/2/2 80/2/2
f 80/2/2 76/2/2 81/2/2
f 81/2/2 76/2/2 82/2/2
f 77/2/2 78/2/2 83/2/2
f 83/2/2 78/2/2 84/2/2
f 84/2/2 78/2/2 85/2/2
f 85/2/2 78/2/2 86/2/2
f 80/2/2 81/2/2 87/2/2
f 87/2/2 81/2/2 88/2/2
f 84/2/2 85/2/2 89/2/2
f 89/2/2 85/2/2 90/2/2
f 91/4/2 92/4/2 93/4/2
f 93/4/2 92/4/2 94/4/2
f 95/4/2 96/4/2 98/4/2
f 98/4/2 96/4/2 99/4/2
f 97/4/2 98/4/2 101/4/2
f 99/4/2 100/4/2 101/4/2
f 98/4/2 99/4/2 101/4/2
f 101/4/2 100/4/2 102/4/2
f 97/4/2 101/4/2 103/4/2
f 103/4/2 101/4/2 104/4/2
f 102/4/2 100/4/2 105/4/2
f 105/4/2 100/4/2 106/4/2
f 97/4/2 103/4/2 107/4/2
f 107/4/2 103/4/2 108/4/2
f 106/4/2 100/4/2 109/4/2
f 109/4/2 100/4/2 110/4/2
f 108/4/2 103/4/2 111/4/2
f 111/4/2 103/4/2 112/4/2
f 106/4/2 109/4/2 113/4/2
f 113/4/2 109/4/2 114/4/2
f 115/4/2 116/4/2 118/4/2
f 118/4/2 116/4/2 119/4/2
f 117/4/2 118/4/2 121/4/2
f 119/4/2 120/4/2 121/4/2
f 118/4/2 119/4/2 121/4/2
f 121/4/2 120/4/2 122/4/2
f 122/4/2 120/4/2 123/4/2
f 123/4/2 120/4/2 124/4/2
f 122/4/2 123/4/2 125/4/2
f 125/4/2 123/4/2 126/4/2
f 126/4/2 123/4/2 127/4/2
f 127/4/2 123/4/2 128/4/2
f 126/4/2 127/4/2 129/4/2
f 129/4/2 127/4/2 130/4/2
f 133/4/3 132/4/3 131/4/3
f 134/4/3 132/4/3 133/4/3
f 139/4/3 136/4/3 135/4/3
f 140/4/3 136/4/3 139/4/3
f 141/4/3 138/4/3 137/4/3
f 142/4/3 138/4/3 141/4/3
f 147/2/3 146/2/3 145/2/3
f 148/2/3 146/2/3 147/2/3
f 149/4/3 144/4/3 143/4/3
f 150/4/3 144/4/3 149/4/3
f 153/2/3 152/2/3 151/2/3
f 154/2/3 152/2/3 153/2/3
f 157/4/3 156/4/3 155/4/3
f 158/4/3 156/4/3 157/4/3
f 161/1/3 160/1/3 159/1/3
f 162/1/3 160/1/3 161/1/3
f 165/2/3 164/2/3 163/2/3
f 166/2/3 164/2/3 165/2/3
f 171/4/3 168/4/3 167/4/3
f 172/4/3 168/4/3 171/4/3
f 173/4/3 170/4/3 169/4/3
f 174/4/3 170/4/3 173/4/3
f 177/3/3 176/3/3 175/3/3
f 178/3/3 176/3/3 177/3/3
f 181/4/3 180/4/3 179/4/3
f 182/4/3 180/4/3 181/4/3
f 185/2/3 184/2/3 183/2/3
f 186/2/3 184/2/3 185/2/3
f 189/2/3 188/2/3 187/2/3
f 190/2/3 188/2/3 189/2/3
f 193/2/3 192/2/3 191/2/3
f 194/2/3 192/2/3 193/2/3
f 195/2/4 196/2/4 197/2/4
f 197/2/4 196/2/4 198/2/4
f 199/2/4 200/2/4 201/2/4
f 201/2/4 200/2/4 202/2/4
f 203/2/4 204/2/4 205/2/4
f 205/2/4 204/2/4 206/2/4
f 207/3/4 208/3/4 209/3/4
f 209/3/4 208/3/4 210/3/4
f 211/4/4 212/4/4 213/4/4
f 213/4/4 212/4/4 214/4/4
f 215/1/4 216/1/4 217/1/4
f 217/1/4 216/1/4 218/1/4
f 219/2/4 220/2/4 221/2/4
f 221/2/4 220/2/4 222/2/4
f 223/4/4 224/4/4 227/4/4
f 227/4/4 224/4/4 228/4/4
f 225/4/4 226/4/4 229/4/4
f 229/4/4 226/4/4 230/4/4
f 231/2/4 232/2/4 233/2/4
f 233/2/4 232/2/4 234/2/4
f 235/4/4 236/4/4 237/4/4
f 237/4/4 236/4/4 238/4/4
f 241/2/4 242/2/4 243/2/4
f 243/2/4 242/2/4 244/2/4
f 239/4/4 240/4/4 245/4/4
f 245/4/4 240/4/4 246/4/4
f 247/4/4 248/4/4 251/4/4
f 251/4/4 248/4/4 252/4/4
f 249/4/4 250/4/4 253/4/4
f 253/4/4 250/4/4 254/4/4
f 255/4/4 256/4/4 257/4/4
f 257/4/4 256/4/4 258/4/4
f 261/2/5 260/2/5 259/2/5
f 262/2/5 260/2/5 261/2/5
f 264/2/5 260/2/5 262/2/5
f 265/2/5 264/2/5 263/2/5
f 266/2/5 260/2/5 264/2/5
f 266/2/5 264/2/5 265/2/5
f 269/2/5 268/2/5 267/2/5
f 270/2/5 268/2/5 269/2/5
f 272/2/5 268/2/5 270/2/5
f 273/2/5 272/2/5 271/2/5
f 274/2/5 268/2/5 272/2/5
f 274/2/5 272/2/5 273/2/5
f 277/4/5 276/4/5 275/4/5
f 278/4/5 276/4/5 277/4/5
f 279/4/5 277/4/5 275/4/5
f 280/4/5 276/4/5 278/4/5
f 281/4/5 279/4/5 275/4/5
f 281/4/5 280/4/5 279/4/5
f 282/4/5 276/4/5 280/4/5
f 282/4/5 280/4/5 281/4/5
f 283/4/5 281/4/5 275/4/5
f 284/4/5 276/4/5 282/4/5
f 285/4/5 283/4/5 275/4/5
f 285/4/5 284/4/5 283/4/5
f 286/4/5 276/4/5 284/4/5
f 286/4/5 284/4/5 285/4/5
f 289/4/5 288/4/5 287/4/5
f 290/4/5 288/4/5 289/4/5
f 293/4/5 292/4/5 291/4/5
f 294/4/5 292/4/5 293/4/5
f 297/4/5 296/4/5 295/4/5
f 298/4/5 296/4/5 297/4/5
f 301/4/5 300/4/5 299/4/5
f 302/4/5 300/4/5 301/4/5
f 305/4/5 304/4/5 303/4/5
f 306/4/5 304/4/5 305/4/5
f 309/3/5 308/3/5 307/3/5
f 310/3/5 308/3/5 309/3/5
f 313/1/5 312/1/5 311/1/5
f 314/1/5 312/1/5 313/1/5
f 317/1/5 316/1/5 315/1/5
f 318/1/5 316/1/5 317/1/5
f 319/2/6 320/2/6 321/2/6
f 321/2/6 320/2/6 322/2/6
f 322/2/6 320/2/6 323/2/6
f 324/2/6 325/2/6 327/2/6
f 325/2/6 326/2/6 327/2/6
f 327/2/6 326/2/6 328/2/6
f 329/2/6 330/2/6 331/2/6
f 331/2/6 330/2/6 332/2/6
f 332/2/6 330/2/6 333/2/6
f 334/2/6 335/2/6 337/2/6
f 335/2/6 336/2/6 337/2/6
f 337/2/6 336/2/6 338/2/6
f 339/4/6 340/4/6 341/4/6
f 341/4/6 340/4/6 342/4/6
f 343/4/6 344/4/6 345/4/6
f 345/4/6 344/4/6 346/4/6
f 347/4/6 348/4/6 349/4/6
f 349/4/6 348/4/6 350/4/6
f 350/4/6 348/4/6 351/4/6
f 350/4/6 351/4/6 353/4/6
f 351/4/6 352/4/6 353/4/6
f 353/4/6 352/4/6 354/4/6
f 350/4/6 353/4/6 355/4/6
f 350/4/6 355/4/6 357/4/6
f 355/4/6 356/4/6 357/4/6
f 357/4/6 356/4/6 358/4/6
f 350/4/6 357/4/6 360/4/6
f 359/4/6 360/4/6 361/4/6
f 360/4/6 357/4/6 362/4/6
f 361/4/6 360/4/6 362/4/6
f 363/4/6 364/4/6 365/4/6
f 365/4/6 364/4/6 366/4/6
f 367/4/6 368/4/6 369/4/6
f 369/4/6 368/4/6 370/4/6
f 373/4/6 374/4/6 375/4/6
f 375/4/6 374/4/6 376/4/6
f 371/1/6 372/1/6 377/1/6
f 377/1/6 372/1/6 378/1/6
f 379/4/6 380/4/6 381/4/6
f 381/4/6 380/4/6 382/4/6
