# MagicaVoxel @ Ephtracy

# group
g chicken_sep

# material
mtllib chicken_sep.mtl
usemtl palette

# normals
vn -1 0 0
vn 1 0 0
vn 0 0 1
vn 0 0 -1
vn 0 -1 0
vn 0 1 0

# texcoords
vt 0.0644531 0.5
vt 0.0878906 0.5
vt 0.841797 0.5
vt 0.958984 0.5
vt 0.990234 0.5

# verts
v -8.5 12 0.5
v -8.5 12 -0.5
v -8.5 13 1.5
v -8.5 13 0.5
v -8.5 13 -0.5
v -8.5 13 -1.5
v -8.5 15 1.5
v -8.5 15 -1.5
v -7.5 5 4.5
v -7.5 5 -4.5
v -7.5 6 5.5
v -7.5 6 4.5
v -7.5 6 -4.5
v -7.5 6 -5.5
v -7.5 12 5.5
v -7.5 12 4.5
v -7.5 12 0.5
v -7.5 12 -0.5
v -7.5 12 -4.5
v -7.5 12 -5.5
v -7.5 13 4.5
v -7.5 13 3.5
v -7.5 13 1.5
v -7.5 13 0.5
v -7.5 13 -0.5
v -7.5 13 -1.5
v -7.5 13 -3.5
v -7.5 13 -4.5
v -7.5 15 2.5
v -7.5 15 1.5
v -7.5 15 -1.5
v -7.5 15 -2.5
v -7.5 16 2.5
v -7.5 16 1.5
v -7.5 16 -1.5
v -7.5 16 -2.5
v -7.5 18 3.5
v -7.5 18 0.5
v -7.5 18 -0.5
v -7.5 18 -3.5
v -7.5 19 0.5
v -7.5 19 -0.5
v -3.5 1 3.5
v -3.5 1 2.5
v -3.5 1 1.5
v -3.5 1 0.5
v -3.5 1 -0.5
v -3.5 1 -1.5
v -3.5 1 -2.5
v -3.5 1 -3.5
v -3.5 2 3.5
v -3.5 2 2.5
v -3.5 2 1.5
v -3.5 2 0.5
v -3.5 2 -0.5
v -3.5 2 -1.5
v -3.5 2 -2.5
v -3.5 2 -3.5
v -2.5 1 2.5
v -2.5 1 1.5
v -2.5 1 -1.5
v -2.5 1 -2.5
v -2.5 2 2.5
v -2.5 2 1.5
v -2.5 2 -1.5
v -2.5 2 -2.5
v -2.5 4 2.5
v -2.5 4 1.5
v -2.5 4 -1.5
v -2.5 4 -2.5
v 4.5 13 1.5
v 4.5 13 -1.5
v 4.5 14 1.5
v 4.5 14 0.5
v 4.5 14 -0.5
v 4.5 14 -1.5
v 4.5 15 0.5
v 4.5 15 -0.5
v -5.5 18 0.5
v -5.5 18 -0.5
v -5.5 19 0.5
v -5.5 19 -0.5
v -0.5 1 3.5
v -0.5 1 0.5
v -0.5 1 -0.5
v -0.5 1 -3.5
v -0.5 2 3.5
v -0.5 2 2.5
v -0.5 2 1.5
v -0.5 2 0.5
v -0.5 2 -0.5
v -0.5 2 -1.5
v -0.5 2 -2.5
v -0.5 2 -3.5
v -0.5 4 2.5
v -0.5 4 1.5
v -0.5 4 -1.5
v -0.5 4 -2.5
v -0.5 13 3.5
v -0.5 13 -3.5
v -0.5 18 3.5
v -0.5 18 -3.5
v 4.5 5 4.5
v 4.5 5 -4.5
v 4.5 6 5.5
v 4.5 6 4.5
v 4.5 6 -4.5
v 4.5 6 -5.5
v 4.5 8 1.5
v 4.5 8 -1.5
v 4.5 9 2.5
v 4.5 9 1.5
v 4.5 9 -1.5
v 4.5 9 -2.5
v 4.5 12 5.5
v 4.5 12 4.5
v 4.5 12 -4.5
v 4.5 12 -5.5
v 4.5 13 4.5
v 4.5 13 2.5
v 4.5 13 -2.5
v 4.5 13 -4.5
v 6.5 8 1.5
v 6.5 8 -1.5
v 6.5 9 2.5
v 6.5 9 1.5
v 6.5 9 -1.5
v 6.5 9 -2.5
v 6.5 13 2.5
v 6.5 13 1.5
v 6.5 13 -1.5
v 6.5 13 -2.5
v 6.5 14 1.5
v 6.5 14 0.5
v 6.5 14 -0.5
v 6.5 14 -1.5
v 6.5 15 0.5
v 6.5 15 -0.5
v -7.5 6 5.5
v -7.5 12 5.5
v 4.5 6 5.5
v 4.5 12 5.5
v -7.5 5 4.5
v -7.5 6 4.5
v -7.5 12 4.5
v -7.5 13 4.5
v 4.5 5 4.5
v 4.5 6 4.5
v 4.5 12 4.5
v 4.5 13 4.5
v -7.5 13 3.5
v -7.5 18 3.5
v -3.5 1 3.5
v -3.5 2 3.5
v -0.5 1 3.5
v -0.5 2 3.5
v -0.5 13 3.5
v -0.5 18 3.5
v -2.5 2 2.5
v -2.5 4 2.5
v -0.5 2 2.5
v -0.5 4 2.5
v 4.5 9 2.5
v 4.5 13 2.5
v 6.5 9 2.5
v 6.5 13 2.5
v -8.5 13 1.5
v -8.5 15 1.5
v -7.5 13 1.5
v -7.5 15 1.5
v -3.5 1 1.5
v -3.5 2 1.5
v -2.5 1 1.5
v -2.5 2 1.5
v 4.5 8 1.5
v 4.5 9 1.5
v 4.5 13 1.5
v 4.5 14 1.5
v 6.5 8 1.5
v 6.5 9 1.5
v 6.5 13 1.5
v 6.5 14 1.5
v -8.5 12 0.5
v -8.5 13 0.5
v -7.5 12 0.5
v -7.5 13 0.5
v -7.5 18 0.5
v -7.5 19 0.5
v -5.5 18 0.5
v -5.5 19 0.5
v 4.5 14 0.5
v 4.5 15 0.5
v 6.5 14 0.5
v 6.5 15 0.5
v -3.5 1 -0.5
v -3.5 2 -0.5
v -0.5 1 -0.5
v -0.5 2 -0.5
v -2.5 2 -1.5
v -2.5 4 -1.5
v -0.5 2 -1.5
v -0.5 4 -1.5
v -3.5 1 -2.5
v -3.5 2 -2.5
v -2.5 1 -2.5
v -2.5 2 -2.5
v -3.5 1 2.5
v -3.5 2 2.5
v -2.5 1 2.5
v -2.5 2 2.5
v -2.5 2 1.5
v -2.5 4 1.5
v -0.5 2 1.5
v -0.5 4 1.5
v -3.5 1 0.5
v -3.5 2 0.5
v -0.5 1 0.5
v -0.5 2 0.5
v -8.5 12 -0.5
v -8.5 13 -0.5
v -7.5 12 -0.5
v -7.5 13 -0.5
v -7.5 18 -0.5
v -7.5 19 -0.5
v -5.5 18 -0.5
v -5.5 19 -0.5
v 4.5 14 -0.5
v 4.5 15 -0.5
v 6.5 14 -0.5
v 6.5 15 -0.5
v -8.5 13 -1.5
v -8.5 15 -1.5
v -7.5 13 -1.5
v -7.5 15 -1.5
v -3.5 1 -1.5
v -3.5 2 -1.5
v -2.5 1 -1.5
v -2.5 2 -1.5
v 4.5 8 -1.5
v 4.5 9 -1.5
v 4.5 13 -1.5
v 4.5 14 -1.5
v 6.5 8 -1.5
v 6.5 9 -1.5
v 6.5 13 -1.5
v 6.5 14 -1.5
v -2.5 2 -2.5
v -2.5 4 -2.5
v -0.5 2 -2.5
v -0.5 4 -2.5
v 4.5 9 -2.5
v 4.5 13 -2.5
v 6.5 9 -2.5
v 6.5 13 -2.5
v -7.5 13 -3.5
v -7.5 18 -3.5
v -3.5 1 -3.5
v -3.5 2 -3.5
v -0.5 1 -3.5
v -0.5 2 -3.5
v -0.5 13 -3.5
v -0.5 18 -3.5
v -7.5 5 -4.5
v -7.5 6 -4.5
v -7.5 12 -4.5
v -7.5 13 -4.5
v 4.5 5 -4.5
v 4.5 6 -4.5
v 4.5 12 -4.5
v 4.5 13 -4.5
v -7.5 6 -5.5
v -7.5 12 -5.5
v 4.5 6 -5.5
v 4.5 12 -5.5
v -3.5 1 3.5
v -0.5 1 3.5
v -3.5 1 2.5
v -2.5 1 2.5
v -3.5 1 1.5
v -2.5 1 1.5
v -3.5 1 0.5
v -0.5 1 0.5
v -3.5 1 -0.5
v -0.5 1 -0.5
v -3.5 1 -1.5
v -2.5 1 -1.5
v -3.5 1 -2.5
v -2.5 1 -2.5
v -3.5 1 -3.5
v -0.5 1 -3.5
v -7.5 5 4.5
v 4.5 5 4.5
v -7.5 5 -4.5
v 4.5 5 -4.5
v -7.5 6 5.5
v 4.5 6 5.5
v -7.5 6 4.5
v 4.5 6 4.5
v -7.5 6 -4.5
v 4.5 6 -4.5
v -7.5 6 -5.5
v 4.5 6 -5.5
v 4.5 8 1.5
v 6.5 8 1.5
v 4.5 8 -1.5
v 6.5 8 -1.5
v 4.5 9 2.5
v 6.5 9 2.5
v 4.5 9 1.5
v 6.5 9 1.5
v 4.5 9 -1.5
v 6.5 9 -1.5
v 4.5 9 -2.5
v 6.5 9 -2.5
v -8.5 12 0.5
v -7.5 12 0.5
v -8.5 12 -0.5
v -7.5 12 -0.5
v -8.5 13 1.5
v -7.5 13 1.5
v -8.5 13 0.5
v -7.5 13 0.5
v -8.5 13 -0.5
v -7.5 13 -0.5
v -8.5 13 -1.5
v -7.5 13 -1.5
v -3.5 2 3.5
v -0.5 2 3.5
v -3.5 2 2.5
v -2.5 2 2.5
v -0.5 2 2.5
v -3.5 2 1.5
v -2.5 2 1.5
v -0.5 2 1.5
v -3.5 2 0.5
v -0.5 2 0.5
v -3.5 2 -0.5
v -0.5 2 -0.5
v -3.5 2 -1.5
v -2.5 2 -1.5
v -0.5 2 -1.5
v -3.5 2 -2.5
v -2.5 2 -2.5
v -0.5 2 -2.5
v -3.5 2 -3.5
v -0.5 2 -3.5
v -2.5 4 2.5
v -0.5 4 2.5
v -2.5 4 1.5
v -0.5 4 1.5
v -2.5 4 -1.5
v -0.5 4 -1.5
v -2.5 4 -2.5
v -0.5 4 -2.5
v -7.5 12 5.5
v 4.5 12 5.5
v -7.5 12 4.5
v 4.5 12 4.5
v -7.5 12 -4.5
v 4.5 12 -4.5
v -7.5 12 -5.5
v 4.5 12 -5.5
v -7.5 13 4.5
v 4.5 13 4.5
v -7.5 13 3.5
v -0.5 13 3.5
v 4.5 13 2.5
v 6.5 13 2.5
v 4.5 13 1.5
v 6.5 13 1.5
v 4.5 13 -1.5
v 6.5 13 -1.5
v 4.5 13 -2.5
v 6.5 13 -2.5
v -7.5 13 -3.5
v -0.5 13 -3.5
v -7.5 13 -4.5
v 4.5 13 -4.5
v 4.5 14 1.5
v 6.5 14 1.5
v 4.5 14 0.5
v 6.5 14 0.5
v 4.5 14 -0.5
v 6.5 14 -0.5
v 4.5 14 -1.5
v 6.5 14 -1.5
v -8.5 15 1.5
v -7.5 15 1.5
v 4.5 15 0.5
v 6.5 15 0.5
v 4.5 15 -0.5
v 6.5 15 -0.5
v -8.5 15 -1.5
v -7.5 15 -1.5
v -7.5 18 3.5
v -0.5 18 3.5
v -7.5 18 0.5
v -5.5 18 0.5
v -7.5 18 -0.5
v -5.5 18 -0.5
v -7.5 18 -3.5
v -0.5 18 -3.5
v -7.5 19 0.5
v -5.5 19 0.5
v -7.5 19 -0.5
v -5.5 19 -0.5

# faces
f 4/3/1 2/3/1 1/3/1
f 5/3/1 2/3/1 4/3/1
f 7/1/1 4/1/1 3/1/1
f 7/1/1 6/1/1 5/1/1
f 7/1/1 5/1/1 4/1/1
f 8/1/1 6/1/1 7/1/1
f 12/4/1 10/4/1 9/4/1
f 13/4/1 10/4/1 12/4/1
f 15/4/1 12/4/1 11/4/1
f 15/4/1 14/4/1 13/4/1
f 15/4/1 13/4/1 12/4/1
f 16/4/1 14/4/1 15/4/1
f 17/4/1 14/4/1 16/4/1
f 18/4/1 14/4/1 17/4/1
f 19/4/1 14/4/1 18/4/1
f 20/4/1 14/4/1 19/4/1
f 21/4/1 17/4/1 16/4/1
f 22/4/1 17/4/1 21/4/1
f 23/4/1 17/4/1 22/4/1
f 24/4/1 17/4/1 23/4/1
f 25/4/1 19/4/1 18/4/1
f 26/4/1 19/4/1 25/4/1
f 27/4/1 19/4/1 26/4/1
f 28/4/1 19/4/1 27/4/1
f 29/4/1 23/4/1 22/4/1
f 30/4/1 23/4/1 29/4/1
f 31/4/1 27/4/1 26/4/1
f 32/4/1 27/4/1 31/4/1
f 33/5/1 30/5/1 29/5/1
f 33/4/1 29/4/1 22/4/1
f 34/4/1 31/4/1 30/4/1
f 34/5/1 30/5/1 33/5/1
f 35/5/1 32/5/1 31/5/1
f 35/4/1 31/4/1 34/4/1
f 36/4/1 27/4/1 32/4/1
f 36/5/1 32/5/1 35/5/1
f 37/4/1 35/4/1 34/4/1
f 37/4/1 34/4/1 33/4/1
f 37/4/1 36/4/1 35/4/1
f 37/4/1 33/4/1 22/4/1
f 38/4/1 36/4/1 37/4/1
f 39/4/1 36/4/1 38/4/1
f 40/4/1 27/4/1 36/4/1
f 40/4/1 36/4/1 39/4/1
f 41/3/1 39/3/1 38/3/1
f 42/3/1 39/3/1 41/3/1
f 51/2/1 44/2/1 43/2/1
f 52/2/1 44/2/1 51/2/1
f 53/2/1 46/2/1 45/2/1
f 54/2/1 46/2/1 53/2/1
f 55/2/1 48/2/1 47/2/1
f 56/2/1 48/2/1 55/2/1
f 57/2/1 50/2/1 49/2/1
f 58/2/1 50/2/1 57/2/1
f 63/2/1 60/2/1 59/2/1
f 64/2/1 60/2/1 63/2/1
f 65/2/1 62/2/1 61/2/1
f 66/2/1 62/2/1 65/2/1
f 67/2/1 64/2/1 63/2/1
f 68/2/1 64/2/1 67/2/1
f 69/2/1 66/2/1 65/2/1
f 70/2/1 66/2/1 69/2/1
f 73/4/1 72/4/1 71/4/1
f 74/4/1 72/4/1 73/4/1
f 75/4/1 72/4/1 74/4/1
f 76/4/1 72/4/1 75/4/1
f 77/4/1 75/4/1 74/4/1
f 78/4/1 75/4/1 77/4/1
f 79/3/2 80/3/2 81/3/2
f 81/3/2 80/3/2 82/3/2
f 83/2/2 84/2/2 87/2/2
f 87/2/2 84/2/2 88/2/2
f 88/2/2 84/2/2 89/2/2
f 89/2/2 84/2/2 90/2/2
f 85/2/2 86/2/2 91/2/2
f 91/2/2 86/2/2 92/2/2
f 92/2/2 86/2/2 93/2/2
f 93/2/2 86/2/2 94/2/2
f 88/2/2 89/2/2 95/2/2
f 95/2/2 89/2/2 96/2/2
f 92/2/2 93/2/2 97/2/2
f 97/2/2 93/2/2 98/2/2
f 99/4/2 100/4/2 101/4/2
f 101/4/2 100/4/2 102/4/2
f 103/4/2 104/4/2 106/4/2
f 106/4/2 104/4/2 107/4/2
f 105/4/2 106/4/2 109/4/2
f 107/4/2 108/4/2 109/4/2
f 106/4/2 107/4/2 109/4/2
f 109/4/2 108/4/2 110/4/2
f 105/4/2 109/4/2 111/4/2
f 111/4/2 109/4/2 112/4/2
f 110/4/2 108/4/2 113/4/2
f 113/4/2 108/4/2 114/4/2
f 105/4/2 111/4/2 115/4/2
f 115/4/2 111/4/2 116/4/2
f 114/4/2 108/4/2 117/4/2
f 117/4/2 108/4/2 118/4/2
f 116/4/2 111/4/2 119/4/2
f 119/4/2 111/4/2 120/4/2
f 114/4/2 117/4/2 121/4/2
f 121/4/2 117/4/2 122/4/2
f 123/4/2 124/4/2 126/4/2
f 126/4/2 124/4/2 127/4/2
f 125/4/2 126/4/2 129/4/2
f 127/4/2 128/4/2 129/4/2
f 126/4/2 127/4/2 129/4/2
f 129/4/2 128/4/2 130/4/2
f 130/4/2 128/4/2 131/4/2
f 131/4/2 128/4/2 132/4/2
f 130/4/2 131/4/2 133/4/2
f 133/4/2 131/4/2 134/4/2
f 134/4/2 131/4/2 135/4/2
f 135/4/2 131/4/2 136/4/2
f 134/4/2 135/4/2 137/4/2
f 137/4/2 135/4/2 138/4/2
f 141/4/3 140/4/3 139/4/3
f 142/4/3 140/4/3 141/4/3
f 147/4/3 144/4/3 143/4/3
f 148/4/3 144/4/3 147/4/3
f 149/4/3 146/4/3 145/4/3
f 150/4/3 146/4/3 149/4/3
f 155/2/3 154/2/3 153/2/3
f 156/2/3 154/2/3 155/2/3
f 157/4/3 152/4/3 151/4/3
f 158/4/3 152/4/3 157/4/3
f 161/2/3 160/2/3 159/2/3
f 162/2/3 160/2/3 161/2/3
f 165/4/3 164/4/3 163/4/3
f 166/4/3 164/4/3 165/4/3
f 169/1/3 168/1/3 167/1/3
f 170/1/3 168/1/3 169/1/3
f 173/2/3 172/2/3 171/2/3
f 174/2/3 172/2/3 173/2/3
f 179/4/3 176/4/3 175/4/3
f 180/4/3 176/4/3 179/4/3
f 181/4/3 178/4/3 177/4/3
f 182/4/3 178/4/3 181/4/3
f 185/3/3 184/3/3 183/3/3
f 186/3/3 184/3/3 185/3/3
f 189/3/3 188/3/3 187/3/3
f 190/3/3 188/3/3 189/3/3
f 193/4/3 192/4/3 191/4/3
f 194/4/3 192/4/3 193/4/3
f 197/2/3 196/2/3 195/2/3
f 198/2/3 196/2/3 197/2/3
f 201/2/3 200/2/3 199/2/3
f 202/2/3 200/2/3 201/2/3
f 205/2/3 204/2/3 203/2/3
f 206/2/3 204/2/3 205/2/3
f 207/2/4 208/2/4 209/2/4
f 209/2/4 208/2/4 210/2/4
f 211/2/4 212/2/4 213/2/4
f 213/2/4 212/2/4 214/2/4
f 215/2/4 216/2/4 217/2/4
f 217/2/4 216/2/4 218/2/4
f 219/3/4 220/3/4 221/3/4
f 221/3/4 220/3/4 222/3/4
f 223/3/4 224/3/4 225/3/4
f 225/3/4 224/3/4 226/3/4
f 227/4/4 228/4/4 229/4/4
f 229/4/4 228/4/4 230/4/4
f 231/1/4 232/1/4 233/1/4
f 233/1/4 232/1/4 234/1/4
f 235/2/4 236/2/4 237/2/4
f 237/2/4 236/2/4 238/2/4
f 239/4/4 240/4/4 243/4/4
f 243/4/4 240/4/4 244/4/4
f 241/4/4 242/4/4 245/4/4
f 245/4/4 242/4/4 246/4/4
f 247/2/4 248/2/4 249/2/4
f 249/2/4 248/2/4 250/2/4
f 251/4/4 252/4/4 253/4/4
f 253/4/4 252/4/4 254/4/4
f 257/2/4 258/2/4 259/2/4
f 259/2/4 258/2/4 260/2/4
f 255/4/4 256/4/4 261/4/4
f 261/4/4 256/4/4 262/4/4
f 263/4/4 264/4/4 267/4/4
f 267/4/4 264/4/4 268/4/4
f 265/4/4 266/4/4 269/4/4
f 269/4/4 266/4/4 270/4/4
f 271/4/4 272/4/4 273/4/4
f 273/4/4 272/4/4 274/4/4
f 277/2/5 276/2/5 275/2/5
f 278/2/5 276/2/5 277/2/5
f 280/2/5 276/2/5 278/2/5
f 281/2/5 280/2/5 279/2/5
f 282/2/5 276/2/5 280/2/5
f 282/2/5 280/2/5 281/2/5
f 285/2/5 284/2/5 283/2/5
f 286/2/5 284/2/5 285/2/5
f 288/2/5 284/2/5 286/2/5
f 289/2/5 288/2/5 287/2/5
f 290/2/5 284/2/5 288/2/5
f 290/2/5 288/2/5 289/2/5
f 293/4/5 292/4/5 291/4/5
f 294/4/5 292/4/5 293/4/5
f 297/4/5 296/4/5 295/4/5
f 298/4/5 296/4/5 297/4/5
f 301/4/5 300/4/5 299/4/5
f 302/4/5 300/4/5 301/4/5
f 305/4/5 304/4/5 303/4/5
f 306/4/5 304/4/5 305/4/5
f 309/4/5 308/4/5 307/4/5
f 310/4/5 308/4/5 309/4/5
f 313/4/5 312/4/5 311/4/5
f 314/4/5 312/4/5 313/4/5
f 317/3/5 316/3/5 315/3/5
f 318/3/5 316/3/5 317/3/5
f 321/1/5 320/1/5 319/1/5
f 322/1/5 320/1/5 321/1/5
f 325/1/5 324/1/5 323/1/5
f 326/1/5 324/1/5 325/1/5
f 327/2/6 328/2/6 329/2/6
f 329/2/6 328/2/6 330/2/6
f 330/2/6 328/2/6 331/2/6
f 332/2/6 333/2/6 335/2/6
f 333/2/6 334/2/6 335/2/6
f 335/2/6 334/2/6 336/2/6
f 337/2/6 338/2/6 339/2/6
f 339/2/6 338/2/6 340/2/6
f 340/2/6 338/2/6 341/2/6
f 342/2/6 343/2/6 345/2/6
f 343/2/6 344/2/6 345/2/6
f 345/2/6 344/2/6 346/2/6
f 347/2/6 348/2/6 349/2/6
f 349/2/6 348/2/6 350/2/6
f 351/2/6 352/2/6 353/2/6
f 353/2/6 352/2/6 354/2/6
f 355/4/6 356/4/6 357/4/6
f 357/4/6 356/4/6 358/4/6
f 359/4/6 360/4/6 361/4/6
f 361/4/6 360/4/6 362/4/6
f 363/4/6 364/4/6 365/4/6
f 365/4/6 364/4/6 366/4/6
f 366/4/6 364/4/6 367/4/6
f 366/4/6 367/4/6 369/4/6
f 367/4/6 368/4/6 369/4/6
f 369/4/6 368/4/6 370/4/6
f 366/4/6 369/4/6 371/4/6
f 366/4/6 371/4/6 373/4/6
f 371/4/6 372/4/6 373/4/6
f 373/4/6 372/4/6 374/4/6
f 366/4/6 373/4/6 376/4/6
f 375/4/6 376/4/6 377/4/6
f 376/4/6 373/4/6 378/4/6
f 377/4/6 376/4/6 378/4/6
f 379/4/6 380/4/6 381/4/6
f 381/4/6 380/4/6 382/4/6
f 383/4/6 384/4/6 385/4/6
f 385/4/6 384/4/6 386/4/6
f 389/4/6 390/4/6 391/4/6
f 391/4/6 390/4/6 392/4/6
f 387/1/6 388/1/6 393/1/6
f 393/1/6 388/1/6 394/1/6
f 395/4/6 396/4/6 397/4/6
f 397/4/6 396/4/6 398/4/6
f 398/4/6 396/4/6 400/4/6
f 399/4/6 400/4/6 401/4/6
f 400/4/6 396/4/6 402/4/6
f 401/4/6 400/4/6 402/4/6
f 403/3/6 404/3/6 405/3/6
f 405/3/6 404/3/6 406/3/6
