# MagicaVoxel @ Ephtracy

# group
g Kangaroo

# material
mtllib Kangaroo.mtl
usemtl palette

# normals
vn -1 0 0
vn 1 0 0
vn 0 0 1
vn 0 0 -1
vn 0 -1 0
vn 0 1 0

# texcoords
vt 0.0332031 0.5
vt 0.0644531 0.5
vt 0.0683594 0.5
vt 0.990234 0.5

# verts
v -9.5 9 0.5
v -9.5 9 -0.5
v -9.5 10 0.5
v -9.5 10 -0.5
v -8.5 0 6.5
v -8.5 0 3.5
v -8.5 0 -3.5
v -8.5 0 -6.5
v -8.5 2 6.5
v -8.5 2 3.5
v -8.5 2 -3.5
v -8.5 2 -6.5
v -8.5 9 1.5
v -8.5 9 0.5
v -8.5 9 -0.5
v -8.5 9 -1.5
v -8.5 10 0.5
v -8.5 10 -0.5
v -8.5 11 1.5
v -8.5 11 -1.5
v -7.5 4 2.5
v -7.5 4 -2.5
v -7.5 8 2.5
v -7.5 8 -2.5
v -7.5 9 5.5
v -7.5 9 3.5
v -7.5 9 -3.5
v -7.5 9 -5.5
v -7.5 11 5.5
v -7.5 11 3.5
v -7.5 11 -3.5
v -7.5 11 -5.5
v -7.5 19 1.5
v -7.5 19 -1.5
v -7.5 20 1.5
v -7.5 20 -1.5
v -6.5 4 3.5
v -6.5 4 2.5
v -6.5 4 -2.5
v -6.5 4 -3.5
v -6.5 8 3.5
v -6.5 8 2.5
v -6.5 8 1.5
v -6.5 8 -1.5
v -6.5 8 -2.5
v -6.5 8 -3.5
v -6.5 9 1.5
v -6.5 9 -1.5
v -6.5 11 1.5
v -6.5 11 0.5
v -6.5 11 -0.5
v -6.5 11 -1.5
v -6.5 12 1.5
v -6.5 12 0.5
v -6.5 12 -0.5
v -6.5 12 -1.5
v -6.5 18 2.5
v -6.5 18 -2.5
v -6.5 19 1.5
v -6.5 19 -1.5
v -6.5 20 1.5
v -6.5 20 -1.5
v -6.5 21 2.5
v -6.5 21 -2.5
v -5.5 11 5.5
v -5.5 11 3.5
v -5.5 11 -3.5
v -5.5 11 -5.5
v -5.5 12 5.5
v -5.5 12 3.5
v -5.5 12 -3.5
v -5.5 12 -5.5
v -5.5 17 2.5
v -5.5 17 -2.5
v -5.5 18 2.5
v -5.5 18 -2.5
v -4.5 7 1.5
v -4.5 7 0.5
v -4.5 8 1.5
v -4.5 8 0.5
v -4.5 12 5.5
v -4.5 12 3.5
v -4.5 12 -3.5
v -4.5 12 -5.5
v -4.5 13 5.5
v -4.5 13 3.5
v -4.5 13 -3.5
v -4.5 13 -5.5
v -4.5 21 2.5
v -4.5 21 -2.5
v -4.5 22 2.5
v -4.5 22 -2.5
v -3.5 1 6.5
v -3.5 1 3.5
v -3.5 1 -3.5
v -3.5 1 -6.5
v -3.5 4 3.5
v -3.5 4 -3.5
v -3.5 5 2.5
v -3.5 5 -2.5
v -3.5 7 2.5
v -3.5 7 1.5
v -3.5 7 0.5
v -3.5 7 -1.5
v -3.5 7 -2.5
v -3.5 8 3.5
v -3.5 8 1.5
v -3.5 8 0.5
v -3.5 8 -1.5
v -3.5 8 -3.5
v -3.5 9 1.5
v -3.5 9 -1.5
v -3.5 11 5.5
v -3.5 11 3.5
v -3.5 11 -3.5
v -3.5 11 -5.5
v -3.5 12 6.5
v -3.5 12 5.5
v -3.5 12 -5.5
v -3.5 12 -6.5
v -3.5 13 5.5
v -3.5 13 3.5
v -3.5 13 -3.5
v -3.5 13 -5.5
v -3.5 14 5.5
v -3.5 14 4.5
v -3.5 14 -4.5
v -3.5 14 -5.5
v -3.5 17 4.5
v -3.5 17 2.5
v -3.5 17 -2.5
v -3.5 17 -4.5
v -3.5 22 2.5
v -3.5 22 0.5
v -3.5 22 -0.5
v -3.5 22 -2.5
v -3.5 24 2.5
v -3.5 24 0.5
v -3.5 24 -0.5
v -3.5 24 -2.5
v 4.5 0 1.5
v 4.5 0 -1.5
v 4.5 4 1.5
v 4.5 4 -0.5
v 4.5 5 -0.5
v 4.5 5 -1.5
v 4.5 9 1.5
v 4.5 9 -1.5
v -6.5 1 6.5
v -6.5 1 3.5
v -6.5 1 -3.5
v -6.5 1 -6.5
v -6.5 2 6.5
v -6.5 2 3.5
v -6.5 2 -3.5
v -6.5 2 -6.5
v -6.5 5 2.5
v -6.5 5 -2.5
v -6.5 7 2.5
v -6.5 7 1.5
v -6.5 7 -1.5
v -6.5 7 -2.5
v -6.5 8 1.5
v -6.5 8 -1.5
v -5.5 9 5.5
v -5.5 9 3.5
v -5.5 9 1.5
v -5.5 9 -1.5
v -5.5 9 -3.5
v -5.5 9 -5.5
v -5.5 10 5.5
v -5.5 10 3.5
v -5.5 10 -3.5
v -5.5 10 -5.5
v -5.5 11 0.5
v -5.5 11 -0.5
v -5.5 12 1.5
v -5.5 12 0.5
v -5.5 12 -0.5
v -5.5 12 -1.5
v -4.5 10 5.5
v -4.5 10 3.5
v -4.5 10 -3.5
v -4.5 10 -5.5
v -4.5 11 5.5
v -4.5 11 3.5
v -4.5 11 -3.5
v -4.5 11 -5.5
v -0.5 17 2.5
v -0.5 17 -2.5
v -0.5 22 0.5
v -0.5 22 -0.5
v -0.5 24 2.5
v -0.5 24 0.5
v -0.5 24 -0.5
v -0.5 24 -2.5
v 1.5 14 4.5
v 1.5 14 -4.5
v 1.5 17 4.5
v 1.5 17 -4.5
v 2.5 12 5.5
v 2.5 12 -5.5
v 2.5 14 5.5
v 2.5 14 -5.5
v 3.5 0 6.5
v 3.5 0 3.5
v 3.5 0 -3.5
v 3.5 0 -6.5
v 3.5 4 3.5
v 3.5 4 -3.5
v 3.5 9 1.5
v 3.5 9 -1.5
v 3.5 12 6.5
v 3.5 12 1.5
v 3.5 12 -1.5
v 3.5 12 -6.5
v 6.5 2 1.5
v 6.5 2 -1.5
v 6.5 3 0.5
v 6.5 3 -0.5
v 6.5 4 1.5
v 6.5 4 0.5
v 6.5 5 -0.5
v 6.5 5 -1.5
v 6.5 12 1.5
v 6.5 12 -1.5
v 9.5 0 1.5
v 9.5 0 -1.5
v 9.5 2 1.5
v 9.5 2 -1.5
v -8.5 0 6.5
v -8.5 2 6.5
v -6.5 0 6.5
v -6.5 1 6.5
v -6.5 2 6.5
v -3.5 1 6.5
v -3.5 12 6.5
v 3.5 0 6.5
v 3.5 12 6.5
v -7.5 9 5.5
v -7.5 11 5.5
v -6.5 9 5.5
v -6.5 11 5.5
v -5.5 9 5.5
v -5.5 10 5.5
v -5.5 11 5.5
v -5.5 12 5.5
v -4.5 10 5.5
v -4.5 11 5.5
v -4.5 12 5.5
v -4.5 13 5.5
v -3.5 11 5.5
v -3.5 12 5.5
v -3.5 13 5.5
v -3.5 14 5.5
v 2.5 12 5.5
v 2.5 14 5.5
v -3.5 14 4.5
v -3.5 17 4.5
v 1.5 14 4.5
v 1.5 17 4.5
v -6.5 4 3.5
v -6.5 8 3.5
v -3.5 4 3.5
v -3.5 8 3.5
v -7.5 4 2.5
v -7.5 8 2.5
v -6.5 4 2.5
v -6.5 8 2.5
v -6.5 18 2.5
v -6.5 21 2.5
v -5.5 17 2.5
v -5.5 18 2.5
v -4.5 21 2.5
v -4.5 22 2.5
v -3.5 17 2.5
v -3.5 20 2.5
v -3.5 21 2.5
v -3.5 22 2.5
v -3.5 24 2.5
v -2.5 20 2.5
v -2.5 21 2.5
v -0.5 17 2.5
v -0.5 24 2.5
v -8.5 9 1.5
v -8.5 11 1.5
v -7.5 10 1.5
v -7.5 11 1.5
v -7.5 19 1.5
v -7.5 20 1.5
v -6.5 8 1.5
v -6.5 9 1.5
v -6.5 10 1.5
v -6.5 11 1.5
v -6.5 12 1.5
v -6.5 19 1.5
v -6.5 20 1.5
v -5.5 9 1.5
v -5.5 12 1.5
v -3.5 8 1.5
v -3.5 9 1.5
v 3.5 9 1.5
v 3.5 12 1.5
v 4.5 0 1.5
v 4.5 4 1.5
v 4.5 9 1.5
v 6.5 2 1.5
v 6.5 4 1.5
v 6.5 12 1.5
v 9.5 0 1.5
v 9.5 2 1.5
v -9.5 9 0.5
v -9.5 10 0.5
v -8.5 9 0.5
v -8.5 10 0.5
v -6.5 11 -0.5
v -6.5 12 -0.5
v -5.5 11 -0.5
v -5.5 12 -0.5
v -3.5 22 -0.5
v -3.5 24 -0.5
v -0.5 22 -0.5
v -0.5 24 -0.5
v -6.5 7 -1.5
v -6.5 8 -1.5
v -3.5 7 -1.5
v -3.5 8 -1.5
v -6.5 5 -2.5
v -6.5 7 -2.5
v -3.5 5 -2.5
v -3.5 7 -2.5
v -8.5 0 -3.5
v -8.5 2 -3.5
v -7.5 9 -3.5
v -7.5 11 -3.5
v -6.5 0 -3.5
v -6.5 1 -3.5
v -6.5 2 -3.5
v -6.5 9 -3.5
v -6.5 11 -3.5
v -5.5 9 -3.5
v -5.5 10 -3.5
v -5.5 11 -3.5
v -5.5 12 -3.5
v -4.5 10 -3.5
v -4.5 11 -3.5
v -4.5 12 -3.5
v -4.5 13 -3.5
v -3.5 1 -3.5
v -3.5 4 -3.5
v -3.5 11 -3.5
v -3.5 13 -3.5
v 3.5 0 -3.5
v 3.5 4 -3.5
v -8.5 0 3.5
v -8.5 2 3.5
v -7.5 9 3.5
v -7.5 11 3.5
v -6.5 0 3.5
v -6.5 1 3.5
v -6.5 2 3.5
v -6.5 9 3.5
v -6.5 11 3.5
v -5.5 9 3.5
v -5.5 10 3.5
v -5.5 11 3.5
v -5.5 12 3.5
v -4.5 10 3.5
v -4.5 11 3.5
v -4.5 12 3.5
v -4.5 13 3.5
v -3.5 1 3.5
v -3.5 4 3.5
v -3.5 11 3.5
v -3.5 13 3.5
v 3.5 0 3.5
v 3.5 4 3.5
v -6.5 5 2.5
v -6.5 7 2.5
v -3.5 5 2.5
v -3.5 7 2.5
v -6.5 7 1.5
v -6.5 8 1.5
v -4.5 7 1.5
v -4.5 8 1.5
v -6.5 11 0.5
v -6.5 12 0.5
v -5.5 11 0.5
v -5.5 12 0.5
v -4.5 7 0.5
v -4.5 8 0.5
v -3.5 7 0.5
v -3.5 8 0.5
v -3.5 22 0.5
v -3.5 24 0.5
v -0.5 22 0.5
v -0.5 24 0.5
v -9.5 9 -0.5
v -9.5 10 -0.5
v -8.5 9 -0.5
v -8.5 10 -0.5
v -8.5 9 -1.5
v -8.5 11 -1.5
v -7.5 10 -1.5
v -7.5 11 -1.5
v -7.5 19 -1.5
v -7.5 20 -1.5
v -6.5 8 -1.5
v -6.5 9 -1.5
v -6.5 10 -1.5
v -6.5 11 -1.5
v -6.5 12 -1.5
v -6.5 19 -1.5
v -6.5 20 -1.5
v -5.5 9 -1.5
v -5.5 12 -1.5
v -3.5 8 -1.5
v -3.5 9 -1.5
v 3.5 9 -1.5
v 3.5 12 -1.5
v 4.5 0 -1.5
v 4.5 5 -1.5
v 4.5 9 -1.5
v 6.5 2 -1.5
v 6.5 5 -1.5
v 6.5 12 -1.5
v 9.5 0 -1.5
v 9.5 2 -1.5
v -7.5 4 -2.5
v -7.5 8 -2.5
v -6.5 4 -2.5
v -6.5 8 -2.5
v -6.5 18 -2.5
v -6.5 21 -2.5
v -5.5 17 -2.5
v -5.5 18 -2.5
v -4.5 21 -2.5
v -4.5 22 -2.5
v -3.5 17 -2.5
v -3.5 20 -2.5
v -3.5 21 -2.5
v -3.5 22 -2.5
v -3.5 24 -2.5
v -2.5 20 -2.5
v -2.5 21 -2.5
v -0.5 17 -2.5
v -0.5 24 -2.5
v -6.5 4 -3.5
v -6.5 8 -3.5
v -3.5 4 -3.5
v -3.5 8 -3.5
v -3.5 14 -4.5
v -3.5 17 -4.5
v 1.5 14 -4.5
v 1.5 17 -4.5
v -7.5 9 -5.5
v -7.5 11 -5.5
v -6.5 9 -5.5
v -6.5 11 -5.5
v -5.5 9 -5.5
v -5.5 10 -5.5
v -5.5 11 -5.5
v -5.5 12 -5.5
v -4.5 10 -5.5
v -4.5 11 -5.5
v -4.5 12 -5.5
v -4.5 13 -5.5
v -3.5 11 -5.5
v -3.5 12 -5.5
v -3.5 13 -5.5
v -3.5 14 -5.5
v 2.5 12 -5.5
v 2.5 14 -5.5
v -8.5 0 -6.5
v -8.5 2 -6.5
v -6.5 0 -6.5
v -6.5 1 -6.5
v -6.5 2 -6.5
v -3.5 1 -6.5
v -3.5 12 -6.5
v 3.5 0 -6.5
v 3.5 12 -6.5
v -8.5 0 6.5
v -6.5 0 6.5
v 3.5 0 6.5
v -8.5 0 3.5
v -6.5 0 3.5
v 3.5 0 3.5
v 4.5 0 1.5
v 9.5 0 1.5
v 4.5 0 -1.5
v 9.5 0 -1.5
v -8.5 0 -3.5
v -6.5 0 -3.5
v 3.5 0 -3.5
v -8.5 0 -6.5
v -6.5 0 -6.5
v 3.5 0 -6.5
v -6.5 4 3.5
v -3.5 4 3.5
v 3.5 4 3.5
v -7.5 4 2.5
v -6.5 4 2.5
v -7.5 4 -2.5
v -6.5 4 -2.5
v -6.5 4 -3.5
v -3.5 4 -3.5
v 3.5 4 -3.5
v -6.5 7 2.5
v -3.5 7 2.5
v -6.5 7 1.5
v -4.5 7 1.5
v -3.5 7 1.5
v -4.5 7 0.5
v -3.5 7 0.5
v -6.5 7 -1.5
v -3.5 7 -1.5
v -6.5 7 -2.5
v -3.5 7 -2.5
v -6.5 8 1.5
v -4.5 8 1.5
v -4.5 8 0.5
v -3.5 8 0.5
v -6.5 8 -1.5
v -3.5 8 -1.5
v -7.5 9 5.5
v -6.5 9 5.5
v -5.5 9 5.5
v -7.5 9 3.5
v -6.5 9 3.5
v -5.5 9 3.5
v -8.5 9 1.5
v -6.5 9 1.5
v 3.5 9 1.5
v 4.5 9 1.5
v -9.5 9 0.5
v -8.5 9 0.5
v -9.5 9 -0.5
v -8.5 9 -0.5
v -8.5 9 -1.5
v -6.5 9 -1.5
v 3.5 9 -1.5
v 4.5 9 -1.5
v -7.5 9 -3.5
v -6.5 9 -3.5
v -5.5 9 -3.5
v -7.5 9 -5.5
v -6.5 9 -5.5
v -5.5 9 -5.5
v -5.5 10 5.5
v -4.5 10 5.5
v -5.5 10 3.5
v -4.5 10 3.5
v -5.5 10 -3.5
v -4.5 10 -3.5
v -5.5 10 -5.5
v -4.5 10 -5.5
v -4.5 11 5.5
v -3.5 11 5.5
v -4.5 11 3.5
v -3.5 11 3.5
v -4.5 11 -3.5
v -3.5 11 -3.5
v -4.5 11 -5.5
v -3.5 11 -5.5
v -5.5 17 2.5
v -3.5 17 2.5
v -5.5 17 -2.5
v -3.5 17 -2.5
v -6.5 18 2.5
v -5.5 18 2.5
v -6.5 18 -2.5
v -5.5 18 -2.5
v -7.5 19 1.5
v -6.5 19 1.5
v -7.5 19 -1.5
v -6.5 19 -1.5
v -6.5 1 6.5
v -3.5 1 6.5
v -6.5 1 3.5
v -3.5 1 3.5
v -6.5 1 -3.5
v -3.5 1 -3.5
v -6.5 1 -6.5
v -3.5 1 -6.5
v -8.5 2 6.5
v -6.5 2 6.5
v -8.5 2 3.5
v -6.5 2 3.5
v 6.5 2 1.5
v 9.5 2 1.5
v 6.5 2 -1.5
v 9.5 2 -1.5
v -8.5 2 -3.5
v -6.5 2 -3.5
v -8.5 2 -6.5
v -6.5 2 -6.5
v -6.5 5 2.5
v -3.5 5 2.5
v -6.5 5 -2.5
v -3.5 5 -2.5
v -6.5 8 3.5
v -3.5 8 3.5
v -7.5 8 2.5
v -6.5 8 2.5
v -6.5 8 1.5
v -3.5 8 1.5
v -6.5 8 -1.5
v -3.5 8 -1.5
v -7.5 8 -2.5
v -6.5 8 -2.5
v -6.5 8 -3.5
v -3.5 8 -3.5
v -5.5 9 1.5
v -3.5 9 1.5
v -5.5 9 -1.5
v -3.5 9 -1.5
v -9.5 10 0.5
v -8.5 10 0.5
v -9.5 10 -0.5
v -8.5 10 -0.5
v -7.5 11 5.5
v -6.5 11 5.5
v -5.5 11 5.5
v -7.5 11 3.5
v -6.5 11 3.5
v -5.5 11 3.5
v -8.5 11 1.5
v -7.5 11 1.5
v -6.5 11 1.5
v -7.5 11 0.5
v -6.5 11 0.5
v -5.5 11 0.5
v -7.5 11 -0.5
v -6.5 11 -0.5
v -5.5 11 -0.5
v -8.5 11 -1.5
v -7.5 11 -1.5
v -6.5 11 -1.5
v -7.5 11 -3.5
v -6.5 11 -3.5
v -5.5 11 -3.5
v -7.5 11 -5.5
v -6.5 11 -5.5
v -5.5 11 -5.5
v -3.5 12 6.5
v 3.5 12 6.5
v -5.5 12 5.5
v -4.5 12 5.5
v -3.5 12 5.5
v 2.5 12 5.5
v -5.5 12 3.5
v -4.5 12 3.5
v -6.5 12 1.5
v -5.5 12 1.5
v 3.5 12 1.5
v 6.5 12 1.5
v -6.5 12 0.5
v -5.5 12 0.5
v -6.5 12 -0.5
v -5.5 12 -0.5
v -6.5 12 -1.5
v -5.5 12 -1.5
v 3.5 12 -1.5
v 6.5 12 -1.5
v -5.5 12 -3.5
v -4.5 12 -3.5
v -5.5 12 -5.5
v -4.5 12 -5.5
v -3.5 12 -5.5
v 2.5 12 -5.5
v -3.5 12 -6.5
v 3.5 12 -6.5
v -4.5 13 5.5
v -3.5 13 5.5
v -4.5 13 3.5
v -3.5 13 3.5
v -4.5 13 -3.5
v -3.5 13 -3.5
v -4.5 13 -5.5
v -3.5 13 -5.5
v -3.5 14 5.5
v 2.5 14 5.5
v -3.5 14 4.5
v 1.5 14 4.5
v -3.5 14 -4.5
v 1.5 14 -4.5
v -3.5 14 -5.5
v 2.5 14 -5.5
v -3.5 17 4.5
v 1.5 17 4.5
v -3.5 17 2.5
v -0.5 17 2.5
v -3.5 17 -2.5
v -0.5 17 -2.5
v -3.5 17 -4.5
v 1.5 17 -4.5
v -7.5 20 1.5
v -6.5 20 1.5
v -7.5 20 -1.5
v -6.5 20 -1.5
v -6.5 21 2.5
v -4.5 21 2.5
v -6.5 21 -2.5
v -4.5 21 -2.5
v -4.5 22 2.5
v -3.5 22 2.5
v -3.5 22 0.5
v -0.5 22 0.5
v -3.5 22 -0.5
v -0.5 22 -0.5
v -4.5 22 -2.5
v -3.5 22 -2.5
v -3.5 24 2.5
v -0.5 24 2.5
v -3.5 24 0.5
v -0.5 24 0.5
v -3.5 24 -0.5
v -0.5 24 -0.5
v -3.5 24 -2.5
v -0.5 24 -2.5

# faces
f 3/4/1 2/4/1 1/4/1
f 4/4/1 2/4/1 3/4/1
f 9/1/1 6/1/1 5/1/1
f 10/1/1 6/1/1 9/1/1
f 11/1/1 8/1/1 7/1/1
f 12/1/1 8/1/1 11/1/1
f 17/2/1 14/2/1 13/2/1
f 18/2/1 16/2/1 15/2/1
f 19/2/1 17/2/1 13/2/1
f 19/2/1 18/2/1 17/2/1
f 20/2/1 16/2/1 18/2/1
f 20/2/1 18/2/1 19/2/1
f 23/3/1 22/3/1 21/3/1
f 24/3/1 22/3/1 23/3/1
f 29/3/1 26/3/1 25/3/1
f 30/3/1 26/3/1 29/3/1
f 31/3/1 28/3/1 27/3/1
f 32/3/1 28/3/1 31/3/1
f 35/4/1 34/4/1 33/4/1
f 36/4/1 34/4/1 35/4/1
f 41/3/1 38/3/1 37/3/1
f 42/3/1 38/3/1 41/3/1
f 45/3/1 40/3/1 39/3/1
f 46/3/1 40/3/1 45/3/1
f 47/2/1 44/2/1 43/2/1
f 48/2/1 44/2/1 47/2/1
f 53/2/1 50/2/1 49/2/1
f 54/2/1 50/2/1 53/2/1
f 55/2/1 52/2/1 51/2/1
f 56/2/1 52/2/1 55/2/1
f 59/2/1 58/2/1 57/2/1
f 60/2/1 58/2/1 59/2/1
f 61/2/1 59/2/1 57/2/1
f 62/2/1 58/2/1 60/2/1
f 63/2/1 61/2/1 57/2/1
f 63/2/1 62/2/1 61/2/1
f 64/2/1 58/2/1 62/2/1
f 64/2/1 62/2/1 63/2/1
f 69/2/1 66/2/1 65/2/1
f 70/2/1 66/2/1 69/2/1
f 71/2/1 68/2/1 67/2/1
f 72/2/1 68/2/1 71/2/1
f 75/2/1 74/2/1 73/2/1
f 76/2/1 74/2/1 75/2/1
f 79/2/1 78/2/1 77/2/1
f 80/2/1 78/2/1 79/2/1
f 85/2/1 82/2/1 81/2/1
f 86/2/1 82/2/1 85/2/1
f 87/2/1 84/2/1 83/2/1
f 88/2/1 84/2/1 87/2/1
f 91/2/1 90/2/1 89/2/1
f 92/2/1 90/2/1 91/2/1
f 97/2/1 94/2/1 93/2/1
f 98/2/1 96/2/1 95/2/1
f 101/2/1 100/2/1 99/2/1
f 102/2/1 100/2/1 101/2/1
f 103/2/1 100/2/1 102/2/1
f 104/2/1 100/2/1 103/2/1
f 105/2/1 100/2/1 104/2/1
f 106/2/1 97/2/1 93/2/1
f 108/2/1 104/2/1 103/2/1
f 109/2/1 104/2/1 108/2/1
f 110/2/1 96/2/1 98/2/1
f 111/2/1 107/2/1 106/2/1
f 112/2/1 110/2/1 109/2/1
f 113/2/1 111/2/1 106/2/1
f 113/2/1 112/2/1 111/2/1
f 113/2/1 106/2/1 93/2/1
f 114/2/1 112/2/1 113/2/1
f 115/2/1 110/2/1 112/2/1
f 115/2/1 112/2/1 114/2/1
f 115/2/1 96/2/1 110/2/1
f 116/2/1 96/2/1 115/2/1
f 117/2/1 113/2/1 93/2/1
f 118/2/1 113/2/1 117/2/1
f 119/2/1 96/2/1 116/2/1
f 120/2/1 96/2/1 119/2/1
f 122/2/1 115/2/1 114/2/1
f 123/2/1 115/2/1 122/2/1
f 125/2/1 122/2/1 121/2/1
f 125/2/1 124/2/1 123/2/1
f 125/2/1 123/2/1 122/2/1
f 126/2/1 124/2/1 125/2/1
f 127/2/1 124/2/1 126/2/1
f 128/2/1 124/2/1 127/2/1
f 129/2/1 127/2/1 126/2/1
f 130/2/1 127/2/1 129/2/1
f 131/2/1 127/2/1 130/2/1
f 132/2/1 127/2/1 131/2/1
f 137/2/1 134/2/1 133/2/1
f 138/2/1 134/2/1 137/2/1
f 139/2/1 136/2/1 135/2/1
f 140/2/1 136/2/1 139/2/1
f 143/1/1 142/1/1 141/1/1
f 144/1/1 142/1/1 143/1/1
f 145/2/1 144/2/1 143/2/1
f 145/1/1 142/1/1 144/1/1
f 146/1/1 142/1/1 145/1/1
f 147/2/1 145/2/1 143/2/1
f 147/2/1 146/2/1 145/2/1
f 148/2/1 146/2/1 147/2/1
f 149/1/2 150/1/2 153/1/2
f 153/1/2 150/1/2 154/1/2
f 151/1/2 152/1/2 155/1/2
f 155/1/2 152/1/2 156/1/2
f 157/3/2 158/3/2 159/3/2
f 159/3/2 158/3/2 160/3/2
f 160/3/2 158/3/2 161/3/2
f 161/3/2 158/3/2 162/3/2
f 160/3/2 161/3/2 163/3/2
f 163/3/2 161/3/2 164/3/2
f 165/2/2 166/2/2 171/2/2
f 171/2/2 166/2/2 172/2/2
f 169/2/2 170/2/2 173/2/2
f 173/2/2 170/2/2 174/2/2
f 167/2/2 168/2/2 175/2/2
f 175/2/2 168/2/2 176/2/2
f 167/2/2 175/2/2 177/2/2
f 177/2/2 175/2/2 178/2/2
f 176/2/2 168/2/2 179/2/2
f 179/2/2 168/2/2 180/2/2
f 181/2/2 182/2/2 185/2/2
f 185/2/2 182/2/2 186/2/2
f 183/2/2 184/2/2 187/2/2
f 187/2/2 184/2/2 188/2/2
f 189/2/2 190/2/2 191/2/2
f 191/2/2 190/2/2 192/2/2
f 189/2/2 191/2/2 193/2/2
f 193/2/2 191/2/2 194/2/2
f 192/2/2 190/2/2 195/2/2
f 195/2/2 190/2/2 196/2/2
f 197/2/2 198/2/2 199/2/2
f 199/2/2 198/2/2 200/2/2
f 201/2/2 202/2/2 203/2/2
f 203/2/2 202/2/2 204/2/2
f 205/2/2 206/2/2 209/2/2
f 207/2/2 208/2/2 210/2/2
f 209/2/2 210/2/2 211/2/2
f 211/2/2 210/2/2 212/2/2
f 205/2/2 209/2/2 213/2/2
f 209/2/2 211/2/2 213/2/2
f 213/2/2 211/2/2 214/2/2
f 212/2/2 210/2/2 215/2/2
f 210/2/2 208/2/2 216/2/2
f 215/2/2 210/2/2 216/2/2
f 217/1/2 218/1/2 219/1/2
f 219/1/2 218/1/2 220/1/2
f 217/1/2 219/1/2 221/1/2
f 219/2/2 220/2/2 222/2/2
f 221/1/2 219/1/2 222/1/2
f 220/1/2 218/1/2 223/1/2
f 222/2/2 220/2/2 223/2/2
f 221/2/2 222/2/2 223/2/2
f 223/1/2 218/1/2 224/1/2
f 221/2/2 223/2/2 225/2/2
f 223/2/2 224/2/2 225/2/2
f 225/2/2 224/2/2 226/2/2
f 227/1/2 228/1/2 229/1/2
f 229/1/2 228/1/2 230/1/2
f 233/1/3 232/1/3 231/1/3
f 234/1/3 232/1/3 233/1/3
f 235/1/3 232/1/3 234/1/3
f 236/2/3 234/2/3 233/2/3
f 238/2/3 236/2/3 233/2/3
f 238/2/3 237/2/3 236/2/3
f 239/2/3 237/2/3 238/2/3
f 242/3/3 241/3/3 240/3/3
f 243/3/3 241/3/3 242/3/3
f 244/2/3 243/2/3 242/2/3
f 245/2/3 243/2/3 244/2/3
f 246/2/3 243/2/3 245/2/3
f 248/2/3 246/2/3 245/2/3
f 248/2/3 247/2/3 246/2/3
f 249/2/3 247/2/3 248/2/3
f 250/2/3 247/2/3 249/2/3
f 252/2/3 251/2/3 250/2/3
f 252/2/3 250/2/3 249/2/3
f 253/2/3 251/2/3 252/2/3
f 254/2/3 251/2/3 253/2/3
f 256/2/3 255/2/3 254/2/3
f 256/2/3 254/2/3 253/2/3
f 257/2/3 255/2/3 256/2/3
f 260/2/3 259/2/3 258/2/3
f 261/2/3 259/2/3 260/2/3
f 264/3/3 263/3/3 262/3/3
f 265/3/3 263/3/3 264/3/3
f 268/3/3 267/3/3 266/3/3
f 269/3/3 267/3/3 268/3/3
f 273/2/3 271/2/3 270/2/3
f 274/2/3 271/2/3 273/2/3
f 274/2/3 273/2/3 272/2/3
f 276/2/3 274/2/3 272/2/3
f 276/2/3 275/2/3 274/2/3
f 277/2/3 275/2/3 276/2/3
f 278/2/3 275/2/3 277/2/3
f 279/2/3 275/2/3 278/2/3
f 281/2/3 277/2/3 276/2/3
f 281/4/3 278/4/3 277/4/3
f 282/2/3 280/2/3 279/2/3
f 282/4/3 278/4/3 281/4/3
f 282/2/3 279/2/3 278/2/3
f 283/2/3 281/2/3 276/2/3
f 283/2/3 282/2/3 281/2/3
f 284/2/3 280/2/3 282/2/3
f 284/2/3 282/2/3 283/2/3
f 287/2/3 286/2/3 285/2/3
f 288/2/3 286/2/3 287/2/3
f 292/2/3 287/2/3 285/2/3
f 293/4/3 288/4/3 287/4/3
f 293/2/3 287/2/3 292/2/3
f 294/4/3 288/4/3 293/4/3
f 296/4/3 290/4/3 289/4/3
f 297/4/3 290/4/3 296/4/3
f 298/2/3 295/2/3 294/2/3
f 298/2/3 292/2/3 291/2/3
f 298/2/3 293/2/3 292/2/3
f 298/2/3 294/2/3 293/2/3
f 299/2/3 295/2/3 298/2/3
f 300/2/3 298/2/3 291/2/3
f 301/2/3 298/2/3 300/2/3
f 306/2/3 303/2/3 302/2/3
f 307/1/3 305/1/3 304/1/3
f 308/2/3 306/2/3 305/2/3
f 308/1/3 305/1/3 307/1/3
f 309/2/3 303/2/3 306/2/3
f 309/2/3 306/2/3 308/2/3
f 310/1/3 307/1/3 304/1/3
f 311/1/3 307/1/3 310/1/3
f 314/4/3 313/4/3 312/4/3
f 315/4/3 313/4/3 314/4/3
f 318/2/3 317/2/3 316/2/3
f 319/2/3 317/2/3 318/2/3
f 322/2/3 321/2/3 320/2/3
f 323/2/3 321/2/3 322/2/3
f 326/3/3 325/3/3 324/3/3
f 327/3/3 325/3/3 326/3/3
f 330/3/3 329/3/3 328/3/3
f 331/3/3 329/3/3 330/3/3
f 336/1/3 333/1/3 332/1/3
f 337/1/3 333/1/3 336/1/3
f 338/1/3 333/1/3 337/1/3
f 339/3/3 335/3/3 334/3/3
f 340/3/3 335/3/3 339/3/3
f 341/2/3 340/2/3 339/2/3
f 342/2/3 340/2/3 341/2/3
f 343/2/3 340/2/3 342/2/3
f 345/2/3 343/2/3 342/2/3
f 345/2/3 344/2/3 343/2/3
f 346/2/3 344/2/3 345/2/3
f 347/2/3 344/2/3 346/2/3
f 349/2/3 337/2/3 336/2/3
f 351/2/3 348/2/3 347/2/3
f 351/2/3 347/2/3 346/2/3
f 352/2/3 348/2/3 351/2/3
f 353/2/3 350/2/3 349/2/3
f 353/2/3 349/2/3 336/2/3
f 354/2/3 350/2/3 353/2/3
f 355/1/4 356/1/4 359/1/4
f 359/1/4 356/1/4 360/1/4
f 360/1/4 356/1/4 361/1/4
f 357/3/4 358/3/4 362/3/4
f 362/3/4 358/3/4 363/3/4
f 362/2/4 363/2/4 364/2/4
f 364/2/4 363/2/4 365/2/4
f 365/2/4 363/2/4 366/2/4
f 365/2/4 366/2/4 368/2/4
f 366/2/4 367/2/4 368/2/4
f 368/2/4 367/2/4 369/2/4
f 369/2/4 367/2/4 370/2/4
f 359/2/4 360/2/4 372/2/4
f 370/2/4 371/2/4 374/2/4
f 369/2/4 370/2/4 374/2/4
f 374/2/4 371/2/4 375/2/4
f 372/2/4 373/2/4 376/2/4
f 359/2/4 372/2/4 376/2/4
f 376/2/4 373/2/4 377/2/4
f 378/3/4 379/3/4 380/3/4
f 380/3/4 379/3/4 381/3/4
f 382/3/4 383/3/4 384/3/4
f 384/3/4 383/3/4 385/3/4
f 386/2/4 387/2/4 388/2/4
f 388/2/4 387/2/4 389/2/4
f 390/2/4 391/2/4 392/2/4
f 392/2/4 391/2/4 393/2/4
f 394/2/4 395/2/4 396/2/4
f 396/2/4 395/2/4 397/2/4
f 398/4/4 399/4/4 400/4/4
f 400/4/4 399/4/4 401/4/4
f 402/2/4 403/2/4 404/2/4
f 404/2/4 403/2/4 405/2/4
f 402/2/4 404/2/4 409/2/4
f 404/4/4 405/4/4 410/4/4
f 409/2/4 404/2/4 410/2/4
f 410/4/4 405/4/4 411/4/4
f 406/4/4 407/4/4 413/4/4
f 413/4/4 407/4/4 414/4/4
f 411/2/4 412/2/4 415/2/4
f 408/2/4 409/2/4 415/2/4
f 409/2/4 410/2/4 415/2/4
f 410/2/4 411/2/4 415/2/4
f 415/2/4 412/2/4 416/2/4
f 408/2/4 415/2/4 417/2/4
f 417/2/4 415/2/4 418/2/4
f 419/2/4 420/2/4 423/2/4
f 421/1/4 422/1/4 424/1/4
f 422/2/4 423/2/4 425/2/4
f 424/1/4 422/1/4 425/1/4
f 423/2/4 420/2/4 426/2/4
f 425/2/4 423/2/4 426/2/4
f 421/1/4 424/1/4 427/1/4
f 427/1/4 424/1/4 428/1/4
f 429/3/4 430/3/4 431/3/4
f 431/3/4 430/3/4 432/3/4
f 433/2/4 434/2/4 436/2/4
f 436/2/4 434/2/4 437/2/4
f 435/2/4 436/2/4 437/2/4
f 435/2/4 437/2/4 439/2/4
f 437/2/4 438/2/4 439/2/4
f 439/2/4 438/2/4 440/2/4
f 440/2/4 438/2/4 441/2/4
f 441/2/4 438/2/4 442/2/4
f 439/2/4 440/2/4 444/2/4
f 440/4/4 441/4/4 444/4/4
f 442/2/4 443/2/4 445/2/4
f 444/4/4 441/4/4 445/4/4
f 441/2/4 442/2/4 445/2/4
f 439/2/4 444/2/4 446/2/4
f 444/2/4 445/2/4 446/2/4
f 445/2/4 443/2/4 447/2/4
f 446/2/4 445/2/4 447/2/4
f 448/3/4 449/3/4 450/3/4
f 450/3/4 449/3/4 451/3/4
f 452/2/4 453/2/4 454/2/4
f 454/2/4 453/2/4 455/2/4
f 456/3/4 457/3/4 458/3/4
f 458/3/4 457/3/4 459/3/4
f 458/2/4 459/2/4 460/2/4
f 460/2/4 459/2/4 461/2/4
f 461/2/4 459/2/4 462/2/4
f 461/2/4 462/2/4 464/2/4
f 462/2/4 463/2/4 464/2/4
f 464/2/4 463/2/4 465/2/4
f 465/2/4 463/2/4 466/2/4
f 466/2/4 467/2/4 468/2/4
f 465/2/4 466/2/4 468/2/4
f 468/2/4 467/2/4 469/2/4
f 469/2/4 467/2/4 470/2/4
f 470/2/4 471/2/4 472/2/4
f 469/2/4 470/2/4 472/2/4
f 472/2/4 471/2/4 473/2/4
f 474/1/4 475/1/4 476/1/4
f 476/1/4 475/1/4 477/1/4
f 477/1/4 475/1/4 478/1/4
f 476/2/4 477/2/4 479/2/4
f 476/2/4 479/2/4 481/2/4
f 479/2/4 480/2/4 481/2/4
f 481/2/4 480/2/4 482/2/4
f 486/1/5 484/1/5 483/1/5
f 487/2/5 485/2/5 484/2/5
f 487/1/5 484/1/5 486/1/5
f 488/2/5 485/2/5 487/2/5
f 491/1/5 490/1/5 489/1/5
f 492/1/5 490/1/5 491/1/5
f 496/1/5 494/1/5 493/1/5
f 497/2/5 495/2/5 494/2/5
f 497/1/5 494/1/5 496/1/5
f 498/2/5 495/2/5 497/2/5
f 503/3/5 500/3/5 499/3/5
f 504/3/5 503/3/5 502/3/5
f 505/3/5 500/3/5 503/3/5
f 505/3/5 503/3/5 504/3/5
f 506/3/5 500/3/5 505/3/5
f 507/2/5 501/2/5 500/2/5
f 507/3/5 500/3/5 506/3/5
f 508/2/5 501/2/5 507/2/5
f 511/3/5 510/3/5 509/3/5
f 512/3/5 510/3/5 511/3/5
f 513/3/5 510/3/5 512/3/5
f 514/2/5 513/2/5 512/2/5
f 515/2/5 513/2/5 514/2/5
f 518/3/5 517/3/5 516/3/5
f 519/3/5 517/3/5 518/3/5
f 522/2/5 521/2/5 520/2/5
f 524/2/5 522/2/5 520/2/5
f 524/2/5 523/2/5 522/2/5
f 525/2/5 523/2/5 524/2/5
f 529/3/5 527/3/5 526/3/5
f 530/2/5 528/2/5 527/2/5
f 530/3/5 527/3/5 529/3/5
f 531/2/5 528/2/5 530/2/5
f 537/2/5 533/2/5 532/2/5
f 538/4/5 537/4/5 536/4/5
f 539/2/5 533/2/5 537/2/5
f 539/4/5 537/4/5 538/4/5
f 540/2/5 533/2/5 539/2/5
f 541/2/5 533/2/5 540/2/5
f 542/2/5 535/2/5 534/2/5
f 543/2/5 535/2/5 542/2/5
f 547/3/5 545/3/5 544/3/5
f 548/2/5 546/2/5 545/2/5
f 548/3/5 545/3/5 547/3/5
f 549/2/5 546/2/5 548/2/5
f 552/2/5 551/2/5 550/2/5
f 553/2/5 551/2/5 552/2/5
f 556/2/5 555/2/5 554/2/5
f 557/2/5 555/2/5 556/2/5
f 560/2/5 559/2/5 558/2/5
f 561/2/5 559/2/5 560/2/5
f 564/2/5 563/2/5 562/2/5
f 565/2/5 563/2/5 564/2/5
f 568/2/5 567/2/5 566/2/5
f 569/2/5 567/2/5 568/2/5
f 572/2/5 571/2/5 570/2/5
f 573/2/5 571/2/5 572/2/5
f 576/4/5 575/4/5 574/4/5
f 577/4/5 575/4/5 576/4/5
f 578/2/6 579/2/6 580/2/6
f 580/2/6 579/2/6 581/2/6
f 582/2/6 583/2/6 584/2/6
f 584/2/6 583/2/6 585/2/6
f 586/1/6 587/1/6 588/1/6
f 588/1/6 587/1/6 589/1/6
f 590/1/6 591/1/6 592/1/6
f 592/1/6 591/1/6 593/1/6
f 594/1/6 595/1/6 596/1/6
f 596/1/6 595/1/6 597/1/6
f 598/3/6 599/3/6 600/3/6
f 600/3/6 599/3/6 601/3/6
f 602/3/6 603/3/6 605/3/6
f 605/3/6 603/3/6 606/3/6
f 604/3/6 605/3/6 606/3/6
f 606/3/6 603/3/6 607/3/6
f 604/3/6 606/3/6 608/3/6
f 604/3/6 608/3/6 610/3/6
f 608/3/6 609/3/6 610/3/6
f 610/3/6 609/3/6 611/3/6
f 611/3/6 609/3/6 612/3/6
f 612/3/6 609/3/6 613/3/6
f 614/2/6 615/2/6 616/2/6
f 616/2/6 615/2/6 617/2/6
f 618/4/6 619/4/6 620/4/6
f 620/4/6 619/4/6 621/4/6
f 622/3/6 623/3/6 625/3/6
f 623/2/6 624/2/6 626/2/6
f 625/3/6 623/3/6 626/3/6
f 626/2/6 624/2/6 627/2/6
f 628/2/6 629/2/6 631/2/6
f 629/4/6 630/4/6 631/4/6
f 631/4/6 630/4/6 632/4/6
f 628/2/6 631/2/6 634/2/6
f 632/2/6 633/2/6 634/2/6
f 631/2/6 632/2/6 634/2/6
f 634/2/6 633/2/6 635/2/6
f 635/2/6 633/2/6 636/2/6
f 628/2/6 634/2/6 637/2/6
f 634/4/6 635/4/6 638/4/6
f 637/2/6 634/2/6 638/2/6
f 638/4/6 635/4/6 639/4/6
f 640/3/6 641/3/6 643/3/6
f 641/2/6 642/2/6 644/2/6
f 643/3/6 641/3/6 644/3/6
f 644/2/6 642/2/6 645/2/6
f 646/2/6 647/2/6 650/2/6
f 650/2/6 647/2/6 651/2/6
f 648/2/6 649/2/6 652/2/6
f 652/2/6 649/2/6 653/2/6
f 651/2/6 647/2/6 656/2/6
f 654/2/6 655/2/6 658/2/6
f 658/2/6 655/2/6 659/2/6
f 660/2/6 661/2/6 662/2/6
f 662/2/6 661/2/6 663/2/6
f 656/2/6 657/2/6 664/2/6
f 651/2/6 656/2/6 664/2/6
f 664/2/6 657/2/6 665/2/6
f 666/2/6 667/2/6 668/2/6
f 668/2/6 667/2/6 669/2/6
f 651/2/6 664/2/6 671/2/6
f 670/2/6 671/2/6 672/2/6
f 671/2/6 664/2/6 673/2/6
f 672/2/6 671/2/6 673/2/6
f 674/2/6 675/2/6 676/2/6
f 676/2/6 675/2/6 677/2/6
f 678/2/6 679/2/6 680/2/6
f 680/2/6 679/2/6 681/2/6
f 682/2/6 683/2/6 684/2/6
f 684/2/6 683/2/6 685/2/6
f 685/2/6 683/2/6 687/2/6
f 686/2/6 687/2/6 688/2/6
f 687/2/6 683/2/6 689/2/6
f 688/2/6 687/2/6 689/2/6
f 690/2/6 691/2/6 692/2/6
f 692/2/6 691/2/6 693/2/6
f 693/2/6 691/2/6 695/2/6
f 694/2/6 695/2/6 696/2/6
f 695/2/6 691/2/6 697/2/6
f 696/2/6 695/2/6 697/2/6
f 698/4/6 699/4/6 700/4/6
f 700/4/6 699/4/6 701/4/6
f 702/2/6 703/2/6 704/2/6
f 704/2/6 703/2/6 705/2/6
f 706/2/6 707/2/6 708/2/6
f 706/2/6 708/2/6 710/2/6
f 708/2/6 709/2/6 710/2/6
f 710/2/6 709/2/6 711/2/6
f 706/2/6 710/2/6 712/2/6
f 712/2/6 710/2/6 713/2/6
f 714/2/6 715/2/6 716/2/6
f 716/2/6 715/2/6 717/2/6
f 718/2/6 719/2/6 720/2/6
f 720/2/6 719/2/6 721/2/6
